<?xml version="1.0" encoding="UTF-8"?><svg id="_レイヤー_1" xmlns="http://www.w3.org/2000/svg" viewBox="0 0 9729.76 557.92"><defs><style>.cls-1{stroke-width:12.5px;}.cls-1,.cls-2,.cls-3,.cls-4,.cls-5,.cls-6{stroke:#000;}.cls-1,.cls-2,.cls-3,.cls-5,.cls-6{stroke-linejoin:bevel;}.cls-2{stroke-linecap:square;}.cls-2,.cls-3{stroke-width:4px;}.cls-4{stroke-linejoin:round;stroke-width:1.75px;}.cls-4,.cls-5{stroke-linecap:round;}.cls-4,.cls-7{fill-rule:evenodd;}.cls-5{stroke-width:3.25px;}.cls-6{fill:none;stroke-width:2px;}</style></defs><line class="cls-6" x1="42" y1="100.01" x2="9729.76" y2="100.01"/><line class="cls-6" x1="42" y1="125.01" x2="9729.76" y2="125.01"/><line class="cls-6" x1="42" y1="150.01" x2="9729.76" y2="150.01"/><line class="cls-6" x1="42" y1="175.01" x2="9729.76" y2="175.01"/><line class="cls-6" x1="42" y1="200.01" x2="9729.76" y2="200.01"/><line class="cls-6" x1="42" y1="362.52" x2="9729.76" y2="362.52"/><line class="cls-6" x1="42" y1="387.52" x2="9729.76" y2="387.52"/><line class="cls-6" x1="42" y1="412.53" x2="9729.76" y2="412.53"/><line class="cls-6" x1="42" y1="437.53" x2="9729.76" y2="437.53"/><line class="cls-6" x1="42" y1="462.53" x2="9729.76" y2="462.53"/><path class="cls-4" d="M5193.61,115.13c20.48-17.56,81.91-17.56,102.38,0-20.47-13.56-81.9-13.56-102.38,0"/><path class="cls-4" d="M5193.61,115.13c20.48-17.56,81.91-17.56,102.38,0-20.47-13.56-81.9-13.56-102.38,0"/><line class="cls-3" x1="44" y1="361.52" x2="44" y2="462.92"/><line class="cls-3" x1="1613.45" y1="361.52" x2="1613.45" y2="463.53"/><line class="cls-3" x1="2094.51" y1="361.52" x2="2094.51" y2="463.53"/><line class="cls-3" x1="3066.21" y1="361.52" x2="3066.21" y2="463.53"/><line class="cls-3" x1="4188.95" y1="361.52" x2="4188.95" y2="463.53"/><line class="cls-3" x1="5240.75" y1="361.52" x2="5240.75" y2="463.53"/><line class="cls-3" x1="7021.3" y1="361.52" x2="7021.3" y2="463.53"/><line class="cls-3" x1="8529.48" y1="361.52" x2="8529.48" y2="463.53"/><line class="cls-3" x1="9705.26" y1="361.52" x2="9705.26" y2="463.53"/><line class="cls-1" x1="9723.51" y1="361.52" x2="9723.51" y2="463.53"/><line class="cls-3" x1="44" y1="99.01" x2="44" y2="362.52"/><line class="cls-3" x1="1613.45" y1="99.01" x2="1613.45" y2="201.01"/><line class="cls-3" x1="2094.51" y1="99.01" x2="2094.51" y2="201.01"/><line class="cls-3" x1="3066.21" y1="99.01" x2="3066.21" y2="201.01"/><line class="cls-3" x1="4188.95" y1="99.01" x2="4188.95" y2="201.01"/><line class="cls-3" x1="5240.75" y1="99.01" x2="5240.75" y2="201.01"/><line class="cls-3" x1="7021.3" y1="99.01" x2="7021.3" y2="201.01"/><line class="cls-3" x1="8529.48" y1="99.01" x2="8529.48" y2="201.01"/><line class="cls-3" x1="9705.26" y1="99.01" x2="9705.26" y2="362.52"/><line class="cls-1" x1="9723.51" y1="99.01" x2="9723.51" y2="362.52"/><path d="M969.73,457.84c-1.18,.32-1.77-.13-1.77-1.36v-54.7c0-1.37,.53-2.05,1.57-2.05s1.56,.68,1.56,2.05v19.83l11.53-4.39c1.17-.33,1.75,.13,1.75,1.35v54.71c0,1.36-.52,2.04-1.56,2.04s-1.56-.68-1.56-2.04v-19.83l-11.52,4.39m1.36-11.23l10.16-3.91v-14.25l-10.16,3.91v14.25"/><path d="M2346.18,457.84c-1.17,.32-1.76-.13-1.76-1.36v-54.7c0-1.37,.52-2.05,1.56-2.05s1.56,.68,1.56,2.05v19.83l11.53-4.39c1.17-.33,1.75,.13,1.75,1.35v54.71c0,1.36-.52,2.04-1.56,2.04s-1.56-.68-1.56-2.04v-19.83l-11.52,4.39m1.36-11.23l10.16-3.91v-14.25l-10.16,3.91v14.25"/><path d="M2842.06,490.56c1.44-.39,2.16-.04,2.16,1.07v7.81c0,.78-.62,1.4-1.86,1.86l-3.22,1.26v14.18l2.92-1.18c1.44-.39,2.16-.03,2.16,1.08v7.81c0,.79-.62,1.4-1.86,1.85l-3.22,1.28v16.2c0,1.24-.49,1.86-1.47,1.86s-1.47-.62-1.47-1.86v-15.03l-9.28,3.7v16.11c0,1.24-.49,1.86-1.46,1.86s-1.46-.62-1.46-1.86v-14.93l-2.55,1.07c-1.36,.59-2.04,.2-2.04-1.17v-7.72c0-.64,.58-1.23,1.76-1.75l2.83-1.17v-14.26l-2.55,1.07c-1.36,.59-2.04,.2-2.04-1.17v-7.72c0-.65,.58-1.24,1.76-1.76l2.83-1.17v-16.11c0-1.24,.49-1.86,1.46-1.86s1.46,.62,1.46,1.86v14.93l9.28-3.79v-15.92c0-1.24,.49-1.86,1.47-1.86s1.47,.62,1.47,1.86v14.75l2.92-1.18m-15.14,16.89v14.27l9.28-3.81v-14.17l-9.28,3.71"/><path d="M3899.57,453.06c1.44-.39,2.16-.04,2.16,1.06v7.82c0,.78-.62,1.4-1.86,1.86l-3.22,1.26v14.17l2.92-1.17c1.44-.39,2.16-.04,2.16,1.08v7.81c0,.78-.62,1.4-1.86,1.85l-3.22,1.28v16.2c0,1.24-.49,1.86-1.47,1.86s-1.47-.62-1.47-1.86v-15.03l-9.28,3.7v16.11c0,1.24-.49,1.86-1.46,1.86s-1.46-.62-1.46-1.86v-14.94l-2.55,1.08c-1.36,.59-2.05,.19-2.05-1.17v-7.72c0-.64,.59-1.23,1.77-1.75l2.83-1.17v-14.27l-2.55,1.08c-1.36,.59-2.05,.19-2.05-1.17v-7.72c0-.65,.59-1.24,1.77-1.76l2.83-1.18v-16.11c0-1.24,.48-1.85,1.46-1.85s1.46,.61,1.46,1.85v14.94l9.28-3.79v-15.93c0-1.24,.49-1.86,1.47-1.86s1.47,.62,1.47,1.86v14.75l2.92-1.17m-15.14,16.89v14.27l9.28-3.81v-14.18l-9.28,3.72"/><path d="M5270.82,457.84c-1.18,.32-1.77-.13-1.77-1.36v-54.7c0-1.37,.53-2.05,1.57-2.05s1.56,.68,1.56,2.05v19.83l11.53-4.39c1.17-.33,1.75,.13,1.75,1.35v54.71c0,1.36-.52,2.04-1.56,2.04s-1.56-.68-1.56-2.04v-19.83l-11.52,4.39m1.36-11.23l10.16-3.91v-14.25l-10.16,3.91v14.25"/><path d="M7888.58,390.56c1.43-.4,2.15-.04,2.15,1.06v7.81c0,.78-.62,1.4-1.86,1.86l-3.22,1.27v14.17l2.93-1.17c1.43-.4,2.15-.04,2.15,1.08v7.81c0,.78-.62,1.39-1.86,1.84l-3.22,1.28v16.21c0,1.24-.49,1.86-1.46,1.86s-1.47-.62-1.47-1.86v-15.04l-9.28,3.71v16.11c0,1.24-.49,1.86-1.47,1.86s-1.46-.62-1.46-1.86v-14.94l-2.54,1.08c-1.37,.58-2.05,.19-2.05-1.17v-7.72c0-.65,.59-1.23,1.77-1.75l2.82-1.17v-14.27l-2.54,1.08c-1.37,.58-2.05,.19-2.05-1.17v-7.72c0-.66,.59-1.25,1.77-1.77l2.82-1.17v-16.11c0-1.24,.49-1.86,1.46-1.86s1.47,.62,1.47,1.86v14.94l9.28-3.8v-15.92c0-1.24,.49-1.86,1.47-1.86s1.46,.62,1.46,1.86v14.75l2.93-1.17m-15.14,16.89v14.26l9.28-3.81v-14.17l-9.28,3.72"/><path d="M981.64,165.54c1.44-.4,2.16-.04,2.16,1.06v7.81c0,.78-.62,1.4-1.86,1.86l-3.22,1.27v14.17l2.92-1.17c1.44-.4,2.16-.04,2.16,1.08v7.81c0,.78-.62,1.4-1.86,1.84l-3.22,1.28v16.2c0,1.24-.49,1.86-1.47,1.86s-1.47-.62-1.47-1.86v-15.03l-9.28,3.7v16.11c0,1.24-.49,1.86-1.46,1.86s-1.46-.62-1.46-1.86v-14.94l-2.55,1.08c-1.36,.58-2.05,.19-2.05-1.17v-7.72c0-.65,.59-1.23,1.77-1.75l2.83-1.17v-14.27l-2.55,1.08c-1.36,.58-2.05,.19-2.05-1.17v-7.72c0-.66,.59-1.24,1.77-1.77l2.83-1.17v-16.11c0-1.24,.48-1.86,1.46-1.86s1.46,.62,1.46,1.86v14.94l9.28-3.8v-15.92c0-1.24,.49-1.86,1.47-1.86s1.47,.62,1.47,1.86v14.75l2.92-1.17m-15.14,16.89v14.27l9.28-3.81v-14.17l-9.28,3.72"/><path d="M3340.63,165.54c1.44-.4,2.16-.04,2.16,1.06v7.81c0,.78-.62,1.4-1.86,1.86l-3.22,1.27v14.17l2.92-1.17c1.44-.4,2.16-.04,2.16,1.08v7.81c0,.78-.62,1.4-1.86,1.84l-3.22,1.28v16.2c0,1.24-.49,1.86-1.47,1.86s-1.47-.62-1.47-1.86v-15.03l-9.28,3.7v16.11c0,1.24-.49,1.86-1.46,1.86s-1.46-.62-1.46-1.86v-14.94l-2.55,1.08c-1.36,.58-2.05,.19-2.05-1.17v-7.72c0-.65,.59-1.23,1.77-1.75l2.83-1.17v-14.27l-2.55,1.08c-1.36,.58-2.05,.19-2.05-1.17v-7.72c0-.66,.59-1.24,1.77-1.77l2.83-1.17v-16.11c0-1.24,.48-1.86,1.46-1.86s1.46,.62,1.46,1.86v14.94l9.28-3.8v-15.92c0-1.24,.49-1.86,1.47-1.86s1.47,.62,1.47,1.86v14.75l2.92-1.17m-15.14,16.89v14.27l9.28-3.81v-14.17l-9.28,3.72"/><path d="M522.61,170.32c-1.18,.32-1.77-.13-1.77-1.36v-54.7c0-1.37,.52-2.05,1.56-2.05s1.56,.68,1.56,2.05v19.83l11.53-4.39c1.17-.32,1.75,.13,1.75,1.36v54.7c0,1.36-.52,2.05-1.56,2.05s-1.56-.68-1.56-2.05v-19.83l-11.52,4.39m1.36-11.23l10.16-3.91v-14.25l-10.16,3.91v14.25"/><path d="M2346.18,170.32c-1.17,.32-1.76-.13-1.76-1.36v-54.7c0-1.37,.52-2.05,1.56-2.05s1.56,.68,1.56,2.05v19.83l11.53-4.39c1.17-.32,1.75,.13,1.75,1.36v54.7c0,1.36-.52,2.05-1.56,2.05s-1.56-.68-1.56-2.05v-19.83l-11.52,4.39m1.36-11.23l10.16-3.91v-14.25l-10.16,3.91v14.25"/><path d="M4210.72,170.32c-1.18,.32-1.77-.13-1.77-1.36v-54.7c0-1.37,.52-2.05,1.57-2.05s1.56,.68,1.56,2.05v19.83l11.53-4.39c1.17-.32,1.75,.13,1.75,1.36v54.7c0,1.36-.52,2.05-1.56,2.05s-1.56-.68-1.56-2.05v-19.83l-11.52,4.39m1.36-11.23l10.16-3.91v-14.25l-10.16,3.91v14.25"/><line class="cls-2" x1="2846.99" y1="512.53" x2="2894.9" y2="512.53"/><line class="cls-2" x1="2846.99" y1="487.53" x2="2894.9" y2="487.53"/><line class="cls-2" x1="3102.89" y1="487.53" x2="3152.61" y2="487.53"/><line class="cls-2" x1="3670.01" y1="487.53" x2="3717.92" y2="487.53"/><line class="cls-2" x1="8563.99" y1="487.53" x2="8611.9" y2="487.53"/><line class="cls-2" x1="9151.41" y1="487.53" x2="9201.13" y2="487.53"/><line class="cls-2" x1="7888.5" y1="75.01" x2="7936.42" y2="75.01"/><line class="cls-5" x1="3112.01" y1="503.95" x2="3112.01" y2="556.29"/><line class="cls-5" x1="9160.53" y1="503.95" x2="9160.53" y2="556.29"/><line class="cls-5" x1="336.4" y1="445.33" x2="336.4" y2="362.52"/><line class="cls-5" x1="574.13" y1="445.33" x2="574.13" y2="362.52"/><line class="cls-5" x1="1021.26" y1="432.83" x2="1021.26" y2="353.15"/><line class="cls-5" x1="1332.45" y1="432.83" x2="1332.45" y2="353.15"/><line class="cls-5" x1="1686.75" y1="420.33" x2="1686.75" y2="343.77"/><line class="cls-5" x1="2162.31" y1="445.33" x2="2162.31" y2="362.52"/><line class="cls-5" x1="2397.71" y1="432.83" x2="2397.71" y2="353.15"/><line class="cls-5" x1="2676.06" y1="420.33" x2="2676.06" y2="343.77"/><line class="cls-5" x1="2885.78" y1="507.84" x2="2885.78" y2="412.53"/><line class="cls-5" x1="3142.58" y1="445.33" x2="3142.58" y2="362.52"/><line class="cls-5" x1="3708.8" y1="482.84" x2="3708.8" y2="400.03"/><line class="cls-5" x1="3938.28" y1="470.33" x2="3938.28" y2="387.52"/><line class="cls-5" x1="4262.25" y1="457.83" x2="4262.25" y2="375.02"/><line class="cls-5" x1="4809.03" y1="445.33" x2="4809.03" y2="362.52"/><line class="cls-5" x1="5322.35" y1="432.83" x2="5322.35" y2="353.15"/><line class="cls-5" x1="6248.73" y1="432.83" x2="6248.73" y2="353.15"/><line class="cls-5" x1="7089.09" y1="420.33" x2="7089.09" y2="343.77"/><line class="cls-5" x1="7897.62" y1="417.22" x2="7897.62" y2="490.66"/><line class="cls-5" x1="8147.34" y1="417.22" x2="8147.34" y2="490.66"/><line class="cls-5" x1="8602.78" y1="482.84" x2="8602.78" y2="325.02"/><line class="cls-5" x1="8903.82" y1="395.33" x2="8903.82" y2="325.02"/><line class="cls-5" x1="9191.1" y1="407.83" x2="9191.1" y2="334.4"/><line class="cls-5" x1="9401.16" y1="407.83" x2="9401.16" y2="334.4"/><line class="cls-5" x1="463.91" y1="129.7" x2="463.91" y2="212.51"/><line class="cls-5" x1="990.69" y1="191.43" x2="990.69" y2="275.02"/><line class="cls-5" x1="1657.08" y1="204.71" x2="1657.08" y2="265.64"/><line class="cls-5" x1="2271.3" y1="129.7" x2="2271.3" y2="212.51"/><line class="cls-5" x1="2575.32" y1="167.21" x2="2575.32" y2="250.02"/><line class="cls-5" x1="2646.39" y1="204.71" x2="2646.39" y2="265.64"/><line class="cls-5" x1="3349.68" y1="192.21" x2="3349.68" y2="256.27"/><line class="cls-5" x1="4779.36" y1="167.21" x2="4779.36" y2="250.02"/><line class="cls-5" x1="4904.19" y1="154.7" x2="4904.19" y2="243.76"/><line class="cls-5" x1="7144.04" y1="129.7" x2="7144.04" y2="212.51"/><line class="cls-5" x1="336.4" y1="107.81" x2="336.4" y2="43.75"/><line class="cls-5" x1="574.13" y1="145.31" x2="574.13" y2="71.88"/><line class="cls-5" x1="1021.26" y1="145.31" x2="1021.26" y2="75.01"/><line class="cls-5" x1="1101.82" y1="157.82" x2="1101.82" y2="81.26"/><line class="cls-5" x1="1332.45" y1="170.32" x2="1332.45" y2="90.63"/><line class="cls-5" x1="1687.65" y1="121.17" x2="1687.65" y2="53.13"/><line class="cls-5" x1="2162.31" y1="107.81" x2="2162.31" y2="43.75"/><line class="cls-5" x1="2397.71" y1="145.31" x2="2397.71" y2="71.88"/><line class="cls-5" x1="2676.06" y1="157.82" x2="2676.06" y2="75.01"/><line class="cls-5" x1="2814.71" y1="170.32" x2="2814.71" y2="81.26"/><line class="cls-5" x1="2885.78" y1="170.32" x2="2885.78" y2="90.63"/><line class="cls-5" x1="3142.58" y1="107.81" x2="3142.58" y2="25"/><line class="cls-5" x1="3300.57" y1="120.31" x2="3300.57" y2="31.25"/><line class="cls-5" x1="3457.11" y1="120.31" x2="3457.11" y2="31.25"/><line class="cls-5" x1="3631.03" y1="107.81" x2="3631.03" y2="25"/><line class="cls-5" x1="3708.8" y1="120.31" x2="3708.8" y2="50"/><line class="cls-5" x1="3786.56" y1="120.31" x2="3786.56" y2="50"/><line class="cls-5" x1="4262.25" y1="145.31" x2="4262.25" y2="71.88"/><line class="cls-5" x1="4809.03" y1="132.81" x2="4809.03" y2="62.5"/><line class="cls-5" x1="5021.69" y1="132.81" x2="5021.69" y2="56.25"/><line class="cls-5" x1="5188.04" y1="120.31" x2="5188.04" y2="50"/><line class="cls-5" x1="5292.68" y1="129.7" x2="5292.68" y2="209.39"/><line class="cls-5" x1="6676.98" y1="129.7" x2="6676.98" y2="200.01"/><line class="cls-5" x1="6892.73" y1="129.7" x2="6892.73" y2="200.01"/><line class="cls-5" x1="7089.09" y1="107.81" x2="7089.09" y2="37.5"/><line class="cls-5" x1="7258.33" y1="107.81" x2="7258.33" y2="37.5"/><line class="cls-5" x1="7711.81" y1="107.81" x2="7711.81" y2="25"/><line class="cls-5" x1="7927.29" y1="70.31" x2="7927.29" y2="15.63"/><line class="cls-5" x1="8177" y1="82.81" x2="8177" y2="6.25"/><line class="cls-5" x1="8439.81" y1="82.81" x2="8439.81" y2="6.25"/><line class="cls-5" x1="9497.41" y1="92.2" x2="9497.41" y2="175.01"/><path d="M3117.81,510.67c1.88,0,5.84-1.95,11.87-5.86,6.02-3.9,9.57-6.52,10.64-7.86,1.08-1.33,1.61-2.52,1.61-3.56s-.42-1.97-1.27-2.78c-.85-.81-1.83-1.22-2.93-1.22-1.95,0-5.93,1.97-11.96,5.91-6.03,3.93-9.56,6.55-10.6,7.86-1.04,1.3-1.57,2.47-1.57,3.51s.41,1.97,1.23,2.78c.82,.82,1.81,1.22,2.98,1.22m18.95-24.4c5.59,0,8.39,2.4,8.39,7.21,0,2.35-.68,5.07-2.05,8.16-1.36,3.09-3.18,5.45-5.46,7.08-5.01,3.38-11.3,5.08-18.85,5.08-5.6,0-8.4-2.41-8.4-7.22,0-2.15,.66-4.82,2-8.01,1.33-3.19,3.17-5.6,5.51-7.23,5.02-3.38,11.31-5.07,18.86-5.07"/><path d="M9166.33,510.67c1.88,0,5.84-1.95,11.86-5.86,6.03-3.9,9.58-6.52,10.65-7.86,1.08-1.33,1.61-2.52,1.61-3.56s-.42-1.97-1.27-2.78c-.85-.81-1.83-1.22-2.93-1.22-1.95,0-5.94,1.97-11.96,5.91-6.03,3.93-9.56,6.55-10.6,7.86-1.04,1.3-1.57,2.47-1.57,3.51s.41,1.97,1.23,2.78c.82,.82,1.81,1.22,2.98,1.22m18.95-24.4c5.59,0,8.39,2.4,8.39,7.21,0,2.35-.68,5.07-2.05,8.16-1.36,3.09-3.18,5.45-5.46,7.08-5.01,3.38-11.3,5.08-18.85,5.08-5.6,0-8.4-2.41-8.4-7.22,0-2.15,.66-4.82,2-8.01,1.33-3.19,3.17-5.6,5.51-7.23,5.02-3.38,11.31-5.07,18.86-5.07"/><path d="M327.07,436.26c3.12,0,5.73,.78,7.81,2.35,2.08,1.56,3.12,3.8,3.12,6.73,0,4.49-2.33,8.69-6.98,12.59-4.65,3.91-9.65,5.86-14.99,5.86-3.12,0-5.76-.81-7.91-2.43-2.02-1.76-3.03-3.98-3.03-6.64,0-4.37,2.31-8.54,6.94-12.5,4.62-3.97,9.64-5.96,15.03-5.96"/><path d="M564.81,436.26c3.12,0,5.73,.78,7.81,2.35,2.08,1.56,3.12,3.8,3.12,6.73,0,4.49-2.33,8.69-6.98,12.59-4.65,3.91-9.65,5.86-14.99,5.86-3.12,0-5.76-.81-7.91-2.43-2.02-1.76-3.03-3.98-3.03-6.64,0-4.37,2.31-8.54,6.94-12.5,4.62-3.97,9.64-5.96,15.03-5.96"/><path d="M1011.93,423.76c3.13,0,5.73,.78,7.82,2.35,2.08,1.56,3.12,3.8,3.12,6.73,0,4.49-2.32,8.69-6.97,12.59-4.66,3.91-9.65,5.86-15,5.86-3.12,0-5.76-.81-7.9-2.43-2.02-1.76-3.03-3.98-3.03-6.64,0-4.37,2.31-8.54,6.93-12.5,4.63-3.97,9.64-5.96,15.03-5.96"/><path d="M1323.13,423.76c3.13,0,5.73,.78,7.81,2.35,2.09,1.56,3.13,3.8,3.13,6.73,0,4.49-2.33,8.69-6.98,12.59-4.65,3.91-9.65,5.86-14.99,5.86-3.12,0-5.76-.81-7.91-2.43-2.02-1.76-3.03-3.98-3.03-6.64,0-4.37,2.32-8.54,6.94-12.5,4.63-3.97,9.64-5.96,15.03-5.96"/><path d="M1677.42,411.26c3.13,0,5.73,.78,7.82,2.34,2.08,1.57,3.12,3.81,3.12,6.74,0,4.49-2.32,8.69-6.97,12.59-4.66,3.91-9.65,5.86-15,5.86-3.12,0-5.76-.81-7.9-2.44-2.02-1.76-3.03-3.97-3.03-6.64,0-4.36,2.31-8.53,6.93-12.5,4.63-3.96,9.64-5.95,15.03-5.95"/><path d="M2152.99,436.26c3.12,0,5.73,.78,7.81,2.35,2.08,1.56,3.12,3.8,3.12,6.73,0,4.49-2.32,8.69-6.97,12.59-4.65,3.91-9.65,5.86-15,5.86-3.12,0-5.76-.81-7.9-2.43-2.02-1.76-3.03-3.98-3.03-6.64,0-4.37,2.31-8.54,6.93-12.5,4.63-3.97,9.64-5.96,15.04-5.96"/><path d="M2388.39,423.76c3.12,0,5.73,.78,7.81,2.35,2.08,1.56,3.12,3.8,3.12,6.73,0,4.49-2.32,8.69-6.97,12.59-4.65,3.91-9.65,5.86-14.99,5.86-3.13,0-5.76-.81-7.91-2.43-2.02-1.76-3.03-3.98-3.03-6.64,0-4.37,2.31-8.54,6.94-12.5,4.62-3.97,9.63-5.96,15.03-5.96"/><path d="M2666.73,411.26c3.13,0,5.73,.78,7.82,2.34,2.08,1.57,3.12,3.81,3.12,6.74,0,4.49-2.32,8.69-6.97,12.59-4.66,3.91-9.65,5.86-15,5.86-3.12,0-5.76-.81-7.9-2.44-2.02-1.76-3.03-3.97-3.03-6.64,0-4.36,2.31-8.53,6.93-12.5,4.63-3.96,9.64-5.95,15.03-5.95"/><path d="M2876.46,498.77c3.12,0,5.72,.78,7.81,2.34,2.08,1.56,3.12,3.81,3.12,6.73,0,4.49-2.32,8.69-6.97,12.6-4.65,3.9-9.65,5.86-15,5.86-3.12,0-5.76-.81-7.9-2.44-2.02-1.76-3.03-3.97-3.03-6.64,0-4.36,2.31-8.53,6.93-12.5,4.63-3.97,9.64-5.95,15.04-5.95"/><path d="M3133.26,436.26c3.12,0,5.73,.78,7.81,2.35,2.08,1.56,3.12,3.8,3.12,6.73,0,4.49-2.32,8.69-6.97,12.59-4.65,3.91-9.65,5.86-14.99,5.86-3.13,0-5.76-.81-7.91-2.43-2.02-1.76-3.03-3.98-3.03-6.64,0-4.37,2.31-8.54,6.94-12.5,4.62-3.97,9.63-5.96,15.03-5.96"/><path d="M3699.48,473.77c3.12,0,5.73,.78,7.81,2.34,2.08,1.56,3.12,3.81,3.12,6.73,0,4.49-2.32,8.69-6.97,12.6-4.65,3.9-9.65,5.86-15,5.86-3.12,0-5.76-.82-7.9-2.44-2.02-1.76-3.03-3.98-3.03-6.64,0-4.37,2.31-8.53,6.93-12.5,4.63-3.97,9.64-5.95,15.04-5.95"/><path d="M3928.96,461.26c3.13,0,5.73,.79,7.82,2.35,2.08,1.56,3.12,3.81,3.12,6.73,0,4.49-2.33,8.69-6.98,12.6-4.65,3.9-9.64,5.86-14.99,5.86-3.12,0-5.76-.82-7.9-2.44-2.03-1.76-3.04-3.98-3.04-6.64,0-4.37,2.32-8.53,6.94-12.5,4.63-3.97,9.64-5.96,15.03-5.96"/><path d="M4252.92,448.76c3.13,0,5.73,.78,7.82,2.35,2.08,1.56,3.12,3.8,3.12,6.73,0,4.49-2.32,8.69-6.98,12.6-4.65,3.9-9.64,5.85-14.99,5.85-3.12,0-5.76-.81-7.9-2.43-2.02-1.76-3.03-3.98-3.03-6.64,0-4.37,2.31-8.53,6.93-12.5,4.63-3.97,9.64-5.96,15.03-5.96"/><path d="M4799.71,436.26c3.12,0,5.73,.78,7.81,2.35,2.08,1.56,3.12,3.8,3.12,6.73,0,4.49-2.32,8.69-6.97,12.59-4.65,3.91-9.65,5.86-15,5.86-3.12,0-5.76-.81-7.9-2.43-2.02-1.76-3.03-3.98-3.03-6.64,0-4.37,2.31-8.54,6.93-12.5,4.63-3.97,9.64-5.96,15.04-5.96"/><path d="M5313.02,423.76c3.13,0,5.73,.78,7.82,2.35,2.08,1.56,3.12,3.8,3.12,6.73,0,4.49-2.32,8.69-6.97,12.59-4.66,3.91-9.65,5.86-15,5.86-3.12,0-5.76-.81-7.9-2.43-2.02-1.76-3.03-3.98-3.03-6.64,0-4.37,2.31-8.54,6.93-12.5,4.63-3.97,9.64-5.96,15.03-5.96"/><path d="M6239.41,423.76c3.12,0,5.73,.78,7.81,2.35,2.09,1.56,3.13,3.8,3.13,6.73,0,4.49-2.33,8.69-6.98,12.59-4.65,3.91-9.65,5.86-14.99,5.86-3.13,0-5.76-.81-7.91-2.43-2.02-1.76-3.03-3.98-3.03-6.64,0-4.37,2.31-8.54,6.94-12.5,4.62-3.97,9.63-5.96,15.03-5.96"/><path d="M7079.77,411.26c3.12,0,5.73,.78,7.81,2.34,2.08,1.57,3.12,3.81,3.12,6.74,0,4.49-2.32,8.69-6.97,12.59-4.65,3.91-9.65,5.86-14.99,5.86-3.13,0-5.76-.81-7.91-2.44-2.02-1.76-3.03-3.97-3.03-6.64,0-4.36,2.31-8.53,6.94-12.5,4.62-3.96,9.63-5.95,15.03-5.95"/><path d="M7917.97,398.76c3.12,0,5.73,.78,7.81,2.34,2.08,1.57,3.13,3.81,3.13,6.74,0,4.49-2.33,8.69-6.98,12.59-4.65,3.91-9.65,5.86-14.99,5.86-3.13,0-5.76-.81-7.91-2.44-2.02-1.76-3.03-3.97-3.03-6.64,0-4.36,2.31-8.53,6.94-12.5,4.62-3.97,9.63-5.95,15.03-5.95"/><path d="M8167.68,398.76c3.12,0,5.73,.78,7.81,2.34,2.08,1.57,3.13,3.81,3.13,6.74,0,4.49-2.33,8.69-6.98,12.59-4.65,3.91-9.65,5.86-14.99,5.86-3.13,0-5.76-.81-7.91-2.44-2.02-1.76-3.03-3.97-3.03-6.64,0-4.36,2.31-8.53,6.94-12.5,4.62-3.97,9.63-5.95,15.03-5.95"/><path d="M8593.46,473.77c3.12,0,5.72,.78,7.81,2.34,2.08,1.56,3.12,3.81,3.12,6.73,0,4.49-2.32,8.69-6.97,12.6-4.65,3.9-9.65,5.86-15,5.86-3.12,0-5.76-.82-7.9-2.44-2.02-1.76-3.03-3.98-3.03-6.64,0-4.37,2.31-8.53,6.93-12.5,4.63-3.97,9.64-5.95,15.04-5.95"/><path d="M8593.46,386.26c3.12,0,5.72,.78,7.81,2.34,2.08,1.57,3.12,3.81,3.12,6.74,0,4.49-2.32,8.69-6.97,12.59-4.65,3.91-9.65,5.86-15,5.86-3.12,0-5.76-.81-7.9-2.44-2.02-1.76-3.03-3.97-3.03-6.64,0-4.36,2.31-8.53,6.93-12.5,4.63-3.97,9.64-5.95,15.04-5.95"/><path d="M8894.5,386.26c3.13,0,5.73,.78,7.81,2.34,2.09,1.57,3.13,3.81,3.13,6.74,0,4.49-2.33,8.69-6.98,12.59-4.65,3.91-9.65,5.86-14.99,5.86-3.12,0-5.76-.81-7.91-2.44-2.02-1.76-3.03-3.97-3.03-6.64,0-4.36,2.32-8.53,6.94-12.5,4.63-3.97,9.64-5.95,15.03-5.95"/><path d="M9181.78,398.76c3.12,0,5.73,.78,7.81,2.34,2.08,1.57,3.12,3.81,3.12,6.74,0,4.49-2.32,8.69-6.97,12.59-4.65,3.91-9.65,5.86-14.99,5.86-3.13,0-5.76-.81-7.91-2.44-2.02-1.76-3.03-3.97-3.03-6.64,0-4.36,2.31-8.53,6.94-12.5,4.62-3.97,9.63-5.95,15.03-5.95"/><path d="M9391.84,398.76c3.12,0,5.73,.78,7.81,2.34,2.08,1.57,3.12,3.81,3.12,6.74,0,4.49-2.32,8.69-6.97,12.59-4.65,3.91-9.65,5.86-15,5.86-3.12,0-5.76-.81-7.9-2.44-2.02-1.76-3.03-3.97-3.03-6.64,0-4.36,2.31-8.53,6.93-12.5,4.63-3.97,9.64-5.95,15.04-5.95"/><path d="M484.25,111.24c3.12,0,5.73,.78,7.81,2.34,2.08,1.56,3.12,3.81,3.12,6.73,0,4.49-2.33,8.69-6.98,12.59s-9.65,5.86-14.99,5.86c-3.12,0-5.76-.81-7.91-2.44-2.02-1.76-3.03-3.97-3.03-6.64,0-4.36,2.31-8.53,6.94-12.5,4.62-3.97,9.64-5.95,15.03-5.95"/><path d="M996.49,223.15c1.88,0,5.84-1.95,11.86-5.86,6.03-3.91,9.58-6.53,10.65-7.86,1.07-1.33,1.61-2.52,1.61-3.56s-.42-1.97-1.27-2.78c-.85-.81-1.83-1.22-2.93-1.22-1.95,0-5.94,1.97-11.96,5.91-6.03,3.94-9.56,6.56-10.61,7.86-1.04,1.3-1.56,2.47-1.56,3.52s.41,1.97,1.23,2.78c.82,.81,1.81,1.22,2.98,1.22m18.95-24.41c5.59,0,8.39,2.41,8.39,7.22,0,2.34-.68,5.06-2.05,8.16-1.36,3.09-3.19,5.45-5.47,7.08-5.01,3.39-11.29,5.08-18.84,5.08-5.6,0-8.41-2.41-8.41-7.22,0-2.15,.67-4.82,2-8.01,1.34-3.19,3.18-5.6,5.52-7.23,5.02-3.39,11.31-5.08,18.86-5.08"/><path d="M996.49,198.15c1.88,0,5.84-1.95,11.86-5.86,6.03-3.91,9.58-6.53,10.65-7.86,1.07-1.33,1.61-2.52,1.61-3.56s-.42-1.97-1.27-2.78c-.85-.81-1.83-1.22-2.93-1.22-1.95,0-5.94,1.97-11.96,5.91-6.03,3.94-9.56,6.56-10.61,7.86-1.04,1.3-1.56,2.47-1.56,3.52s.41,1.97,1.23,2.78c.82,.81,1.81,1.22,2.98,1.22m18.95-24.41c5.59,0,8.39,2.41,8.39,7.22,0,2.34-.68,5.06-2.05,8.16-1.36,3.09-3.19,5.45-5.47,7.08-5.01,3.39-11.29,5.08-18.84,5.08-5.6,0-8.41-2.41-8.41-7.22,0-2.15,.67-4.82,2-8.01,1.34-3.19,3.18-5.6,5.52-7.23,5.02-3.39,11.31-5.08,18.86-5.08"/><path d="M1677.42,186.25c3.13,0,5.73,.78,7.82,2.34,2.08,1.56,3.12,3.81,3.12,6.73,0,4.49-2.32,8.69-6.97,12.59-4.66,3.91-9.65,5.86-15,5.86-3.12,0-5.76-.81-7.9-2.44-2.02-1.76-3.03-3.97-3.03-6.64,0-4.36,2.31-8.53,6.93-12.5,4.63-3.97,9.64-5.95,15.03-5.95"/><path d="M2291.64,111.24c3.12,0,5.73,.78,7.81,2.34,2.08,1.56,3.13,3.81,3.13,6.73,0,4.49-2.33,8.69-6.98,12.59-4.65,3.91-9.65,5.86-14.99,5.86-3.13,0-5.76-.81-7.91-2.44-2.02-1.76-3.03-3.97-3.03-6.64,0-4.36,2.31-8.53,6.94-12.5,4.62-3.97,9.63-5.95,15.03-5.95"/><path d="M2595.67,148.74c3.12,0,5.72,.78,7.81,2.34,2.08,1.56,3.12,3.81,3.12,6.74,0,4.49-2.32,8.69-6.97,12.59-4.65,3.91-9.65,5.86-15,5.86-3.12,0-5.76-.81-7.9-2.44-2.02-1.76-3.03-3.97-3.03-6.64,0-4.36,2.31-8.53,6.93-12.5,4.63-3.97,9.64-5.95,15.04-5.95"/><path d="M2666.73,186.25c3.13,0,5.73,.78,7.82,2.34,2.08,1.56,3.12,3.81,3.12,6.73,0,4.49-2.32,8.69-6.97,12.59-4.66,3.91-9.65,5.86-15,5.86-3.12,0-5.76-.81-7.9-2.44-2.02-1.76-3.03-3.97-3.03-6.64,0-4.36,2.31-8.53,6.93-12.5,4.63-3.97,9.64-5.95,15.03-5.95"/><path d="M3370.02,173.75c3.13,0,5.73,.78,7.81,2.34,2.09,1.56,3.13,3.81,3.13,6.73,0,4.49-2.33,8.69-6.98,12.59s-9.65,5.86-14.99,5.86c-3.12,0-5.76-.81-7.91-2.44-2.02-1.76-3.03-3.97-3.03-6.64,0-4.36,2.32-8.53,6.94-12.5,4.63-3.97,9.64-5.95,15.03-5.95"/><path d="M4799.71,148.74c3.12,0,5.73,.78,7.81,2.34,2.08,1.56,3.12,3.81,3.12,6.74,0,4.49-2.32,8.69-6.97,12.59-4.65,3.91-9.65,5.86-15,5.86-3.12,0-5.76-.81-7.9-2.44-2.02-1.76-3.03-3.97-3.03-6.64,0-4.36,2.31-8.53,6.93-12.5,4.63-3.97,9.64-5.95,15.04-5.95"/><path d="M4924.53,136.24c3.13,0,5.73,.78,7.81,2.34,2.09,1.56,3.13,3.81,3.13,6.73,0,4.49-2.33,8.69-6.98,12.59-4.65,3.91-9.65,5.86-14.99,5.86-3.12,0-5.76-.81-7.91-2.44-2.02-1.76-3.03-3.97-3.03-6.64,0-4.36,2.32-8.53,6.94-12.5,4.63-3.97,9.64-5.95,15.03-5.95"/><path d="M7164.39,111.24c3.12,0,5.73,.78,7.81,2.34,2.08,1.56,3.12,3.81,3.12,6.73,0,4.49-2.32,8.69-6.97,12.59s-9.65,5.86-14.99,5.86c-3.13,0-5.76-.81-7.91-2.44-2.02-1.76-3.03-3.97-3.03-6.64,0-4.36,2.31-8.53,6.94-12.5,4.62-3.97,9.63-5.95,15.03-5.95"/><path d="M327.07,98.74c3.12,0,5.73,.78,7.81,2.34,2.08,1.56,3.12,3.81,3.12,6.74,0,4.49-2.33,8.69-6.98,12.59-4.65,3.91-9.65,5.86-14.99,5.86-3.12,0-5.76-.81-7.91-2.44-2.02-1.76-3.03-3.97-3.03-6.64,0-4.37,2.31-8.53,6.94-12.5,4.62-3.97,9.64-5.95,15.03-5.95"/><path d="M564.81,136.24c3.12,0,5.73,.78,7.81,2.34,2.08,1.56,3.12,3.81,3.12,6.73,0,4.49-2.33,8.69-6.98,12.59-4.65,3.91-9.65,5.86-14.99,5.86-3.12,0-5.76-.81-7.91-2.44-2.02-1.76-3.03-3.97-3.03-6.64,0-4.36,2.31-8.53,6.94-12.5s9.64-5.95,15.03-5.95"/><path d="M1011.93,136.24c3.13,0,5.73,.78,7.82,2.34,2.08,1.56,3.12,3.81,3.12,6.73,0,4.49-2.32,8.69-6.97,12.59-4.66,3.91-9.65,5.86-15,5.86-3.12,0-5.76-.81-7.9-2.44-2.02-1.76-3.03-3.97-3.03-6.64,0-4.36,2.31-8.53,6.93-12.5,4.63-3.97,9.64-5.95,15.03-5.95"/><path d="M1092.5,148.74c3.12,0,5.73,.78,7.81,2.34,2.08,1.56,3.13,3.81,3.13,6.74,0,4.49-2.33,8.69-6.98,12.59-4.65,3.91-9.65,5.86-14.99,5.86-3.13,0-5.76-.81-7.91-2.44-2.02-1.76-3.03-3.97-3.03-6.64,0-4.36,2.31-8.53,6.94-12.5,4.62-3.97,9.63-5.95,15.03-5.95"/><path d="M1323.13,161.24c3.13,0,5.73,.78,7.81,2.34,2.09,1.56,3.13,3.81,3.13,6.73,0,4.49-2.33,8.69-6.98,12.59-4.65,3.91-9.65,5.86-14.99,5.86-3.12,0-5.76-.81-7.91-2.44-2.02-1.76-3.03-3.97-3.03-6.64,0-4.36,2.32-8.53,6.94-12.5,4.63-3.97,9.64-5.95,15.03-5.95"/><path d="M1661.98,135.65c1.88,0,5.84-1.95,11.86-5.86,6.03-3.91,9.58-6.53,10.65-7.86,1.07-1.33,1.61-2.52,1.61-3.56s-.42-1.97-1.27-2.78c-.85-.81-1.83-1.22-2.93-1.22-1.95,0-5.94,1.97-11.96,5.91-6.03,3.94-9.56,6.56-10.61,7.86-1.04,1.3-1.56,2.47-1.56,3.52s.41,1.97,1.23,2.78c.82,.81,1.81,1.22,2.98,1.22m18.95-24.41c5.59,0,8.39,2.41,8.39,7.22,0,2.34-.68,5.06-2.05,8.16-1.36,3.09-3.19,5.45-5.47,7.08-5.01,3.39-11.29,5.08-18.84,5.08-5.6,0-8.41-2.41-8.41-7.22,0-2.15,.67-4.82,2-8.01,1.34-3.19,3.18-5.6,5.52-7.23,5.02-3.39,11.31-5.08,18.86-5.08"/><path d="M2152.99,98.74c3.12,0,5.73,.78,7.81,2.34,2.08,1.56,3.12,3.81,3.12,6.74,0,4.49-2.32,8.69-6.97,12.59-4.65,3.91-9.65,5.86-15,5.86-3.12,0-5.76-.81-7.9-2.44-2.02-1.76-3.03-3.97-3.03-6.64,0-4.37,2.31-8.53,6.93-12.5,4.63-3.97,9.64-5.95,15.04-5.95"/><path d="M2388.39,136.24c3.12,0,5.73,.78,7.81,2.34,2.08,1.56,3.12,3.81,3.12,6.73,0,4.49-2.32,8.69-6.97,12.59-4.65,3.91-9.65,5.86-14.99,5.86-3.13,0-5.76-.81-7.91-2.44-2.02-1.76-3.03-3.97-3.03-6.64,0-4.36,2.31-8.53,6.94-12.5,4.62-3.97,9.63-5.95,15.03-5.95"/><path d="M2666.73,148.74c3.13,0,5.73,.78,7.82,2.34,2.08,1.56,3.12,3.81,3.12,6.74,0,4.49-2.32,8.69-6.97,12.59-4.66,3.91-9.65,5.86-15,5.86-3.12,0-5.76-.81-7.9-2.44-2.02-1.76-3.03-3.97-3.03-6.64,0-4.36,2.31-8.53,6.93-12.5,4.63-3.97,9.64-5.95,15.03-5.95"/><path d="M2805.39,161.24c3.12,0,5.73,.78,7.81,2.34,2.08,1.56,3.12,3.81,3.12,6.73,0,4.49-2.32,8.69-6.97,12.59-4.65,3.91-9.65,5.86-14.99,5.86-3.13,0-5.76-.81-7.91-2.44-2.02-1.76-3.03-3.97-3.03-6.64,0-4.36,2.31-8.53,6.94-12.5,4.62-3.97,9.63-5.95,15.03-5.95"/><path d="M2876.46,161.24c3.12,0,5.72,.78,7.81,2.34,2.08,1.56,3.12,3.81,3.12,6.73,0,4.49-2.32,8.69-6.97,12.59-4.65,3.91-9.65,5.86-15,5.86-3.12,0-5.76-.81-7.9-2.44-2.02-1.76-3.03-3.97-3.03-6.64,0-4.36,2.31-8.53,6.93-12.5,4.63-3.97,9.64-5.95,15.04-5.95"/><path d="M3133.26,98.74c3.12,0,5.73,.78,7.81,2.34,2.08,1.56,3.12,3.81,3.12,6.74,0,4.49-2.32,8.69-6.97,12.59-4.65,3.91-9.65,5.86-14.99,5.86-3.13,0-5.76-.81-7.91-2.44-2.02-1.76-3.03-3.97-3.03-6.64,0-4.37,2.31-8.53,6.94-12.5,4.62-3.97,9.63-5.95,15.03-5.95"/><path d="M3291.25,111.24c3.13,0,5.73,.78,7.81,2.34,2.09,1.56,3.13,3.81,3.13,6.73,0,4.49-2.33,8.69-6.98,12.59-4.65,3.91-9.65,5.86-14.99,5.86-3.12,0-5.76-.81-7.91-2.44-2.02-1.76-3.03-3.97-3.03-6.64,0-4.36,2.32-8.53,6.94-12.5,4.63-3.97,9.64-5.95,15.03-5.95"/><path d="M3447.79,111.24c3.12,0,5.73,.78,7.81,2.34,2.08,1.56,3.13,3.81,3.13,6.73,0,4.49-2.33,8.69-6.98,12.59s-9.65,5.86-14.99,5.86c-3.13,0-5.76-.81-7.91-2.44-2.02-1.76-3.03-3.97-3.03-6.64,0-4.36,2.31-8.53,6.94-12.5,4.62-3.97,9.63-5.95,15.03-5.95"/><path d="M3621.71,98.74c3.12,0,5.73,.78,7.81,2.34,2.09,1.56,3.13,3.81,3.13,6.74,0,4.49-2.33,8.69-6.98,12.59-4.65,3.91-9.65,5.86-14.99,5.86-3.13,0-5.76-.81-7.91-2.44-2.02-1.76-3.03-3.97-3.03-6.64,0-4.37,2.31-8.53,6.94-12.5,4.62-3.97,9.63-5.95,15.03-5.95"/><path d="M3699.48,111.24c3.12,0,5.73,.78,7.81,2.34,2.08,1.56,3.12,3.81,3.12,6.73,0,4.49-2.32,8.69-6.97,12.59-4.65,3.91-9.65,5.86-15,5.86-3.12,0-5.76-.81-7.9-2.44-2.02-1.76-3.03-3.97-3.03-6.64,0-4.36,2.31-8.53,6.93-12.5,4.63-3.97,9.64-5.95,15.04-5.95"/><path d="M3777.24,111.24c3.13,0,5.73,.78,7.81,2.34,2.09,1.56,3.13,3.81,3.13,6.73,0,4.49-2.33,8.69-6.98,12.59-4.65,3.91-9.65,5.86-14.99,5.86-3.12,0-5.76-.81-7.91-2.44-2.02-1.76-3.03-3.97-3.03-6.64,0-4.36,2.32-8.53,6.94-12.5,4.63-3.97,9.64-5.95,15.03-5.95"/><path d="M4252.92,136.24c3.13,0,5.73,.78,7.82,2.34,2.08,1.56,3.12,3.81,3.12,6.73,0,4.49-2.32,8.69-6.98,12.59-4.65,3.91-9.64,5.86-14.99,5.86-3.12,0-5.76-.81-7.9-2.44-2.02-1.76-3.03-3.97-3.03-6.64,0-4.36,2.31-8.53,6.93-12.5,4.63-3.97,9.64-5.95,15.03-5.95"/><path d="M4799.71,123.74c3.12,0,5.73,.78,7.81,2.34,2.08,1.56,3.12,3.81,3.12,6.73,0,4.49-2.32,8.69-6.97,12.59s-9.65,5.86-15,5.86c-3.12,0-5.76-.81-7.9-2.44-2.02-1.76-3.03-3.97-3.03-6.64,0-4.36,2.31-8.53,6.93-12.5,4.63-3.97,9.64-5.95,15.04-5.95"/><path d="M5012.37,123.74c3.12,0,5.72,.78,7.81,2.34,2.08,1.56,3.12,3.81,3.12,6.73,0,4.49-2.32,8.69-6.97,12.59s-9.65,5.86-15,5.86c-3.12,0-5.76-.81-7.9-2.44-2.02-1.76-3.03-3.97-3.03-6.64,0-4.36,2.31-8.53,6.93-12.5,4.63-3.97,9.64-5.95,15.04-5.95"/><path d="M5178.72,111.24c3.12,0,5.72,.78,7.81,2.34,2.08,1.56,3.12,3.81,3.12,6.73,0,4.49-2.32,8.69-6.97,12.59-4.65,3.91-9.65,5.86-15,5.86-3.12,0-5.76-.81-7.9-2.44-2.02-1.76-3.03-3.97-3.03-6.64,0-4.36,2.31-8.53,6.93-12.5,4.63-3.97,9.64-5.95,15.04-5.95"/><path d="M5313.02,111.24c3.13,0,5.73,.78,7.82,2.34,2.08,1.56,3.12,3.81,3.12,6.73,0,4.49-2.32,8.69-6.97,12.59-4.66,3.91-9.65,5.86-15,5.86-3.12,0-5.76-.81-7.9-2.44-2.02-1.76-3.03-3.97-3.03-6.64,0-4.36,2.31-8.53,6.93-12.5,4.63-3.97,9.64-5.95,15.03-5.95"/><path d="M6697.32,111.24c3.13,0,5.73,.78,7.82,2.34,2.08,1.56,3.12,3.81,3.12,6.73,0,4.49-2.32,8.69-6.98,12.59-4.65,3.91-9.64,5.86-14.99,5.86-3.12,0-5.76-.81-7.9-2.44-2.02-1.76-3.03-3.97-3.03-6.64,0-4.36,2.31-8.53,6.93-12.5,4.63-3.97,9.64-5.95,15.03-5.95"/><path d="M6913.07,111.24c3.13,0,5.73,.78,7.82,2.34,2.08,1.56,3.12,3.81,3.12,6.73,0,4.49-2.32,8.69-6.97,12.59-4.66,3.91-9.65,5.86-15,5.86-3.12,0-5.76-.81-7.9-2.44-2.02-1.76-3.03-3.97-3.03-6.64,0-4.36,2.31-8.53,6.93-12.5,4.63-3.97,9.64-5.95,15.03-5.95"/><path d="M7079.77,98.74c3.12,0,5.73,.78,7.81,2.34,2.08,1.56,3.12,3.81,3.12,6.74,0,4.49-2.32,8.69-6.97,12.59-4.65,3.91-9.65,5.86-14.99,5.86-3.13,0-5.76-.81-7.91-2.44-2.02-1.76-3.03-3.97-3.03-6.64,0-4.37,2.31-8.53,6.94-12.5,4.62-3.97,9.63-5.95,15.03-5.95"/><path d="M7249.01,98.74c3.12,0,5.73,.78,7.81,2.34,2.08,1.56,3.12,3.81,3.12,6.74,0,4.49-2.32,8.69-6.97,12.59-4.65,3.91-9.65,5.86-14.99,5.86-3.13,0-5.77-.81-7.91-2.44-2.02-1.76-3.03-3.97-3.03-6.64,0-4.37,2.31-8.53,6.94-12.5,4.62-3.97,9.63-5.95,15.03-5.95"/><path d="M7702.48,98.74c3.13,0,5.73,.78,7.82,2.34,2.08,1.56,3.12,3.81,3.12,6.74,0,4.49-2.32,8.69-6.97,12.59-4.66,3.91-9.65,5.86-15,5.86-3.12,0-5.76-.81-7.9-2.44-2.02-1.76-3.03-3.97-3.03-6.64,0-4.37,2.31-8.53,6.93-12.5,4.63-3.97,9.64-5.95,15.03-5.95"/><path d="M7917.97,61.24c3.12,0,5.73,.78,7.81,2.34,2.08,1.56,3.13,3.81,3.13,6.73,0,4.49-2.33,8.69-6.98,12.59-4.65,3.91-9.65,5.86-14.99,5.86-3.13,0-5.76-.81-7.91-2.44-2.02-1.76-3.03-3.97-3.03-6.64,0-4.36,2.31-8.53,6.94-12.5,4.62-3.97,9.63-5.95,15.03-5.95"/><path d="M8167.68,73.74c3.12,0,5.73,.78,7.81,2.34,2.08,1.56,3.13,3.81,3.13,6.73,0,4.49-2.33,8.69-6.98,12.59-4.65,3.91-9.65,5.86-14.99,5.86-3.13,0-5.76-.81-7.91-2.44-2.02-1.76-3.03-3.97-3.03-6.64,0-4.36,2.31-8.53,6.94-12.5,4.62-3.97,9.63-5.95,15.03-5.95"/><path d="M8430.49,73.74c3.12,0,5.73,.78,7.81,2.34,2.08,1.56,3.13,3.81,3.13,6.73,0,4.49-2.33,8.69-6.98,12.59-4.65,3.91-9.65,5.86-14.99,5.86-3.13,0-5.76-.81-7.91-2.44-2.02-1.76-3.03-3.97-3.03-6.64,0-4.36,2.31-8.53,6.94-12.5,4.62-3.97,9.63-5.95,15.03-5.95"/><path d="M9517.75,73.74c3.13,0,5.73,.78,7.81,2.34,2.09,1.56,3.13,3.81,3.13,6.73,0,4.49-2.33,8.69-6.98,12.59s-9.65,5.86-14.99,5.86c-3.13,0-5.76-.81-7.91-2.44-2.02-1.76-3.03-3.97-3.03-6.64,0-4.36,2.31-8.53,6.94-12.5,4.62-3.97,9.63-5.95,15.03-5.95"/><path d="M124.41,378.63c-.97-.98-1.46-2.18-1.46-3.61s.49-2.64,1.46-3.61c.97-.98,2.18-1.46,3.61-1.46s2.64,.48,3.62,1.46c.98,.97,1.47,2.17,1.47,3.61s-.49,2.63-1.47,3.61c-.98,.98-2.18,1.47-3.62,1.47s-2.64-.49-3.61-1.47m0,25.01c-.97-.97-1.46-2.18-1.46-3.61s.49-2.64,1.46-3.61c.97-.98,2.18-1.47,3.61-1.47s2.64,.49,3.62,1.47c.98,.97,1.47,2.18,1.47,3.61s-.49,2.64-1.47,3.61c-.98,.98-2.18,1.46-3.62,1.46s-2.64-.48-3.61-1.46m-33.88-42.38c8.66,0,15.75,2.18,21.28,6.53,5.34,4.56,8.02,10.75,8.02,18.56,0,4.75-1.01,9.49-3.03,14.21-2.02,4.73-4.66,8.84-7.91,12.36-5.93,6.57-14.02,12.52-24.27,17.86-10.26,5.34-15.92,8.01-16.99,8.01s-1.61-.42-1.61-1.27c0-.32,.13-.61,.39-.87,3.32-1.96,6.97-4.21,10.94-6.74,3.97-2.54,8.01-5.55,12.11-9.03,4.1-3.49,7.28-6.71,9.52-9.68,2.25-2.96,4.31-6.62,6.2-10.97,1.62-4.37,2.44-8.67,2.44-12.91,0-6.31-1.56-11.81-4.69-16.5-3.12-4.69-7.26-7.03-12.39-7.03-3.65,0-6.84,1.22-9.57,3.66-2.73,2.45-4.69,5.42-5.87,8.93,1.24-.52,2.38-.78,3.42-.78,2.73,0,5.07,1.01,7.02,3.03,1.95,2.02,2.93,4.4,2.93,7.14s-.94,5.21-2.83,7.43c-2.02,2.01-4.44,3.01-7.27,3.01s-5.41-1-7.76-3.01c-2.22-2.22-3.33-4.73-3.33-7.53,0-6.71,2.26-12.46,6.79-17.24,4.53-4.78,10.01-7.17,16.46-7.17"/><path d="M109.17,207.14v-2.14c-.06-1.1-.22-2.83-.48-5.17-3.25,.52-6.15,.78-8.69,.78-9.11,0-16.85-3.6-23.2-10.8s-9.52-15.78-9.52-25.73c0-2.67,.52-5.87,1.56-9.62,1.04-3.74,2-6.25,2.88-7.52,.88-1.27,2.2-3.5,3.96-6.69,.52-.98,2.21-3.13,5.08-6.45,.52-.71,.98-1.29,1.37-1.75,.39-.46,1.02-1.27,1.9-2.45s1.82-2.26,2.83-3.27c1.01-1.01,1.91-1.99,2.69-2.93,.78-.94,1.5-1.74,2.16-2.38-2.34-7.75-3.78-13.71-4.3-17.88s-.78-9.28-.78-15.34,1.3-11.56,3.91-16.51c2.53-5.14,6.08-9.33,10.64-12.59,.26-.2,.6-.3,1.02-.3s.73,.1,.93,.3c3.51,4.23,6.55,9.73,9.12,16.5,2.57,6.77,3.86,13.1,3.86,19s-1.5,11.58-4.48,17.05c-3.39,5.79-7.75,11.78-13.09,17.97,1.36,4.29,3.19,11.03,5.47,20.2h.59c.26-.06,.49-.09,.67-.09,7.37,0,13.37,2.59,18.02,7.77s6.98,11.15,6.98,17.92c0,8.4-3.48,15.17-10.44,20.31-2.02,1.5-4.4,2.67-7.14,3.52,.33,4.23,.5,7.04,.5,8.45s-.07,3.89-.2,7.48c-.06,6.11-2.15,11.35-6.25,15.72-4.1,4.36-8.79,6.55-14.06,6.55s-9.76-1.87-13.48-5.62c-3.71-3.74-5.57-8.28-5.57-13.62,0-2.8,1.08-5.18,3.23-7.14,2.21-1.95,4.69-2.92,7.46-2.92s5.03,1.01,6.79,3.03c1.82,1.89,2.73,4.16,2.73,6.83s-.91,4.91-2.73,6.73-4.01,2.73-6.55,2.73c-1.04,0-2.05-.19-3.02-.58,2.87,4.23,6.54,6.34,11.03,6.34s8.33-1.85,11.52-5.56c3.19-3.71,4.79-8.07,4.79-13.09l.28-7.03m3.12-12.3c3.39-1.24,6.07-3.44,8.06-6.59,1.99-3.16,2.98-6.3,2.98-9.42,0-4.62-1.6-8.76-4.79-12.41-3.19-3.65-7.23-5.7-12.12-6.16,2.8,13.74,4.75,25.27,5.86,34.58m-37.78-22.56c0,6.45,2.57,12.08,7.71,16.9,5.14,4.82,11.16,7.23,18.07,7.23,2.73,0,5.4-.2,8-.59-1.04-9.9-3.09-21.74-6.16-35.55-3.83,.4-6.81,1.72-8.93,3.96-2.12,2.24-3.18,4.8-3.18,7.66,0,4.95,2.64,8.95,7.92,12.02,.45,.26,.67,.7,.67,1.32s-.21,1.16-.63,1.61c-.42,.45-.8,.68-1.12,.68s-.74-.06-1.27-.19c-7.62-4.17-11.44-10.45-11.44-18.86,0-3.97,1.4-7.78,4.2-11.42,2.93-3.65,6.73-5.99,11.42-7.03-1.82-7.29-3.32-12.99-4.48-17.09-8.92,10.03-14.45,17.45-16.61,22.27-2.79,6.25-4.19,11.95-4.19,17.09m32.61-99.31c-4.89,2.41-8.74,5.89-11.57,10.45-2.83,4.56-4.24,9.34-4.24,14.35s1.17,11.49,3.52,19.44c4.69-5.67,8.23-10.97,10.64-15.92,2.41-4.95,3.61-9.85,3.61-14.7s-.65-9.39-1.95-13.62"/><path d="M159.33,455.11l-1.27-62.11c0-.98,.77-1.47,2.3-1.47s2.3,.49,2.3,1.47l-.78,33.89c1.76-1.76,3.27-2.98,4.54-3.67,1.27-.68,2.99-1.02,5.17-1.02s4.2,1.01,6.05,3.02c1.85,2.02,2.78,4.53,2.78,7.53,0,4.49-4.72,10.7-14.16,18.65-3.51,3.19-5.33,4.78-5.47,4.78h-.58c-.59,0-.89-.36-.89-1.07m2.45-25.1l-.3,22.17c2.02-1.89,4.07-5.04,6.16-9.43,2.08-4.4,3.12-8.16,3.12-11.28,0-1.57-.26-3-.78-4.3-.52-1.3-1.34-1.95-2.45-1.95s-2.1,.39-2.98,1.17c-.88,.78-1.8,1.99-2.77,3.62"/><path d="M159.33,167.59l-1.27-62.11c0-.98,.77-1.47,2.3-1.47s2.3,.49,2.3,1.47l-.78,33.89c1.76-1.76,3.27-2.98,4.54-3.66,1.27-.68,2.99-1.02,5.17-1.02s4.2,1.01,6.05,3.02c1.85,2.02,2.78,4.52,2.78,7.52,0,4.49-4.72,10.71-14.16,18.66-3.51,3.19-5.33,4.78-5.47,4.78h-.58c-.59,0-.89-.36-.89-1.08m2.45-25.09l-.3,22.17c2.02-1.9,4.07-5.04,6.16-9.44s3.12-8.16,3.12-11.28c0-1.56-.26-2.99-.78-4.3-.52-1.3-1.34-1.95-2.45-1.95s-2.1,.39-2.98,1.17-1.8,1.99-2.77,3.62"/><path d="M228.75,363.7c1.49,0,2.93-.22,4.3-.68,1.37-.45,2.35-.68,2.93-.68s.97,.36,1.17,1.07c0,.07-.07,.27-.2,.59l-28.41,33.02h16.69v-13.1c0-1.62,.95-2.79,2.84-3.51,1.95-.72,4.16-3.62,6.64-8.69,.19-.4,.48-.59,.88-.59,.78,0,1.23,.45,1.36,1.37v24.52h7.14c.91,0,1.39,.48,1.46,1.46,.07,.97-.42,1.46-1.46,1.46h-7.14v.78c0,2.6,.65,4.82,1.95,6.64,1.5,1.82,3.26,2.73,5.28,2.73,.78,0,1.17,.4,1.17,1.18s-.54,1.17-1.61,1.17-3.08-.21-6.01-.63c-2.93-.43-5.2-.64-6.79-.64s-3.81,.21-6.64,.64c-2.83,.42-4.96,.63-6.39,.63-.78,0-1.17-.39-1.17-1.17s.39-1.18,1.17-1.18c2.01,0,3.77-.91,5.27-2.73,1.36-1.88,2.05-4.1,2.05-6.64v-.78h-16.69c-.85,0-1.59-.23-2.21-.68-.62-.45-.93-.88-.93-1.27s.82-1.56,2.45-3.51c1.63-1.96,3.96-5.72,6.99-11.28,3.03-5.57,4.54-11.97,4.54-19.2,0-1.04,.46-1.56,1.38-1.56,.2,0,.51,.06,.93,.19s1.33,.35,2.74,.64c1.4,.29,2.85,.43,4.34,.43"/><path d="M228.75,413.88c1.49,0,2.93-.23,4.3-.68,1.37-.45,2.35-.68,2.93-.68s.97,.35,1.17,1.06c0,.08-.07,.27-.2,.6l-28.41,33.01h16.69v-13.09c0-1.63,.95-2.8,2.84-3.52,1.95-.72,4.16-3.61,6.64-8.69,.19-.39,.48-.59,.88-.59,.78,0,1.23,.46,1.36,1.38v24.51h7.14c.91,0,1.39,.49,1.46,1.46,.07,.98-.42,1.46-1.46,1.46h-7.14v.78c0,2.61,.65,4.82,1.95,6.65,1.5,1.82,3.26,2.73,5.28,2.73,.78,0,1.17,.39,1.17,1.17s-.54,1.17-1.61,1.17-3.08-.21-6.01-.63c-2.93-.42-5.2-.63-6.79-.63s-3.81,.21-6.64,.63-4.96,.63-6.39,.63c-.78,0-1.17-.39-1.17-1.17s.39-1.17,1.17-1.17c2.01,0,3.77-.91,5.27-2.73,1.36-1.89,2.05-4.1,2.05-6.65v-.78h-16.69c-.85,0-1.59-.22-2.21-.68-.62-.45-.93-.87-.93-1.26s.82-1.56,2.45-3.52c1.63-1.95,3.96-5.71,6.99-11.28,3.03-5.57,4.54-11.96,4.54-19.19,0-1.05,.46-1.57,1.38-1.57,.2,0,.51,.07,.93,.2s1.33,.34,2.74,.63c1.4,.29,2.85,.44,4.34,.44"/><path d="M228.75,101.19c1.49,0,2.93-.23,4.3-.68s2.35-.68,2.93-.68,.97,.35,1.17,1.06c0,.07-.07,.27-.2,.59l-28.41,33.02h16.69v-13.09c0-1.62,.95-2.8,2.84-3.52,1.95-.72,4.16-3.61,6.64-8.69,.19-.4,.48-.59,.88-.59,.78,0,1.23,.46,1.36,1.38v24.52h7.14c.91,0,1.39,.49,1.46,1.46,.07,.97-.42,1.46-1.46,1.46h-7.14v.78c0,2.6,.65,4.82,1.95,6.64,1.5,1.82,3.26,2.73,5.28,2.73,.78,0,1.17,.39,1.17,1.17s-.54,1.17-1.61,1.17-3.08-.21-6.01-.63c-2.93-.42-5.2-.63-6.79-.63s-3.81,.21-6.64,.63-4.96,.63-6.39,.63c-.78,0-1.17-.39-1.17-1.17s.39-1.17,1.17-1.17c2.01,0,3.77-.91,5.27-2.73,1.36-1.89,2.05-4.1,2.05-6.64v-.78h-16.69c-.85,0-1.59-.23-2.21-.68-.62-.45-.93-.88-.93-1.27s.82-1.56,2.45-3.52,3.96-5.71,6.99-11.28c3.03-5.57,4.54-11.97,4.54-19.2,0-1.04,.46-1.56,1.38-1.56,.2,0,.51,.07,.93,.2,.42,.13,1.33,.34,2.74,.63,1.4,.29,2.85,.44,4.34,.44"/><path d="M228.75,151.36c1.49,0,2.93-.23,4.3-.68s2.35-.68,2.93-.68,.97,.35,1.17,1.06c0,.07-.07,.27-.2,.59l-28.41,33.02h16.69v-13.09c0-1.62,.95-2.8,2.84-3.52,1.95-.72,4.16-3.61,6.64-8.69,.19-.4,.48-.59,.88-.59,.78,0,1.23,.46,1.36,1.38v24.52h7.14c.91,0,1.39,.49,1.46,1.46,.07,.97-.42,1.46-1.46,1.46h-7.14v.78c0,2.6,.65,4.82,1.95,6.64,1.5,1.82,3.26,2.73,5.28,2.73,.78,0,1.17,.39,1.17,1.17s-.54,1.17-1.61,1.17-3.08-.21-6.01-.63c-2.93-.42-5.2-.63-6.79-.63s-3.81,.21-6.64,.63-4.96,.63-6.39,.63c-.78,0-1.17-.39-1.17-1.17s.39-1.17,1.17-1.17c2.01,0,3.77-.91,5.27-2.73,1.36-1.89,2.05-4.1,2.05-6.64v-.78h-16.69c-.85,0-1.59-.23-2.21-.68-.62-.45-.93-.88-.93-1.27s.82-1.56,2.45-3.52,3.96-5.71,6.99-11.28c3.03-5.57,4.54-11.97,4.54-19.2,0-1.04,.46-1.56,1.38-1.56,.2,0,.51,.07,.93,.2,.42,.13,1.33,.34,2.74,.63,1.4,.29,2.85,.44,4.34,.44"/><path d="M1765.11,407.24c-.65-.84-.98-1.75-.98-2.73,0-1.75,2.09-4.19,6.26-7.31,4.1-3.2,6.14-6.85,6.14-10.94,0-2.42-.84-4.63-2.53-6.64l-3.51-4.2c-.26-.26-.39-.59-.39-.98s.19-.75,.57-1.07c.46-.33,.89-.5,1.28-.5s.71,.2,.97,.59l15.14,17.97c.65,.85,.97,1.77,.97,2.78s-.53,2.11-1.61,3.28c-1.07,1.17-2.58,2.54-4.53,4.1-1.5,.9-2.91,2.33-4.25,4.29-1.33,1.95-2,4.17-2,6.65s.78,4.66,2.35,6.54l8.39,9.86c.19,.2,.33,.53,.39,.98,.06,.45-.1,.84-.49,1.17-.4,.33-.7,.49-.93,.49s-.81-.37-1.75-1.12c-.95-.75-2.29-1.48-4.01-2.2-1.73-.71-3.43-1.07-5.13-1.07s-3.02,.46-4,1.37c-.97,.91-1.46,3.01-1.46,6.3s.94,6.07,2.83,8.35c.2,.26,.23,.55,.1,.87-.13,.33-.39,.49-.78,.49s-1.38-1.21-2.98-3.61c-1.6-2.41-3.13-5.26-4.6-8.55-1.46-3.29-2.19-6.04-2.19-8.25,0-2.8,1.43-4.2,4.29-4.2s6.74,1.04,11.63,3.12l-13.19-15.83"/><path d="M1910.52,412.53h-35.55c-.66,0-.98-.33-.98-.99v-13.67c0-.65,.32-.97,.98-.97h35.55c.64,0,.97,.32,.97,.97v13.67c0,.66-.33,.99-.97,.99"/><path d="M3348.44,357.24c-.65-.84-.98-1.75-.98-2.73,0-1.75,2.09-4.19,6.27-7.32,4.09-3.19,6.14-6.84,6.14-10.93,0-2.42-.85-4.63-2.54-6.64l-3.51-4.21c-.26-.26-.39-.58-.39-.97s.19-.75,.58-1.07c.45-.34,.88-.5,1.27-.5s.72,.19,.98,.59l15.14,17.97c.64,.84,.97,1.77,.97,2.78s-.54,2.1-1.61,3.27c-1.08,1.18-2.59,2.54-4.53,4.11-1.5,.9-2.92,2.33-4.25,4.28-1.34,1.96-2,4.17-2,6.65s.78,4.66,2.34,6.55l8.39,9.86c.2,.2,.33,.52,.39,.98,.06,.45-.1,.84-.49,1.17-.39,.33-.7,.49-.92,.49s-.81-.38-1.76-1.13-2.29-1.48-4.01-2.19-3.43-1.07-5.12-1.07-3.03,.45-4,1.37c-.98,.91-1.47,3.01-1.47,6.29s.95,6.07,2.83,8.35c.2,.27,.23,.56,.1,.88-.13,.32-.39,.48-.78,.48s-1.38-1.2-2.98-3.61c-1.6-2.4-3.13-5.25-4.59-8.54-1.47-3.29-2.2-6.04-2.2-8.25,0-2.8,1.43-4.21,4.3-4.21s6.74,1.05,11.62,3.13l-13.19-15.83"/><path d="M4474.21,407.24c-.65-.84-.98-1.75-.98-2.73,0-1.75,2.09-4.19,6.27-7.31,4.09-3.2,6.14-6.85,6.14-10.94,0-2.42-.85-4.63-2.54-6.64l-3.51-4.2c-.26-.26-.39-.59-.39-.98s.19-.75,.58-1.07c.45-.33,.88-.5,1.27-.5s.72,.2,.98,.59l15.14,17.97c.64,.85,.97,1.77,.97,2.78s-.54,2.11-1.61,3.28c-1.08,1.17-2.59,2.54-4.53,4.1-1.5,.9-2.92,2.33-4.25,4.29-1.34,1.95-2,4.17-2,6.65s.78,4.66,2.34,6.54l8.39,9.86c.2,.2,.33,.53,.39,.98,.06,.45-.1,.84-.49,1.17-.39,.33-.7,.49-.92,.49s-.81-.37-1.76-1.12c-.95-.75-2.29-1.48-4.01-2.2-1.72-.71-3.43-1.07-5.12-1.07s-3.03,.46-4,1.37c-.98,.91-1.47,3.01-1.47,6.3s.95,6.07,2.83,8.35c.2,.26,.23,.55,.1,.87-.13,.33-.39,.49-.78,.49s-1.38-1.21-2.98-3.61c-1.6-2.41-3.13-5.26-4.6-8.55-1.46-3.29-2.19-6.04-2.19-8.25,0-2.8,1.43-4.2,4.3-4.2s6.74,1.04,11.62,3.12l-13.19-15.83"/><path d="M4990.79,407.24c-.66-.84-.99-1.75-.99-2.73,0-1.75,2.09-4.19,6.27-7.31,4.09-3.2,6.14-6.85,6.14-10.94,0-2.42-.84-4.63-2.53-6.64l-3.52-4.2c-.26-.26-.39-.59-.39-.98s.19-.75,.58-1.07c.46-.33,.88-.5,1.27-.5s.72,.2,.98,.59l15.14,17.97c.65,.85,.97,1.77,.97,2.78s-.54,2.11-1.61,3.28c-1.07,1.17-2.58,2.54-4.53,4.1-1.5,.9-2.92,2.33-4.25,4.29-1.34,1.95-2,4.17-2,6.65s.78,4.66,2.34,6.54l8.39,9.86c.2,.2,.33,.53,.39,.98,.07,.45-.1,.84-.49,1.17-.39,.33-.7,.49-.92,.49s-.81-.37-1.76-1.12-2.28-1.48-4.01-2.2c-1.72-.71-3.43-1.07-5.12-1.07s-3.03,.46-4,1.37c-.98,.91-1.46,3.01-1.46,6.3s.94,6.07,2.83,8.35c.19,.26,.23,.55,.1,.87-.13,.33-.39,.49-.78,.49s-1.39-1.21-2.99-3.61c-1.6-2.41-3.13-5.26-4.59-8.55-1.47-3.29-2.2-6.04-2.2-8.25,0-2.8,1.43-4.2,4.3-4.2s6.74,1.04,11.62,3.12l-13.18-15.83"/><path d="M5740.86,407.24c-.66-.84-.98-1.75-.98-2.73,0-1.75,2.09-4.19,6.26-7.31,4.1-3.2,6.14-6.85,6.14-10.94,0-2.42-.84-4.63-2.53-6.64l-3.51-4.2c-.26-.26-.39-.59-.39-.98s.19-.75,.57-1.07c.46-.33,.89-.5,1.28-.5s.71,.2,.97,.59l15.14,17.97c.65,.85,.97,1.77,.97,2.78s-.53,2.11-1.61,3.28c-1.07,1.17-2.58,2.54-4.53,4.1-1.5,.9-2.91,2.33-4.25,4.29-1.33,1.95-2,4.17-2,6.65s.78,4.66,2.35,6.54l8.39,9.86c.19,.2,.32,.53,.39,.98,.06,.45-.1,.84-.49,1.17-.4,.33-.7,.49-.93,.49s-.81-.37-1.75-1.12c-.95-.75-2.29-1.48-4.01-2.2-1.73-.71-3.43-1.07-5.13-1.07s-3.02,.46-4,1.37c-.97,.91-1.46,3.01-1.46,6.3s.94,6.07,2.83,8.35c.2,.26,.23,.55,.1,.87-.13,.33-.39,.49-.78,.49s-1.39-1.21-2.98-3.61c-1.6-2.41-3.13-5.26-4.6-8.55-1.46-3.29-2.19-6.04-2.19-8.25,0-2.8,1.43-4.2,4.29-4.2s6.74,1.04,11.63,3.12l-13.19-15.83"/><path d="M6675.75,407.24c-.66-.84-.99-1.75-.99-2.73,0-1.75,2.09-4.19,6.27-7.31,4.09-3.2,6.14-6.85,6.14-10.94,0-2.42-.85-4.63-2.53-6.64l-3.52-4.2c-.26-.26-.39-.59-.39-.98s.19-.75,.58-1.07c.46-.33,.88-.5,1.27-.5s.72,.2,.98,.59l15.14,17.97c.64,.85,.97,1.77,.97,2.78s-.54,2.11-1.61,3.28-2.59,2.54-4.53,4.1c-1.5,.9-2.92,2.33-4.25,4.29-1.34,1.95-2,4.17-2,6.65s.78,4.66,2.34,6.54l8.39,9.86c.2,.2,.33,.53,.39,.98,.06,.45-.1,.84-.49,1.17-.39,.33-.7,.49-.92,.49-.23,0-.81-.37-1.76-1.12s-2.28-1.48-4.01-2.2c-1.72-.71-3.43-1.07-5.12-1.07s-3.03,.46-4,1.37c-.98,.91-1.46,3.01-1.46,6.3s.94,6.07,2.82,8.35c.2,.26,.24,.55,.11,.87-.13,.33-.39,.49-.79,.49s-1.38-1.21-2.98-3.61c-1.6-2.41-3.13-5.26-4.59-8.55-1.47-3.29-2.2-6.04-2.2-8.25,0-2.8,1.43-4.2,4.3-4.2s6.74,1.04,11.62,3.12l-13.18-15.83"/><path d="M7396.67,407.24c-.66-.84-.99-1.75-.99-2.73,0-1.75,2.09-4.19,6.27-7.31,4.09-3.2,6.14-6.85,6.14-10.94,0-2.42-.84-4.63-2.53-6.64l-3.52-4.2c-.26-.26-.39-.59-.39-.98s.19-.75,.58-1.07c.46-.33,.88-.5,1.27-.5s.72,.2,.98,.59l15.14,17.97c.65,.85,.97,1.77,.97,2.78s-.54,2.11-1.61,3.28-2.58,2.54-4.53,4.1c-1.5,.9-2.92,2.33-4.25,4.29-1.33,1.95-2,4.17-2,6.65s.78,4.66,2.34,6.54l8.39,9.86c.2,.2,.33,.53,.39,.98,.07,.45-.1,.84-.49,1.17-.39,.33-.7,.49-.92,.49s-.81-.37-1.76-1.12c-.95-.75-2.28-1.48-4.01-2.2-1.72-.71-3.43-1.07-5.12-1.07s-3.03,.46-4,1.37c-.97,.91-1.46,3.01-1.46,6.3s.94,6.07,2.83,8.35c.19,.26,.23,.55,.1,.87-.13,.33-.39,.49-.78,.49s-1.39-1.21-2.99-3.61c-1.6-2.41-3.13-5.26-4.59-8.55-1.47-3.29-2.2-6.04-2.2-8.25,0-2.8,1.44-4.2,4.3-4.2s6.74,1.04,11.63,3.12l-13.19-15.83"/><path d="M1910.52,150.01h-35.55c-.66,0-.98-.33-.98-.99v-13.67c0-.65,.32-.97,.98-.97h35.55c.64,0,.97,.32,.97,.97v13.67c0,.66-.33,.99-.97,.99"/><path d="M3372.37,67.38c-4.17,1.5-7.54,2.25-10.11,2.25s-4.71-.73-6.44-2.2c-1.73-1.46-2.59-3.29-2.59-5.47s.71-3.97,2.14-5.38c1.44-1.4,3.15-2.1,5.14-2.1s3.42,.54,4.29,1.62c.88,1.08,1.38,2.04,1.51,2.88,.13,.84,.44,1.93,.93,3.27,.49,1.33,1.16,2,2.01,2s1.95-.83,3.32-2.49c1.36-1.66,2.24-2.86,2.63-3.61,.39-.75,.9-1.11,1.52-1.08,.62,.03,1.06,.34,1.32,.92l-17.88,67c-.64,.66-1.55,.98-2.72,.98s-2.09-.33-2.75-.98l10.07-32.72c-4.37,1.56-7.82,2.34-10.35,2.34s-4.67-.73-6.4-2.2c-1.73-1.46-2.6-3.29-2.6-5.47s.7-3.97,2.1-5.37c1.41-1.4,3.1-2.09,5.08-2.09s3.43,.54,4.35,1.61c.91,1.07,1.46,2.23,1.66,3.47,.52,3.12,1.56,4.69,3.13,4.69,.78,0,1.89-.91,3.32-2.73,1.49-1.7,2.4-3.04,2.74-4.02l4.58-15.14"/><path d="M3907.38,144.73c-.65-.84-.98-1.76-.98-2.73,0-1.75,2.09-4.19,6.27-7.31,4.09-3.2,6.14-6.84,6.14-10.94,0-2.42-.85-4.63-2.53-6.64l-3.52-4.2c-.26-.26-.39-.59-.39-.98s.19-.75,.58-1.07c.46-.33,.88-.5,1.27-.5s.72,.2,.98,.59l15.14,17.97c.64,.84,.97,1.77,.97,2.78s-.54,2.1-1.61,3.27c-1.08,1.17-2.59,2.54-4.53,4.1-1.5,.91-2.92,2.34-4.25,4.29-1.34,1.95-2,4.17-2,6.65s.78,4.66,2.34,6.55l8.39,9.86c.2,.2,.33,.52,.39,.98s-.1,.84-.49,1.17c-.39,.33-.7,.49-.92,.49s-.81-.38-1.76-1.12c-.95-.75-2.29-1.48-4.01-2.2-1.72-.71-3.43-1.07-5.12-1.07s-3.03,.46-4,1.37c-.98,.91-1.46,3.01-1.46,6.3s.94,6.07,2.82,8.35c.2,.26,.23,.55,.1,.88-.13,.32-.39,.48-.78,.48s-1.38-1.2-2.98-3.61c-1.6-2.41-3.13-5.26-4.59-8.55-1.47-3.29-2.2-6.04-2.2-8.25,0-2.8,1.43-4.2,4.3-4.2s6.74,1.04,11.62,3.12l-13.19-15.83"/><path d="M4474.21,144.73c-.65-.84-.98-1.76-.98-2.73,0-1.75,2.09-4.19,6.27-7.31,4.09-3.2,6.14-6.84,6.14-10.94,0-2.42-.85-4.63-2.54-6.64l-3.51-4.2c-.26-.26-.39-.59-.39-.98s.19-.75,.58-1.07c.45-.33,.88-.5,1.27-.5s.72,.2,.98,.59l15.14,17.97c.64,.84,.97,1.77,.97,2.78s-.54,2.1-1.61,3.27c-1.08,1.17-2.59,2.54-4.53,4.1-1.5,.91-2.92,2.34-4.25,4.29-1.34,1.95-2,4.17-2,6.65s.78,4.66,2.34,6.55l8.39,9.86c.2,.2,.33,.52,.39,.98s-.1,.84-.49,1.17c-.39,.33-.7,.49-.92,.49s-.81-.38-1.76-1.12c-.95-.75-2.29-1.48-4.01-2.2-1.72-.71-3.43-1.07-5.12-1.07s-3.03,.46-4,1.37c-.98,.91-1.47,3.01-1.47,6.3s.95,6.07,2.83,8.35c.2,.26,.23,.55,.1,.88-.13,.32-.39,.48-.78,.48s-1.38-1.2-2.98-3.61c-1.6-2.41-3.13-5.26-4.6-8.55-1.46-3.29-2.19-6.04-2.19-8.25,0-2.8,1.43-4.2,4.3-4.2s6.74,1.04,11.62,3.12l-13.19-15.83"/><path d="M5740.86,144.73c-.66-.84-.98-1.76-.98-2.73,0-1.75,2.09-4.19,6.26-7.31,4.1-3.2,6.14-6.84,6.14-10.94,0-2.42-.84-4.63-2.53-6.64l-3.51-4.2c-.26-.26-.39-.59-.39-.98s.19-.75,.57-1.07c.46-.33,.89-.5,1.28-.5s.71,.2,.97,.59l15.14,17.97c.65,.84,.97,1.77,.97,2.78s-.53,2.1-1.61,3.27c-1.07,1.17-2.58,2.54-4.53,4.1-1.5,.91-2.91,2.34-4.25,4.29-1.33,1.95-2,4.17-2,6.65s.78,4.66,2.35,6.55l8.39,9.86c.19,.2,.32,.52,.39,.98,.06,.45-.1,.84-.49,1.17-.4,.33-.7,.49-.93,.49s-.81-.38-1.75-1.12c-.95-.75-2.29-1.48-4.01-2.2-1.73-.71-3.43-1.07-5.13-1.07s-3.02,.46-4,1.37c-.97,.91-1.46,3.01-1.46,6.3s.94,6.07,2.83,8.35c.2,.26,.23,.55,.1,.88-.13,.32-.39,.48-.78,.48s-1.39-1.2-2.98-3.61c-1.6-2.41-3.13-5.26-4.6-8.55-1.46-3.29-2.19-6.04-2.19-8.25,0-2.8,1.43-4.2,4.29-4.2s6.74,1.04,11.63,3.12l-13.19-15.83"/><path d="M6217.83,144.73c-.65-.84-.98-1.76-.98-2.73,0-1.75,2.09-4.19,6.26-7.31,4.1-3.2,6.14-6.84,6.14-10.94,0-2.42-.84-4.63-2.53-6.64l-3.51-4.2c-.26-.26-.39-.59-.39-.98s.19-.75,.57-1.07c.46-.33,.89-.5,1.28-.5s.71,.2,.97,.59l15.14,17.97c.65,.84,.97,1.77,.97,2.78s-.53,2.1-1.61,3.27c-1.07,1.17-2.58,2.54-4.53,4.1-1.5,.91-2.91,2.34-4.25,4.29-1.33,1.95-2,4.17-2,6.65s.78,4.66,2.35,6.55l8.39,9.86c.2,.2,.33,.52,.39,.98,.06,.45-.1,.84-.49,1.17s-.7,.49-.93,.49-.81-.38-1.75-1.12c-.95-.75-2.29-1.48-4.01-2.2-1.73-.71-3.43-1.07-5.13-1.07s-3.02,.46-4,1.37c-.97,.91-1.46,3.01-1.46,6.3s.95,6.07,2.83,8.35c.2,.26,.23,.55,.1,.88s-.39,.48-.78,.48-1.38-1.2-2.98-3.61c-1.6-2.41-3.13-5.26-4.6-8.55-1.46-3.29-2.19-6.04-2.19-8.25,0-2.8,1.43-4.2,4.29-4.2s6.74,1.04,11.63,3.12l-13.19-15.83"/><path d="M7415.23,142.39c-4.17,1.5-7.55,2.25-10.16,2.25s-4.77-.73-6.5-2.2c-1.73-1.46-2.59-3.29-2.59-5.47s.72-3.97,2.15-5.38c1.43-1.4,3.12-2.1,5.08-2.1s3.42,.55,4.4,1.66c.97,1.11,1.51,2.17,1.61,3.18,.1,1.01,.41,2.13,.93,3.36,.59,1.04,1.28,1.56,2.1,1.56s1.9-.76,3.27-2.29c1.37-1.53,2.28-2.73,2.73-3.61,.46-.88,1.01-1.3,1.66-1.27,.65,.03,1.11,.34,1.37,.92l-12.3,42c-.66,.66-1.57,.98-2.74,.98s-2.08-.33-2.73-.98l11.72-32.62"/><path d="M7620.21,142.39c-4.17,1.5-7.54,2.25-10.1,2.25s-4.72-.73-6.45-2.2c-1.73-1.46-2.59-3.29-2.59-5.47s.71-3.97,2.15-5.38c1.43-1.4,3.14-2.1,5.13-2.1s3.42,.54,4.3,1.62c.87,1.08,1.37,2.04,1.5,2.88s.44,1.93,.93,3.27c.49,1.33,1.16,2,2.01,2s1.96-.83,3.32-2.49c1.37-1.66,2.24-2.86,2.63-3.61,.4-.75,.9-1.11,1.52-1.08,.62,.03,1.06,.34,1.32,.92l-17.87,67c-.65,.66-1.56,.98-2.73,.98s-2.09-.33-2.74-.98l10.06-32.72c-4.37,1.56-7.82,2.34-10.35,2.34s-4.67-.73-6.4-2.2c-1.73-1.46-2.59-3.29-2.59-5.47s.7-3.97,2.1-5.37,3.09-2.09,5.08-2.09,3.43,.54,4.34,1.61c.91,1.07,1.46,2.23,1.66,3.47,.52,3.12,1.57,4.69,3.13,4.69,.78,0,1.89-.91,3.33-2.73,1.49-1.7,2.4-3.04,2.73-4.02l4.58-15.14"/><path d="M8608.02,150.01h-35.55c-.65,0-.98-.33-.98-.99v-13.67c0-.65,.33-.97,.98-.97h35.55c.64,0,.97,.32,.97,.97v13.67c0,.66-.33,.99-.97,.99"/><path d="M9160.2,144.73c-.66-.84-.99-1.76-.99-2.73,0-1.75,2.09-4.19,6.27-7.31,4.09-3.2,6.14-6.84,6.14-10.94,0-2.42-.84-4.63-2.53-6.64l-3.52-4.2c-.26-.26-.39-.59-.39-.98s.2-.75,.58-1.07c.46-.33,.88-.5,1.27-.5s.72,.2,.98,.59l15.14,17.97c.65,.84,.97,1.77,.97,2.78s-.54,2.1-1.61,3.27c-1.07,1.17-2.58,2.54-4.53,4.1-1.5,.91-2.92,2.34-4.25,4.29-1.33,1.95-2,4.17-2,6.65s.78,4.66,2.34,6.55l8.39,9.86c.2,.2,.33,.52,.39,.98,.07,.45-.1,.84-.49,1.17-.39,.33-.7,.49-.92,.49s-.81-.38-1.76-1.12c-.94-.75-2.28-1.48-4-2.2-1.73-.71-3.44-1.07-5.13-1.07s-3.03,.46-4,1.37c-.97,.91-1.46,3.01-1.46,6.3s.94,6.07,2.83,8.35c.2,.26,.23,.55,.1,.88-.13,.32-.39,.48-.78,.48s-1.39-1.2-2.99-3.61c-1.6-2.41-3.13-5.26-4.59-8.55-1.46-3.29-2.2-6.04-2.2-8.25,0-2.8,1.44-4.2,4.3-4.2s6.74,1.04,11.63,3.12l-13.19-15.83"/><path d="M9394.18,142.39c-4.17,1.5-7.53,2.25-10.1,2.25s-4.72-.73-6.45-2.2c-1.73-1.46-2.59-3.29-2.59-5.47s.72-3.97,2.15-5.38c1.43-1.4,3.14-2.1,5.13-2.1s3.42,.54,4.3,1.62c.87,1.08,1.38,2.04,1.51,2.88s.44,1.93,.92,3.27c.49,1.33,1.16,2,2.01,2s1.96-.83,3.32-2.49c1.37-1.66,2.25-2.86,2.64-3.61,.39-.75,.89-1.11,1.51-1.08,.62,.03,1.06,.34,1.32,.92l-17.87,67c-.65,.66-1.56,.98-2.73,.98s-2.09-.33-2.74-.98l10.06-32.72c-4.36,1.56-7.81,2.34-10.35,2.34s-4.67-.73-6.4-2.2c-1.73-1.46-2.59-3.29-2.59-5.47s.7-3.97,2.1-5.37,3.09-2.09,5.08-2.09,3.43,.54,4.34,1.61,1.47,2.23,1.66,3.47c.53,3.12,1.57,4.69,3.13,4.69,.78,0,1.89-.91,3.33-2.73,1.49-1.7,2.4-3.04,2.73-4.02l4.58-15.14"/><path d="M4988.52,47.27c-.98-.98-1.47-2.15-1.47-3.52s.49-2.54,1.47-3.52,2.15-1.47,3.52-1.47,2.53,.49,3.51,1.47,1.47,2.15,1.47,3.52-.49,2.54-1.47,3.52-2.15,1.47-3.51,1.47-2.54-.49-3.52-1.47"/><path class="cls-7" d="M4777.74,243.76l128.07-6.41v12.52l-128.07,6.41v-12.52"/><path class="cls-7" d="M4905.81,218.59l-33,1.65v12.52l33-1.65v-12.52"/><path class="cls-7" d="M1019.63,68.48l83.82,6.5v12.54l-83.82-6.5v-12.54"/><path class="cls-7" d="M1019.63,87.23l33,2.56v12.54l-33-2.56v-12.54"/><path class="cls-7" d="M2674.43,68.6l141.9,6.4v12.51l-141.9-6.4v-12.51"/><path class="cls-7" d="M2816.33,93.75l-33-1.49v12.51l33,1.49v-12.51"/><path class="cls-7" d="M3140.95,20.1l161.25,6.38v12.51l-161.25-6.38v-12.51"/><path class="cls-7" d="M3302.2,43.75l-33-1.31v12.51l33,1.31v-12.51"/><path class="cls-7" d="M3455.49,26.6l177.17-6.37v12.51l-177.17,6.37v-12.51"/><path class="cls-7" d="M3632.66,37.5l-33.01,1.19v12.51l33.01-1.19v-12.51"/><path class="cls-7" d="M3707.17,43.75h81.02v12.5h-81.02v-12.5"/><path class="cls-7" d="M3707.17,62.5h33.01v12.5h-33.01v-12.5"/><path class="cls-7" d="M5020.06,50.12l169.6-6.37v12.51l-169.6,6.37v-12.51"/><path class="cls-7" d="M5189.66,62.5l-33,1.24v12.51l33-1.24v-12.51"/><path class="cls-7" d="M6675.36,193.76h219v12.5h-219v-12.5"/><path class="cls-7" d="M6894.36,175.01h-33.01v12.5h33.01v-12.5"/><path class="cls-7" d="M7087.46,31.25h172.49v12.5h-172.49v-12.5"/><path class="cls-7" d="M8175.38,0h266.05V12.5h-266.05V0"/><path class="cls-7" d="M8441.43,18.75h-33v12.5h33v-12.5"/><path d="M465.41,192.5c10.16-5.86,16.64-11.37,19.44-16.52,1.3-2.41,1.95-4.8,1.95-7.17s-.46-4.73-1.38-7.08c-.71,.91-2.61,2.79-5.7,5.66-3.09,2.86-5.54,5.26-7.33,7.18s-3.4,4.27-4.84,7.03c-1.43,2.77-2.15,5.58-2.15,8.45v2.45m26.86-46.3c0,3.91-1.24,7.78-3.72,11.62,1.64,3.45,2.45,6.91,2.45,10.4s-.91,6.92-2.73,10.3c-1.82,3.39-3.91,6.18-6.25,8.39l-7.62,7.42c-5.99,6.12-8.98,12.18-8.98,18.17h-3.12v-50h3.12v7.52c15.1-7.88,22.66-15.82,22.66-23.83,0-1.76-.45-3.81-1.36-6.16v-.39c0-.65,.23-1.2,.68-1.66s1.01-.69,1.66-.69c1.56,0,2.54,1.99,2.92,5.97l.2,1.06c.06,.46,.09,1.08,.09,1.86"/><path d="M2272.8,192.5c10.15-5.86,16.63-11.37,19.43-16.52,1.3-2.41,1.96-4.8,1.96-7.17s-.46-4.73-1.38-7.08c-.71,.91-2.61,2.79-5.7,5.66-3.1,2.86-5.54,5.26-7.33,7.18s-3.4,4.27-4.84,7.03c-1.43,2.77-2.14,5.58-2.14,8.45v2.45m26.85-46.3c0,3.91-1.24,7.78-3.71,11.62,1.63,3.45,2.45,6.91,2.45,10.4s-.91,6.92-2.74,10.3c-1.82,3.39-3.9,6.18-6.25,8.39l-7.62,7.42c-5.99,6.12-8.98,12.18-8.98,18.17h-3.13v-50h3.13v7.52c15.1-7.88,22.65-15.82,22.65-23.83,0-1.76-.45-3.81-1.36-6.16v-.39c0-.65,.23-1.2,.68-1.66s1.01-.69,1.67-.69c1.56,0,2.53,1.99,2.92,5.97l.2,1.06c.06,.46,.09,1.08,.09,1.86"/><path d="M2576.82,230c10.16-5.86,16.64-11.37,19.44-16.52,1.3-2.41,1.95-4.8,1.95-7.17s-.46-4.73-1.37-7.08c-.71,.91-2.61,2.79-5.71,5.66-3.09,2.86-5.53,5.26-7.32,7.18-1.8,1.92-3.41,4.27-4.84,7.03-1.43,2.77-2.15,5.58-2.15,8.45v2.45m26.86-46.3c0,3.91-1.24,7.78-3.72,11.62,1.64,3.45,2.46,6.91,2.46,10.4s-.92,6.92-2.74,10.3c-1.82,3.39-3.9,6.18-6.25,8.39l-7.62,7.42c-5.99,6.12-8.99,12.18-8.99,18.17h-3.12v-50h3.12v7.52c15.11-7.88,22.66-15.82,22.66-23.83,0-1.76-.45-3.81-1.36-6.16v-.39c0-.65,.23-1.2,.68-1.66,.45-.46,1.01-.69,1.66-.69,1.57,0,2.54,1.99,2.92,5.97l.21,1.06c.06,.46,.09,1.08,.09,1.86"/><path d="M7165.17,140.15c1.5,0,3.08,2.42,4.74,7.27,1.66,4.85,2.49,9.29,2.49,13.33s-.92,7.94-2.78,11.72c-1.85,3.78-4.08,7.1-6.69,9.96l-8.01,8.98c-2.47,2.86-4.65,6.15-6.54,9.86-1.89,3.71-2.84,7.45-2.84,11.23h-3.12v-25h3.12c10.94-6.91,17.81-13.03,20.61-18.36,1.37-2.6,2.05-5.24,2.05-7.91,0-6.19-1.79-12.34-5.38-18.47v-.39c0-.58,.23-1.1,.69-1.55,.46-.45,1.01-.68,1.66-.68"/><path d="M7713.31,25c0,5.86,2.41,12.28,7.23,19.23l5.86,8.59c1.95,2.68,3.64,5.71,5.07,9.09,1.43,3.39,2.15,6.67,2.15,9.86s-.78,6.44-2.34,9.77c1.95,3.97,2.93,7.84,2.93,11.62,0,5.99-1.4,12.11-4.2,18.36-.52,.78-1.12,1.17-1.8,1.17s-1.26-.23-1.72-.69c-.45-.46-.68-.98-.68-1.56v-.48c2.8-5.54,4.2-11.14,4.2-16.8,0-4.43-1.92-9.11-5.77-14.06-2.28-2.94-4.12-5.1-5.51-6.5-1.4-1.4-3.2-3.1-5.42-5.12v7.52h-3.13V25h3.13m15.32,51.66c.46-1.36,.69-3.06,.69-5.08,0-4.09-1.82-8.65-5.47-13.67-3.38-4.23-6.9-8.1-10.54-11.61,0,4.61,1.76,9.89,5.28,15.81,.84,1.44,2.45,3.75,4.83,6.94,2.37,3.19,4.11,5.72,5.21,7.61"/><path d="M9518.53,102.65c1.5,0,3.08,2.42,4.74,7.27,1.67,4.85,2.5,9.29,2.5,13.33s-.93,7.94-2.79,11.72c-1.85,3.78-4.08,7.1-6.68,9.96l-8.02,8.98c-2.47,2.86-4.65,6.15-6.54,9.86-1.89,3.71-2.83,7.45-2.83,11.23h-3.13v-25h3.13c10.93-6.91,17.8-13.03,20.61-18.36,1.36-2.6,2.04-5.24,2.04-7.91,0-6.19-1.79-12.34-5.37-18.47v-.39c0-.58,.23-1.1,.69-1.55,.45-.45,1.01-.68,1.65-.68"/><path d="M4821.07,166.52c-1.11-1.11-1.67-2.45-1.67-4.01s.56-2.9,1.67-4.01c1.11-1.11,2.44-1.67,4.01-1.67s2.89,.56,4,1.67c1.1,1.11,1.65,2.45,1.65,4.01s-.55,2.9-1.65,4.01c-1.11,1.11-2.44,1.66-4,1.66s-2.9-.55-4.01-1.66"/><path d="M7185.75,141.52c-1.11-1.11-1.67-2.45-1.67-4.01s.56-2.9,1.67-4.01,2.44-1.66,4.01-1.66,2.89,.55,4,1.66c1.1,1.11,1.65,2.45,1.65,4.01s-.55,2.9-1.65,4.01c-1.11,1.11-2.44,1.66-4,1.66s-2.9-.55-4.01-1.66"/><path d="M1113.86,166.52c-1.11-1.11-1.66-2.45-1.66-4.01s.55-2.9,1.66-4.01c1.11-1.11,2.44-1.67,4.01-1.67s2.89,.56,4,1.67c1.1,1.11,1.65,2.45,1.65,4.01s-.55,2.9-1.65,4.01c-1.11,1.11-2.44,1.66-4,1.66s-2.9-.55-4.01-1.66"/><path d="M2688.1,166.52c-1.11-1.11-1.67-2.45-1.67-4.01s.56-2.9,1.67-4.01c1.11-1.11,2.44-1.67,4-1.67s2.9,.56,4,1.67c1.11,1.11,1.66,2.45,1.66,4.01s-.55,2.9-1.66,4.01c-1.1,1.11-2.43,1.66-4,1.66s-2.89-.55-4-1.66"/><path d="M3154.62,116.51c-1.11-1.11-1.66-2.44-1.66-4.01s.55-2.9,1.66-4.01c1.11-1.11,2.44-1.66,4.01-1.66s2.89,.55,4,1.66c1.1,1.11,1.65,2.45,1.65,4.01s-.55,2.9-1.65,4.01c-1.11,1.11-2.44,1.66-4,1.66s-2.9-.55-4.01-1.66"/><path d="M3798.6,116.51c-1.11-1.11-1.66-2.44-1.66-4.01s.55-2.9,1.66-4.01c1.11-1.11,2.45-1.66,4.01-1.66s2.9,.55,4,1.66c1.11,1.11,1.66,2.45,1.66,4.01s-.55,2.9-1.66,4.01c-1.1,1.11-2.44,1.66-4,1.66s-2.9-.55-4.01-1.66"/><path d="M5033.73,141.52c-1.11-1.11-1.67-2.45-1.67-4.01s.56-2.9,1.67-4.01,2.44-1.66,4-1.66,2.9,.55,4,1.66c1.11,1.11,1.66,2.45,1.66,4.01s-.55,2.9-1.66,4.01c-1.1,1.11-2.43,1.66-4,1.66s-2.89-.55-4-1.66"/><path d="M6718.69,116.51c-1.11-1.11-1.67-2.44-1.67-4.01s.56-2.9,1.67-4.01c1.11-1.11,2.44-1.66,4-1.66s2.9,.55,4,1.66c1.11,1.11,1.66,2.45,1.66,4.01s-.55,2.9-1.66,4.01c-1.1,1.11-2.43,1.66-4,1.66s-2.89-.55-4-1.66"/><path d="M8189.04,91.51c-1.11-1.11-1.66-2.45-1.66-4.01s.55-2.9,1.66-4.01c1.11-1.11,2.45-1.66,4.01-1.66s2.89,.55,4,1.66c1.1,1.11,1.66,2.45,1.66,4.01s-.56,2.9-1.66,4.01c-1.11,1.11-2.44,1.66-4,1.66s-2.9-.55-4.01-1.66"/><path d="M9539.11,91.51c-1.11-1.11-1.66-2.45-1.66-4.01s.55-2.9,1.66-4.01c1.11-1.11,2.45-1.66,4.01-1.66s2.9,.55,4,1.66c1.1,1.11,1.66,2.45,1.66,4.01s-.56,2.9-1.66,4.01c-1.1,1.11-2.44,1.66-4,1.66s-2.9-.55-4.01-1.66"/><path class="cls-7" d="M31.55,228.98c0-29.21-20.12-57.59-20.12-85.58,0-14.09,5.49-27.78,22.4-40.03,.23-.15,.34-.41,.34-.56,0-.46-1.26-.87-2.17-.87-.46,0-1.26,.05-1.83,.41C8.23,118.08,.91,136.26,.91,154.64c0,29.62,21.49,58.21,21.49,86.6,0,14.09-5.49,27.37-22.4,39.62v.82c16.92,12.25,22.4,25.53,22.4,39.62,0,28.39-21.49,56.98-21.49,86.6,0,18.38,7.32,36.55,29.26,52.28,.57,.36,1.37,.41,1.83,.41,.91,0,2.17-.41,2.17-.87,0-.15-.12-.41-.34-.56-16.92-12.26-22.4-25.94-22.4-40.03,0-27.98,20.12-56.37,20.12-85.58,0-18.58-7.32-36.35-28.8-52.28,21.49-15.93,28.8-33.7,28.8-52.29"/></svg>