<?xml version="1.0" encoding="UTF-8"?><svg id="_レイヤー_1" xmlns="http://www.w3.org/2000/svg" viewBox="0 0 9232.85 603.63"><defs><style>.cls-1{stroke-width:12.5px;}.cls-1,.cls-2,.cls-3,.cls-4,.cls-5,.cls-6{stroke:#000;}.cls-1,.cls-2,.cls-3,.cls-5,.cls-6{stroke-linejoin:bevel;}.cls-2{stroke-linecap:square;}.cls-2,.cls-3{stroke-width:4px;}.cls-4{stroke-linejoin:round;stroke-width:1.75px;}.cls-4,.cls-5{stroke-linecap:round;}.cls-4,.cls-7{fill-rule:evenodd;}.cls-5{stroke-width:3.25px;}.cls-6{fill:none;stroke-width:2px;}</style></defs><line class="cls-6" x1="42" y1="57.88" x2="9232.85" y2="57.88"/><line class="cls-6" x1="42" y1="82.88" x2="9232.85" y2="82.88"/><line class="cls-6" x1="42" y1="107.88" x2="9232.85" y2="107.88"/><line class="cls-6" x1="42" y1="132.88" x2="9232.85" y2="132.88"/><line class="cls-6" x1="42" y1="157.89" x2="9232.85" y2="157.89"/><line class="cls-6" x1="42" y1="322.17" x2="9232.85" y2="322.17"/><line class="cls-6" x1="42" y1="347.17" x2="9232.85" y2="347.17"/><line class="cls-6" x1="42" y1="372.17" x2="9232.85" y2="372.17"/><line class="cls-6" x1="42" y1="397.18" x2="9232.85" y2="397.18"/><line class="cls-6" x1="42" y1="422.18" x2="9232.85" y2="422.18"/><path class="cls-4" d="M3119.31,158.78c17.72,11.47,70.89,11.47,88.61,0-17.72,15.47-70.89,15.47-88.61,0"/><path class="cls-4" d="M8025.19,167.76c17.19,11.07,68.78,11.07,85.97,0-17.19,15.07-68.78,15.07-85.97,0"/><path class="cls-4" d="M3119.31,158.78c17.72,11.47,70.89,11.47,88.61,0-17.72,15.47-70.89,15.47-88.61,0"/><path class="cls-4" d="M8025.19,167.76c17.19,11.07,68.78,11.07,85.97,0-17.19,15.07-68.78,15.07-85.97,0"/><path class="cls-4" d="M1968.93,192.76c27.35,18.79,109.4,18.79,136.75,0-27.35,22.79-109.4,22.79-136.75,0"/><path class="cls-4" d="M1968.93,167.76c27.35,18.79,109.4,18.79,136.75,0-27.35,22.79-109.4,22.79-136.75,0"/><path class="cls-4" d="M1968.93,110.51c27.35-22.79,109.4-22.79,136.75,0-27.35-18.79-109.4-18.79-136.75,0"/><path class="cls-4" d="M3717.52,123.01c29.13-24.14,116.51-24.14,145.64,0-29.13-20.14-116.51-20.14-145.64,0"/><path class="cls-4" d="M7043.66,185.51c40.41-32.71,161.62-32.71,202.02,0-40.4-28.71-161.61-28.71-202.02,0"/><path class="cls-4" d="M7043.66,160.51c40.41-32.71,161.62-32.71,202.02,0-40.4-28.71-161.61-28.71-202.02,0"/><path class="cls-4" d="M7286.5,185.51c17.19-15.07,68.78-15.07,85.98,0-17.2-11.07-68.79-11.07-85.98,0"/><path class="cls-4" d="M7286.5,170.39c17.19-15.07,68.78-15.07,85.98,0-17.2-11.07-68.79-11.07-85.98,0"/><path class="cls-4" d="M7413.29,145.38c18.98-16.42,75.89-16.42,94.87,0-18.98-12.42-75.89-12.42-94.87,0"/><path class="cls-4" d="M1968.93,192.76c27.35,18.79,109.4,18.79,136.75,0-27.35,22.79-109.4,22.79-136.75,0"/><path class="cls-4" d="M1968.93,167.76c27.35,18.79,109.4,18.79,136.75,0-27.35,22.79-109.4,22.79-136.75,0"/><path class="cls-4" d="M1968.93,110.51c27.35-22.79,109.4-22.79,136.75,0-27.35-18.79-109.4-18.79-136.75,0"/><path class="cls-4" d="M3717.52,123.01c29.13-24.14,116.51-24.14,145.64,0-29.13-20.14-116.51-20.14-145.64,0"/><path class="cls-4" d="M7043.66,185.51c40.41-32.71,161.62-32.71,202.02,0-40.4-28.71-161.61-28.71-202.02,0"/><path class="cls-4" d="M7043.66,160.51c40.41-32.71,161.62-32.71,202.02,0-40.4-28.71-161.61-28.71-202.02,0"/><path class="cls-4" d="M7286.5,185.51c17.19-15.07,68.78-15.07,85.98,0-17.2-11.07-68.79-11.07-85.98,0"/><path class="cls-4" d="M7286.5,170.39c17.19-15.07,68.78-15.07,85.98,0-17.2-11.07-68.79-11.07-85.98,0"/><path class="cls-4" d="M7413.29,145.38c18.98-16.42,75.89-16.42,94.87,0-18.98-12.42-75.89-12.42-94.87,0"/><line class="cls-3" x1="44" y1="321.17" x2="44" y2="435.05"/><line class="cls-3" x1="2609.52" y1="321.17" x2="2609.52" y2="423.18"/><line class="cls-3" x1="4943.77" y1="321.17" x2="4943.77" y2="423.18"/><line class="cls-3" x1="6958.64" y1="321.17" x2="6958.64" y2="423.18"/><line class="cls-3" x1="9208.35" y1="321.17" x2="9208.35" y2="423.18"/><line class="cls-1" x1="9226.6" y1="321.17" x2="9226.6" y2="423.18"/><line class="cls-3" x1="44" y1="56.88" x2="44" y2="322.17"/><line class="cls-3" x1="2609.52" y1="56.88" x2="2609.52" y2="322.17"/><line class="cls-3" x1="4943.77" y1="56.88" x2="4943.77" y2="322.17"/><line class="cls-3" x1="6958.64" y1="56.88" x2="6958.64" y2="322.17"/><line class="cls-3" x1="9208.35" y1="56.88" x2="9208.35" y2="322.17"/><line class="cls-1" x1="9226.6" y1="56.88" x2="9226.6" y2="322.17"/><line class="cls-2" x1="355.91" y1="472.18" x2="403.83" y2="472.18"/><line class="cls-2" x1="355.91" y1="447.18" x2="403.83" y2="447.18"/><line class="cls-2" x1="1457.89" y1="522.18" x2="1505.8" y2="522.18"/><line class="cls-2" x1="1457.89" y1="497.18" x2="1505.8" y2="497.18"/><line class="cls-2" x1="1457.89" y1="472.18" x2="1505.8" y2="472.18"/><line class="cls-2" x1="1457.89" y1="447.18" x2="1505.8" y2="447.18"/><line class="cls-2" x1="1800.09" y1="472.18" x2="1848" y2="472.18"/><line class="cls-2" x1="1800.09" y1="447.18" x2="1848" y2="447.18"/><line class="cls-2" x1="2102.13" y1="447.18" x2="2150.04" y2="447.18"/><line class="cls-2" x1="2351.07" y1="522.18" x2="2398.99" y2="522.18"/><line class="cls-2" x1="2351.07" y1="497.18" x2="2398.99" y2="497.18"/><line class="cls-2" x1="2351.07" y1="472.18" x2="2398.99" y2="472.18"/><line class="cls-2" x1="2351.07" y1="447.18" x2="2398.99" y2="447.18"/><line class="cls-2" x1="2668.19" y1="472.18" x2="2716.11" y2="472.18"/><line class="cls-2" x1="2668.19" y1="447.18" x2="2716.11" y2="447.18"/><line class="cls-2" x1="3850.72" y1="447.18" x2="3898.64" y2="447.18"/><line class="cls-2" x1="4416.57" y1="447.18" x2="4464.48" y2="447.18"/><line class="cls-2" x1="4972.78" y1="472.18" x2="5020.69" y2="472.18"/><line class="cls-2" x1="4972.78" y1="447.18" x2="5020.69" y2="447.18"/><line class="cls-2" x1="5976.51" y1="522.18" x2="6024.42" y2="522.18"/><line class="cls-2" x1="5976.51" y1="497.18" x2="6024.42" y2="497.18"/><line class="cls-2" x1="5976.51" y1="472.18" x2="6024.42" y2="472.18"/><line class="cls-2" x1="5976.51" y1="447.18" x2="6024.42" y2="447.18"/><line class="cls-2" x1="6241" y1="472.18" x2="6288.92" y2="472.18"/><line class="cls-2" x1="6241" y1="447.18" x2="6288.92" y2="447.18"/><line class="cls-2" x1="6477.05" y1="447.18" x2="6524.96" y2="447.18"/><line class="cls-2" x1="6713.09" y1="522.18" x2="6761.01" y2="522.18"/><line class="cls-2" x1="6713.09" y1="497.18" x2="6761.01" y2="497.18"/><line class="cls-2" x1="6713.09" y1="472.18" x2="6761.01" y2="472.18"/><line class="cls-2" x1="6713.09" y1="447.18" x2="6761.01" y2="447.18"/><line class="cls-2" x1="6988.54" y1="472.18" x2="7036.46" y2="472.18"/><line class="cls-2" x1="6988.54" y1="447.18" x2="7036.46" y2="447.18"/><line class="cls-2" x1="8107.61" y1="447.18" x2="8155.53" y2="447.18"/><line class="cls-2" x1="8615.89" y1="447.18" x2="8663.81" y2="447.18"/><line class="cls-2" x1="355.91" y1="207.89" x2="403.83" y2="207.89"/><line class="cls-2" x1="355.91" y1="182.89" x2="403.83" y2="182.89"/><line class="cls-2" x1="853.8" y1="182.89" x2="901.72" y2="182.89"/><line class="cls-2" x1="1457.89" y1="182.89" x2="1505.8" y2="182.89"/><line class="cls-2" x1="1924.56" y1="182.89" x2="1972.48" y2="182.89"/><line class="cls-2" x1="2102.13" y1="182.89" x2="2150.04" y2="182.89"/><line class="cls-2" x1="2668.19" y1="182.89" x2="2716.11" y2="182.89"/><line class="cls-2" x1="3850.72" y1="182.89" x2="3898.64" y2="182.89"/><line class="cls-2" x1="4416.57" y1="182.89" x2="4464.48" y2="182.89"/><line class="cls-2" x1="5504.41" y1="182.89" x2="5552.33" y2="182.89"/><line class="cls-2" x1="5976.51" y1="207.89" x2="6024.42" y2="207.89"/><line class="cls-2" x1="5976.51" y1="182.89" x2="6024.42" y2="182.89"/><line class="cls-2" x1="6999.29" y1="182.89" x2="7047.21" y2="182.89"/><line class="cls-2" x1="7242.13" y1="182.89" x2="7290.05" y2="182.89"/><line class="cls-2" x1="7368.93" y1="182.89" x2="7416.84" y2="182.89"/><line class="cls-2" x1="8118.36" y1="207.89" x2="8166.28" y2="207.89"/><line class="cls-2" x1="8118.36" y1="182.89" x2="8166.28" y2="182.89"/><line class="cls-2" x1="8615.89" y1="182.89" x2="8663.81" y2="182.89"/><line class="cls-5" x1="394.7" y1="467.48" x2="394.7" y2="372.17"/><line class="cls-5" x1="1496.68" y1="517.49" x2="1496.68" y2="372.17"/><line class="cls-5" x1="862.93" y1="401.87" x2="862.93" y2="478.43"/><line class="cls-5" x1="1164.97" y1="426.87" x2="1164.97" y2="497.18"/><line class="cls-5" x1="1809.21" y1="476.88" x2="1809.21" y2="565.94"/><line class="cls-5" x1="2111.25" y1="451.88" x2="2111.25" y2="583.07"/><line class="cls-5" x1="2360.2" y1="526.88" x2="2360.2" y2="597.19"/><line class="cls-5" x1="2677.32" y1="489.38" x2="2677.32" y2="540.93"/><line class="cls-5" x1="3859.85" y1="451.88" x2="3859.85" y2="506.56"/><line class="cls-5" x1="4425.69" y1="464.38" x2="4425.69" y2="515.93"/><line class="cls-5" x1="4981.9" y1="476.88" x2="4981.9" y2="528.43"/><line class="cls-5" x1="5985.63" y1="526.88" x2="5985.63" y2="578.44"/><line class="cls-5" x1="6997.67" y1="489.38" x2="6997.67" y2="540.93"/><line class="cls-5" x1="8116.74" y1="451.88" x2="8116.74" y2="506.56"/><line class="cls-5" x1="8625.02" y1="464.38" x2="8625.02" y2="515.93"/><line class="cls-5" x1="643.65" y1="417.48" x2="643.65" y2="334.67"/><line class="cls-5" x1="2984.31" y1="429.98" x2="2984.31" y2="328.42"/><line class="cls-5" x1="3243.16" y1="392.48" x2="3243.16" y2="328.42"/><line class="cls-5" x1="3564.04" y1="429.98" x2="3564.04" y2="328.42"/><line class="cls-5" x1="4196.51" y1="417.48" x2="4196.51" y2="312.8"/><line class="cls-5" x1="4714.21" y1="429.98" x2="4714.21" y2="312.8"/><line class="cls-5" x1="5307.16" y1="417.48" x2="5307.16" y2="328.42"/><line class="cls-5" x1="5543.2" y1="392.48" x2="5543.2" y2="328.42"/><line class="cls-5" x1="5779.25" y1="417.48" x2="5779.25" y2="328.42"/><line class="cls-5" x1="6279.79" y1="467.48" x2="6279.79" y2="378.42"/><line class="cls-5" x1="6515.84" y1="442.48" x2="6515.84" y2="378.42"/><line class="cls-5" x1="6751.88" y1="517.49" x2="6751.88" y2="378.42"/><line class="cls-5" x1="7280.92" y1="429.98" x2="7280.92" y2="328.42"/><line class="cls-5" x1="7534.51" y1="392.48" x2="7534.51" y2="328.42"/><line class="cls-5" x1="7866.71" y1="429.98" x2="7866.71" y2="328.42"/><line class="cls-5" x1="8399.99" y1="417.48" x2="8399.99" y2="312.8"/><line class="cls-5" x1="8984.05" y1="417.48" x2="8984.05" y2="312.8"/><line class="cls-5" x1="2677.32" y1="150.08" x2="2677.32" y2="282.89"/><line class="cls-5" x1="2954.64" y1="137.58" x2="2954.64" y2="261.59"/><line class="cls-5" x1="3084.07" y1="150.08" x2="3084.07" y2="251.64"/><line class="cls-5" x1="3213.5" y1="150.08" x2="3213.5" y2="220.39"/><line class="cls-5" x1="3534.38" y1="162.58" x2="3534.38" y2="226.64"/><line class="cls-5" x1="3859.85" y1="200.08" x2="3859.85" y2="251.64"/><line class="cls-5" x1="4425.69" y1="137.58" x2="4425.69" y2="264.14"/><line class="cls-5" x1="4684.55" y1="87.58" x2="4684.55" y2="239.14"/><line class="cls-5" x1="6997.67" y1="150.08" x2="6997.67" y2="214.14"/><line class="cls-5" x1="7989.95" y1="162.58" x2="7989.95" y2="245.39"/><line class="cls-5" x1="8116.74" y1="162.58" x2="8116.74" y2="223.51"/><line class="cls-5" x1="8625.02" y1="175.08" x2="8625.02" y2="251.64"/><line class="cls-5" x1="394.7" y1="215.69" x2="394.7" y2="70.38"/><line class="cls-5" x1="892.6" y1="190.69" x2="892.6" y2="29.75"/><line class="cls-5" x1="1496.68" y1="178.19" x2="1496.68" y2="32.88"/><line class="cls-5" x1="1963.35" y1="178.19" x2="1963.35" y2="39.13"/><line class="cls-5" x1="2140.92" y1="178.19" x2="2140.92" y2="51.63"/><line class="cls-5" x1="2389.87" y1="128.19" x2="2389.87" y2="57.88"/><line class="cls-5" x1="3711.95" y1="128.19" x2="3711.95" y2="45.38"/><line class="cls-5" x1="3889.51" y1="128.19" x2="3889.51" y2="48.5"/><line class="cls-5" x1="5011.57" y1="153.19" x2="5011.57" y2="1.62"/><line class="cls-5" x1="5543.2" y1="178.19" x2="5543.2" y2="57.88"/><line class="cls-5" x1="5779.25" y1="140.69" x2="5779.25" y2="64.13"/><line class="cls-5" x1="6015.3" y1="203.19" x2="6015.3" y2="70.38"/><line class="cls-5" x1="6751.88" y1="128.19" x2="6751.88" y2="48.5"/><line class="cls-5" x1="7038.09" y1="190.69" x2="7038.09" y2="57.88"/><line class="cls-5" x1="7280.92" y1="190.69" x2="7280.92" y2="57.88"/><line class="cls-5" x1="7407.72" y1="190.69" x2="7407.72" y2="57.88"/><line class="cls-5" x1="7534.51" y1="140.69" x2="7534.51" y2="76.63"/><line class="cls-5" x1="7866.71" y1="153.19" x2="7866.71" y2="82.88"/><line class="cls-5" x1="8157.16" y1="215.69" x2="8157.16" y2="107.88"/><line class="cls-5" x1="8654.69" y1="128.19" x2="8654.69" y2="57.88"/><line class="cls-5" x1="8984.05" y1="140.69" x2="8984.05" y2="64.13"/><path d="M385.38,458.42c3.12,0,5.73,.78,7.81,2.34,2.08,1.56,3.12,3.81,3.12,6.73,0,4.49-2.32,8.69-6.98,12.59-4.65,3.91-9.65,5.86-14.99,5.86-3.12,0-5.76-.81-7.91-2.44-2.02-1.76-3.03-3.97-3.03-6.64,0-4.36,2.31-8.53,6.94-12.5,4.62-3.97,9.64-5.95,15.03-5.95"/><path d="M1487.36,508.42c3.12,0,5.72,.78,7.81,2.34,2.08,1.56,3.12,3.81,3.12,6.73,0,4.49-2.32,8.69-6.97,12.59-4.65,3.91-9.65,5.86-15,5.86-3.12,0-5.76-.81-7.9-2.44-2.02-1.76-3.03-3.97-3.03-6.64,0-4.36,2.31-8.53,6.93-12.5,4.63-3.97,9.64-5.95,15.04-5.95"/><path d="M883.27,383.41c3.13,0,5.73,.78,7.82,2.34,2.08,1.56,3.12,3.81,3.12,6.73,0,4.49-2.32,8.69-6.98,12.59-4.65,3.91-9.64,5.86-14.99,5.86-3.12,0-5.76-.81-7.9-2.44-2.02-1.76-3.04-3.97-3.04-6.64,0-4.36,2.32-8.53,6.94-12.5,4.63-3.97,9.64-5.95,15.03-5.95"/><path d="M1185.31,408.41c3.13,0,5.73,.78,7.82,2.34,2.08,1.56,3.12,3.81,3.12,6.73,0,4.49-2.32,8.69-6.97,12.59-4.66,3.91-9.65,5.86-15,5.86-3.12,0-5.76-.81-7.9-2.44-2.02-1.76-3.03-3.97-3.03-6.64,0-4.36,2.31-8.53,6.93-12.5,4.63-3.97,9.64-5.95,15.03-5.95"/><path d="M1829.55,458.42c3.13,0,5.73,.78,7.82,2.34,2.08,1.56,3.12,3.81,3.12,6.73,0,4.49-2.32,8.69-6.97,12.59-4.66,3.91-9.65,5.86-15,5.86-3.12,0-5.76-.81-7.9-2.44-2.02-1.76-3.03-3.97-3.03-6.64,0-4.36,2.31-8.53,6.93-12.5,4.63-3.97,9.64-5.95,15.03-5.95"/><path d="M2131.6,433.41c3.12,0,5.72,.78,7.81,2.34,2.08,1.56,3.12,3.81,3.12,6.73,0,4.49-2.32,8.69-6.97,12.59-4.65,3.91-9.65,5.86-15,5.86-3.12,0-5.76-.81-7.9-2.44-2.02-1.76-3.03-3.97-3.03-6.64,0-4.36,2.31-8.53,6.93-12.5,4.63-3.97,9.64-5.95,15.04-5.95"/><path d="M2380.54,508.42c3.13,0,5.73,.78,7.82,2.34,2.08,1.56,3.12,3.81,3.12,6.73,0,4.49-2.32,8.69-6.98,12.59-4.65,3.91-9.64,5.86-14.99,5.86-3.12,0-5.76-.81-7.9-2.44-2.02-1.76-3.04-3.97-3.04-6.64,0-4.36,2.32-8.53,6.94-12.5,4.63-3.97,9.64-5.95,15.03-5.95"/><path d="M2697.66,470.92c3.13,0,5.73,.78,7.81,2.34,2.09,1.56,3.13,3.81,3.13,6.73,0,4.49-2.33,8.69-6.98,12.59-4.65,3.91-9.65,5.86-14.99,5.86-3.13,0-5.76-.81-7.91-2.44-2.02-1.76-3.03-3.97-3.03-6.64,0-4.36,2.31-8.53,6.94-12.5,4.62-3.97,9.63-5.95,15.03-5.95"/><path d="M3880.19,433.41c3.13,0,5.73,.78,7.81,2.34,2.09,1.56,3.13,3.81,3.13,6.73,0,4.49-2.33,8.69-6.98,12.59-4.65,3.91-9.65,5.86-14.99,5.86-3.13,0-5.76-.81-7.91-2.44-2.02-1.76-3.03-3.97-3.03-6.64,0-4.36,2.31-8.53,6.94-12.5,4.62-3.97,9.63-5.95,15.03-5.95"/><path d="M4446.04,445.91c3.12,0,5.73,.78,7.81,2.34,2.08,1.56,3.12,3.81,3.12,6.73,0,4.49-2.32,8.69-6.97,12.59s-9.65,5.86-14.99,5.86c-3.13,0-5.76-.81-7.91-2.44-2.02-1.76-3.03-3.97-3.03-6.64,0-4.36,2.31-8.53,6.94-12.5,4.62-3.97,9.63-5.95,15.03-5.95"/><path d="M5002.25,458.42c3.12,0,5.73,.78,7.81,2.34,2.08,1.56,3.12,3.81,3.12,6.73,0,4.49-2.32,8.69-6.97,12.59-4.65,3.91-9.65,5.86-15,5.86-3.12,0-5.76-.81-7.9-2.44-2.02-1.76-3.03-3.97-3.03-6.64,0-4.36,2.31-8.53,6.93-12.5,4.63-3.97,9.64-5.95,15.04-5.95"/><path d="M6005.98,508.42c3.12,0,5.72,.78,7.81,2.34,2.08,1.56,3.12,3.81,3.12,6.73,0,4.49-2.32,8.69-6.97,12.59s-9.65,5.86-15,5.86c-3.12,0-5.76-.81-7.9-2.44-2.02-1.76-3.03-3.97-3.03-6.64,0-4.36,2.31-8.53,6.93-12.5,4.63-3.97,9.64-5.95,15.04-5.95"/><path d="M7018.01,470.92c3.13,0,5.73,.78,7.82,2.34,2.08,1.56,3.12,3.81,3.12,6.73,0,4.49-2.32,8.69-6.98,12.59-4.65,3.91-9.64,5.86-14.99,5.86-3.12,0-5.76-.81-7.9-2.44-2.03-1.76-3.04-3.97-3.04-6.64,0-4.36,2.32-8.53,6.94-12.5,4.63-3.97,9.64-5.95,15.03-5.95"/><path d="M8137.08,433.41c3.13,0,5.73,.78,7.82,2.34,2.08,1.56,3.12,3.81,3.12,6.73,0,4.49-2.33,8.69-6.98,12.59-4.65,3.91-9.64,5.86-14.99,5.86-3.12,0-5.76-.81-7.9-2.44-2.03-1.76-3.04-3.97-3.04-6.64,0-4.36,2.32-8.53,6.94-12.5,4.63-3.97,9.64-5.95,15.03-5.95"/><path d="M8645.36,445.91c3.13,0,5.73,.78,7.82,2.34,2.08,1.56,3.12,3.81,3.12,6.73,0,4.49-2.32,8.69-6.98,12.59-4.65,3.91-9.64,5.86-14.99,5.86-3.12,0-5.76-.81-7.9-2.44-2.02-1.76-3.03-3.97-3.03-6.64,0-4.36,2.31-8.53,6.93-12.5,4.63-3.97,9.64-5.95,15.03-5.95"/><path d="M634.33,408.41c3.12,0,5.73,.78,7.81,2.34,2.08,1.56,3.12,3.81,3.12,6.73,0,4.49-2.32,8.69-6.98,12.59-4.65,3.91-9.65,5.86-14.99,5.86-3.12,0-5.76-.81-7.91-2.44-2.02-1.76-3.03-3.97-3.03-6.64,0-4.36,2.31-8.53,6.94-12.5s9.64-5.95,15.03-5.95"/><path d="M2974.99,420.91c3.12,0,5.73,.78,7.81,2.34,2.08,1.56,3.13,3.81,3.13,6.74,0,4.49-2.33,8.69-6.98,12.59-4.65,3.91-9.65,5.86-14.99,5.86-3.13,0-5.76-.81-7.91-2.44-2.02-1.76-3.03-3.97-3.03-6.64,0-4.36,2.31-8.53,6.94-12.5,4.62-3.97,9.63-5.95,15.03-5.95"/><path d="M3233.84,383.41c3.13,0,5.73,.78,7.81,2.34,2.09,1.56,3.13,3.81,3.13,6.73,0,4.49-2.33,8.69-6.98,12.59-4.65,3.91-9.65,5.86-14.99,5.86-3.13,0-5.76-.81-7.91-2.44-2.02-1.76-3.03-3.97-3.03-6.64,0-4.36,2.31-8.53,6.94-12.5,4.62-3.97,9.64-5.95,15.03-5.95"/><path d="M3554.72,420.91c3.13,0,5.73,.78,7.81,2.34,2.09,1.56,3.13,3.81,3.13,6.74,0,4.49-2.33,8.69-6.98,12.59-4.65,3.91-9.65,5.86-14.99,5.86-3.12,0-5.76-.81-7.91-2.44-2.02-1.76-3.03-3.97-3.03-6.64,0-4.36,2.32-8.53,6.94-12.5,4.63-3.97,9.64-5.95,15.03-5.95"/><path d="M4187.18,408.41c3.13,0,5.73,.78,7.82,2.34,2.08,1.56,3.12,3.81,3.12,6.73,0,4.49-2.32,8.69-6.98,12.59-4.65,3.91-9.64,5.86-14.99,5.86-3.12,0-5.76-.81-7.9-2.44-2.02-1.76-3.04-3.97-3.04-6.64,0-4.36,2.32-8.53,6.94-12.5,4.63-3.97,9.64-5.95,15.03-5.95"/><path d="M4187.18,383.41c3.13,0,5.73,.78,7.82,2.34,2.08,1.56,3.12,3.81,3.12,6.73,0,4.49-2.32,8.69-6.98,12.59-4.65,3.91-9.64,5.86-14.99,5.86-3.12,0-5.76-.81-7.9-2.44-2.02-1.76-3.04-3.97-3.04-6.64,0-4.36,2.32-8.53,6.94-12.5,4.63-3.97,9.64-5.95,15.03-5.95"/><path d="M4704.89,420.91c3.13,0,5.73,.78,7.81,2.34,2.09,1.56,3.13,3.81,3.13,6.74,0,4.49-2.33,8.69-6.98,12.59-4.65,3.91-9.65,5.86-14.99,5.86-3.13,0-5.76-.81-7.91-2.44-2.02-1.76-3.03-3.97-3.03-6.64,0-4.36,2.31-8.53,6.94-12.5,4.62-3.97,9.63-5.95,15.03-5.95"/><path d="M4734.56,408.41c3.12,0,5.73,.78,7.81,2.34,2.08,1.56,3.12,3.81,3.12,6.73,0,4.49-2.32,8.69-6.97,12.59-4.65,3.91-9.65,5.86-15,5.86-3.12,0-5.76-.81-7.9-2.44-2.02-1.76-3.03-3.97-3.03-6.64,0-4.36,2.31-8.53,6.93-12.5,4.63-3.97,9.64-5.95,15.04-5.95"/><path d="M4704.89,383.41c3.13,0,5.73,.78,7.81,2.34,2.09,1.56,3.13,3.81,3.13,6.73,0,4.49-2.33,8.69-6.98,12.59-4.65,3.91-9.65,5.86-14.99,5.86-3.13,0-5.76-.81-7.91-2.44-2.02-1.76-3.03-3.97-3.03-6.64,0-4.36,2.31-8.53,6.94-12.5,4.62-3.97,9.63-5.95,15.03-5.95"/><path d="M5297.84,408.41c3.12,0,5.73,.78,7.81,2.34,2.08,1.56,3.12,3.81,3.12,6.73,0,4.49-2.32,8.69-6.97,12.59-4.65,3.91-9.65,5.86-15,5.86-3.12,0-5.76-.81-7.9-2.44-2.02-1.76-3.03-3.97-3.03-6.64,0-4.36,2.31-8.53,6.93-12.5,4.63-3.97,9.64-5.95,15.04-5.95"/><path d="M5533.88,383.41c3.13,0,5.73,.78,7.82,2.34,2.08,1.56,3.12,3.81,3.12,6.73,0,4.49-2.33,8.69-6.98,12.59s-9.64,5.86-14.99,5.86c-3.12,0-5.76-.81-7.9-2.44-2.03-1.76-3.04-3.97-3.04-6.64,0-4.36,2.32-8.53,6.94-12.5,4.63-3.97,9.64-5.95,15.03-5.95"/><path d="M5769.93,408.41c3.12,0,5.73,.78,7.81,2.34,2.08,1.56,3.13,3.81,3.13,6.73,0,4.49-2.33,8.69-6.98,12.59-4.65,3.91-9.65,5.86-14.99,5.86-3.13,0-5.76-.81-7.91-2.44-2.02-1.76-3.03-3.97-3.03-6.64,0-4.36,2.31-8.53,6.94-12.5,4.62-3.97,9.63-5.95,15.03-5.95"/><path d="M6270.47,458.42c3.12,0,5.73,.78,7.81,2.34,2.08,1.56,3.13,3.81,3.13,6.73,0,4.49-2.33,8.69-6.98,12.59-4.65,3.91-9.65,5.86-14.99,5.86-3.13,0-5.76-.81-7.91-2.44-2.02-1.76-3.03-3.97-3.03-6.64,0-4.36,2.31-8.53,6.94-12.5,4.62-3.97,9.63-5.95,15.03-5.95"/><path d="M6506.52,433.41c3.12,0,5.72,.78,7.81,2.34,2.08,1.56,3.12,3.81,3.12,6.73,0,4.49-2.32,8.69-6.97,12.59-4.65,3.91-9.65,5.86-15,5.86-3.12,0-5.76-.81-7.9-2.44-2.02-1.76-3.03-3.97-3.03-6.64,0-4.36,2.31-8.53,6.93-12.5,4.63-3.97,9.64-5.95,15.04-5.95"/><path d="M6742.56,508.42c3.13,0,5.73,.78,7.81,2.34,2.09,1.56,3.13,3.81,3.13,6.73,0,4.49-2.33,8.69-6.98,12.59s-9.65,5.86-14.99,5.86c-3.12,0-5.76-.81-7.91-2.44-2.02-1.76-3.03-3.97-3.03-6.64,0-4.36,2.32-8.53,6.94-12.5,4.63-3.97,9.64-5.95,15.03-5.95"/><path d="M7271.6,420.91c3.13,0,5.73,.78,7.81,2.34,2.09,1.56,3.13,3.81,3.13,6.74,0,4.49-2.33,8.69-6.98,12.59-4.65,3.91-9.65,5.86-14.99,5.86-3.13,0-5.76-.81-7.91-2.44-2.02-1.76-3.03-3.97-3.03-6.64,0-4.36,2.31-8.53,6.94-12.5,4.62-3.97,9.64-5.95,15.03-5.95"/><path d="M7525.19,383.41c3.12,0,5.73,.78,7.81,2.34,2.08,1.56,3.13,3.81,3.13,6.73,0,4.49-2.33,8.69-6.98,12.59s-9.65,5.86-14.99,5.86c-3.13,0-5.76-.81-7.91-2.44-2.02-1.76-3.03-3.97-3.03-6.64,0-4.36,2.31-8.53,6.94-12.5,4.62-3.97,9.63-5.95,15.03-5.95"/><path d="M7857.39,420.91c3.12,0,5.73,.78,7.81,2.34,2.08,1.56,3.13,3.81,3.13,6.74,0,4.49-2.33,8.69-6.98,12.59-4.65,3.91-9.65,5.86-14.99,5.86-3.13,0-5.76-.81-7.91-2.44-2.02-1.76-3.03-3.97-3.03-6.64,0-4.36,2.31-8.53,6.94-12.5,4.62-3.97,9.63-5.95,15.03-5.95"/><path d="M8390.67,408.41c3.13,0,5.73,.78,7.81,2.34,2.09,1.56,3.13,3.81,3.13,6.73,0,4.49-2.33,8.69-6.98,12.59-4.65,3.91-9.65,5.86-14.99,5.86-3.13,0-5.76-.81-7.91-2.44-2.02-1.76-3.03-3.97-3.03-6.64,0-4.36,2.31-8.53,6.94-12.5,4.62-3.97,9.63-5.95,15.03-5.95"/><path d="M8390.67,383.41c3.13,0,5.73,.78,7.81,2.34,2.09,1.56,3.13,3.81,3.13,6.73,0,4.49-2.33,8.69-6.98,12.59-4.65,3.91-9.65,5.86-14.99,5.86-3.13,0-5.76-.81-7.91-2.44-2.02-1.76-3.03-3.97-3.03-6.64,0-4.36,2.31-8.53,6.94-12.5,4.62-3.97,9.63-5.95,15.03-5.95"/><path d="M8974.73,408.41c3.12,0,5.73,.78,7.81,2.34,2.08,1.56,3.12,3.81,3.12,6.73,0,4.49-2.32,8.69-6.97,12.59-4.65,3.91-9.65,5.86-15,5.86-3.12,0-5.76-.81-7.9-2.44-2.02-1.76-3.03-3.97-3.03-6.64,0-4.36,2.31-8.53,6.93-12.5,4.63-3.97,9.64-5.95,15.04-5.95"/><path d="M8974.73,383.41c3.12,0,5.73,.78,7.81,2.34,2.08,1.56,3.12,3.81,3.12,6.73,0,4.49-2.32,8.69-6.97,12.59s-9.65,5.86-15,5.86c-3.12,0-5.76-.81-7.9-2.44-2.02-1.76-3.03-3.97-3.03-6.64,0-4.36,2.31-8.53,6.93-12.5,4.63-3.97,9.64-5.95,15.04-5.95"/><path d="M2697.66,181.62c3.13,0,5.73,.78,7.81,2.34,2.09,1.56,3.13,3.81,3.13,6.73,0,4.49-2.33,8.69-6.98,12.59-4.65,3.91-9.65,5.86-14.99,5.86-3.13,0-5.76-.81-7.91-2.44-2.02-1.76-3.03-3.97-3.03-6.64,0-4.36,2.31-8.53,6.94-12.5,4.62-3.97,9.63-5.95,15.03-5.95"/><path d="M2697.66,156.62c3.13,0,5.73,.78,7.81,2.34,2.09,1.56,3.13,3.81,3.13,6.73,0,4.49-2.33,8.69-6.98,12.59-4.65,3.91-9.65,5.86-14.99,5.86-3.13,0-5.76-.81-7.91-2.44-2.02-1.76-3.03-3.97-3.03-6.64,0-4.36,2.31-8.53,6.94-12.5,4.62-3.97,9.63-5.95,15.03-5.95"/><path d="M2697.66,131.62c3.13,0,5.73,.78,7.81,2.34,2.09,1.56,3.13,3.81,3.13,6.73,0,4.49-2.33,8.69-6.98,12.59-4.65,3.91-9.65,5.86-14.99,5.86-3.13,0-5.76-.81-7.91-2.44-2.02-1.76-3.03-3.97-3.03-6.64,0-4.36,2.31-8.53,6.94-12.5,4.62-3.97,9.63-5.95,15.03-5.95"/><path d="M2974.99,119.12c3.12,0,5.73,.78,7.81,2.34,2.08,1.56,3.13,3.81,3.13,6.74,0,4.49-2.33,8.69-6.98,12.59-4.65,3.91-9.65,5.86-14.99,5.86-3.13,0-5.76-.81-7.91-2.44-2.02-1.76-3.03-3.97-3.03-6.64,0-4.36,2.31-8.53,6.94-12.5,4.62-3.97,9.63-5.95,15.03-5.95"/><path d="M3104.41,131.62c3.13,0,5.73,.78,7.82,2.34,2.08,1.56,3.12,3.81,3.12,6.73,0,4.49-2.32,8.69-6.97,12.59-4.66,3.91-9.65,5.86-15,5.86-3.12,0-5.76-.81-7.9-2.44-2.02-1.76-3.03-3.97-3.03-6.64,0-4.36,2.31-8.53,6.93-12.5,4.63-3.97,9.64-5.95,15.03-5.95"/><path d="M3233.84,131.62c3.13,0,5.73,.78,7.81,2.34,2.09,1.56,3.13,3.81,3.13,6.73,0,4.49-2.33,8.69-6.98,12.59-4.65,3.91-9.65,5.86-14.99,5.86-3.13,0-5.76-.81-7.91-2.44-2.02-1.76-3.03-3.97-3.03-6.64,0-4.36,2.31-8.53,6.94-12.5,4.62-3.97,9.64-5.95,15.03-5.95"/><path d="M3554.72,144.12c3.13,0,5.73,.78,7.81,2.34,2.09,1.56,3.13,3.81,3.13,6.73,0,4.49-2.33,8.69-6.98,12.59-4.65,3.91-9.65,5.86-14.99,5.86-3.12,0-5.76-.81-7.91-2.44-2.02-1.76-3.03-3.97-3.03-6.64,0-4.36,2.32-8.53,6.94-12.5,4.63-3.97,9.64-5.95,15.03-5.95"/><path d="M3880.19,181.62c3.13,0,5.73,.78,7.81,2.34,2.09,1.56,3.13,3.81,3.13,6.73,0,4.49-2.33,8.69-6.98,12.59-4.65,3.91-9.65,5.86-14.99,5.86-3.13,0-5.76-.81-7.91-2.44-2.02-1.76-3.03-3.97-3.03-6.64,0-4.36,2.31-8.53,6.94-12.5,4.62-3.97,9.63-5.95,15.03-5.95"/><path d="M4446.04,181.62c3.12,0,5.73,.78,7.81,2.34,2.08,1.56,3.12,3.81,3.12,6.73,0,4.49-2.32,8.69-6.97,12.59-4.65,3.91-9.65,5.86-14.99,5.86-3.13,0-5.76-.81-7.91-2.44-2.02-1.76-3.03-3.97-3.03-6.64,0-4.36,2.31-8.53,6.94-12.5,4.62-3.97,9.63-5.95,15.03-5.95"/><path d="M4446.04,156.62c3.12,0,5.73,.78,7.81,2.34,2.08,1.56,3.12,3.81,3.12,6.73,0,4.49-2.32,8.69-6.97,12.59-4.65,3.91-9.65,5.86-14.99,5.86-3.13,0-5.76-.81-7.91-2.44-2.02-1.76-3.03-3.97-3.03-6.64,0-4.36,2.31-8.53,6.94-12.5,4.62-3.97,9.63-5.95,15.03-5.95"/><path d="M4416.37,131.62c3.13,0,5.73,.78,7.81,2.34,2.09,1.56,3.13,3.81,3.13,6.73,0,4.49-2.33,8.69-6.98,12.59-4.65,3.91-9.65,5.86-14.99,5.86-3.13,0-5.76-.81-7.91-2.44-2.02-1.76-3.03-3.97-3.03-6.64,0-4.36,2.31-8.53,6.94-12.5,4.62-3.97,9.64-5.95,15.03-5.95"/><path d="M4446.04,119.12c3.12,0,5.73,.78,7.81,2.34,2.08,1.56,3.12,3.81,3.12,6.74,0,4.49-2.32,8.69-6.97,12.59-4.65,3.91-9.65,5.86-14.99,5.86-3.13,0-5.76-.81-7.91-2.44-2.02-1.76-3.03-3.97-3.03-6.64,0-4.36,2.31-8.53,6.94-12.5,4.62-3.97,9.63-5.95,15.03-5.95"/><path d="M4704.89,156.62c3.13,0,5.73,.78,7.81,2.34,2.09,1.56,3.13,3.81,3.13,6.73,0,4.49-2.33,8.69-6.98,12.59-4.65,3.91-9.65,5.86-14.99,5.86-3.13,0-5.76-.81-7.91-2.44-2.02-1.76-3.03-3.97-3.03-6.64,0-4.36,2.31-8.53,6.94-12.5,4.62-3.97,9.63-5.95,15.03-5.95"/><path d="M4704.89,69.11c3.13,0,5.73,.78,7.81,2.34,2.09,1.56,3.13,3.81,3.13,6.73,0,4.49-2.33,8.69-6.98,12.59-4.65,3.91-9.65,5.86-14.99,5.86-3.13,0-5.76-.81-7.91-2.44-2.02-1.76-3.03-3.97-3.03-6.64,0-4.36,2.31-8.53,6.94-12.5,4.62-3.97,9.63-5.95,15.03-5.95"/><path d="M7018.01,131.62c3.13,0,5.73,.78,7.82,2.34,2.08,1.56,3.12,3.81,3.12,6.73,0,4.49-2.32,8.69-6.98,12.59-4.65,3.91-9.64,5.86-14.99,5.86-3.12,0-5.76-.81-7.9-2.44-2.03-1.76-3.04-3.97-3.04-6.64,0-4.36,2.32-8.53,6.94-12.5,4.63-3.97,9.64-5.95,15.03-5.95"/><path d="M8010.29,144.12c3.12,0,5.73,.78,7.81,2.34,2.08,1.56,3.13,3.81,3.13,6.73,0,4.49-2.33,8.69-6.98,12.59-4.65,3.91-9.65,5.86-14.99,5.86-3.13,0-5.76-.81-7.91-2.44-2.02-1.76-3.03-3.97-3.03-6.64,0-4.36,2.31-8.53,6.94-12.5,4.62-3.97,9.63-5.95,15.03-5.95"/><path d="M8137.08,144.12c3.13,0,5.73,.78,7.82,2.34,2.08,1.56,3.12,3.81,3.12,6.73,0,4.49-2.33,8.69-6.98,12.59-4.65,3.91-9.64,5.86-14.99,5.86-3.12,0-5.76-.81-7.9-2.44-2.03-1.76-3.04-3.97-3.04-6.64,0-4.36,2.32-8.53,6.94-12.5,4.63-3.97,9.64-5.95,15.03-5.95"/><path d="M8645.36,181.62c3.13,0,5.73,.78,7.82,2.34,2.08,1.56,3.12,3.81,3.12,6.73,0,4.49-2.32,8.69-6.98,12.59-4.65,3.91-9.64,5.86-14.99,5.86-3.12,0-5.76-.81-7.9-2.44-2.02-1.76-3.03-3.97-3.03-6.64,0-4.36,2.31-8.53,6.93-12.5,4.63-3.97,9.64-5.95,15.03-5.95"/><path d="M8645.36,156.62c3.13,0,5.73,.78,7.82,2.34,2.08,1.56,3.12,3.81,3.12,6.73,0,4.49-2.32,8.69-6.98,12.59-4.65,3.91-9.64,5.86-14.99,5.86-3.12,0-5.76-.81-7.9-2.44-2.02-1.76-3.03-3.97-3.03-6.64,0-4.36,2.31-8.53,6.93-12.5,4.63-3.97,9.64-5.95,15.03-5.95"/><path d="M385.38,206.62c3.12,0,5.73,.78,7.81,2.34,2.08,1.56,3.12,3.81,3.12,6.73,0,4.49-2.32,8.69-6.98,12.59-4.65,3.91-9.65,5.86-14.99,5.86-3.12,0-5.76-.81-7.91-2.44-2.02-1.76-3.03-3.97-3.03-6.64,0-4.37,2.31-8.53,6.94-12.5,4.62-3.97,9.64-5.95,15.03-5.95"/><path d="M385.38,181.62c3.12,0,5.73,.78,7.81,2.34,2.08,1.56,3.12,3.81,3.12,6.73,0,4.49-2.32,8.69-6.98,12.59-4.65,3.91-9.65,5.86-14.99,5.86-3.12,0-5.76-.81-7.91-2.44-2.02-1.76-3.03-3.97-3.03-6.64,0-4.36,2.31-8.53,6.94-12.5,4.62-3.97,9.64-5.95,15.03-5.95"/><path d="M385.38,144.12c3.12,0,5.73,.78,7.81,2.34,2.08,1.56,3.12,3.81,3.12,6.73,0,4.49-2.32,8.69-6.98,12.59-4.65,3.91-9.65,5.86-14.99,5.86-3.12,0-5.76-.81-7.91-2.44-2.02-1.76-3.03-3.97-3.03-6.64,0-4.36,2.31-8.53,6.94-12.5,4.62-3.97,9.64-5.95,15.03-5.95"/><path d="M883.27,181.62c3.13,0,5.73,.78,7.82,2.34,2.08,1.56,3.12,3.81,3.12,6.73,0,4.49-2.32,8.69-6.98,12.59-4.65,3.91-9.64,5.86-14.99,5.86-3.12,0-5.76-.81-7.9-2.44-2.02-1.76-3.04-3.97-3.04-6.64,0-4.36,2.32-8.53,6.94-12.5,4.63-3.97,9.64-5.95,15.03-5.95"/><path d="M883.27,94.12c3.13,0,5.73,.78,7.82,2.34,2.08,1.56,3.12,3.81,3.12,6.73,0,4.49-2.32,8.69-6.98,12.59-4.65,3.91-9.64,5.86-14.99,5.86-3.12,0-5.76-.81-7.9-2.44-2.02-1.76-3.04-3.97-3.04-6.64,0-4.36,2.32-8.53,6.94-12.5,4.63-3.97,9.64-5.95,15.03-5.95"/><path d="M1487.36,169.12c3.12,0,5.72,.78,7.81,2.34,2.08,1.56,3.12,3.81,3.12,6.73,0,4.49-2.32,8.69-6.97,12.59-4.65,3.91-9.65,5.86-15,5.86-3.12,0-5.76-.81-7.9-2.44-2.02-1.76-3.03-3.97-3.03-6.64,0-4.36,2.31-8.53,6.93-12.5,4.63-3.97,9.64-5.95,15.04-5.95"/><path d="M1487.36,144.12c3.12,0,5.72,.78,7.81,2.34,2.08,1.56,3.12,3.81,3.12,6.73,0,4.49-2.32,8.69-6.97,12.59-4.65,3.91-9.65,5.86-15,5.86-3.12,0-5.76-.81-7.9-2.44-2.02-1.76-3.03-3.97-3.03-6.64,0-4.36,2.31-8.53,6.93-12.5,4.63-3.97,9.64-5.95,15.04-5.95"/><path d="M1487.36,94.12c3.12,0,5.72,.78,7.81,2.34,2.08,1.56,3.12,3.81,3.12,6.73,0,4.49-2.32,8.69-6.97,12.59-4.65,3.91-9.65,5.86-15,5.86-3.12,0-5.76-.81-7.9-2.44-2.02-1.76-3.03-3.97-3.03-6.64,0-4.36,2.31-8.53,6.93-12.5,4.63-3.97,9.64-5.95,15.04-5.95"/><path d="M1954.03,169.12c3.12,0,5.73,.78,7.81,2.34,2.08,1.56,3.13,3.81,3.13,6.73,0,4.49-2.33,8.69-6.98,12.59-4.65,3.91-9.65,5.86-14.99,5.86-3.13,0-5.76-.81-7.91-2.44-2.02-1.76-3.03-3.97-3.03-6.64,0-4.36,2.31-8.53,6.94-12.5,4.62-3.97,9.63-5.95,15.03-5.95"/><path d="M1954.03,144.12c3.12,0,5.73,.78,7.81,2.34,2.08,1.56,3.13,3.81,3.13,6.73,0,4.49-2.33,8.69-6.98,12.59-4.65,3.91-9.65,5.86-14.99,5.86-3.13,0-5.76-.81-7.91-2.44-2.02-1.76-3.03-3.97-3.03-6.64,0-4.36,2.31-8.53,6.94-12.5,4.62-3.97,9.63-5.95,15.03-5.95"/><path d="M1954.03,106.62c3.12,0,5.73,.78,7.81,2.34,2.08,1.56,3.13,3.81,3.13,6.73,0,4.49-2.33,8.69-6.98,12.59-4.65,3.91-9.65,5.86-14.99,5.86-3.13,0-5.76-.81-7.91-2.44-2.02-1.76-3.03-3.97-3.03-6.64,0-4.36,2.31-8.53,6.94-12.5,4.62-3.97,9.63-5.95,15.03-5.95"/><path d="M2131.6,169.12c3.12,0,5.72,.78,7.81,2.34,2.08,1.56,3.12,3.81,3.12,6.73,0,4.49-2.32,8.69-6.97,12.59-4.65,3.91-9.65,5.86-15,5.86-3.12,0-5.76-.81-7.9-2.44-2.02-1.76-3.03-3.97-3.03-6.64,0-4.36,2.31-8.53,6.93-12.5,4.63-3.97,9.64-5.95,15.04-5.95"/><path d="M2131.6,144.12c3.12,0,5.72,.78,7.81,2.34,2.08,1.56,3.12,3.81,3.12,6.73,0,4.49-2.32,8.69-6.97,12.59-4.65,3.91-9.65,5.86-15,5.86-3.12,0-5.76-.81-7.9-2.44-2.02-1.76-3.03-3.97-3.03-6.64,0-4.36,2.31-8.53,6.93-12.5,4.63-3.97,9.64-5.95,15.04-5.95"/><path d="M2131.6,106.62c3.12,0,5.72,.78,7.81,2.34,2.08,1.56,3.12,3.81,3.12,6.73,0,4.49-2.32,8.69-6.97,12.59-4.65,3.91-9.65,5.86-15,5.86-3.12,0-5.76-.81-7.9-2.44-2.02-1.76-3.03-3.97-3.03-6.64,0-4.36,2.31-8.53,6.93-12.5,4.63-3.97,9.64-5.95,15.04-5.95"/><path d="M2380.54,119.12c3.13,0,5.73,.78,7.82,2.34,2.08,1.56,3.12,3.81,3.12,6.74,0,4.49-2.32,8.69-6.98,12.59-4.65,3.91-9.64,5.86-14.99,5.86-3.12,0-5.76-.81-7.9-2.44-2.02-1.76-3.04-3.97-3.04-6.64,0-4.36,2.32-8.53,6.94-12.5,4.63-3.97,9.64-5.95,15.03-5.95"/><path d="M3702.62,119.12c3.13,0,5.73,.78,7.82,2.34,2.08,1.56,3.12,3.81,3.12,6.74,0,4.49-2.32,8.69-6.98,12.59-4.65,3.91-9.64,5.86-14.99,5.86-3.12,0-5.76-.81-7.9-2.44-2.03-1.76-3.04-3.97-3.04-6.64,0-4.36,2.32-8.53,6.94-12.5,4.63-3.97,9.64-5.95,15.03-5.95"/><path d="M3880.19,119.12c3.13,0,5.73,.78,7.81,2.34,2.09,1.56,3.13,3.81,3.13,6.74,0,4.49-2.33,8.69-6.98,12.59-4.65,3.91-9.65,5.86-14.99,5.86-3.13,0-5.76-.81-7.91-2.44-2.02-1.76-3.03-3.97-3.03-6.64,0-4.36,2.31-8.53,6.94-12.5,4.62-3.97,9.63-5.95,15.03-5.95"/><path d="M5002.25,144.12c3.12,0,5.73,.78,7.81,2.34,2.08,1.56,3.12,3.81,3.12,6.73,0,4.49-2.32,8.69-6.97,12.59s-9.65,5.86-15,5.86c-3.12,0-5.76-.81-7.9-2.44-2.02-1.76-3.03-3.97-3.03-6.64,0-4.36,2.31-8.53,6.93-12.5,4.63-3.97,9.64-5.95,15.04-5.95"/><path d="M5002.25,119.12c3.12,0,5.73,.78,7.81,2.34,2.08,1.56,3.12,3.81,3.12,6.74,0,4.49-2.32,8.69-6.97,12.59-4.65,3.91-9.65,5.86-15,5.86-3.12,0-5.76-.81-7.9-2.44-2.02-1.76-3.03-3.97-3.03-6.64,0-4.36,2.31-8.53,6.93-12.5,4.63-3.97,9.64-5.95,15.04-5.95"/><path d="M5002.25,94.12c3.12,0,5.73,.78,7.81,2.34,2.08,1.56,3.12,3.81,3.12,6.73,0,4.49-2.32,8.69-6.97,12.59-4.65,3.91-9.65,5.86-15,5.86-3.12,0-5.76-.81-7.9-2.44-2.02-1.76-3.03-3.97-3.03-6.64,0-4.36,2.31-8.53,6.93-12.5,4.63-3.97,9.64-5.95,15.04-5.95"/><path d="M5002.25,56.61c3.12,0,5.73,.78,7.81,2.34,2.08,1.56,3.12,3.81,3.12,6.74,0,4.49-2.32,8.69-6.97,12.59-4.65,3.91-9.65,5.86-15,5.86-3.12,0-5.76-.81-7.9-2.44-2.02-1.76-3.03-3.97-3.03-6.64,0-4.37,2.31-8.53,6.93-12.5,4.63-3.97,9.64-5.95,15.04-5.95"/><path d="M5533.88,169.12c3.13,0,5.73,.78,7.82,2.34,2.08,1.56,3.12,3.81,3.12,6.73,0,4.49-2.33,8.69-6.98,12.59-4.65,3.91-9.64,5.86-14.99,5.86-3.12,0-5.76-.81-7.9-2.44-2.03-1.76-3.04-3.97-3.04-6.64,0-4.36,2.32-8.53,6.94-12.5,4.63-3.97,9.64-5.95,15.03-5.95"/><path d="M5533.88,144.12c3.13,0,5.73,.78,7.82,2.34,2.08,1.56,3.12,3.81,3.12,6.73,0,4.49-2.33,8.69-6.98,12.59s-9.64,5.86-14.99,5.86c-3.12,0-5.76-.81-7.9-2.44-2.03-1.76-3.04-3.97-3.04-6.64,0-4.36,2.32-8.53,6.94-12.5,4.63-3.97,9.64-5.95,15.03-5.95"/><path d="M5533.88,119.12c3.13,0,5.73,.78,7.82,2.34,2.08,1.56,3.12,3.81,3.12,6.74,0,4.49-2.33,8.69-6.98,12.59-4.65,3.91-9.64,5.86-14.99,5.86-3.12,0-5.76-.81-7.9-2.44-2.03-1.76-3.04-3.97-3.04-6.64,0-4.36,2.32-8.53,6.94-12.5,4.63-3.97,9.64-5.95,15.03-5.95"/><path d="M5769.93,131.62c3.12,0,5.73,.78,7.81,2.34,2.08,1.56,3.13,3.81,3.13,6.73,0,4.49-2.33,8.69-6.98,12.59-4.65,3.91-9.65,5.86-14.99,5.86-3.13,0-5.76-.81-7.91-2.44-2.02-1.76-3.03-3.97-3.03-6.64,0-4.36,2.31-8.53,6.94-12.5,4.62-3.97,9.63-5.95,15.03-5.95"/><path d="M6005.98,194.12c3.12,0,5.72,.78,7.81,2.34,2.08,1.56,3.12,3.81,3.12,6.73,0,4.49-2.32,8.69-6.97,12.59s-9.65,5.86-15,5.86c-3.12,0-5.76-.81-7.9-2.44-2.02-1.76-3.03-3.97-3.03-6.64,0-4.36,2.31-8.53,6.93-12.5,4.63-3.97,9.64-5.95,15.04-5.95"/><path d="M6005.98,169.12c3.12,0,5.72,.78,7.81,2.34,2.08,1.56,3.12,3.81,3.12,6.73,0,4.49-2.32,8.69-6.97,12.59-4.65,3.91-9.65,5.86-15,5.86-3.12,0-5.76-.81-7.9-2.44-2.02-1.76-3.03-3.97-3.03-6.64,0-4.36,2.31-8.53,6.93-12.5,4.63-3.97,9.64-5.95,15.04-5.95"/><path d="M6005.98,144.12c3.12,0,5.72,.78,7.81,2.34,2.08,1.56,3.12,3.81,3.12,6.73,0,4.49-2.32,8.69-6.97,12.59s-9.65,5.86-15,5.86c-3.12,0-5.76-.81-7.9-2.44-2.02-1.76-3.03-3.97-3.03-6.64,0-4.36,2.31-8.53,6.93-12.5,4.63-3.97,9.64-5.95,15.04-5.95"/><path d="M6742.56,119.12c3.13,0,5.73,.78,7.81,2.34,2.09,1.56,3.13,3.81,3.13,6.74,0,4.49-2.33,8.69-6.98,12.59-4.65,3.91-9.65,5.86-14.99,5.86-3.12,0-5.76-.81-7.91-2.44-2.02-1.76-3.03-3.97-3.03-6.64,0-4.36,2.32-8.53,6.94-12.5,4.63-3.97,9.64-5.95,15.03-5.95"/><path d="M7028.76,181.62c3.13,0,5.73,.78,7.82,2.34,2.08,1.56,3.12,3.81,3.12,6.73,0,4.49-2.32,8.69-6.98,12.59-4.65,3.91-9.64,5.86-14.99,5.86-3.12,0-5.76-.81-7.9-2.44-2.02-1.76-3.03-3.97-3.03-6.64,0-4.36,2.31-8.53,6.93-12.5,4.63-3.97,9.64-5.95,15.03-5.95"/><path d="M7028.76,156.62c3.13,0,5.73,.78,7.82,2.34,2.08,1.56,3.12,3.81,3.12,6.73,0,4.49-2.32,8.69-6.98,12.59-4.65,3.91-9.64,5.86-14.99,5.86-3.12,0-5.76-.81-7.9-2.44-2.02-1.76-3.03-3.97-3.03-6.64,0-4.36,2.31-8.53,6.93-12.5,4.63-3.97,9.64-5.95,15.03-5.95"/><path d="M7271.6,181.62c3.13,0,5.73,.78,7.81,2.34,2.09,1.56,3.13,3.81,3.13,6.73,0,4.49-2.33,8.69-6.98,12.59-4.65,3.91-9.65,5.86-14.99,5.86-3.13,0-5.76-.81-7.91-2.44-2.02-1.76-3.03-3.97-3.03-6.64,0-4.36,2.31-8.53,6.94-12.5,4.62-3.97,9.64-5.95,15.03-5.95"/><path d="M7271.6,156.62c3.13,0,5.73,.78,7.81,2.34,2.09,1.56,3.13,3.81,3.13,6.73,0,4.49-2.33,8.69-6.98,12.59-4.65,3.91-9.65,5.86-14.99,5.86-3.13,0-5.76-.81-7.91-2.44-2.02-1.76-3.03-3.97-3.03-6.64,0-4.36,2.31-8.53,6.94-12.5,4.62-3.97,9.64-5.95,15.03-5.95"/><path d="M7271.6,119.12c3.13,0,5.73,.78,7.81,2.34,2.09,1.56,3.13,3.81,3.13,6.74,0,4.49-2.33,8.69-6.98,12.59-4.65,3.91-9.65,5.86-14.99,5.86-3.13,0-5.76-.81-7.91-2.44-2.02-1.76-3.03-3.97-3.03-6.64,0-4.36,2.31-8.53,6.94-12.5,4.62-3.97,9.64-5.95,15.03-5.95"/><path d="M7398.39,181.62c3.13,0,5.73,.78,7.82,2.34,2.08,1.56,3.12,3.81,3.12,6.73,0,4.49-2.32,8.69-6.97,12.59-4.66,3.91-9.65,5.86-15,5.86-3.12,0-5.76-.81-7.9-2.44-2.02-1.76-3.03-3.97-3.03-6.64,0-4.36,2.31-8.53,6.93-12.5,4.63-3.97,9.64-5.95,15.03-5.95"/><path d="M7398.39,156.62c3.13,0,5.73,.78,7.82,2.34,2.08,1.56,3.12,3.81,3.12,6.73,0,4.49-2.32,8.69-6.97,12.59-4.66,3.91-9.65,5.86-15,5.86-3.12,0-5.76-.81-7.9-2.44-2.02-1.76-3.03-3.97-3.03-6.64,0-4.36,2.31-8.53,6.93-12.5,4.63-3.97,9.64-5.95,15.03-5.95"/><path d="M7398.39,131.62c3.13,0,5.73,.78,7.82,2.34,2.08,1.56,3.12,3.81,3.12,6.73,0,4.49-2.32,8.69-6.97,12.59-4.66,3.91-9.65,5.86-15,5.86-3.12,0-5.76-.81-7.9-2.44-2.02-1.76-3.03-3.97-3.03-6.64,0-4.36,2.31-8.53,6.93-12.5,4.63-3.97,9.64-5.95,15.03-5.95"/><path d="M7525.19,131.62c3.12,0,5.73,.78,7.81,2.34,2.08,1.56,3.13,3.81,3.13,6.73,0,4.49-2.33,8.69-6.98,12.59s-9.65,5.86-14.99,5.86c-3.13,0-5.76-.81-7.91-2.44-2.02-1.76-3.03-3.97-3.03-6.64,0-4.36,2.31-8.53,6.94-12.5,4.62-3.97,9.63-5.95,15.03-5.95"/><path d="M7857.39,144.12c3.12,0,5.73,.78,7.81,2.34,2.08,1.56,3.13,3.81,3.13,6.73,0,4.49-2.33,8.69-6.98,12.59-4.65,3.91-9.65,5.86-14.99,5.86-3.13,0-5.76-.81-7.91-2.44-2.02-1.76-3.03-3.97-3.03-6.64,0-4.36,2.31-8.53,6.94-12.5,4.62-3.97,9.63-5.95,15.03-5.95"/><path d="M8147.83,206.62c3.13,0,5.73,.78,7.82,2.34,2.08,1.56,3.12,3.81,3.12,6.73,0,4.49-2.32,8.69-6.98,12.59-4.65,3.91-9.64,5.86-14.99,5.86-3.12,0-5.76-.81-7.9-2.44-2.02-1.76-3.04-3.97-3.04-6.64,0-4.37,2.32-8.53,6.94-12.5,4.63-3.97,9.64-5.95,15.03-5.95"/><path d="M8147.83,181.62c3.13,0,5.73,.78,7.82,2.34,2.08,1.56,3.12,3.81,3.12,6.73,0,4.49-2.32,8.69-6.98,12.59-4.65,3.91-9.64,5.86-14.99,5.86-3.12,0-5.76-.81-7.9-2.44-2.02-1.76-3.04-3.97-3.04-6.64,0-4.36,2.32-8.53,6.94-12.5,4.63-3.97,9.64-5.95,15.03-5.95"/><path d="M8645.36,119.12c3.13,0,5.73,.78,7.82,2.34,2.08,1.56,3.12,3.81,3.12,6.74,0,4.49-2.32,8.69-6.98,12.59-4.65,3.91-9.64,5.86-14.99,5.86-3.12,0-5.76-.81-7.9-2.44-2.02-1.76-3.03-3.97-3.03-6.64,0-4.36,2.31-8.53,6.93-12.5,4.63-3.97,9.64-5.95,15.03-5.95"/><path d="M8974.73,131.62c3.12,0,5.73,.78,7.81,2.34,2.08,1.56,3.12,3.81,3.12,6.73,0,4.49-2.32,8.69-6.97,12.59s-9.65,5.86-15,5.86c-3.12,0-5.76-.81-7.9-2.44-2.02-1.76-3.03-3.97-3.03-6.64,0-4.36,2.31-8.53,6.93-12.5,4.63-3.97,9.64-5.95,15.04-5.95"/><path d="M124.41,338.28c-.97-.98-1.46-2.18-1.46-3.62s.49-2.64,1.46-3.61,2.18-1.46,3.61-1.46,2.64,.49,3.62,1.46,1.47,2.18,1.47,3.61-.49,2.64-1.47,3.62c-.98,.98-2.18,1.47-3.62,1.47s-2.63-.49-3.61-1.47m0,25.01c-.97-.97-1.46-2.18-1.46-3.61s.49-2.64,1.46-3.62c.97-.98,2.18-1.47,3.61-1.47s2.64,.49,3.62,1.47c.98,.98,1.47,2.18,1.47,3.62s-.49,2.64-1.47,3.61-2.18,1.46-3.62,1.46-2.63-.49-3.61-1.46m-33.88-42.38c8.66,0,15.75,2.18,21.28,6.53,5.34,4.56,8.02,10.75,8.02,18.56,0,4.75-1.01,9.49-3.03,14.21-2.02,4.72-4.66,8.84-7.91,12.35-5.93,6.57-14.02,12.53-24.27,17.87-10.26,5.34-15.92,8.01-16.99,8.01s-1.61-.42-1.61-1.26c0-.32,.13-.62,.39-.88,3.32-1.96,6.97-4.21,10.94-6.74,3.97-2.54,8.01-5.55,12.11-9.03,4.1-3.48,7.28-6.71,9.52-9.67,2.24-2.96,4.31-6.62,6.2-10.98,1.62-4.37,2.44-8.67,2.44-12.91,0-6.31-1.56-11.81-4.69-16.5-3.12-4.69-7.26-7.03-12.39-7.03-3.65,0-6.84,1.22-9.57,3.66-2.74,2.44-4.69,5.42-5.87,8.93,1.24-.52,2.38-.78,3.42-.78,2.73,0,5.07,1.01,7.02,3.03,1.95,2.02,2.93,4.4,2.93,7.13s-.94,5.21-2.83,7.43c-2.02,2.01-4.45,3.01-7.27,3.01s-5.41-1.01-7.76-3.01c-2.22-2.22-3.33-4.73-3.33-7.53,0-6.71,2.26-12.45,6.79-17.23,4.53-4.78,10.01-7.17,16.46-7.17"/><path d="M109.17,165.01v-2.14c-.06-1.1-.22-2.83-.49-5.17-3.25,.52-6.15,.78-8.69,.78-9.12,0-16.85-3.6-23.2-10.8-6.35-7.2-9.52-15.78-9.52-25.73,0-2.67,.52-5.87,1.56-9.62,1.04-3.74,2-6.25,2.88-7.52,.88-1.27,2.2-3.5,3.96-6.69,.52-.98,2.21-3.13,5.08-6.45,.52-.71,.98-1.29,1.37-1.75,.39-.46,1.02-1.27,1.9-2.44,.88-1.17,1.82-2.26,2.83-3.27,1.01-1.01,1.91-1.99,2.69-2.93,.78-.94,1.5-1.74,2.16-2.38-2.34-7.75-3.78-13.71-4.3-17.88-.52-4.17-.78-9.28-.78-15.34s1.3-11.56,3.91-16.51c2.53-5.13,6.08-9.33,10.64-12.59,.26-.2,.6-.3,1.02-.3s.73,.1,.93,.3c3.51,4.23,6.55,9.73,9.12,16.5,2.57,6.77,3.86,13.1,3.86,19s-1.49,11.58-4.48,17.05c-3.39,5.79-7.75,11.78-13.09,17.97,1.36,4.29,3.19,11.03,5.47,20.2h.59c.26-.06,.49-.09,.67-.09,7.37,0,13.37,2.59,18.02,7.76s6.98,11.15,6.98,17.92c0,8.4-3.48,15.17-10.44,20.31-2.02,1.5-4.4,2.67-7.14,3.51,.33,4.23,.5,7.04,.5,8.45s-.07,3.89-.2,7.48c-.06,6.12-2.15,11.35-6.25,15.72-4.1,4.36-8.79,6.55-14.06,6.55s-9.76-1.87-13.48-5.62c-3.71-3.74-5.57-8.28-5.57-13.62,0-2.8,1.08-5.18,3.23-7.14,2.21-1.95,4.7-2.92,7.46-2.92s5.03,1.01,6.79,3.03c1.82,1.89,2.73,4.16,2.73,6.83s-.91,4.91-2.73,6.74c-1.82,1.82-4,2.73-6.55,2.73-1.04,0-2.05-.19-3.01-.58,2.86,4.23,6.54,6.34,11.03,6.34s8.33-1.86,11.52-5.56c3.19-3.71,4.79-8.07,4.79-13.09l.28-7.03m3.12-12.3c3.39-1.24,6.07-3.44,8.06-6.59,1.99-3.16,2.98-6.3,2.98-9.42,0-4.62-1.6-8.76-4.79-12.41-3.19-3.65-7.23-5.7-12.12-6.16,2.8,13.74,4.76,25.27,5.86,34.58m-37.78-22.56c0,6.45,2.57,12.08,7.71,16.9,5.14,4.82,11.16,7.23,18.07,7.23,2.73,0,5.39-.2,8-.59-1.04-9.9-3.09-21.75-6.16-35.55-3.83,.4-6.81,1.72-8.93,3.96-2.12,2.24-3.18,4.8-3.18,7.66,0,4.95,2.64,8.95,7.92,12.02,.45,.26,.67,.7,.67,1.32s-.21,1.16-.63,1.61c-.42,.45-.79,.68-1.12,.68s-.74-.06-1.27-.19c-7.62-4.17-11.44-10.45-11.44-18.86,0-3.97,1.4-7.78,4.2-11.42,2.93-3.65,6.73-5.99,11.42-7.03-1.82-7.29-3.32-12.99-4.49-17.09-8.92,10.03-14.45,17.45-16.61,22.27-2.79,6.25-4.19,11.95-4.19,17.09M107.12,30.84c-4.89,2.41-8.74,5.89-11.57,10.45-2.83,4.56-4.24,9.34-4.24,14.35s1.17,11.49,3.52,19.44c4.69-5.67,8.23-10.97,10.64-15.92,2.41-4.95,3.61-9.85,3.61-14.7s-.65-9.39-1.95-13.62"/><path d="M209.33,427.26l-1.27-62.11c0-.98,.77-1.47,2.3-1.47s2.3,.49,2.3,1.47l-.78,33.89c1.76-1.76,3.27-2.98,4.54-3.66,1.26-.68,2.99-1.02,5.17-1.02s4.2,1.01,6.05,3.02,2.78,4.52,2.78,7.52c0,4.49-4.72,10.71-14.16,18.66-3.51,3.19-5.33,4.78-5.47,4.78h-.58c-.59,0-.89-.36-.89-1.08m2.45-25.09l-.3,22.17c2.02-1.9,4.07-5.04,6.16-9.44,2.08-4.4,3.12-8.16,3.12-11.28,0-1.56-.26-2.99-.78-4.3s-1.34-1.95-2.44-1.95-2.11,.39-2.99,1.17-1.8,1.99-2.77,3.62"/><path d="M184.33,377.25l-1.27-62.11c0-.98,.77-1.47,2.3-1.47s2.3,.49,2.3,1.47l-.78,33.89c1.76-1.76,3.27-2.98,4.54-3.66s2.99-1.02,5.17-1.02,4.2,1.01,6.05,3.02c1.85,2.02,2.78,4.52,2.78,7.52,0,4.49-4.72,10.71-14.16,18.66-3.51,3.19-5.33,4.78-5.47,4.78h-.58c-.59,0-.89-.36-.89-1.08m2.45-25.09l-.3,22.17c2.02-1.9,4.07-5.04,6.16-9.44,2.08-4.4,3.12-8.16,3.12-11.28,0-1.56-.26-2.99-.78-4.3-.52-1.3-1.34-1.95-2.45-1.95s-2.1,.39-2.98,1.17c-.88,.78-1.8,1.99-2.77,3.62"/><path d="M159.33,414.75l-1.27-62.11c0-.98,.77-1.47,2.3-1.47s2.3,.49,2.3,1.47l-.78,33.89c1.76-1.76,3.27-2.98,4.54-3.66,1.27-.68,2.99-1.02,5.17-1.02s4.2,1.01,6.05,3.02c1.85,2.02,2.78,4.52,2.78,7.52,0,4.49-4.72,10.71-14.16,18.66-3.51,3.19-5.33,4.78-5.47,4.78h-.58c-.59,0-.89-.36-.89-1.08m2.45-25.09l-.3,22.17c2.02-1.9,4.07-5.04,6.16-9.44,2.08-4.4,3.12-8.16,3.12-11.28,0-1.56-.26-2.99-.78-4.3-.52-1.3-1.34-1.95-2.45-1.95s-2.1,.39-2.98,1.17c-.88,.78-1.8,1.99-2.77,3.62"/><path d="M209.33,137.96l-1.27-62.11c0-.98,.77-1.47,2.3-1.47s2.3,.49,2.3,1.47l-.78,33.89c1.76-1.76,3.27-2.98,4.54-3.66,1.26-.68,2.99-1.02,5.17-1.02s4.2,1.01,6.05,3.02c1.85,2.02,2.78,4.52,2.78,7.52,0,4.49-4.72,10.71-14.16,18.66-3.51,3.19-5.33,4.78-5.47,4.78h-.58c-.59,0-.89-.36-.89-1.08m2.45-25.09l-.3,22.17c2.02-1.9,4.07-5.04,6.16-9.44,2.08-4.4,3.12-8.16,3.12-11.28,0-1.56-.26-2.99-.78-4.3s-1.34-1.95-2.44-1.95-2.11,.39-2.99,1.17c-.88,.78-1.8,1.99-2.77,3.62"/><path d="M184.33,87.96l-1.27-62.11c0-.98,.77-1.47,2.3-1.47s2.3,.49,2.3,1.47l-.78,33.89c1.76-1.76,3.27-2.98,4.54-3.66,1.27-.68,2.99-1.02,5.17-1.02s4.2,1.01,6.05,3.02c1.85,2.02,2.78,4.52,2.78,7.52,0,4.49-4.72,10.71-14.16,18.66-3.51,3.19-5.33,4.78-5.47,4.78h-.58c-.59,0-.89-.36-.89-1.08m2.45-25.09l-.3,22.17c2.02-1.89,4.07-5.04,6.16-9.44,2.08-4.4,3.12-8.16,3.12-11.28,0-1.56-.26-2.99-.78-4.3-.52-1.3-1.34-1.95-2.45-1.95s-2.1,.39-2.98,1.17c-.88,.78-1.8,1.99-2.77,3.62"/><path d="M159.33,125.46l-1.27-62.11c0-.98,.77-1.47,2.3-1.47s2.3,.49,2.3,1.47l-.78,33.89c1.76-1.76,3.27-2.98,4.54-3.66,1.27-.68,2.99-1.02,5.17-1.02s4.2,1.01,6.05,3.02c1.85,2.02,2.78,4.52,2.78,7.52,0,4.49-4.72,10.71-14.16,18.66-3.51,3.19-5.33,4.78-5.47,4.78h-.58c-.59,0-.89-.36-.89-1.08m2.45-25.09l-.3,22.17c2.02-1.9,4.07-5.04,6.16-9.44s3.12-8.16,3.12-11.28c0-1.56-.26-2.99-.78-4.3s-1.34-1.95-2.45-1.95-2.1,.39-2.98,1.17c-.88,.78-1.8,1.99-2.77,3.62"/><path d="M278.75,323.35c1.49,0,2.93-.23,4.3-.68,1.37-.45,2.35-.68,2.93-.68s.97,.35,1.17,1.06c0,.07-.07,.27-.2,.59l-28.41,33.02h16.69v-13.09c0-1.62,.95-2.8,2.84-3.51,1.95-.72,4.16-3.61,6.64-8.69,.19-.4,.48-.59,.88-.59,.78,0,1.23,.46,1.36,1.38v24.52h7.14c.91,0,1.39,.49,1.46,1.46,.07,.97-.42,1.46-1.46,1.46h-7.14v.78c0,2.6,.65,4.82,1.95,6.64,1.5,1.82,3.26,2.73,5.28,2.73,.78,0,1.17,.39,1.17,1.17s-.54,1.17-1.61,1.17-3.08-.21-6.01-.63c-2.93-.42-5.2-.63-6.79-.63s-3.81,.21-6.64,.63c-2.83,.42-4.96,.63-6.39,.63-.78,0-1.17-.39-1.17-1.17s.39-1.17,1.17-1.17c2.01,0,3.76-.91,5.26-2.73,1.37-1.89,2.05-4.1,2.05-6.64v-.78h-16.69c-.85,0-1.59-.23-2.21-.68s-.93-.88-.93-1.26,.82-1.56,2.45-3.52c1.63-1.95,3.96-5.71,6.99-11.28,3.03-5.57,4.54-11.97,4.54-19.2,0-1.04,.46-1.56,1.38-1.56,.2,0,.51,.07,.93,.19,.42,.13,1.33,.34,2.73,.63,1.4,.29,2.85,.44,4.34,.44"/><path d="M278.75,373.53c1.49,0,2.93-.23,4.3-.68,1.37-.45,2.35-.68,2.93-.68s.97,.35,1.17,1.06c0,.07-.07,.27-.2,.59l-28.41,33.02h16.69v-13.09c0-1.62,.95-2.8,2.84-3.52,1.95-.72,4.16-3.61,6.64-8.69,.19-.4,.48-.59,.88-.59,.78,0,1.23,.46,1.36,1.38v24.52h7.14c.91,0,1.39,.49,1.46,1.46,.07,.97-.42,1.46-1.46,1.46h-7.14v.78c0,2.6,.65,4.82,1.95,6.64,1.5,1.82,3.26,2.73,5.28,2.73,.78,0,1.17,.39,1.17,1.17s-.54,1.17-1.61,1.17-3.08-.21-6.01-.63c-2.93-.42-5.2-.63-6.79-.63s-3.81,.21-6.64,.63c-2.83,.42-4.96,.63-6.39,.63-.78,0-1.17-.39-1.17-1.17s.39-1.17,1.17-1.17c2.01,0,3.76-.91,5.26-2.73,1.37-1.89,2.05-4.1,2.05-6.64v-.78h-16.69c-.85,0-1.59-.23-2.21-.68s-.93-.88-.93-1.27,.82-1.56,2.45-3.52c1.63-1.95,3.96-5.71,6.99-11.28,3.03-5.57,4.54-11.97,4.54-19.2,0-1.04,.46-1.56,1.38-1.56,.2,0,.51,.07,.93,.2,.42,.13,1.33,.34,2.73,.63s2.85,.44,4.34,.44"/><path d="M278.75,59.06c1.49,0,2.93-.23,4.3-.68,1.37-.45,2.35-.68,2.93-.68s.97,.35,1.17,1.06c0,.07-.07,.27-.2,.59l-28.41,33.02h16.69v-13.09c0-1.62,.95-2.8,2.84-3.52,1.95-.72,4.16-3.61,6.64-8.69,.19-.4,.48-.59,.88-.59,.78,0,1.23,.46,1.36,1.38v24.52h7.14c.91,0,1.39,.49,1.46,1.46,.07,.97-.42,1.46-1.46,1.46h-7.14v.78c0,2.6,.65,4.82,1.95,6.64,1.5,1.82,3.26,2.73,5.28,2.73,.78,0,1.17,.39,1.17,1.17s-.54,1.17-1.61,1.17-3.08-.21-6.01-.63c-2.93-.42-5.2-.63-6.79-.63s-3.81,.21-6.64,.63c-2.83,.42-4.96,.63-6.39,.63-.78,0-1.17-.39-1.17-1.17s.39-1.17,1.17-1.17c2.01,0,3.76-.91,5.26-2.73,1.37-1.89,2.05-4.1,2.05-6.64v-.78h-16.69c-.85,0-1.59-.23-2.21-.68s-.93-.88-.93-1.27,.82-1.56,2.45-3.52c1.63-1.95,3.96-5.71,6.99-11.28,3.03-5.57,4.54-11.97,4.54-19.2,0-1.04,.46-1.56,1.38-1.56,.2,0,.51,.07,.93,.2,.42,.13,1.33,.34,2.73,.63s2.85,.44,4.34,.44"/><path d="M278.75,109.24c1.49,0,2.93-.23,4.3-.68,1.37-.45,2.35-.68,2.93-.68s.97,.35,1.17,1.06c0,.07-.07,.27-.2,.59l-28.41,33.02h16.69v-13.09c0-1.62,.95-2.8,2.84-3.51,1.95-.72,4.16-3.62,6.64-8.69,.19-.4,.48-.59,.88-.59,.78,0,1.23,.46,1.36,1.38v24.52h7.14c.91,0,1.39,.49,1.46,1.46,.07,.97-.42,1.46-1.46,1.46h-7.14v.78c0,2.6,.65,4.82,1.95,6.64,1.5,1.82,3.26,2.73,5.28,2.73,.78,0,1.17,.39,1.17,1.17s-.54,1.17-1.61,1.17-3.08-.21-6.01-.63c-2.93-.42-5.2-.63-6.79-.63s-3.81,.21-6.64,.63c-2.83,.42-4.96,.63-6.39,.63-.78,0-1.17-.39-1.17-1.17s.39-1.17,1.17-1.17c2.01,0,3.76-.91,5.26-2.73,1.37-1.89,2.05-4.1,2.05-6.64v-.78h-16.69c-.85,0-1.59-.23-2.21-.68s-.93-.88-.93-1.26,.82-1.56,2.45-3.52c1.63-1.95,3.96-5.71,6.99-11.28,3.03-5.57,4.54-11.97,4.54-19.2,0-1.04,.46-1.56,1.38-1.56,.2,0,.51,.06,.93,.19,.42,.13,1.33,.34,2.73,.63,1.4,.29,2.85,.44,4.34,.44"/><path d="M861.7,316.89c-.66-.84-.99-1.76-.99-2.73,0-1.75,2.09-4.19,6.27-7.31,4.09-3.2,6.14-6.84,6.14-10.94,0-2.42-.85-4.63-2.53-6.64l-3.52-4.2c-.26-.26-.39-.59-.39-.98s.19-.75,.58-1.07c.46-.33,.88-.5,1.27-.5s.72,.2,.98,.59l15.14,17.97c.64,.84,.97,1.77,.97,2.78s-.54,2.1-1.61,3.27c-1.07,1.17-2.59,2.54-4.53,4.1-1.5,.91-2.92,2.34-4.25,4.29-1.34,1.95-2,4.17-2,6.65s.78,4.66,2.34,6.55l8.39,9.86c.2,.2,.33,.52,.39,.98,.06,.45-.1,.84-.49,1.17s-.7,.49-.92,.49-.81-.38-1.76-1.12c-.95-.75-2.28-1.48-4.01-2.2-1.72-.71-3.43-1.07-5.12-1.07s-3.03,.46-4,1.37c-.98,.91-1.46,3.01-1.46,6.3s.94,6.07,2.82,8.35c.2,.26,.24,.55,.11,.88s-.39,.48-.79,.48-1.38-1.2-2.98-3.61-3.13-5.26-4.59-8.55c-1.47-3.29-2.2-6.04-2.2-8.25,0-2.8,1.43-4.2,4.3-4.2s6.74,1.04,11.62,3.12l-13.18-15.83"/><path d="M2110.02,316.89c-.66-.84-.99-1.76-.99-2.73,0-1.75,2.09-4.19,6.27-7.31,4.09-3.2,6.14-6.84,6.14-10.94,0-2.42-.84-4.63-2.53-6.64l-3.52-4.2c-.26-.26-.39-.59-.39-.98s.19-.75,.58-1.07c.46-.33,.88-.5,1.27-.5s.72,.2,.98,.59l15.14,17.97c.65,.84,.97,1.77,.97,2.78s-.54,2.1-1.61,3.27c-1.07,1.17-2.58,2.54-4.53,4.1-1.5,.91-2.92,2.34-4.25,4.29-1.33,1.95-2,4.17-2,6.65s.78,4.66,2.34,6.55l8.39,9.86c.2,.2,.33,.52,.39,.98,.07,.45-.1,.84-.49,1.17-.39,.33-.7,.49-.92,.49s-.81-.38-1.76-1.12c-.95-.75-2.28-1.48-4.01-2.2-1.72-.71-3.43-1.07-5.12-1.07s-3.03,.46-4,1.37c-.97,.91-1.46,3.01-1.46,6.3s.94,6.07,2.83,8.35c.19,.26,.23,.55,.1,.88-.13,.32-.39,.48-.78,.48s-1.39-1.2-2.99-3.61c-1.6-2.41-3.13-5.26-4.59-8.55-1.47-3.29-2.2-6.04-2.2-8.25,0-2.8,1.44-4.2,4.3-4.2s6.74,1.04,11.63,3.12l-13.19-15.83"/><path d="M363.8,416.9c-.66-.84-.98-1.76-.98-2.73,0-1.75,2.09-4.19,6.27-7.31,4.09-3.2,6.14-6.84,6.14-10.94,0-2.42-.84-4.63-2.53-6.64l-3.52-4.2c-.26-.26-.39-.59-.39-.98s.19-.75,.58-1.07c.46-.33,.88-.5,1.27-.5s.72,.2,.98,.59l15.14,17.97c.64,.84,.97,1.77,.97,2.78s-.54,2.1-1.61,3.27c-1.07,1.17-2.58,2.54-4.53,4.1-1.5,.91-2.92,2.34-4.25,4.29-1.33,1.95-2,4.17-2,6.65s.78,4.66,2.34,6.55l8.39,9.86c.2,.2,.33,.52,.39,.98,.06,.45-.1,.84-.49,1.17-.39,.33-.7,.49-.92,.49s-.81-.38-1.76-1.12-2.28-1.48-4.01-2.2c-1.72-.71-3.43-1.07-5.12-1.07s-3.03,.46-4,1.37c-.97,.91-1.46,3.01-1.46,6.3s.94,6.07,2.83,8.35c.2,.26,.23,.55,.1,.88-.13,.32-.39,.48-.78,.48s-1.39-1.2-2.99-3.61c-1.6-2.41-3.13-5.26-4.59-8.55-1.46-3.29-2.2-6.04-2.2-8.25,0-2.8,1.43-4.2,4.3-4.2s6.74,1.04,11.62,3.12l-13.19-15.83"/><path d="M1484.34,414.55c-4.17,1.5-7.55,2.25-10.16,2.25s-4.77-.73-6.5-2.2c-1.73-1.46-2.59-3.29-2.59-5.47s.72-3.97,2.15-5.38c1.43-1.4,3.12-2.1,5.08-2.1s3.42,.55,4.39,1.66c.98,1.11,1.52,2.17,1.62,3.18,.1,1.01,.41,2.13,.93,3.36,.58,1.04,1.28,1.56,2.1,1.56s1.9-.76,3.27-2.29,2.28-2.73,2.73-3.61c.46-.88,1.01-1.3,1.66-1.27,.65,.03,1.11,.34,1.37,.92l-12.3,42c-.66,.66-1.57,.98-2.74,.98s-2.08-.33-2.73-.98l11.72-32.62"/><path d="M3212.26,416.9c-.65-.84-.98-1.76-.98-2.73,0-1.75,2.09-4.19,6.26-7.31,4.1-3.2,6.14-6.84,6.14-10.94,0-2.42-.84-4.63-2.53-6.64l-3.51-4.2c-.26-.26-.39-.59-.39-.98s.19-.75,.58-1.07c.45-.33,.88-.5,1.27-.5s.71,.2,.98,.59l15.14,17.97c.64,.84,.96,1.77,.96,2.78s-.53,2.1-1.6,3.27c-1.08,1.17-2.59,2.54-4.54,4.1-1.5,.91-2.91,2.34-4.25,4.29-1.33,1.95-2,4.17-2,6.65s.79,4.66,2.35,6.55l8.39,9.86c.2,.2,.33,.52,.39,.98s-.1,.84-.49,1.17c-.39,.33-.7,.49-.92,.49s-.81-.38-1.76-1.12c-.95-.75-2.29-1.48-4.01-2.2-1.72-.71-3.43-1.07-5.13-1.07s-3.02,.46-4,1.37c-.97,.91-1.46,3.01-1.46,6.3s.95,6.07,2.83,8.35c.2,.26,.23,.55,.1,.88-.13,.32-.39,.48-.78,.48s-1.38-1.2-2.98-3.61c-1.6-2.41-3.13-5.26-4.6-8.55-1.46-3.29-2.19-6.04-2.19-8.25,0-2.8,1.43-4.2,4.3-4.2s6.73,1.04,11.62,3.12l-13.19-15.83"/><path d="M5512.3,416.9c-.65-.84-.98-1.76-.98-2.73,0-1.75,2.09-4.19,6.27-7.31,4.09-3.2,6.14-6.84,6.14-10.94,0-2.42-.85-4.63-2.53-6.64l-3.52-4.2c-.26-.26-.39-.59-.39-.98s.19-.75,.58-1.07c.46-.33,.88-.5,1.27-.5s.72,.2,.98,.59l15.14,17.97c.64,.84,.97,1.77,.97,2.78s-.54,2.1-1.61,3.27c-1.08,1.17-2.59,2.54-4.53,4.1-1.5,.91-2.92,2.34-4.25,4.29-1.34,1.95-2,4.17-2,6.65s.78,4.66,2.34,6.55l8.39,9.86c.2,.2,.33,.52,.39,.98s-.1,.84-.49,1.17c-.39,.33-.7,.49-.92,.49s-.81-.38-1.76-1.12c-.95-.75-2.29-1.48-4.01-2.2-1.72-.71-3.43-1.07-5.12-1.07s-3.03,.46-4,1.37c-.98,.91-1.46,3.01-1.46,6.3s.94,6.07,2.82,8.35c.2,.26,.23,.55,.1,.88-.13,.32-.39,.48-.78,.48s-1.38-1.2-2.98-3.61c-1.6-2.41-3.13-5.26-4.59-8.55-1.47-3.29-2.2-6.04-2.2-8.25,0-2.8,1.43-4.2,4.3-4.2s6.74,1.04,11.62,3.12l-13.19-15.83"/><path d="M6484.94,416.9c-.66-.84-.99-1.76-.99-2.73,0-1.75,2.09-4.19,6.27-7.31,4.09-3.2,6.14-6.84,6.14-10.94,0-2.42-.84-4.63-2.53-6.64l-3.52-4.2c-.26-.26-.39-.59-.39-.98s.19-.75,.58-1.07c.46-.33,.88-.5,1.27-.5s.72,.2,.98,.59l15.14,17.97c.65,.84,.97,1.77,.97,2.78s-.54,2.1-1.61,3.27c-1.07,1.17-2.58,2.54-4.53,4.1-1.5,.91-2.92,2.34-4.25,4.29-1.33,1.95-2,4.17-2,6.65s.78,4.66,2.34,6.55l8.39,9.86c.2,.2,.33,.52,.39,.98,.07,.45-.1,.84-.49,1.17-.39,.33-.7,.49-.92,.49s-.81-.38-1.76-1.12-2.28-1.48-4.01-2.2c-1.72-.71-3.43-1.07-5.12-1.07s-3.03,.46-4,1.37c-.98,.91-1.46,3.01-1.46,6.3s.94,6.07,2.83,8.35c.19,.26,.23,.55,.1,.88-.13,.32-.39,.48-.78,.48s-1.39-1.2-2.99-3.61c-1.6-2.41-3.13-5.26-4.59-8.55-1.47-3.29-2.2-6.04-2.2-8.25,0-2.8,1.44-4.2,4.3-4.2s6.74,1.04,11.62,3.12l-13.18-15.83"/><path d="M7503.61,416.9c-.66-.84-.98-1.76-.98-2.73,0-1.75,2.08-4.19,6.26-7.31,4.1-3.2,6.14-6.84,6.14-10.94,0-2.42-.84-4.63-2.53-6.64l-3.51-4.2c-.26-.26-.4-.59-.4-.98s.2-.75,.58-1.07c.46-.33,.89-.5,1.28-.5s.71,.2,.97,.59l15.14,17.97c.65,.84,.97,1.77,.97,2.78s-.53,2.1-1.61,3.27c-1.07,1.17-2.58,2.54-4.53,4.1-1.5,.91-2.91,2.34-4.25,4.29-1.33,1.95-2,4.17-2,6.65s.78,4.66,2.35,6.55l8.39,9.86c.19,.2,.32,.52,.39,.98,.06,.45-.1,.84-.5,1.17-.39,.33-.69,.49-.92,.49s-.81-.38-1.76-1.12c-.94-.75-2.28-1.48-4-2.2-1.73-.71-3.44-1.07-5.13-1.07s-3.02,.46-4,1.37c-.97,.91-1.46,3.01-1.46,6.3s.94,6.07,2.83,8.35c.2,.26,.23,.55,.1,.88-.13,.32-.39,.48-.78,.48s-1.39-1.2-2.98-3.61c-1.6-2.41-3.14-5.26-4.6-8.55-1.46-3.29-2.19-6.04-2.19-8.25,0-2.8,1.43-4.2,4.29-4.2s6.74,1.04,11.63,3.12l-13.19-15.83"/><path d="M382.36,314.55c-4.17,1.5-7.55,2.25-10.16,2.25s-4.77-.73-6.5-2.2c-1.73-1.46-2.59-3.29-2.59-5.47s.72-3.97,2.15-5.38c1.43-1.4,3.12-2.1,5.08-2.1s3.42,.55,4.4,1.66c.98,1.11,1.52,2.17,1.62,3.18,.1,1.01,.41,2.13,.93,3.36,.58,1.04,1.28,1.56,2.09,1.56s1.9-.76,3.27-2.29,2.28-2.73,2.73-3.61c.45-.88,1.01-1.3,1.66-1.27,.65,.03,1.11,.34,1.37,.92l-12.3,42c-.66,.66-1.57,.98-2.74,.98s-2.08-.33-2.73-.98l11.72-32.62"/><path d="M1501.92,322.17h-35.55c-.66,0-.98-.33-.98-.98v-13.67c0-.65,.32-.97,.98-.97h35.55c.64,0,.97,.32,.97,.97v13.67c0,.66-.33,.98-.97,.98"/><path d="M2694.64,314.55c-4.16,1.5-7.55,2.25-10.15,2.25s-4.77-.73-6.5-2.2c-1.73-1.46-2.6-3.29-2.6-5.47s.72-3.97,2.15-5.38c1.44-1.4,3.13-2.1,5.08-2.1s3.42,.55,4.4,1.66c.98,1.11,1.52,2.17,1.62,3.18,.1,1.01,.41,2.13,.93,3.36,.58,1.04,1.28,1.56,2.09,1.56s1.9-.76,3.27-2.29c1.37-1.53,2.28-2.73,2.74-3.61,.45-.88,1-1.3,1.65-1.27,.66,.03,1.11,.34,1.37,.92l-12.3,42c-.65,.66-1.57,.98-2.74,.98s-2.08-.33-2.72-.98l11.71-32.62"/><path d="M3877.17,314.55c-4.16,1.5-7.55,2.25-10.15,2.25s-4.77-.73-6.5-2.2c-1.73-1.46-2.6-3.29-2.6-5.47s.72-3.97,2.15-5.38c1.44-1.4,3.13-2.1,5.08-2.1s3.42,.55,4.4,1.66c.98,1.11,1.52,2.17,1.62,3.18,.1,1.01,.41,2.13,.93,3.36,.58,1.04,1.28,1.56,2.09,1.56s1.9-.76,3.27-2.29c1.37-1.53,2.28-2.73,2.74-3.61,.45-.88,1-1.3,1.65-1.27,.66,.03,1.11,.34,1.37,.92l-12.3,42c-.65,.66-1.57,.98-2.74,.98s-2.08-.33-2.72-.98l11.71-32.62"/><path d="M4443.02,314.55c-4.17,1.5-7.55,2.25-10.15,2.25s-4.78-.73-6.5-2.2c-1.73-1.46-2.6-3.29-2.6-5.47s.72-3.97,2.15-5.38,3.12-2.1,5.08-2.1,3.42,.55,4.4,1.66c.98,1.11,1.51,2.17,1.61,3.18,.1,1.01,.41,2.13,.93,3.36,.59,1.04,1.28,1.56,2.1,1.56s1.9-.76,3.27-2.29c1.37-1.53,2.28-2.73,2.73-3.61,.46-.88,1.01-1.3,1.66-1.27,.65,.03,1.11,.34,1.37,.92l-12.3,42c-.65,.66-1.57,.98-2.74,.98s-2.08-.33-2.73-.98l11.72-32.62"/><path d="M4999.23,314.55c-4.17,1.5-7.55,2.25-10.16,2.25s-4.77-.73-6.5-2.2c-1.73-1.46-2.59-3.29-2.59-5.47s.72-3.97,2.15-5.38,3.12-2.1,5.08-2.1,3.42,.55,4.4,1.66c.97,1.11,1.51,2.17,1.61,3.18,.1,1.01,.41,2.13,.93,3.36,.59,1.04,1.28,1.56,2.1,1.56s1.9-.76,3.27-2.29,2.28-2.73,2.73-3.61c.46-.88,1.01-1.3,1.66-1.27,.65,.03,1.11,.34,1.37,.92l-12.3,42c-.66,.66-1.57,.98-2.74,.98s-2.08-.33-2.73-.98l11.72-32.62"/><path d="M6002.96,314.55c-4.17,1.5-7.55,2.25-10.16,2.25s-4.77-.73-6.5-2.2c-1.73-1.46-2.59-3.29-2.59-5.47s.72-3.97,2.15-5.38,3.12-2.1,5.08-2.1,3.42,.55,4.39,1.66c.98,1.11,1.52,2.17,1.62,3.18,.1,1.01,.41,2.13,.93,3.36,.59,1.04,1.28,1.56,2.1,1.56s1.9-.76,3.27-2.29,2.28-2.73,2.73-3.61c.46-.88,1.01-1.3,1.66-1.27,.65,.03,1.11,.34,1.37,.92l-12.3,42c-.66,.66-1.57,.98-2.74,.98s-2.08-.33-2.73-.98l11.72-32.62"/><path d="M7015,314.55c-4.17,1.5-7.55,2.25-10.16,2.25s-4.77-.73-6.5-2.2c-1.73-1.46-2.59-3.29-2.59-5.47s.71-3.97,2.15-5.38c1.43-1.4,3.12-2.1,5.07-2.1s3.42,.55,4.4,1.66c.98,1.11,1.52,2.17,1.62,3.18,.1,1.01,.41,2.13,.93,3.36,.58,1.04,1.28,1.56,2.09,1.56s1.91-.76,3.28-2.29c1.37-1.53,2.28-2.73,2.73-3.61,.45-.88,1.01-1.3,1.66-1.27,.65,.03,1.1,.34,1.36,.92l-12.29,42c-.66,.66-1.57,.98-2.74,.98s-2.09-.33-2.73-.98l11.72-32.62"/><path d="M8134.07,314.55c-4.17,1.5-7.56,2.25-10.16,2.25s-4.77-.73-6.5-2.2c-1.73-1.46-2.59-3.29-2.59-5.47s.71-3.97,2.15-5.38c1.43-1.4,3.12-2.1,5.07-2.1s3.42,.55,4.4,1.66c.98,1.11,1.52,2.17,1.62,3.18,.1,1.01,.41,2.13,.93,3.36,.58,1.04,1.28,1.56,2.09,1.56s1.91-.76,3.28-2.29,2.28-2.73,2.73-3.61c.45-.88,1.01-1.3,1.66-1.27,.65,.03,1.1,.34,1.36,.92l-12.29,42c-.66,.66-1.57,.98-2.75,.98s-2.08-.33-2.72-.98l11.72-32.62"/><path d="M8642.35,314.55c-4.17,1.5-7.55,2.25-10.16,2.25s-4.77-.73-6.5-2.2c-1.73-1.46-2.59-3.29-2.59-5.47s.71-3.97,2.15-5.38c1.43-1.4,3.12-2.1,5.07-2.1s3.42,.55,4.4,1.66c.98,1.11,1.52,2.17,1.62,3.18,.1,1.01,.41,2.13,.93,3.36,.58,1.04,1.28,1.56,2.09,1.56s1.91-.76,3.28-2.29,2.28-2.73,2.73-3.61,1.01-1.3,1.66-1.27c.65,.03,1.1,.34,1.37,.92l-12.3,42c-.66,.66-1.57,.98-2.74,.98s-2.08-.33-2.73-.98l11.72-32.62"/><path d="M7522.17,150.26c-4.16,1.5-7.55,2.25-10.15,2.25s-4.77-.73-6.5-2.2c-1.73-1.46-2.6-3.29-2.6-5.47s.72-3.97,2.15-5.38c1.43-1.4,3.13-2.1,5.08-2.1s3.42,.55,4.4,1.66c.98,1.11,1.52,2.17,1.62,3.18,.09,1.01,.4,2.13,.92,3.36,.59,1.04,1.29,1.56,2.1,1.56s1.9-.76,3.27-2.29,2.28-2.73,2.74-3.61c.45-.88,1-1.31,1.65-1.27,.65,.03,1.11,.34,1.37,.92l-12.3,42c-.65,.66-1.57,.98-2.74,.98s-2.08-.33-2.73-.98l11.72-32.62"/><path d="M7859.73,150.26c-4.17,1.5-7.53,2.25-10.1,2.25s-4.72-.73-6.45-2.2c-1.72-1.46-2.59-3.29-2.59-5.47s.72-3.97,2.15-5.38c1.43-1.4,3.14-2.1,5.13-2.1s3.42,.54,4.3,1.62c.87,1.08,1.38,2.04,1.51,2.88,.13,.84,.44,1.93,.93,3.27,.49,1.33,1.16,2,2,2s1.96-.83,3.32-2.48c1.37-1.66,2.25-2.86,2.64-3.61s.89-1.11,1.51-1.08c.62,.03,1.06,.34,1.32,.92l-17.87,67c-.65,.66-1.56,.98-2.73,.98s-2.08-.33-2.74-.98l10.06-32.72c-4.36,1.56-7.81,2.34-10.35,2.34s-4.67-.73-6.4-2.2c-1.73-1.46-2.59-3.29-2.59-5.47s.7-3.97,2.1-5.37c1.4-1.39,3.09-2.09,5.08-2.09s3.43,.54,4.34,1.61c.91,1.07,1.47,2.23,1.67,3.47,.52,3.12,1.56,4.69,3.12,4.69,.78,0,1.89-.91,3.33-2.73,1.49-1.7,2.4-3.04,2.73-4.02l4.58-15.14"/><path d="M2676.08,52.6c-.65-.84-.98-1.76-.98-2.73,0-1.75,2.09-4.19,6.26-7.31,4.1-3.2,6.14-6.84,6.14-10.94,0-2.42-.84-4.63-2.53-6.64l-3.51-4.2c-.26-.26-.39-.59-.39-.98s.19-.75,.57-1.07c.46-.33,.89-.5,1.28-.5s.71,.2,.97,.59l15.15,17.97c.64,.84,.96,1.77,.96,2.78s-.53,2.1-1.61,3.27c-1.07,1.17-2.58,2.54-4.53,4.1-1.5,.91-2.91,2.34-4.25,4.29-1.33,1.95-2,4.17-2,6.65s.78,4.66,2.35,6.55l8.39,9.86c.2,.2,.33,.52,.39,.98,.06,.45-.1,.84-.49,1.17-.39,.33-.7,.49-.93,.49s-.81-.38-1.75-1.12c-.95-.75-2.29-1.48-4.01-2.2-1.73-.71-3.43-1.07-5.13-1.07s-3.02,.46-4,1.37c-.97,.91-1.46,3.01-1.46,6.3s.95,6.07,2.83,8.35c.2,.26,.23,.55,.1,.88s-.39,.48-.78,.48-1.38-1.2-2.98-3.61-3.13-5.26-4.6-8.55c-1.46-3.29-2.19-6.04-2.19-8.25,0-2.8,1.43-4.2,4.29-4.2s6.74,1.04,11.63,3.12l-13.19-15.83"/><path d="M3230.83,50.25c-4.17,1.5-7.56,2.25-10.16,2.25s-4.77-.73-6.5-2.2-2.59-3.29-2.59-5.47,.71-3.97,2.14-5.38c1.44-1.4,3.13-2.1,5.08-2.1s3.42,.55,4.4,1.66c.98,1.11,1.52,2.17,1.62,3.18,.1,1.01,.41,2.13,.93,3.36,.58,1.04,1.28,1.56,2.09,1.56s1.9-.76,3.27-2.29c1.37-1.53,2.29-2.73,2.74-3.61s1-1.3,1.66-1.27c.65,.03,1.1,.34,1.36,.92l-12.29,42c-.66,.66-1.57,.98-2.75,.98s-2.08-.33-2.72-.98l11.72-32.62"/><path d="M3557.07,25.25c-4.17,1.5-7.54,2.25-10.11,2.25s-4.71-.73-6.44-2.2c-1.73-1.46-2.59-3.29-2.59-5.47s.71-3.97,2.14-5.38c1.44-1.4,3.15-2.1,5.14-2.1s3.42,.54,4.29,1.62c.88,1.08,1.38,2.04,1.51,2.88,.13,.84,.44,1.93,.93,3.27,.49,1.33,1.16,2,2.01,2s1.95-.83,3.32-2.49c1.36-1.66,2.24-2.86,2.63-3.61s.9-1.11,1.52-1.08c.62,.03,1.06,.34,1.32,.92l-17.88,67c-.64,.66-1.55,.98-2.72,.98s-2.09-.33-2.75-.98l10.07-32.72c-4.37,1.56-7.82,2.34-10.35,2.34s-4.67-.73-6.4-2.2c-1.73-1.46-2.6-3.29-2.6-5.47s.7-3.97,2.1-5.37c1.41-1.39,3.1-2.09,5.08-2.09s3.44,.54,4.35,1.61,1.46,2.23,1.66,3.47c.52,3.12,1.56,4.69,3.13,4.69,.78,0,1.89-.91,3.32-2.73,1.49-1.7,2.4-3.04,2.74-4.02l4.58-15.14"/><path d="M4424.46,52.6c-.66-.84-.99-1.76-.99-2.73,0-1.75,2.09-4.19,6.27-7.31,4.09-3.2,6.14-6.84,6.14-10.94,0-2.42-.84-4.63-2.53-6.64l-3.52-4.2c-.26-.26-.39-.59-.39-.98s.2-.75,.58-1.07c.46-.33,.88-.5,1.27-.5s.72,.2,.98,.59l15.14,17.97c.65,.84,.97,1.77,.97,2.78s-.54,2.1-1.61,3.27c-1.07,1.17-2.58,2.54-4.53,4.1-1.5,.91-2.92,2.34-4.25,4.29s-2,4.17-2,6.65,.78,4.66,2.34,6.55l8.39,9.86c.2,.2,.33,.52,.4,.98,.06,.45-.11,.84-.5,1.17-.39,.33-.7,.49-.92,.49s-.81-.38-1.76-1.12c-.94-.75-2.28-1.48-4-2.2-1.73-.71-3.44-1.07-5.13-1.07s-3.03,.46-4,1.37c-.97,.91-1.46,3.01-1.46,6.3s.94,6.07,2.83,8.35c.2,.26,.23,.55,.1,.88s-.39,.48-.78,.48-1.39-1.2-2.99-3.61-3.13-5.26-4.59-8.55c-1.46-3.29-2.2-6.04-2.2-8.25,0-2.8,1.44-4.2,4.3-4.2s6.74,1.04,11.63,3.12l-13.19-15.83"/><path d="M640.15,313.18c-.98-.98-1.47-2.15-1.47-3.52s.49-2.54,1.47-3.52c.98-.98,2.15-1.47,3.52-1.47s2.54,.49,3.52,1.47,1.47,2.15,1.47,3.52-.49,2.54-1.47,3.52c-.98,.98-2.15,1.47-3.52,1.47s-2.54-.49-3.52-1.47"/><path d="M3530.88,261.41c-.98-.98-1.47-2.15-1.47-3.52s.49-2.54,1.47-3.51,2.15-1.47,3.51-1.47,2.54,.49,3.52,1.47,1.47,2.15,1.47,3.51-.49,2.54-1.47,3.52-2.15,1.47-3.52,1.47-2.53-.49-3.51-1.47"/><path d="M6994.17,242.66c-.98-.98-1.47-2.15-1.47-3.52s.49-2.54,1.47-3.51c.98-.98,2.15-1.47,3.51-1.47s2.54,.49,3.52,1.47c.98,.98,1.47,2.15,1.47,3.51s-.49,2.54-1.47,3.52c-.98,.98-2.15,1.47-3.52,1.47s-2.53-.49-3.51-1.47"/><path d="M7863.21,48.89c-.98-.98-1.47-2.15-1.47-3.52s.49-2.54,1.47-3.52,2.15-1.47,3.52-1.47,2.53,.49,3.51,1.47,1.47,2.15,1.47,3.52-.49,2.54-1.47,3.52c-.98,.98-2.15,1.47-3.51,1.47s-2.54-.49-3.52-1.47"/><path class="cls-7" d="M861.3,472.17l305.3,18.95v12.52l-305.3-18.95v-12.52"/><path class="cls-7" d="M1807.59,559.68l554.24,31.44v12.52l-554.24-31.44v-12.52"/><path class="cls-7" d="M2982.68,322.17h582.99v12.5h-582.99v-12.5"/><path class="cls-7" d="M5305.53,322.17h475.35v12.5h-475.35v-12.5"/><path class="cls-7" d="M6278.17,372.17h475.34v12.5h-475.34v-12.5"/><path class="cls-7" d="M7279.3,322.17h589.04v12.5h-589.04v-12.5"/><path class="cls-7" d="M2675.69,276.62l410.01-31.5v12.54l-410.01,31.5v-12.54"/><path class="cls-7" d="M2953.02,236.57l132.68-10.19v12.54l-132.68,10.19v-12.54"/><path class="cls-7" d="M3211.87,214.14l324.13,6.31v12.5l-324.13-6.31v-12.5"/><path class="cls-7" d="M4424.07,257.86l262.1-25.32v12.56l-262.1,25.32v-12.56"/><path class="cls-7" d="M1495.05,26.58l469.93,6.29v12.5l-469.93-6.29v-12.5"/><path class="cls-7" d="M1964.98,51.63l-33.01-.44v12.5l33.01,.44v-12.5"/><path class="cls-7" d="M2139.29,45.29l252.2,6.33v12.51l-252.2-6.33v-12.51"/><path class="cls-7" d="M5541.58,51.54l239.3,6.34v12.51l-239.3-6.34v-12.51"/><path class="cls-7" d="M7036.46,51.63h372.88v12.5h-372.88v-12.5"/><path class="cls-7" d="M7279.3,70.38h130.04v12.5h-130.04v-12.5"/><path class="cls-7" d="M7532.89,70.32l335.45,6.31v12.5l-335.45-6.31v-12.5"/><path class="cls-7" d="M8653.06,51.57l332.61,6.31v12.5l-332.61-6.31v-12.5"/><path d="M4194.88,337.8v-25h3.13c0,3.71,.75,7.5,2.25,11.38s3.06,7.1,4.68,9.67c1.63,2.57,3.64,5.81,6.05,9.72,5.28,8.53,7.92,16.12,7.92,22.76s-1.4,13.48-4.2,20.51c-.52,.78-1.12,1.17-1.81,1.17s-1.25-.23-1.71-.69c-.46-.46-.68-.98-.68-1.56v-.48c2.8-6.45,4.2-12.83,4.2-19.14,0-3.26-.99-6.81-2.98-10.65-1.98-3.84-4.03-6.98-6.15-9.42-2.12-2.44-4.65-5.2-7.57-8.26h-3.13"/><path d="M4712.59,337.8v-25h3.12c0,3.71,.75,7.5,2.25,11.38s3.06,7.1,4.69,9.67c1.62,2.57,3.64,5.81,6.05,9.72,5.28,8.53,7.92,16.12,7.92,22.76s-1.4,13.48-4.2,20.51c-.53,.78-1.13,1.17-1.81,1.17s-1.25-.23-1.71-.69c-.46-.46-.69-.98-.69-1.56v-.48c2.8-6.45,4.21-12.83,4.21-19.14,0-3.26-1-6.81-2.98-10.65-1.99-3.84-4.04-6.98-6.16-9.42-2.12-2.44-4.64-5.2-7.57-8.26h-3.12"/><path d="M8398.37,337.8v-25h3.12c0,3.71,.75,7.5,2.25,11.38s3.07,7.1,4.69,9.67c1.63,2.57,3.64,5.81,6.05,9.72,5.28,8.53,7.92,16.12,7.92,22.76s-1.4,13.48-4.2,20.51c-.53,.78-1.13,1.17-1.81,1.17s-1.25-.23-1.71-.69c-.46-.46-.69-.98-.69-1.56v-.48c2.8-6.45,4.21-12.83,4.21-19.14,0-3.26-1-6.81-2.98-10.65-1.99-3.84-4.04-6.98-6.16-9.42-2.12-2.44-4.64-5.2-7.57-8.26h-3.12"/><path d="M8982.42,337.8v-25h3.13c0,3.71,.75,7.5,2.25,11.38s3.06,7.1,4.69,9.67c1.62,2.57,3.64,5.81,6.04,9.72,5.28,8.53,7.92,16.12,7.92,22.76s-1.4,13.48-4.2,20.51c-.52,.78-1.12,1.17-1.8,1.17s-1.26-.23-1.71-.69c-.46-.46-.69-.98-.69-1.56v-.48c2.8-6.45,4.2-12.83,4.2-19.14,0-3.26-.99-6.81-2.98-10.65-1.98-3.84-4.03-6.98-6.15-9.42-2.12-2.44-4.64-5.2-7.57-8.26h-3.13"/><path d="M7991.45,225.37c10.15-5.86,16.63-11.37,19.43-16.52,1.3-2.41,1.96-4.8,1.96-7.17s-.46-4.73-1.38-7.08c-.71,.91-2.61,2.79-5.7,5.66-3.1,2.86-5.54,5.26-7.33,7.18-1.79,1.92-3.4,4.27-4.84,7.03-1.43,2.77-2.14,5.58-2.14,8.45v2.45m26.85-46.3c0,3.91-1.24,7.78-3.71,11.62,1.63,3.45,2.45,6.91,2.45,10.4s-.91,6.92-2.74,10.3c-1.82,3.39-3.9,6.18-6.25,8.39l-7.62,7.42c-5.99,6.12-8.98,12.18-8.98,18.17h-3.13v-50h3.13v7.52c15.1-7.88,22.65-15.82,22.65-23.83,0-1.76-.45-3.81-1.36-6.16v-.39c0-.65,.23-1.2,.68-1.66,.45-.46,1.01-.69,1.67-.69,1.56,0,2.53,1.99,2.92,5.97l.2,1.06c.06,.46,.09,1.08,.09,1.86"/><path d="M3713.45,45.38c0,5.86,2.41,12.28,7.23,19.23l5.86,8.59c1.95,2.68,3.64,5.71,5.07,9.09,1.43,3.39,2.15,6.67,2.15,9.86s-.78,6.44-2.35,9.77c1.96,3.97,2.94,7.84,2.94,11.62,0,5.99-1.4,12.11-4.2,18.36-.52,.78-1.12,1.17-1.81,1.17s-1.25-.23-1.71-.69-.68-.98-.68-1.56v-.49c2.8-5.54,4.2-11.14,4.2-16.8,0-4.43-1.92-9.11-5.77-14.06-2.28-2.94-4.12-5.1-5.51-6.5-1.4-1.4-3.21-3.1-5.42-5.12v7.52h-3.13V45.38h3.13m15.32,51.66c.46-1.36,.69-3.06,.69-5.08,0-4.09-1.82-8.65-5.47-13.67-3.38-4.23-6.9-8.1-10.54-11.61,0,4.61,1.76,9.89,5.28,15.81,.84,1.44,2.45,3.75,4.82,6.94,2.38,3.19,4.12,5.72,5.22,7.61"/><path d="M6750.26,73.5v-25h3.12c0,3.71,.75,7.5,2.25,11.38s3.07,7.1,4.69,9.67c1.63,2.57,3.64,5.81,6.05,9.72,5.28,8.53,7.92,16.12,7.92,22.76s-1.4,13.48-4.2,20.51c-.52,.78-1.13,1.17-1.81,1.17s-1.25-.23-1.71-.69c-.46-.46-.69-.98-.69-1.56v-.49c2.81-6.45,4.21-12.83,4.21-19.14,0-3.26-1-6.81-2.98-10.65-1.98-3.84-4.04-6.98-6.16-9.42-2.12-2.44-4.64-5.2-7.57-8.26h-3.12"/><path d="M655.69,413.68c-1.11-1.11-1.66-2.45-1.66-4.01s.55-2.9,1.66-4.01c1.11-1.11,2.44-1.66,4.01-1.66s2.9,.55,4,1.66c1.11,1.11,1.66,2.45,1.66,4.01s-.55,2.9-1.66,4.01c-1.1,1.11-2.44,1.66-4,1.66s-2.9-.55-4.01-1.66"/><path d="M1508.72,174.39c-1.11-1.11-1.67-2.45-1.67-4.01s.56-2.9,1.67-4.01c1.11-1.11,2.44-1.66,4.01-1.66s2.89,.55,4,1.66c1.1,1.11,1.65,2.44,1.65,4.01s-.55,2.9-1.65,4.01c-1.11,1.11-2.44,1.66-4,1.66s-2.9-.55-4.01-1.66"/><path d="M1508.72,149.39c-1.11-1.11-1.67-2.45-1.67-4.01s.56-2.9,1.67-4.01c1.11-1.11,2.44-1.66,4.01-1.66s2.89,.55,4,1.66c1.1,1.11,1.65,2.45,1.65,4.01s-.55,2.9-1.65,4.01c-1.11,1.11-2.44,1.66-4,1.66s-2.9-.55-4.01-1.66"/><path d="M1508.72,99.39c-1.11-1.11-1.67-2.44-1.67-4.01s.56-2.9,1.67-4.01c1.11-1.11,2.44-1.66,4.01-1.66s2.89,.55,4,1.66c1.1,1.11,1.65,2.45,1.65,4.01s-.55,2.9-1.65,4.01c-1.11,1.11-2.44,1.67-4,1.67s-2.9-.55-4.01-1.67"/><path d="M6027.34,199.4c-1.11-1.11-1.67-2.45-1.67-4.01s.56-2.9,1.67-4.01c1.11-1.11,2.44-1.66,4.01-1.66s2.89,.56,4,1.66c1.1,1.11,1.65,2.45,1.65,4.01s-.55,2.9-1.65,4.01c-1.11,1.11-2.44,1.66-4,1.66s-2.9-.56-4.01-1.66"/><path d="M6027.34,174.39c-1.11-1.11-1.67-2.45-1.67-4.01s.56-2.9,1.67-4.01c1.11-1.11,2.44-1.66,4.01-1.66s2.89,.55,4,1.66c1.1,1.11,1.65,2.44,1.65,4.01s-.55,2.9-1.65,4.01c-1.11,1.11-2.44,1.66-4,1.66s-2.9-.55-4.01-1.66"/><path d="M6027.34,149.39c-1.11-1.11-1.67-2.45-1.67-4.01s.56-2.9,1.67-4.01,2.44-1.66,4.01-1.66,2.89,.55,4,1.66c1.1,1.11,1.65,2.45,1.65,4.01s-.55,2.9-1.65,4.01c-1.11,1.11-2.44,1.66-4,1.66s-2.9-.55-4.01-1.66"/><path class="cls-7" d="M31.54,187.49c0-29.35-20.11-57.88-20.11-85.99,0-14.16,5.49-27.91,22.4-40.23,.23-.15,.34-.41,.34-.57,0-.46-1.26-.87-2.17-.87-.46,0-1.26,.05-1.83,.41C8.23,76.04,.92,94.31,.92,112.78c0,29.76,21.49,58.49,21.49,87.02,0,14.16-5.49,27.5-22.4,39.82v.82c16.92,12.32,22.4,25.65,22.4,39.82,0,28.53-21.49,57.26-21.49,87.02,0,18.47,7.31,36.74,29.26,52.54,.57,.36,1.37,.41,1.83,.41,.92,0,2.17-.41,2.17-.87,0-.15-.11-.41-.34-.56-16.91-12.31-22.4-26.07-22.4-40.23,0-28.12,20.11-56.65,20.11-85.99,0-18.68-7.31-36.53-28.8-52.54,21.49-16.01,28.8-33.86,28.8-52.54"/></svg>