<?xml version="1.0" encoding="UTF-8"?><svg id="_レイヤー_1" xmlns="http://www.w3.org/2000/svg" viewBox="0 0 9232.85 465.43"><defs><style>.cls-1{stroke-width:12.5px;}.cls-1,.cls-2,.cls-3,.cls-4,.cls-5{stroke:#000;stroke-linejoin:bevel;}.cls-2{stroke-linecap:square;}.cls-2,.cls-3{stroke-width:4px;}.cls-4{stroke-linecap:round;stroke-width:3.25px;}.cls-5{fill:none;stroke-width:2px;}.cls-6{fill-rule:evenodd;}</style></defs><line class="cls-5" x1="42" y1="51.63" x2="9232.85" y2="51.63"/><line class="cls-5" x1="42" y1="76.63" x2="9232.85" y2="76.63"/><line class="cls-5" x1="42" y1="101.63" x2="9232.85" y2="101.63"/><line class="cls-5" x1="42" y1="126.63" x2="9232.85" y2="126.63"/><line class="cls-5" x1="42" y1="151.63" x2="9232.85" y2="151.63"/><line class="cls-5" x1="42" y1="314.15" x2="9232.85" y2="314.15"/><line class="cls-5" x1="42" y1="339.15" x2="9232.85" y2="339.15"/><line class="cls-5" x1="42" y1="364.15" x2="9232.85" y2="364.15"/><line class="cls-5" x1="42" y1="389.16" x2="9232.85" y2="389.16"/><line class="cls-5" x1="42" y1="414.16" x2="9232.85" y2="414.16"/><line class="cls-3" x1="44" y1="313.15" x2="44" y2="414.54"/><line class="cls-3" x1="2609.52" y1="313.15" x2="2609.52" y2="415.16"/><line class="cls-3" x1="4943.77" y1="313.15" x2="4943.77" y2="415.16"/><line class="cls-3" x1="6958.64" y1="313.15" x2="6958.64" y2="415.16"/><line class="cls-3" x1="9208.35" y1="313.15" x2="9208.35" y2="415.16"/><line class="cls-1" x1="9226.6" y1="313.15" x2="9226.6" y2="415.16"/><line class="cls-3" x1="44" y1="50.63" x2="44" y2="314.15"/><line class="cls-3" x1="2609.52" y1="50.63" x2="2609.52" y2="152.63"/><line class="cls-3" x1="4943.77" y1="50.63" x2="4943.77" y2="152.63"/><line class="cls-3" x1="6958.64" y1="50.63" x2="6958.64" y2="152.63"/><line class="cls-3" x1="9208.35" y1="50.63" x2="9208.35" y2="314.13"/><line class="cls-1" x1="9226.6" y1="50.63" x2="9226.6" y2="314.13"/><line class="cls-2" x1="3850.72" y1="439.16" x2="3898.64" y2="439.16"/><line class="cls-2" x1="4416.57" y1="439.16" x2="4464.48" y2="439.16"/><line class="cls-2" x1="8107.61" y1="439.16" x2="8155.53" y2="439.16"/><line class="cls-2" x1="8361.2" y1="439.16" x2="8409.12" y2="439.16"/><line class="cls-2" x1="8615.89" y1="439.16" x2="8663.81" y2="439.16"/><line class="cls-4" x1="394.7" y1="371.95" x2="394.7" y2="295.4"/><line class="cls-4" x1="1496.68" y1="421.95" x2="1496.68" y2="345.4"/><line class="cls-4" x1="1838.88" y1="421.95" x2="1838.88" y2="345.4"/><line class="cls-4" x1="3564.04" y1="384.45" x2="3564.04" y2="304.77"/><line class="cls-4" x1="3889.51" y1="434.45" x2="3889.51" y2="351.65"/><line class="cls-4" x1="4455.36" y1="446.95" x2="4455.36" y2="364.15"/><line class="cls-4" x1="5011.57" y1="371.95" x2="5011.57" y2="295.4"/><line class="cls-4" x1="5779.25" y1="371.95" x2="5779.25" y2="295.4"/><line class="cls-4" x1="6015.3" y1="421.95" x2="6015.3" y2="345.4"/><line class="cls-4" x1="6279.79" y1="421.95" x2="6279.79" y2="345.4"/><line class="cls-4" x1="6515.84" y1="421.95" x2="6515.84" y2="339.15"/><line class="cls-4" x1="7027.34" y1="384.45" x2="7027.34" y2="304.77"/><line class="cls-4" x1="7866.71" y1="384.45" x2="7866.71" y2="304.77"/><line class="cls-4" x1="8146.4" y1="434.45" x2="8146.4" y2="364.15"/><line class="cls-4" x1="8399.99" y1="434.45" x2="8399.99" y2="364.15"/><line class="cls-4" x1="8654.69" y1="446.95" x2="8654.69" y2="364.15"/><line class="cls-4" x1="1933.69" y1="118.82" x2="1933.69" y2="201.64"/><line class="cls-4" x1="4425.69" y1="118.82" x2="4425.69" y2="198.51"/><line class="cls-4" x1="8954.38" y1="143.83" x2="8954.38" y2="226.65"/><line class="cls-4" x1="394.7" y1="146.94" x2="394.7" y2="64.13"/><line class="cls-4" x1="892.6" y1="96.93" x2="892.6" y2="23.5"/><line class="cls-4" x1="1496.68" y1="96.93" x2="1496.68" y2="23.5"/><line class="cls-4" x1="2389.87" y1="121.93" x2="2389.87" y2="42.25"/><line class="cls-4" x1="2706.98" y1="134.44" x2="2706.98" y2="51.63"/><line class="cls-4" x1="2984.31" y1="121.93" x2="2984.31" y2="51.63"/><line class="cls-4" x1="3113.74" y1="134.44" x2="3113.74" y2="51.63"/><line class="cls-4" x1="3391.06" y1="146.94" x2="3391.06" y2="76.63"/><line class="cls-4" x1="3564.04" y1="146.94" x2="3564.04" y2="63.15"/><line class="cls-4" x1="3711.95" y1="121.93" x2="3711.95" y2="51.63"/><line class="cls-4" x1="4714.21" y1="71.93" x2="4714.21" y2="1.62"/><line class="cls-4" x1="4981.9" y1="68.82" x2="4981.9" y2="151.63"/><line class="cls-4" x1="5543.2" y1="121.93" x2="5543.2" y2="51.63"/><line class="cls-4" x1="5779.25" y1="134.44" x2="5779.25" y2="57.88"/><line class="cls-4" x1="6015.3" y1="146.94" x2="6015.3" y2="64.13"/><line class="cls-4" x1="6751.88" y1="121.93" x2="6751.88" y2="42.25"/><line class="cls-4" x1="7027.34" y1="134.44" x2="7027.34" y2="51.63"/><line class="cls-4" x1="7280.92" y1="121.93" x2="7280.92" y2="51.63"/><line class="cls-4" x1="7407.72" y1="134.44" x2="7407.72" y2="51.63"/><line class="cls-4" x1="7866.71" y1="146.94" x2="7866.71" y2="76.63"/><line class="cls-4" x1="8019.61" y1="146.94" x2="8019.61" y2="76.63"/><line class="cls-4" x1="8654.69" y1="121.93" x2="8654.69" y2="42.25"/><path d="M385.38,362.89c3.12,0,5.73,.78,7.81,2.34,2.08,1.57,3.12,3.81,3.12,6.74,0,4.49-2.32,8.69-6.98,12.59-4.65,3.91-9.65,5.86-14.99,5.86-3.12,0-5.76-.81-7.91-2.44-2.02-1.76-3.03-3.97-3.03-6.64,0-4.36,2.31-8.53,6.94-12.5s9.64-5.95,15.03-5.95"/><path d="M1487.36,412.89c3.12,0,5.72,.78,7.81,2.35,2.08,1.56,3.12,3.8,3.12,6.73,0,4.49-2.32,8.69-6.97,12.6-4.65,3.9-9.65,5.85-15,5.85-3.12,0-5.76-.81-7.9-2.43-2.02-1.76-3.03-3.98-3.03-6.64,0-4.37,2.31-8.53,6.93-12.5,4.63-3.97,9.64-5.96,15.04-5.96"/><path d="M1829.55,412.89c3.13,0,5.73,.78,7.82,2.35,2.08,1.56,3.12,3.8,3.12,6.73,0,4.49-2.32,8.69-6.97,12.6-4.66,3.9-9.65,5.85-15,5.85-3.12,0-5.76-.81-7.9-2.43-2.02-1.76-3.03-3.98-3.03-6.64,0-4.37,2.31-8.53,6.93-12.5,4.63-3.97,9.64-5.96,15.03-5.96"/><path d="M3554.72,375.39c3.13,0,5.73,.78,7.81,2.34,2.09,1.57,3.13,3.81,3.13,6.74,0,4.49-2.33,8.69-6.98,12.59-4.65,3.91-9.65,5.86-14.99,5.86-3.12,0-5.76-.81-7.91-2.44-2.02-1.76-3.03-3.97-3.03-6.64,0-4.36,2.32-8.53,6.94-12.5,4.63-3.96,9.64-5.95,15.03-5.95"/><path d="M3880.19,425.39c3.13,0,5.73,.79,7.81,2.35,2.09,1.56,3.13,3.81,3.13,6.73,0,4.49-2.33,8.69-6.98,12.6-4.65,3.9-9.65,5.86-14.99,5.86-3.13,0-5.76-.82-7.91-2.44-2.02-1.76-3.03-3.98-3.03-6.64,0-4.37,2.31-8.53,6.94-12.5,4.62-3.97,9.63-5.96,15.03-5.96"/><path d="M4446.04,437.89c3.12,0,5.73,.79,7.81,2.35,2.08,1.56,3.12,3.81,3.12,6.73,0,4.49-2.32,8.69-6.97,12.6-4.65,3.9-9.65,5.86-14.99,5.86-3.13,0-5.76-.82-7.91-2.44-2.02-1.76-3.03-3.98-3.03-6.64,0-4.37,2.31-8.53,6.94-12.5,4.62-3.97,9.63-5.96,15.03-5.96"/><path d="M5002.25,362.89c3.12,0,5.73,.78,7.81,2.34,2.08,1.57,3.12,3.81,3.12,6.74,0,4.49-2.32,8.69-6.97,12.59-4.65,3.91-9.65,5.86-15,5.86-3.12,0-5.76-.81-7.9-2.44-2.02-1.76-3.03-3.97-3.03-6.64,0-4.36,2.31-8.53,6.93-12.5,4.63-3.97,9.64-5.95,15.04-5.95"/><path d="M5769.93,362.89c3.12,0,5.73,.78,7.81,2.34,2.08,1.57,3.13,3.81,3.13,6.74,0,4.49-2.33,8.69-6.98,12.59-4.65,3.91-9.65,5.86-14.99,5.86-3.13,0-5.76-.81-7.91-2.44-2.02-1.76-3.03-3.97-3.03-6.64,0-4.36,2.31-8.53,6.94-12.5,4.62-3.97,9.63-5.95,15.03-5.95"/><path d="M6005.98,412.89c3.12,0,5.72,.78,7.81,2.35,2.08,1.56,3.12,3.8,3.12,6.73,0,4.49-2.32,8.69-6.97,12.6-4.65,3.9-9.65,5.85-15,5.85-3.12,0-5.76-.81-7.9-2.43-2.02-1.76-3.03-3.98-3.03-6.64,0-4.37,2.31-8.53,6.93-12.5,4.63-3.97,9.64-5.96,15.04-5.96"/><path d="M6270.47,412.89c3.12,0,5.73,.78,7.81,2.35,2.08,1.56,3.13,3.8,3.13,6.73,0,4.49-2.33,8.69-6.98,12.6-4.65,3.9-9.65,5.85-14.99,5.85-3.13,0-5.76-.81-7.91-2.43-2.02-1.76-3.03-3.98-3.03-6.64,0-4.37,2.31-8.53,6.94-12.5,4.62-3.97,9.63-5.96,15.03-5.96"/><path d="M6506.52,412.89c3.12,0,5.72,.78,7.81,2.35,2.08,1.56,3.12,3.8,3.12,6.73,0,4.49-2.32,8.69-6.97,12.6-4.65,3.9-9.65,5.85-15,5.85-3.12,0-5.76-.81-7.9-2.43-2.02-1.76-3.03-3.98-3.03-6.64,0-4.37,2.31-8.53,6.93-12.5,4.63-3.97,9.64-5.96,15.04-5.96"/><path d="M7018.01,375.39c3.13,0,5.73,.78,7.82,2.34,2.08,1.57,3.12,3.81,3.12,6.74,0,4.49-2.32,8.69-6.98,12.59-4.65,3.91-9.64,5.86-14.99,5.86-3.12,0-5.76-.81-7.9-2.44-2.03-1.76-3.04-3.97-3.04-6.64,0-4.36,2.32-8.53,6.94-12.5,4.63-3.96,9.64-5.95,15.03-5.95"/><path d="M7857.39,375.39c3.12,0,5.73,.78,7.81,2.34,2.08,1.57,3.13,3.81,3.13,6.74,0,4.49-2.33,8.69-6.98,12.59-4.65,3.91-9.65,5.86-14.99,5.86-3.13,0-5.76-.81-7.91-2.44-2.02-1.76-3.03-3.97-3.03-6.64,0-4.36,2.31-8.53,6.94-12.5,4.62-3.96,9.63-5.95,15.03-5.95"/><path d="M8137.08,425.39c3.13,0,5.73,.79,7.82,2.35,2.08,1.56,3.12,3.81,3.12,6.73,0,4.49-2.33,8.69-6.98,12.6-4.65,3.9-9.64,5.86-14.99,5.86-3.12,0-5.76-.82-7.9-2.44-2.03-1.76-3.04-3.98-3.04-6.64,0-4.37,2.32-8.53,6.94-12.5,4.63-3.97,9.64-5.96,15.03-5.96"/><path d="M8390.67,425.39c3.13,0,5.73,.79,7.81,2.35,2.09,1.56,3.13,3.81,3.13,6.73,0,4.49-2.33,8.69-6.98,12.6-4.65,3.9-9.65,5.86-14.99,5.86-3.13,0-5.76-.82-7.91-2.44-2.02-1.76-3.03-3.98-3.03-6.64,0-4.37,2.31-8.53,6.94-12.5,4.62-3.97,9.63-5.96,15.03-5.96"/><path d="M8645.36,437.89c3.13,0,5.73,.79,7.82,2.35,2.08,1.56,3.12,3.81,3.12,6.73,0,4.49-2.32,8.69-6.98,12.6-4.65,3.9-9.64,5.86-14.99,5.86-3.12,0-5.76-.82-7.9-2.44-2.02-1.76-3.03-3.98-3.03-6.64,0-4.37,2.31-8.53,6.93-12.5,4.63-3.97,9.64-5.96,15.03-5.96"/><path d="M1954.03,100.36c3.12,0,5.73,.78,7.81,2.35,2.08,1.56,3.13,3.8,3.13,6.73,0,4.49-2.33,8.69-6.98,12.6-4.65,3.9-9.65,5.85-14.99,5.85-3.13,0-5.76-.81-7.91-2.43-2.02-1.76-3.03-3.98-3.03-6.64,0-4.37,2.31-8.53,6.94-12.5,4.62-3.97,9.63-5.96,15.03-5.96"/><path d="M4416.37,112.86c3.13,0,5.73,.79,7.81,2.35,2.09,1.56,3.13,3.81,3.13,6.73,0,4.49-2.33,8.69-6.98,12.6-4.65,3.9-9.65,5.86-14.99,5.86-3.13,0-5.76-.82-7.91-2.44-2.02-1.76-3.03-3.98-3.03-6.64,0-4.37,2.31-8.53,6.94-12.5,4.62-3.97,9.64-5.96,15.03-5.96"/><path d="M4446.04,100.36c3.12,0,5.73,.78,7.81,2.35,2.08,1.56,3.12,3.8,3.12,6.73,0,4.49-2.32,8.69-6.97,12.6-4.65,3.9-9.65,5.85-14.99,5.85-3.13,0-5.76-.81-7.91-2.43-2.02-1.76-3.03-3.98-3.03-6.64,0-4.37,2.31-8.53,6.94-12.5,4.62-3.97,9.63-5.96,15.03-5.96"/><path d="M8974.73,125.38c3.12,0,5.73,.78,7.81,2.34,2.08,1.56,3.12,3.81,3.12,6.73,0,4.49-2.32,8.69-6.97,12.6-4.65,3.9-9.65,5.86-15,5.86-3.12,0-5.76-.82-7.9-2.44-2.02-1.76-3.03-3.98-3.03-6.64,0-4.37,2.31-8.53,6.93-12.5,4.63-3.97,9.64-5.95,15.04-5.95"/><path d="M385.38,137.88c3.12,0,5.73,.78,7.81,2.34,2.08,1.56,3.12,3.81,3.12,6.73,0,4.49-2.32,8.69-6.98,12.6-4.65,3.9-9.65,5.86-14.99,5.86-3.12,0-5.76-.82-7.91-2.44-2.02-1.76-3.03-3.97-3.03-6.64,0-4.37,2.31-8.53,6.94-12.5s9.64-5.95,15.03-5.95"/><path d="M883.27,87.86c3.13,0,5.73,.78,7.82,2.35,2.08,1.56,3.12,3.8,3.12,6.73,0,4.49-2.32,8.69-6.98,12.59-4.65,3.91-9.64,5.86-14.99,5.86-3.12,0-5.76-.81-7.9-2.43-2.02-1.76-3.04-3.98-3.04-6.64,0-4.37,2.32-8.54,6.94-12.5,4.63-3.97,9.64-5.96,15.03-5.96"/><path d="M1487.36,87.86c3.12,0,5.72,.78,7.81,2.35,2.08,1.56,3.12,3.8,3.12,6.73,0,4.49-2.32,8.69-6.97,12.59-4.65,3.91-9.65,5.86-15,5.86-3.12,0-5.76-.81-7.9-2.43-2.02-1.76-3.03-3.98-3.03-6.64,0-4.37,2.31-8.54,6.93-12.5,4.63-3.97,9.64-5.96,15.04-5.96"/><path d="M2380.54,112.86c3.13,0,5.73,.79,7.82,2.35,2.08,1.56,3.12,3.81,3.12,6.73,0,4.49-2.32,8.69-6.98,12.6-4.65,3.9-9.64,5.86-14.99,5.86-3.12,0-5.76-.82-7.9-2.44-2.02-1.76-3.04-3.98-3.04-6.64,0-4.37,2.32-8.53,6.94-12.5,4.63-3.97,9.64-5.96,15.03-5.96"/><path d="M2697.66,125.38c3.13,0,5.73,.78,7.81,2.34,2.09,1.56,3.13,3.81,3.13,6.73,0,4.49-2.33,8.69-6.98,12.6-4.65,3.9-9.65,5.86-14.99,5.86-3.13,0-5.76-.82-7.91-2.44-2.02-1.76-3.03-3.98-3.03-6.64,0-4.37,2.31-8.53,6.94-12.5,4.62-3.97,9.63-5.95,15.03-5.95"/><path d="M2974.99,112.86c3.12,0,5.73,.79,7.81,2.35,2.08,1.56,3.13,3.81,3.13,6.73,0,4.49-2.33,8.69-6.98,12.6-4.65,3.9-9.65,5.86-14.99,5.86-3.13,0-5.76-.82-7.91-2.44-2.02-1.76-3.03-3.98-3.03-6.64,0-4.37,2.31-8.53,6.94-12.5,4.62-3.97,9.63-5.96,15.03-5.96"/><path d="M3104.41,125.38c3.13,0,5.73,.78,7.82,2.34,2.08,1.56,3.12,3.81,3.12,6.73,0,4.49-2.32,8.69-6.97,12.6-4.66,3.9-9.65,5.86-15,5.86-3.12,0-5.76-.82-7.9-2.44-2.02-1.76-3.03-3.98-3.03-6.64,0-4.37,2.31-8.53,6.93-12.5,4.63-3.97,9.64-5.95,15.03-5.95"/><path d="M3381.74,137.88c3.13,0,5.73,.78,7.81,2.34,2.09,1.56,3.13,3.81,3.13,6.73,0,4.49-2.33,8.69-6.98,12.6-4.65,3.9-9.65,5.86-14.99,5.86-3.12,0-5.76-.82-7.91-2.44-2.02-1.76-3.03-3.97-3.03-6.64,0-4.37,2.32-8.53,6.94-12.5,4.63-3.97,9.64-5.95,15.03-5.95"/><path d="M3554.72,137.88c3.13,0,5.73,.78,7.81,2.34,2.09,1.56,3.13,3.81,3.13,6.73,0,4.49-2.33,8.69-6.98,12.6-4.65,3.9-9.65,5.86-14.99,5.86-3.12,0-5.76-.82-7.91-2.44-2.02-1.76-3.03-3.97-3.03-6.64,0-4.37,2.32-8.53,6.94-12.5,4.63-3.97,9.64-5.95,15.03-5.95"/><path d="M3702.62,112.86c3.13,0,5.73,.79,7.82,2.35,2.08,1.56,3.12,3.81,3.12,6.73,0,4.49-2.32,8.69-6.98,12.6-4.65,3.9-9.64,5.86-14.99,5.86-3.12,0-5.76-.82-7.9-2.44-2.03-1.76-3.04-3.98-3.04-6.64,0-4.37,2.32-8.53,6.94-12.5,4.63-3.97,9.64-5.96,15.03-5.96"/><path d="M4704.89,62.86c3.13,0,5.73,.78,7.81,2.34,2.09,1.57,3.13,3.81,3.13,6.74,0,4.49-2.33,8.69-6.98,12.59-4.65,3.91-9.65,5.86-14.99,5.86-3.13,0-5.76-.81-7.91-2.44-2.02-1.76-3.03-3.97-3.03-6.64,0-4.36,2.31-8.53,6.94-12.5,4.62-3.96,9.63-5.95,15.03-5.95"/><path d="M5002.25,50.36c3.12,0,5.73,.78,7.81,2.34,2.08,1.57,3.12,3.81,3.12,6.74,0,4.49-2.32,8.69-6.97,12.59-4.65,3.91-9.65,5.86-15,5.86-3.12,0-5.76-.81-7.9-2.44-2.02-1.76-3.03-3.97-3.03-6.64,0-4.36,2.31-8.53,6.93-12.5,4.63-3.97,9.64-5.95,15.04-5.95"/><path d="M5533.88,112.86c3.13,0,5.73,.79,7.82,2.35,2.08,1.56,3.12,3.81,3.12,6.73,0,4.49-2.33,8.69-6.98,12.6-4.65,3.9-9.64,5.86-14.99,5.86-3.12,0-5.76-.82-7.9-2.44-2.03-1.76-3.04-3.98-3.04-6.64,0-4.37,2.32-8.53,6.94-12.5,4.63-3.97,9.64-5.96,15.03-5.96"/><path d="M5769.93,125.38c3.12,0,5.73,.78,7.81,2.34,2.08,1.56,3.13,3.81,3.13,6.73,0,4.49-2.33,8.69-6.98,12.6-4.65,3.9-9.65,5.86-14.99,5.86-3.13,0-5.76-.82-7.91-2.44-2.02-1.76-3.03-3.98-3.03-6.64,0-4.37,2.31-8.53,6.94-12.5,4.62-3.97,9.63-5.95,15.03-5.95"/><path d="M6005.98,137.88c3.12,0,5.72,.78,7.81,2.34,2.08,1.56,3.12,3.81,3.12,6.73,0,4.49-2.32,8.69-6.97,12.6-4.65,3.9-9.65,5.86-15,5.86-3.12,0-5.76-.82-7.9-2.44-2.02-1.76-3.03-3.97-3.03-6.64,0-4.37,2.31-8.53,6.93-12.5,4.63-3.97,9.64-5.95,15.04-5.95"/><path d="M6742.56,112.86c3.13,0,5.73,.79,7.81,2.35,2.09,1.56,3.13,3.81,3.13,6.73,0,4.49-2.33,8.69-6.98,12.6-4.65,3.9-9.65,5.86-14.99,5.86-3.12,0-5.76-.82-7.91-2.44-2.02-1.76-3.03-3.98-3.03-6.64,0-4.37,2.32-8.53,6.94-12.5,4.63-3.97,9.64-5.96,15.03-5.96"/><path d="M7018.01,125.38c3.13,0,5.73,.78,7.82,2.34,2.08,1.56,3.12,3.81,3.12,6.73,0,4.49-2.32,8.69-6.98,12.6-4.65,3.9-9.64,5.86-14.99,5.86-3.12,0-5.76-.82-7.9-2.44-2.03-1.76-3.04-3.98-3.04-6.64,0-4.37,2.32-8.53,6.94-12.5,4.63-3.97,9.64-5.95,15.03-5.95"/><path d="M7271.6,112.86c3.13,0,5.73,.79,7.81,2.35,2.09,1.56,3.13,3.81,3.13,6.73,0,4.49-2.33,8.69-6.98,12.6-4.65,3.9-9.65,5.86-14.99,5.86-3.13,0-5.76-.82-7.91-2.44-2.02-1.76-3.03-3.98-3.03-6.64,0-4.37,2.31-8.53,6.94-12.5,4.62-3.97,9.64-5.96,15.03-5.96"/><path d="M7398.39,125.38c3.13,0,5.73,.78,7.82,2.34,2.08,1.56,3.12,3.81,3.12,6.73,0,4.49-2.32,8.69-6.97,12.6-4.66,3.9-9.65,5.86-15,5.86-3.12,0-5.76-.82-7.9-2.44-2.02-1.76-3.03-3.98-3.03-6.64,0-4.37,2.31-8.53,6.93-12.5,4.63-3.97,9.64-5.95,15.03-5.95"/><path d="M7857.39,137.88c3.12,0,5.73,.78,7.81,2.34,2.08,1.56,3.13,3.81,3.13,6.73,0,4.49-2.33,8.69-6.98,12.6-4.65,3.9-9.65,5.86-14.99,5.86-3.13,0-5.76-.82-7.91-2.44-2.02-1.76-3.03-3.97-3.03-6.64,0-4.37,2.31-8.53,6.94-12.5,4.62-3.97,9.63-5.95,15.03-5.95"/><path d="M8010.29,137.88c3.12,0,5.73,.78,7.81,2.34,2.08,1.56,3.13,3.81,3.13,6.73,0,4.49-2.33,8.69-6.98,12.6-4.65,3.9-9.65,5.86-14.99,5.86-3.13,0-5.76-.82-7.91-2.44-2.02-1.76-3.03-3.97-3.03-6.64,0-4.37,2.31-8.53,6.94-12.5,4.62-3.97,9.63-5.95,15.03-5.95"/><path d="M8645.36,112.86c3.13,0,5.73,.79,7.82,2.35,2.08,1.56,3.12,3.81,3.12,6.73,0,4.49-2.32,8.69-6.98,12.6-4.65,3.9-9.64,5.86-14.99,5.86-3.12,0-5.76-.82-7.9-2.44-2.02-1.76-3.03-3.98-3.03-6.64,0-4.37,2.31-8.53,6.93-12.5,4.63-3.97,9.64-5.96,15.03-5.96"/><path d="M124.41,330.25c-.97-.98-1.46-2.18-1.46-3.61s.49-2.64,1.46-3.61c.97-.98,2.18-1.46,3.61-1.46s2.64,.48,3.62,1.46c.98,.97,1.47,2.17,1.47,3.61s-.49,2.63-1.47,3.61-2.18,1.47-3.62,1.47-2.63-.49-3.61-1.47m0,25.01c-.97-.97-1.46-2.18-1.46-3.61s.49-2.64,1.46-3.62,2.18-1.46,3.61-1.46,2.64,.48,3.62,1.46,1.47,2.19,1.47,3.62-.49,2.64-1.47,3.61-2.18,1.46-3.62,1.46-2.63-.49-3.61-1.46m-33.88-42.38c8.66,0,15.75,2.17,21.28,6.53,5.34,4.56,8.02,10.75,8.02,18.56,0,4.75-1.01,9.49-3.03,14.21-2.02,4.73-4.66,8.84-7.91,12.35-5.93,6.58-14.02,12.53-24.27,17.87-10.26,5.34-15.92,8.01-16.99,8.01s-1.61-.42-1.61-1.27c0-.32,.13-.61,.39-.87,3.32-1.96,6.97-4.21,10.94-6.74,3.97-2.54,8.01-5.55,12.11-9.04,4.1-3.48,7.28-6.7,9.52-9.67,2.24-2.96,4.31-6.62,6.2-10.97,1.62-4.37,2.44-8.67,2.44-12.91,0-6.31-1.56-11.81-4.69-16.5-3.12-4.69-7.26-7.03-12.39-7.03-3.65,0-6.84,1.22-9.57,3.66-2.74,2.45-4.69,5.42-5.87,8.93,1.24-.52,2.38-.78,3.42-.78,2.73,0,5.07,1.01,7.02,3.03s2.93,4.4,2.93,7.14-.94,5.21-2.83,7.43c-2.02,2.01-4.45,3.01-7.27,3.01s-5.41-1-7.76-3.01c-2.22-2.22-3.33-4.73-3.33-7.54,0-6.7,2.26-12.45,6.79-17.23,4.53-4.78,10.01-7.17,16.46-7.17"/><path d="M109.17,158.76v-2.15c-.06-1.1-.22-2.82-.49-5.17-3.25,.52-6.15,.78-8.69,.78-9.12,0-16.85-3.6-23.2-10.79-6.35-7.2-9.52-15.78-9.52-25.74,0-2.66,.52-5.87,1.56-9.61,1.04-3.75,2-6.26,2.88-7.53s2.2-3.5,3.96-6.69c.52-.97,2.21-3.13,5.08-6.45,.52-.71,.98-1.29,1.37-1.75,.39-.46,1.02-1.27,1.9-2.44,.88-1.18,1.82-2.27,2.83-3.28,1.01-1.01,1.91-1.98,2.69-2.93,.78-.94,1.5-1.73,2.16-2.38-2.34-7.75-3.78-13.71-4.3-17.87-.52-4.17-.78-9.28-.78-15.34s1.3-11.56,3.91-16.51c2.53-5.13,6.08-9.33,10.64-12.59,.26-.2,.6-.3,1.02-.3s.73,.1,.93,.3c3.51,4.23,6.55,9.73,9.12,16.5s3.86,13.1,3.86,19-1.49,11.58-4.48,17.04c-3.39,5.8-7.75,11.79-13.09,17.97,1.36,4.29,3.19,11.03,5.47,20.21h.59c.26-.07,.49-.1,.67-.1,7.37,0,13.37,2.59,18.02,7.77,4.65,5.18,6.98,11.15,6.98,17.92,0,8.4-3.48,15.17-10.44,20.31-2.02,1.5-4.4,2.67-7.14,3.52,.33,4.23,.5,7.04,.5,8.44s-.07,3.9-.2,7.48c-.06,6.11-2.15,11.35-6.25,15.72-4.1,4.36-8.79,6.55-14.06,6.55s-9.76-1.88-13.48-5.62c-3.71-3.75-5.57-8.29-5.57-13.62,0-2.8,1.08-5.18,3.23-7.14,2.21-1.95,4.7-2.92,7.46-2.92s5.03,1.01,6.79,3.03c1.82,1.89,2.73,4.16,2.73,6.83s-.91,4.91-2.73,6.73c-1.82,1.83-4,2.74-6.55,2.74-1.04,0-2.05-.2-3.01-.58,2.86,4.23,6.54,6.34,11.03,6.34s8.33-1.85,11.52-5.56c3.19-3.71,4.79-8.07,4.79-13.09l.28-7.03m3.12-12.3c3.39-1.24,6.07-3.44,8.06-6.6,1.99-3.15,2.98-6.29,2.98-9.42,0-4.62-1.6-8.76-4.79-12.4-3.19-3.65-7.23-5.7-12.12-6.16,2.8,13.74,4.76,25.27,5.86,34.58m-37.78-22.56c0,6.44,2.57,12.08,7.71,16.89,5.14,4.82,11.16,7.23,18.07,7.23,2.73,0,5.39-.2,8-.59-1.04-9.9-3.09-21.75-6.16-35.55-3.83,.4-6.81,1.72-8.93,3.96-2.12,2.25-3.18,4.8-3.18,7.67,0,4.94,2.64,8.95,7.92,12.01,.45,.26,.67,.7,.67,1.32s-.21,1.16-.63,1.61c-.42,.45-.79,.68-1.12,.68s-.74-.06-1.27-.19c-7.62-4.16-11.44-10.45-11.44-18.86,0-3.97,1.4-7.77,4.2-11.42,2.93-3.64,6.73-5.99,11.42-7.03-1.82-7.29-3.32-12.99-4.49-17.09-8.92,10.03-14.45,17.45-16.61,22.26-2.79,6.25-4.19,11.95-4.19,17.1M107.12,24.58c-4.89,2.41-8.74,5.89-11.57,10.45-2.83,4.56-4.24,9.34-4.24,14.35s1.17,11.49,3.52,19.44c4.69-5.67,8.23-10.98,10.64-15.92,2.41-4.95,3.61-9.85,3.61-14.7s-.65-9.39-1.95-13.62"/><path d="M209.33,419.23l-1.27-62.11c0-.98,.77-1.47,2.3-1.47s2.3,.49,2.3,1.47l-.78,33.89c1.76-1.76,3.27-2.99,4.54-3.67,1.26-.68,2.99-1.02,5.17-1.02s4.2,1.01,6.05,3.02c1.85,2.02,2.78,4.53,2.78,7.53,0,4.49-4.72,10.7-14.16,18.65-3.51,3.19-5.33,4.78-5.47,4.78h-.58c-.59,0-.89-.36-.89-1.07m2.45-25.1l-.3,22.17c2.02-1.89,4.07-5.04,6.16-9.43,2.08-4.4,3.12-8.16,3.12-11.29,0-1.56-.26-2.99-.78-4.29s-1.34-1.96-2.44-1.96-2.11,.4-2.99,1.18-1.8,1.99-2.77,3.62"/><path d="M184.33,369.22l-1.27-62.11c0-.98,.77-1.47,2.3-1.47s2.3,.49,2.3,1.47l-.78,33.89c1.76-1.76,3.27-2.98,4.54-3.66s2.99-1.02,5.17-1.02,4.2,1,6.05,3.02c1.85,2.02,2.78,4.52,2.78,7.52,0,4.49-4.72,10.71-14.16,18.66-3.51,3.19-5.33,4.78-5.47,4.78h-.58c-.59,0-.89-.36-.89-1.08m2.45-25.09l-.3,22.17c2.02-1.9,4.07-5.04,6.16-9.44,2.08-4.39,3.12-8.15,3.12-11.28,0-1.56-.26-2.99-.78-4.3-.52-1.3-1.34-1.95-2.45-1.95s-2.1,.39-2.98,1.17c-.88,.78-1.8,1.99-2.77,3.63"/><path d="M159.33,406.72l-1.27-62.1c0-.98,.77-1.47,2.3-1.47s2.3,.49,2.3,1.47l-.78,33.89c1.76-1.76,3.27-2.99,4.54-3.67,1.27-.68,2.99-1.02,5.17-1.02s4.2,1.01,6.05,3.02c1.85,2.02,2.78,4.53,2.78,7.53,0,4.48-4.72,10.7-14.16,18.65-3.51,3.19-5.33,4.78-5.47,4.78h-.58c-.59,0-.89-.36-.89-1.08m2.45-25.09l-.3,22.17c2.02-1.89,4.07-5.04,6.16-9.43,2.08-4.4,3.12-8.16,3.12-11.29,0-1.56-.26-2.99-.78-4.29s-1.34-1.96-2.45-1.96-2.1,.39-2.98,1.18c-.88,.78-1.8,1.99-2.77,3.62"/><path d="M209.33,131.71l-1.27-62.11c0-.98,.77-1.47,2.3-1.47s2.3,.49,2.3,1.47l-.78,33.89c1.76-1.76,3.27-2.98,4.54-3.67,1.26-.68,2.99-1.02,5.17-1.02s4.2,1.01,6.05,3.02c1.85,2.02,2.78,4.53,2.78,7.53,0,4.49-4.72,10.71-14.16,18.65-3.51,3.19-5.33,4.79-5.47,4.79h-.58c-.59,0-.89-.36-.89-1.08m2.45-25.1l-.3,22.18c2.02-1.9,4.07-5.05,6.16-9.44,2.08-4.4,3.12-8.16,3.12-11.28,0-1.57-.26-3-.78-4.3-.52-1.3-1.34-1.95-2.44-1.95s-2.11,.39-2.99,1.17c-.88,.78-1.8,1.99-2.77,3.62"/><path d="M184.33,81.7l-1.27-62.11c0-.97,.77-1.46,2.3-1.46s2.3,.49,2.3,1.46l-.78,33.9c1.76-1.76,3.27-2.99,4.54-3.67,1.27-.68,2.99-1.02,5.17-1.02s4.2,1.01,6.05,3.02c1.85,2.02,2.78,4.52,2.78,7.52,0,4.49-4.72,10.71-14.16,18.66-3.51,3.19-5.33,4.78-5.47,4.78h-.58c-.59,0-.89-.36-.89-1.08m2.45-25.09l-.3,22.17c2.02-1.89,4.07-5.04,6.16-9.44,2.08-4.39,3.12-8.15,3.12-11.28,0-1.56-.26-2.99-.78-4.29-.52-1.31-1.34-1.96-2.45-1.96s-2.1,.39-2.98,1.18c-.88,.78-1.8,1.99-2.77,3.62"/><path d="M159.33,119.21l-1.27-62.11c0-.98,.77-1.47,2.3-1.47s2.3,.49,2.3,1.47l-.78,33.89c1.76-1.76,3.27-2.98,4.54-3.67,1.27-.68,2.99-1.02,5.17-1.02s4.2,1.01,6.05,3.02c1.85,2.02,2.78,4.53,2.78,7.53,0,4.49-4.72,10.71-14.16,18.65-3.51,3.19-5.33,4.78-5.47,4.78h-.58c-.59,0-.89-.35-.89-1.07m2.45-25.1l-.3,22.17c2.02-1.89,4.07-5.04,6.16-9.43,2.08-4.4,3.12-8.16,3.12-11.28,0-1.57-.26-3-.78-4.3-.52-1.3-1.34-1.95-2.45-1.95s-2.1,.39-2.98,1.17c-.88,.78-1.8,1.99-2.77,3.62"/><path d="M278.75,315.32c1.49,0,2.93-.22,4.3-.68,1.37-.45,2.35-.68,2.93-.68s.97,.36,1.17,1.07c0,.07-.07,.27-.2,.59l-28.41,33.02h16.69v-13.1c0-1.62,.95-2.8,2.84-3.51,1.95-.72,4.16-3.62,6.64-8.69,.19-.4,.48-.6,.88-.6,.78,0,1.23,.46,1.36,1.38v24.52h7.14c.91,0,1.39,.48,1.46,1.46,.07,.97-.42,1.46-1.46,1.46h-7.14v.78c0,2.6,.65,4.82,1.95,6.64,1.5,1.82,3.26,2.73,5.28,2.73,.78,0,1.17,.39,1.17,1.18s-.54,1.17-1.61,1.17-3.08-.21-6.01-.64c-2.93-.42-5.2-.63-6.79-.63s-3.81,.21-6.64,.63c-2.83,.43-4.96,.64-6.39,.64-.78,0-1.17-.39-1.17-1.17s.39-1.18,1.17-1.18c2.01,0,3.76-.91,5.26-2.73,1.37-1.89,2.05-4.1,2.05-6.64v-.78h-16.69c-.85,0-1.59-.23-2.21-.68-.62-.46-.93-.88-.93-1.27s.82-1.56,2.45-3.51c1.63-1.96,3.96-5.72,6.99-11.28,3.03-5.57,4.54-11.97,4.54-19.2,0-1.04,.46-1.56,1.38-1.56,.2,0,.51,.06,.93,.19,.42,.13,1.33,.34,2.73,.64,1.4,.29,2.85,.43,4.34,.43"/><path d="M278.75,365.5c1.49,0,2.93-.23,4.3-.68,1.37-.45,2.35-.68,2.93-.68s.97,.35,1.17,1.06c0,.07-.07,.27-.2,.59l-28.41,33.02h16.69v-13.09c0-1.63,.95-2.8,2.84-3.52,1.95-.72,4.16-3.61,6.64-8.69,.19-.39,.48-.59,.88-.59,.78,0,1.23,.46,1.36,1.37v24.52h7.14c.91,0,1.39,.49,1.46,1.46,.07,.98-.42,1.46-1.46,1.46h-7.14v.78c0,2.61,.65,4.82,1.95,6.64,1.5,1.83,3.26,2.74,5.28,2.74,.78,0,1.17,.39,1.17,1.17s-.54,1.17-1.61,1.17-3.08-.21-6.01-.63c-2.93-.42-5.2-.63-6.79-.63s-3.81,.21-6.64,.63c-2.83,.42-4.96,.63-6.39,.63-.78,0-1.17-.39-1.17-1.17s.39-1.17,1.17-1.17c2.01,0,3.76-.91,5.26-2.74,1.37-1.88,2.05-4.09,2.05-6.64v-.78h-16.69c-.85,0-1.59-.22-2.21-.68-.62-.45-.93-.87-.93-1.26s.82-1.57,2.45-3.52c1.63-1.95,3.96-5.71,6.99-11.28,3.03-5.57,4.54-11.97,4.54-19.2,0-1.04,.46-1.56,1.38-1.56,.2,0,.51,.07,.93,.2,.42,.13,1.33,.34,2.73,.63s2.85,.44,4.34,.44"/><path d="M278.75,52.81c1.49,0,2.93-.23,4.3-.68,1.37-.46,2.35-.68,2.93-.68s.97,.35,1.17,1.06c0,.07-.07,.27-.2,.59l-28.41,33.02h16.69v-13.09c0-1.63,.95-2.8,2.84-3.52,1.95-.72,4.16-3.61,6.64-8.69,.19-.39,.48-.59,.88-.59,.78,0,1.23,.46,1.36,1.37v24.52h7.14c.91,0,1.39,.49,1.46,1.46,.07,.97-.42,1.46-1.46,1.46h-7.14v.78c0,2.61,.65,4.82,1.95,6.64,1.5,1.83,3.26,2.74,5.28,2.74,.78,0,1.17,.39,1.17,1.17s-.54,1.17-1.61,1.17-3.08-.21-6.01-.63c-2.93-.42-5.2-.63-6.79-.63s-3.81,.21-6.64,.63c-2.83,.42-4.96,.63-6.39,.63-.78,0-1.17-.39-1.17-1.17s.39-1.17,1.17-1.17c2.01,0,3.76-.91,5.26-2.74,1.37-1.88,2.05-4.1,2.05-6.64v-.78h-16.69c-.85,0-1.59-.23-2.21-.68-.62-.45-.93-.87-.93-1.26s.82-1.57,2.45-3.52c1.63-1.95,3.96-5.71,6.99-11.28,3.03-5.57,4.54-11.97,4.54-19.2,0-1.04,.46-1.56,1.38-1.56,.2,0,.51,.07,.93,.2,.42,.13,1.33,.34,2.73,.63,1.4,.29,2.85,.44,4.34,.44"/><path d="M278.75,102.98c1.49,0,2.93-.22,4.3-.68,1.37-.45,2.35-.68,2.93-.68s.97,.36,1.17,1.06c0,.08-.07,.28-.2,.6l-28.41,33.01h16.69v-13.09c0-1.62,.95-2.8,2.84-3.52,1.95-.71,4.16-3.61,6.64-8.68,.19-.4,.48-.6,.88-.6,.78,0,1.23,.46,1.36,1.38v24.51h7.14c.91,0,1.39,.49,1.46,1.47,.07,.97-.42,1.46-1.46,1.46h-7.14v.78c0,2.6,.65,4.81,1.95,6.64,1.5,1.82,3.26,2.73,5.28,2.73,.78,0,1.17,.39,1.17,1.17s-.54,1.18-1.61,1.18-3.08-.21-6.01-.64c-2.93-.42-5.2-.63-6.79-.63s-3.81,.21-6.64,.63c-2.83,.43-4.96,.64-6.39,.64-.78,0-1.17-.39-1.17-1.18s.39-1.17,1.17-1.17c2.01,0,3.76-.91,5.26-2.73,1.37-1.89,2.05-4.1,2.05-6.64v-.78h-16.69c-.85,0-1.59-.23-2.21-.68-.62-.46-.93-.88-.93-1.27s.82-1.56,2.45-3.51c1.63-1.96,3.96-5.72,6.99-11.29,3.03-5.56,4.54-11.96,4.54-19.19,0-1.04,.46-1.56,1.38-1.56,.2,0,.51,.06,.93,.19,.42,.13,1.33,.34,2.73,.63,1.4,.3,2.85,.44,4.34,.44"/><path d="M861.7,358.86c-.66-.84-.99-1.75-.99-2.73,0-1.75,2.09-4.19,6.27-7.31,4.09-3.2,6.14-6.85,6.14-10.94,0-2.42-.85-4.63-2.53-6.64l-3.52-4.2c-.26-.26-.39-.59-.39-.98s.19-.75,.58-1.07c.46-.33,.88-.5,1.27-.5s.72,.2,.98,.59l15.14,17.97c.64,.84,.97,1.77,.97,2.78s-.54,2.1-1.61,3.28c-1.07,1.17-2.59,2.53-4.53,4.1-1.5,.9-2.92,2.33-4.25,4.29-1.34,1.95-2,4.17-2,6.64s.78,4.67,2.34,6.55l8.39,9.86c.2,.2,.33,.52,.39,.98,.06,.45-.1,.84-.49,1.17-.39,.33-.7,.49-.92,.49s-.81-.37-1.76-1.12c-.95-.75-2.28-1.48-4.01-2.2-1.72-.71-3.43-1.07-5.12-1.07s-3.03,.46-4,1.37c-.98,.91-1.46,3.01-1.46,6.3s.94,6.07,2.82,8.35c.2,.26,.24,.55,.11,.87-.13,.32-.39,.49-.79,.49s-1.38-1.21-2.98-3.61c-1.6-2.41-3.13-5.26-4.59-8.55-1.47-3.29-2.2-6.04-2.2-8.25,0-2.8,1.43-4.2,4.3-4.2s6.74,1.04,11.62,3.12l-13.18-15.83"/><path d="M2110.02,358.86c-.66-.84-.99-1.75-.99-2.73,0-1.75,2.09-4.19,6.27-7.31,4.09-3.2,6.14-6.85,6.14-10.94,0-2.42-.84-4.63-2.53-6.64l-3.52-4.2c-.26-.26-.39-.59-.39-.98s.19-.75,.58-1.07c.46-.33,.88-.5,1.27-.5s.72,.2,.98,.59l15.14,17.97c.65,.84,.97,1.77,.97,2.78s-.54,2.1-1.61,3.28c-1.07,1.17-2.58,2.53-4.53,4.1-1.5,.9-2.92,2.33-4.25,4.29-1.33,1.95-2,4.17-2,6.64s.78,4.67,2.34,6.55l8.39,9.86c.2,.2,.33,.52,.39,.98,.07,.45-.1,.84-.49,1.17-.39,.33-.7,.49-.92,.49s-.81-.37-1.76-1.12c-.95-.75-2.28-1.48-4.01-2.2-1.72-.71-3.43-1.07-5.12-1.07s-3.03,.46-4,1.37c-.97,.91-1.46,3.01-1.46,6.3s.94,6.07,2.83,8.35c.19,.26,.23,.55,.1,.87-.13,.32-.39,.49-.78,.49s-1.39-1.21-2.99-3.61c-1.6-2.41-3.13-5.26-4.59-8.55-1.47-3.29-2.2-6.04-2.2-8.25,0-2.8,1.44-4.2,4.3-4.2s6.74,1.04,11.63,3.12l-13.19-15.83"/><path d="M2676.08,358.86c-.65-.84-.98-1.75-.98-2.73,0-1.75,2.09-4.19,6.26-7.31,4.1-3.2,6.14-6.85,6.14-10.94,0-2.42-.84-4.63-2.53-6.64l-3.51-4.2c-.26-.26-.39-.59-.39-.98s.19-.75,.57-1.07c.46-.33,.89-.5,1.28-.5s.71,.2,.97,.59l15.15,17.97c.64,.84,.96,1.77,.96,2.78s-.53,2.1-1.61,3.28c-1.07,1.17-2.58,2.53-4.53,4.1-1.5,.9-2.91,2.33-4.25,4.29-1.33,1.95-2,4.17-2,6.64s.78,4.67,2.35,6.55l8.39,9.86c.2,.2,.33,.52,.39,.98,.06,.45-.1,.84-.49,1.17-.39,.33-.7,.49-.93,.49s-.81-.37-1.75-1.12c-.95-.75-2.29-1.48-4.01-2.2-1.73-.71-3.43-1.07-5.13-1.07s-3.02,.46-4,1.37c-.97,.91-1.46,3.01-1.46,6.3s.95,6.07,2.83,8.35c.2,.26,.23,.55,.1,.87-.13,.32-.39,.49-.78,.49s-1.38-1.21-2.98-3.61c-1.6-2.41-3.13-5.26-4.6-8.55-1.46-3.29-2.19-6.04-2.19-8.25,0-2.8,1.43-4.2,4.29-4.2s6.74,1.04,11.63,3.12l-13.19-15.83"/><path d="M3230.83,356.52c-4.17,1.5-7.56,2.25-10.16,2.25s-4.77-.73-6.5-2.2c-1.73-1.46-2.59-3.28-2.59-5.46s.71-3.98,2.14-5.38c1.44-1.4,3.13-2.1,5.08-2.1s3.42,.55,4.4,1.66c.98,1.11,1.52,2.17,1.62,3.18,.1,1.01,.41,2.13,.93,3.36,.58,1.04,1.28,1.56,2.09,1.56s1.9-.76,3.27-2.28c1.37-1.53,2.29-2.73,2.74-3.61,.45-.88,1-1.31,1.66-1.28,.65,.03,1.1,.34,1.36,.92l-12.29,42c-.66,.66-1.57,.99-2.75,.99s-2.08-.33-2.72-.99l11.72-32.62"/><path d="M5530.87,356.52c-4.17,1.5-7.56,2.25-10.16,2.25s-4.77-.73-6.5-2.2c-1.73-1.46-2.59-3.28-2.59-5.46s.71-3.98,2.15-5.38c1.43-1.4,3.12-2.1,5.07-2.1s3.42,.55,4.4,1.66c.98,1.11,1.52,2.17,1.62,3.18s.41,2.13,.93,3.36c.58,1.04,1.28,1.56,2.09,1.56s1.91-.76,3.28-2.28c1.37-1.53,2.28-2.73,2.73-3.61,.45-.88,1.01-1.31,1.66-1.28s1.1,.34,1.36,.92l-12.29,42c-.66,.66-1.57,.99-2.75,.99s-2.08-.33-2.72-.99l11.72-32.62"/><path d="M7522.17,356.52c-4.16,1.5-7.55,2.25-10.15,2.25s-4.77-.73-6.5-2.2c-1.73-1.46-2.6-3.28-2.6-5.46s.72-3.98,2.15-5.38c1.43-1.4,3.13-2.1,5.08-2.1s3.42,.55,4.4,1.66c.98,1.11,1.52,2.17,1.62,3.18,.09,1.01,.4,2.13,.92,3.36,.59,1.04,1.29,1.56,2.1,1.56s1.9-.76,3.27-2.28c1.37-1.53,2.28-2.73,2.74-3.61,.45-.88,1-1.31,1.65-1.28,.65,.03,1.11,.34,1.37,.92l-12.3,42c-.65,.66-1.57,.99-2.74,.99s-2.08-.33-2.73-.99l11.72-32.62"/><path d="M3236.18,94c-4.16,1.5-7.53,2.25-10.1,2.25s-4.71-.73-6.44-2.19c-1.73-1.47-2.6-3.29-2.6-5.47s.72-3.97,2.15-5.38c1.43-1.4,3.15-2.1,5.14-2.1s3.42,.54,4.29,1.62c.88,1.08,1.38,2.04,1.51,2.88,.13,.85,.44,1.94,.93,3.27,.49,1.33,1.16,2,2.01,2s1.95-.83,3.32-2.49c1.36-1.65,2.24-2.86,2.63-3.61,.39-.75,.9-1.1,1.52-1.07,.62,.03,1.06,.34,1.32,.92l-17.88,67c-.64,.65-1.55,.98-2.72,.98s-2.09-.33-2.75-.98l10.07-32.72c-4.37,1.56-7.82,2.34-10.36,2.34s-4.67-.73-6.39-2.19c-1.73-1.47-2.6-3.29-2.6-5.47s.7-3.97,2.1-5.37c1.4-1.39,3.1-2.09,5.08-2.09s3.43,.53,4.35,1.61c.91,1.07,1.46,2.23,1.66,3.47,.52,3.12,1.56,4.68,3.12,4.68,.79,0,1.89-.91,3.33-2.73,1.49-1.7,2.4-3.04,2.74-4.02l4.57-15.14"/><path d="M3858.61,96.35c-.65-.85-.98-1.76-.98-2.74,0-1.75,2.09-4.18,6.26-7.31,4.1-3.2,6.14-6.84,6.14-10.94,0-2.41-.84-4.63-2.53-6.64l-3.51-4.2c-.26-.26-.39-.59-.39-.98s.19-.74,.57-1.07c.46-.33,.89-.5,1.28-.5s.71,.2,.97,.6l15.15,17.96c.64,.85,.96,1.78,.96,2.79s-.53,2.1-1.61,3.27c-1.07,1.17-2.58,2.54-4.53,4.1-1.5,.91-2.91,2.34-4.25,4.29-1.33,1.95-2,4.17-2,6.65s.78,4.66,2.35,6.55l8.39,9.85c.2,.2,.33,.53,.39,.98,.06,.45-.1,.85-.49,1.17-.39,.33-.7,.5-.93,.5s-.81-.38-1.75-1.13c-.95-.75-2.29-1.48-4.01-2.19-1.73-.72-3.43-1.08-5.13-1.08s-3.02,.46-4,1.37c-.97,.91-1.46,3.01-1.46,6.3s.95,6.07,2.83,8.35c.2,.26,.23,.55,.1,.88-.13,.32-.39,.48-.78,.48s-1.38-1.2-2.98-3.61-3.13-5.25-4.6-8.55c-1.46-3.29-2.19-6.04-2.19-8.25,0-2.8,1.43-4.2,4.29-4.2s6.74,1.04,11.63,3.13l-13.19-15.83"/><path d="M4443.02,44c-4.17,1.5-7.55,2.25-10.15,2.25s-4.78-.73-6.5-2.2c-1.73-1.46-2.6-3.28-2.6-5.46s.72-3.98,2.15-5.38,3.12-2.1,5.08-2.1,3.42,.55,4.4,1.66,1.51,2.17,1.61,3.18,.41,2.13,.93,3.36c.59,1.04,1.28,1.57,2.1,1.57s1.9-.77,3.27-2.29c1.37-1.53,2.28-2.73,2.73-3.61,.46-.88,1.01-1.31,1.66-1.28,.65,.03,1.11,.34,1.37,.93l-12.3,42c-.65,.65-1.57,.98-2.74,.98s-2.08-.33-2.73-.98l11.72-32.63"/><path d="M6503.5,94c-4.17,1.5-7.55,2.25-10.16,2.25s-4.77-.73-6.5-2.19c-1.73-1.47-2.59-3.29-2.59-5.47s.72-3.97,2.15-5.38c1.43-1.4,3.12-2.1,5.08-2.1s3.42,.56,4.39,1.67c.98,1.11,1.52,2.17,1.62,3.18,.1,1.01,.41,2.13,.93,3.36,.58,1.04,1.28,1.56,2.1,1.56s1.9-.76,3.27-2.29c1.37-1.53,2.28-2.73,2.73-3.61,.46-.88,1.01-1.3,1.66-1.27,.65,.03,1.11,.34,1.37,.92l-12.3,42c-.66,.65-1.57,.98-2.74,.98s-2.08-.33-2.73-.98l11.72-32.63"/><path d="M7522.17,94c-4.16,1.5-7.55,2.25-10.15,2.25s-4.77-.73-6.5-2.19c-1.73-1.47-2.6-3.29-2.6-5.47s.72-3.97,2.15-5.38c1.43-1.4,3.13-2.1,5.08-2.1s3.42,.56,4.4,1.67,1.52,2.17,1.62,3.18c.09,1.01,.4,2.13,.92,3.36,.59,1.04,1.29,1.56,2.1,1.56s1.9-.76,3.27-2.29,2.28-2.73,2.74-3.61c.45-.88,1-1.3,1.65-1.27,.65,.03,1.11,.34,1.37,.92l-12.3,42c-.65,.65-1.57,.98-2.74,.98s-2.08-.33-2.73-.98l11.72-32.63"/><path d="M8115.5,96.35c-.65-.85-.98-1.76-.98-2.74,0-1.75,2.09-4.18,6.27-7.31,4.09-3.2,6.14-6.84,6.14-10.94,0-2.41-.85-4.63-2.53-6.64l-3.52-4.2c-.26-.26-.39-.59-.39-.98s.19-.74,.58-1.07c.46-.33,.88-.5,1.27-.5s.72,.2,.98,.6l15.14,17.96c.64,.85,.97,1.78,.97,2.79s-.54,2.1-1.61,3.27c-1.08,1.17-2.59,2.54-4.53,4.1-1.5,.91-2.92,2.34-4.25,4.29-1.34,1.95-2,4.17-2,6.65s.78,4.66,2.34,6.55l8.39,9.85c.2,.2,.33,.53,.39,.98,.06,.45-.1,.85-.49,1.17-.39,.33-.7,.5-.92,.5s-.81-.38-1.76-1.13-2.28-1.48-4.01-2.19c-1.72-.72-3.43-1.08-5.12-1.08s-3.03,.46-4,1.37c-.98,.91-1.46,3.01-1.46,6.3s.94,6.07,2.82,8.35c.2,.26,.24,.55,.1,.88-.13,.32-.39,.48-.78,.48s-1.38-1.2-2.98-3.61c-1.6-2.41-3.13-5.25-4.59-8.55-1.47-3.29-2.2-6.04-2.2-8.25,0-2.8,1.43-4.2,4.3-4.2s6.74,1.04,11.62,3.13l-13.19-15.83"/><path class="cls-6" d="M1495.05,339.15h345.45v12.5h-345.45v-12.5"/><path class="cls-6" d="M6013.67,339.15h267.75v12.5h-267.75v-12.5"/><path class="cls-6" d="M8144.78,357.9h256.84v12.51h-256.84v-12.51"/><path class="cls-6" d="M2705.36,45.38h410v12.51h-410v-12.51"/><path class="cls-6" d="M2982.68,64.13h132.68v12.5h-132.68v-12.5"/><path class="cls-6" d="M3389.44,70.61l324.13-25.25v12.53l-324.13,25.26v-12.54"/><path class="cls-6" d="M3389.44,89.36l324.13-25.25v12.54l-324.13,25.25v-12.54"/><path class="cls-6" d="M5541.58,45.29l239.3,6.33v12.51l-239.3-6.34v-12.5"/><path class="cls-6" d="M7025.71,45.38h383.63v12.51h-383.63v-12.51"/><path class="cls-6" d="M7279.3,64.13h130.04v12.5h-130.04v-12.5"/><path class="cls-6" d="M7865.08,70.38h156.16v12.5h-156.16v-12.5"/><path class="cls-6" d="M7865.08,89.13h156.16v12.5h-156.16v-12.5"/><path d="M3562.42,329.77v-25h3.12c0,3.7,.75,7.5,2.25,11.37,1.5,3.88,3.07,7.1,4.69,9.67,1.63,2.58,3.64,5.82,6.05,9.72,5.28,8.53,7.92,16.12,7.92,22.76s-1.4,13.48-4.2,20.51c-.52,.78-1.12,1.17-1.81,1.17s-1.25-.23-1.71-.69-.69-.98-.69-1.56v-.49c2.81-6.44,4.21-12.82,4.21-19.14,0-3.26-.99-6.81-2.98-10.64-1.98-3.84-4.04-6.98-6.16-9.43-2.11-2.44-4.64-5.19-7.57-8.25h-3.12"/><path d="M5777.63,320.4v-25h3.12c0,3.71,.75,7.5,2.25,11.38,1.5,3.87,3.06,7.09,4.69,9.67,1.62,2.57,3.64,5.81,6.05,9.72,5.28,8.53,7.92,16.11,7.92,22.75s-1.4,13.48-4.21,20.51c-.52,.78-1.12,1.17-1.8,1.17s-1.25-.23-1.71-.68c-.46-.46-.69-.98-.69-1.57v-.48c2.8-6.45,4.2-12.83,4.2-19.14,0-3.26-.99-6.81-2.97-10.65-1.99-3.84-4.04-6.98-6.16-9.42-2.12-2.44-4.64-5.2-7.57-8.26h-3.12"/><path d="M7865.08,329.77v-25h3.13c0,3.7,.75,7.5,2.25,11.37,1.5,3.88,3.06,7.1,4.69,9.67,1.62,2.58,3.64,5.82,6.04,9.72,5.29,8.53,7.93,16.12,7.93,22.76s-1.4,13.48-4.21,20.51c-.52,.78-1.12,1.17-1.8,1.17s-1.25-.23-1.71-.69-.69-.98-.69-1.56v-.49c2.8-6.44,4.2-12.82,4.2-19.14,0-3.26-.99-6.81-2.97-10.64-1.99-3.84-4.04-6.98-6.16-9.43-2.12-2.44-4.64-5.19-7.57-8.25h-3.13"/><path d="M1935.19,181.62c10.15-5.87,16.63-11.37,19.43-16.52,1.3-2.4,1.96-4.79,1.96-7.17s-.46-4.73-1.38-7.08c-.71,.91-2.61,2.8-5.7,5.66-3.1,2.86-5.54,5.26-7.33,7.18s-3.4,4.27-4.84,7.03c-1.43,2.77-2.14,5.58-2.14,8.45v2.45m26.85-46.3c0,3.91-1.24,7.78-3.71,11.63,1.63,3.45,2.45,6.91,2.45,10.4s-.91,6.91-2.74,10.3c-1.82,3.39-3.9,6.18-6.25,8.39l-7.62,7.42c-5.99,6.13-8.98,12.19-8.98,18.17h-3.13v-50h3.13v7.52c15.1-7.87,22.65-15.82,22.65-23.83,0-1.76-.45-3.81-1.36-6.15v-.39c0-.65,.23-1.2,.68-1.66,.45-.46,1.01-.69,1.67-.69,1.56,0,2.53,1.99,2.92,5.97l.2,1.06c.06,.46,.09,1.08,.09,1.86"/><path d="M8975.51,154.28c1.5,0,3.08,2.42,4.74,7.27,1.66,4.85,2.49,9.29,2.49,13.33s-.93,7.94-2.78,11.72c-1.85,3.77-4.08,7.09-6.69,9.96l-8.01,8.98c-2.47,2.87-4.65,6.15-6.54,9.86-1.89,3.71-2.84,7.46-2.84,11.24h-3.12v-25h3.12c10.94-6.91,17.81-13.03,20.61-18.36,1.37-2.61,2.05-5.24,2.05-7.91,0-6.19-1.79-12.34-5.38-18.47v-.39c0-.58,.23-1.1,.69-1.55,.46-.46,1.01-.68,1.66-.68"/><path d="M2388.24,67.25v-25h3.13c0,3.71,.75,7.5,2.25,11.37,1.5,3.88,3.06,7.1,4.68,9.68,1.63,2.57,3.64,5.81,6.05,9.72,5.28,8.53,7.92,16.11,7.92,22.75s-1.4,13.48-4.2,20.51c-.52,.78-1.12,1.17-1.81,1.17s-1.25-.23-1.71-.68c-.45-.46-.68-.98-.68-1.57v-.48c2.8-6.45,4.2-12.83,4.2-19.14,0-3.26-.99-6.81-2.98-10.65-1.98-3.84-4.03-6.98-6.15-9.42-2.12-2.45-4.65-5.2-7.57-8.26h-3.13"/><path d="M4712.59,26.62V1.62h3.12c0,3.71,.75,7.5,2.25,11.38,1.5,3.87,3.06,7.1,4.69,9.67,1.62,2.57,3.64,5.81,6.05,9.72,5.28,8.53,7.92,16.11,7.92,22.76s-1.4,13.47-4.2,20.5c-.53,.78-1.13,1.18-1.81,1.18s-1.25-.23-1.71-.69c-.46-.46-.69-.98-.69-1.56v-.49c2.8-6.45,4.21-12.83,4.21-19.14,0-3.26-1-6.81-2.98-10.65-1.99-3.84-4.04-6.98-6.16-9.42-2.12-2.44-4.64-5.2-7.57-8.26h-3.12"/><path d="M6750.26,67.25v-25h3.12c0,3.71,.75,7.5,2.25,11.37,1.5,3.88,3.07,7.1,4.69,9.68,1.63,2.57,3.64,5.81,6.05,9.72,5.28,8.53,7.92,16.11,7.92,22.75s-1.4,13.48-4.2,20.51c-.52,.78-1.13,1.17-1.81,1.17s-1.25-.23-1.71-.68c-.46-.46-.69-.98-.69-1.57v-.48c2.81-6.45,4.21-12.83,4.21-19.14,0-3.26-1-6.81-2.98-10.65s-4.04-6.98-6.16-9.42c-2.12-2.45-4.64-5.2-7.57-8.26h-3.12"/><path d="M365.07,55.63c-1.11-1.11-1.66-2.44-1.66-4s.56-2.9,1.66-4.01c1.11-1.11,2.45-1.67,4.01-1.67s2.9,.56,4,1.67c1.1,1.11,1.66,2.44,1.66,4.01s-.55,2.89-1.66,4c-1.1,1.11-2.44,1.67-4,1.67s-2.9-.56-4.01-1.67"/><path d="M365.07,55.63c-1.11-1.11-1.66-2.44-1.66-4s.56-2.9,1.66-4.01c1.11-1.11,2.45-1.67,4.01-1.67s2.9,.56,4,1.67c1.1,1.11,1.66,2.44,1.66,4.01s-.55,2.89-1.66,4c-1.1,1.11-2.44,1.67-4,1.67s-2.9-.56-4.01-1.67"/><path d="M2677.36,55.63c-1.11-1.11-1.67-2.44-1.67-4s.56-2.9,1.67-4.01c1.1-1.11,2.44-1.67,4-1.67s2.9,.56,4,1.67c1.11,1.11,1.66,2.44,1.66,4.01s-.55,2.89-1.66,4c-1.1,1.11-2.43,1.67-4,1.67s-2.9-.56-4-1.67"/><path d="M6997.71,55.63c-1.11-1.11-1.67-2.44-1.67-4s.56-2.9,1.67-4.01c1.11-1.11,2.44-1.67,4.01-1.67s2.89,.56,4,1.67c1.1,1.11,1.65,2.44,1.65,4.01s-.55,2.89-1.65,4c-1.11,1.11-2.44,1.67-4,1.67s-2.9-.56-4.01-1.67"/><path d="M6997.71,55.63c-1.11-1.11-1.67-2.44-1.67-4s.56-2.9,1.67-4.01c1.11-1.11,2.44-1.67,4.01-1.67s2.89,.56,4,1.67c1.1,1.11,1.65,2.44,1.65,4.01s-.55,2.89-1.65,4c-1.11,1.11-2.44,1.67-4,1.67s-2.9-.56-4.01-1.67"/><path d="M1508.72,93.14c-1.11-1.11-1.67-2.45-1.67-4.01s.56-2.9,1.67-4.01,2.44-1.66,4.01-1.66,2.89,.55,4,1.66c1.1,1.11,1.65,2.45,1.65,4.01s-.55,2.9-1.65,4.01c-1.11,1.1-2.44,1.66-4,1.66s-2.9-.56-4.01-1.66"/><path class="cls-6" d="M31.54,180.6c0-29.2-20.11-57.59-20.11-85.57,0-14.1,5.49-27.78,22.4-40.03,.23-.16,.34-.41,.34-.57,0-.46-1.26-.86-2.17-.86-.46,0-1.26,.05-1.83,.4C8.23,69.7,.92,87.88,.92,106.26c0,29.61,21.49,58.21,21.49,86.6,0,14.09-5.49,27.36-22.4,39.62v.82c16.92,12.25,22.4,25.52,22.4,39.62,0,28.39-21.49,56.98-21.49,86.59,0,18.39,7.31,36.56,29.26,52.29,.57,.36,1.37,.41,1.83,.41,.92,0,2.17-.41,2.17-.87,0-.15-.11-.41-.34-.56-16.91-12.26-22.4-25.94-22.4-40.03,0-27.98,20.11-56.37,20.11-85.58,0-18.58-7.31-36.35-28.8-52.28,21.49-15.93,28.8-33.7,28.8-52.29"/></svg>