<?xml version="1.0" encoding="UTF-8"?><svg id="_レイヤー_1" xmlns="http://www.w3.org/2000/svg" viewBox="0 0 6668.34 470.07"><defs><style>.cls-1{stroke-width:12.5px;}.cls-1,.cls-2,.cls-3,.cls-4,.cls-5,.cls-6{stroke:#000;}.cls-1,.cls-2,.cls-3,.cls-5,.cls-6{stroke-linejoin:bevel;}.cls-2{stroke-linecap:square;}.cls-2,.cls-3{stroke-width:4px;}.cls-4{stroke-linejoin:round;stroke-width:1.75px;}.cls-4,.cls-5{stroke-linecap:round;}.cls-4,.cls-7{fill-rule:evenodd;}.cls-5{stroke-width:3.25px;}.cls-6{fill:none;stroke-width:2px;}</style></defs><line class="cls-6" x1="42" y1="56.28" x2="6668.34" y2="56.28"/><line class="cls-6" x1="42" y1="81.28" x2="6668.34" y2="81.28"/><line class="cls-6" x1="42" y1="106.29" x2="6668.34" y2="106.29"/><line class="cls-6" x1="42" y1="131.29" x2="6668.34" y2="131.29"/><line class="cls-6" x1="42" y1="156.29" x2="6668.34" y2="156.29"/><line class="cls-6" x1="42" y1="318.8" x2="6668.34" y2="318.8"/><line class="cls-6" x1="42" y1="343.8" x2="6668.34" y2="343.8"/><line class="cls-6" x1="42" y1="368.8" x2="6668.34" y2="368.8"/><line class="cls-6" x1="42" y1="393.8" x2="6668.34" y2="393.8"/><line class="cls-6" x1="42" y1="418.81" x2="6668.34" y2="418.81"/><path class="cls-4" d="M5409.58,353.68c11.1,8,44.4,8,55.49,0-11.09,12-44.39,12-55.49,0"/><path class="cls-4" d="M5409.58,353.68c11.1,8,44.4,8,55.49,0-11.09,12-44.39,12-55.49,0"/><path class="cls-4" d="M5220.73,420.89c56.95-34.5,227.81-34.5,284.76,0-56.95-30.5-227.81-30.5-284.76,0"/><path class="cls-4" d="M5220.73,333.38c56.95-34.5,227.81-34.5,284.76,0-56.95-30.5-227.81-30.5-284.76,0"/><path class="cls-4" d="M5220.73,308.38c56.95-34.5,227.81-34.5,284.76,0-56.95-30.5-227.81-30.5-284.76,0"/><path class="cls-4" d="M5646.77,333.93c21.46-18.31,85.84-18.31,107.3,0-21.46-14.31-85.84-14.31-107.3,0"/><path class="cls-4" d="M5220.73,420.89c56.95-34.5,227.81-34.5,284.76,0-56.95-30.5-227.81-30.5-284.76,0"/><path class="cls-4" d="M5220.73,333.38c56.95-34.5,227.81-34.5,284.76,0-56.95-30.5-227.81-30.5-284.76,0"/><path class="cls-4" d="M5220.73,308.38c56.95-34.5,227.81-34.5,284.76,0-56.95-30.5-227.81-30.5-284.76,0"/><path class="cls-4" d="M5646.77,333.93c21.46-18.31,85.84-18.31,107.3,0-21.46-14.31-85.84-14.31-107.3,0"/><line class="cls-3" x1="44" y1="317.8" x2="44" y2="419.2"/><line class="cls-3" x1="1222.82" y1="317.8" x2="1222.82" y2="419.81"/><line class="cls-3" x1="2223.3" y1="317.8" x2="2223.3" y2="419.81"/><line class="cls-3" x1="2873.97" y1="317.8" x2="2873.97" y2="419.81"/><line class="cls-3" x1="3674.44" y1="317.8" x2="3674.44" y2="419.81"/><line class="cls-3" x1="4629.17" y1="317.8" x2="4629.17" y2="419.81"/><line class="cls-3" x1="5139.14" y1="317.8" x2="5139.14" y2="419.81"/><line class="cls-3" x1="5932.23" y1="317.8" x2="5932.23" y2="419.81"/><line class="cls-3" x1="6643.84" y1="317.8" x2="6643.84" y2="419.81"/><line class="cls-1" x1="6662.09" y1="317.8" x2="6662.09" y2="419.81"/><line class="cls-3" x1="44" y1="55.28" x2="44" y2="318.8"/><line class="cls-3" x1="1222.82" y1="55.28" x2="1222.82" y2="157.29"/><line class="cls-3" x1="2223.3" y1="55.28" x2="2223.3" y2="157.29"/><line class="cls-3" x1="2873.97" y1="55.28" x2="2873.97" y2="157.29"/><line class="cls-3" x1="3674.44" y1="55.28" x2="3674.44" y2="157.29"/><line class="cls-3" x1="4629.17" y1="55.28" x2="4629.17" y2="157.29"/><line class="cls-3" x1="5139.14" y1="55.28" x2="5139.14" y2="157.29"/><line class="cls-3" x1="5932.23" y1="55.28" x2="5932.23" y2="157.29"/><line class="cls-3" x1="6643.84" y1="55.28" x2="6643.84" y2="318.8"/><line class="cls-1" x1="6662.09" y1="55.28" x2="6662.09" y2="318.8"/><path d="M1850.73,359.33c1.44-.39,2.16-.04,2.16,1.07v7.81c0,.78-.62,1.4-1.86,1.86l-3.22,1.26v14.18l2.92-1.18c1.44-.39,2.16-.03,2.16,1.08v7.81c0,.79-.62,1.4-1.86,1.85l-3.22,1.28v16.2c0,1.24-.49,1.86-1.47,1.86s-1.47-.62-1.47-1.86v-15.03l-9.28,3.7v16.11c0,1.24-.49,1.86-1.46,1.86s-1.46-.62-1.46-1.86v-14.93l-2.55,1.07c-1.37,.59-2.05,.2-2.05-1.17v-7.72c0-.64,.59-1.22,1.77-1.75l2.83-1.17v-14.26l-2.55,1.07c-1.37,.59-2.05,.2-2.05-1.17v-7.72c0-.65,.59-1.24,1.77-1.76l2.83-1.17v-16.11c0-1.24,.48-1.86,1.46-1.86s1.46,.62,1.46,1.86v14.93l9.28-3.79v-15.92c0-1.24,.49-1.86,1.47-1.86s1.47,.62,1.47,1.86v14.75l2.92-1.18m-15.14,16.89v14.27l9.28-3.81v-14.17l-9.28,3.71"/><path d="M6264.93,359.33c1.44-.39,2.15-.04,2.15,1.07v7.81c0,.78-.61,1.4-1.85,1.86l-3.22,1.26v14.18l2.92-1.18c1.44-.39,2.15-.03,2.15,1.08v7.81c0,.79-.61,1.4-1.85,1.85l-3.22,1.28v16.2c0,1.24-.49,1.86-1.47,1.86s-1.47-.62-1.47-1.86v-15.03l-9.28,3.7v16.11c0,1.24-.49,1.86-1.46,1.86s-1.46-.62-1.46-1.86v-14.93l-2.55,1.07c-1.37,.59-2.05,.2-2.05-1.17v-7.72c0-.64,.59-1.22,1.77-1.75l2.83-1.17v-14.26l-2.55,1.07c-1.37,.59-2.05,.2-2.05-1.17v-7.72c0-.65,.59-1.24,1.77-1.76l2.83-1.17v-16.11c0-1.24,.48-1.86,1.46-1.86s1.46,.62,1.46,1.86v14.93l9.28-3.79v-15.92c0-1.24,.49-1.86,1.47-1.86s1.47,.62,1.47,1.86v14.75l2.92-1.18m-15.14,16.89v14.27l9.28-3.81v-14.17l-9.28,3.71"/><path d="M1282.09,159.32c1.44-.39,2.15-.04,2.15,1.06v7.82c0,.78-.62,1.4-1.86,1.86l-3.21,1.26v14.17l2.92-1.17c1.44-.39,2.15-.03,2.15,1.08v7.81c0,.78-.62,1.4-1.86,1.85l-3.21,1.28v16.2c0,1.24-.49,1.86-1.47,1.86s-1.47-.62-1.47-1.86v-15.03l-9.28,3.7v16.11c0,1.24-.49,1.86-1.46,1.86s-1.46-.62-1.46-1.86v-14.94l-2.55,1.08c-1.37,.59-2.05,.19-2.05-1.17v-7.72c0-.64,.59-1.23,1.77-1.75l2.83-1.17v-14.27l-2.55,1.08c-1.37,.59-2.05,.19-2.05-1.17v-7.72c0-.65,.59-1.24,1.77-1.76l2.83-1.18v-16.11c0-1.23,.48-1.85,1.46-1.85s1.46,.62,1.46,1.85v14.94l9.28-3.79v-15.93c0-1.24,.49-1.86,1.47-1.86s1.47,.62,1.47,1.86v14.75l2.92-1.17m-15.14,16.89v14.27l9.28-3.81v-14.18l-9.28,3.72"/><path d="M2919.01,214.1c-1.18,.33-1.77-.13-1.77-1.36v-54.7c0-1.36,.52-2.05,1.56-2.05s1.57,.69,1.57,2.05v19.83l11.53-4.39c1.17-.32,1.75,.13,1.75,1.36v54.7c0,1.37-.52,2.05-1.56,2.05s-1.57-.68-1.57-2.05v-19.83l-11.51,4.39m1.36-11.23l10.15-3.91v-14.25l-10.15,3.91v14.25"/><path d="M1637.98,201.6c-1.18,.33-1.76-.13-1.76-1.36v-54.7c0-1.36,.52-2.05,1.56-2.05s1.56,.69,1.56,2.05v19.83l11.53-4.39c1.17-.33,1.75,.13,1.75,1.36v54.7c0,1.36-.52,2.05-1.56,2.05s-1.56-.69-1.56-2.05v-19.83l-11.52,4.39m1.36-11.23l10.16-3.91v-14.25l-10.16,3.91v14.25"/><line class="cls-2" x1="2252.31" y1="443.81" x2="2302.03" y2="443.81"/><line class="cls-2" x1="1287.01" y1="181.29" x2="1336.73" y2="181.29"/><line class="cls-2" x1="1655.72" y1="181.29" x2="1703.63" y2="181.29"/><line class="cls-2" x1="2252.31" y1="181.29" x2="2302.03" y2="181.29"/><line class="cls-2" x1="2936.74" y1="181.29" x2="2986.47" y2="181.29"/><line class="cls-2" x1="5174.34" y1="181.29" x2="5224.07" y2="181.29"/><line class="cls-5" x1="5374.34" y1="348.5" x2="5374.34" y2="431.31"/><line class="cls-5" x1="5470.65" y1="348.5" x2="5470.65" y2="431.31"/><line class="cls-5" x1="485.64" y1="348.5" x2="485.64" y2="418.81"/><line class="cls-5" x1="598.21" y1="348.5" x2="598.21" y2="418.81"/><line class="cls-5" x1="1327.61" y1="389.96" x2="1327.61" y2="309.42"/><line class="cls-5" x1="1664.84" y1="310.99" x2="1664.84" y2="456.31"/><line class="cls-5" x1="1889.44" y1="376.61" x2="1889.44" y2="300.05"/><line class="cls-5" x1="2292.9" y1="452.47" x2="2292.9" y2="290.67"/><line class="cls-5" x1="2548.71" y1="376.61" x2="2548.71" y2="300.05"/><line class="cls-5" x1="2976.44" y1="414.11" x2="2976.44" y2="331.3"/><line class="cls-5" x1="3350.11" y1="376.61" x2="3350.11" y2="300.05"/><line class="cls-5" x1="3474.6" y1="376.61" x2="3474.6" y2="300.05"/><line class="cls-5" x1="4679.97" y1="310.22" x2="4679.97" y2="465.68"/><line class="cls-5" x1="4818.46" y1="310.22" x2="4818.46" y2="456.31"/><line class="cls-5" x1="5214.94" y1="427.47" x2="5214.94" y2="253.17"/><line class="cls-5" x1="5540.73" y1="426.61" x2="5540.73" y2="243.79"/><line class="cls-5" x1="5641.19" y1="339.1" x2="5641.19" y2="268.8"/><line class="cls-5" x1="5780.43" y1="339.1" x2="5780.43" y2="271.92"/><line class="cls-5" x1="5985.74" y1="310.99" x2="5985.74" y2="465.68"/><line class="cls-5" x1="6165.96" y1="310.99" x2="6165.96" y2="393.8"/><line class="cls-5" x1="6305.45" y1="377.46" x2="6305.45" y2="300.05"/><line class="cls-5" x1="598.21" y1="148.48" x2="598.21" y2="231.29"/><line class="cls-5" x1="709.88" y1="147.71" x2="709.88" y2="231.29"/><line class="cls-5" x1="1296.14" y1="185.21" x2="1296.14" y2="240.67"/><line class="cls-5" x1="1859.78" y1="160.98" x2="1859.78" y2="221.92"/><line class="cls-5" x1="2261.43" y1="160.21" x2="2261.43" y2="240.67"/><line class="cls-5" x1="2945.87" y1="172.71" x2="2945.87" y2="250.04"/><line class="cls-5" x1="3718.77" y1="160.21" x2="3718.77" y2="221.92"/><line class="cls-5" x1="4258.01" y1="135.21" x2="4258.01" y2="203.17"/><line class="cls-5" x1="5007.3" y1="148.48" x2="5007.3" y2="231.29"/><line class="cls-5" x1="5183.47" y1="185.21" x2="5183.47" y2="240.67"/><line class="cls-5" x1="335.2" y1="139.09" x2="335.2" y2="56.28"/><line class="cls-5" x1="627.88" y1="114.09" x2="627.88" y2="18.78"/><line class="cls-5" x1="740.44" y1="101.59" x2="740.44" y2="28.16"/><line class="cls-5" x1="995.64" y1="126.59" x2="995.64" y2="56.28"/><line class="cls-5" x1="1127.04" y1="139.09" x2="1127.04" y2="62.53"/><line class="cls-5" x1="1327.61" y1="139.95" x2="1327.61" y2="56.28"/><line class="cls-5" x1="1694.51" y1="176.59" x2="1694.51" y2="56.28"/><line class="cls-5" x1="1889.44" y1="126.59" x2="1889.44" y2="46.91"/><line class="cls-5" x1="2292" y1="114.09" x2="2292" y2="37.53"/><line class="cls-5" x1="2461.72" y1="89.09" x2="2461.72" y2="18.78"/><line class="cls-5" x1="2548.71" y1="126.59" x2="2548.71" y2="46.91"/><line class="cls-5" x1="2722.7" y1="151.59" x2="2722.7" y2="68.78"/><line class="cls-5" x1="2977.34" y1="139.95" x2="2977.34" y2="56.28"/><line class="cls-5" x1="3565.14" y1="139.09" x2="3565.14" y2="62.53"/><line class="cls-5" x1="3621.72" y1="126.59" x2="3621.72" y2="56.28"/><line class="cls-5" x1="3749.33" y1="114.09" x2="3749.33" y2="37.53"/><line class="cls-5" x1="3991.66" y1="139.09" x2="3991.66" y2="56.28"/><line class="cls-5" x1="4441.89" y1="89.09" x2="4441.89" y2="12.53"/><line class="cls-5" x1="4543.93" y1="76.59" x2="4543.93" y2="6.28"/><line class="cls-5" x1="4711.44" y1="139.95" x2="4711.44" y2="56.28"/><line class="cls-5" x1="5086.43" y1="126.59" x2="5086.43" y2="43.78"/><line class="cls-5" x1="5214.04" y1="114.09" x2="5214.04" y2="37.53"/><line class="cls-5" x1="5404.01" y1="139.09" x2="5404.01" y2="56.28"/><line class="cls-5" x1="5500.32" y1="126.59" x2="5500.32" y2="56.28"/><line class="cls-5" x1="5700.44" y1="114.09" x2="5700.44" y2="50.03"/><line class="cls-5" x1="5780.43" y1="89.09" x2="5780.43" y2="12.53"/><line class="cls-5" x1="5848.62" y1="76.59" x2="5848.62" y2="6.28"/><line class="cls-5" x1="6015.4" y1="139.09" x2="6015.4" y2="56.28"/><line class="cls-5" x1="6195.62" y1="114.09" x2="6195.62" y2="37.53"/><line class="cls-5" x1="6304.55" y1="126.59" x2="6304.55" y2="56.28"/><line class="cls-5" x1="6381.52" y1="114.09" x2="6381.52" y2="50.03"/><line class="cls-5" x1="6491.91" y1="139.09" x2="6491.91" y2="62.53"/><line class="cls-5" x1="6567.79" y1="139.09" x2="6567.79" y2="62.53"/><line class="cls-5" x1="6615.21" y1="139.09" x2="6615.21" y2="62.53"/><path d="M5394.68,330.04c3.13,0,5.73,.78,7.82,2.34,2.08,1.56,3.12,3.81,3.12,6.73,0,4.49-2.32,8.69-6.98,12.6-4.65,3.9-9.64,5.86-14.99,5.86-3.12,0-5.76-.82-7.9-2.44-2.02-1.76-3.03-3.98-3.03-6.64,0-4.37,2.31-8.53,6.93-12.5,4.63-3.97,9.64-5.95,15.03-5.95"/><path d="M5490.99,330.04c3.13,0,5.73,.78,7.82,2.34,2.08,1.56,3.12,3.81,3.12,6.73,0,4.49-2.32,8.69-6.98,12.6-4.65,3.9-9.64,5.86-14.99,5.86-3.12,0-5.76-.82-7.9-2.44-2.02-1.76-3.04-3.98-3.04-6.64,0-4.37,2.32-8.53,6.94-12.5,4.63-3.97,9.64-5.95,15.03-5.95"/><path d="M505.99,330.04c3.12,0,5.73,.78,7.81,2.34,2.08,1.56,3.12,3.81,3.12,6.73,0,4.49-2.33,8.69-6.98,12.6-4.65,3.9-9.65,5.86-14.99,5.86-3.12,0-5.76-.82-7.91-2.44-2.02-1.76-3.03-3.98-3.03-6.64,0-4.37,2.31-8.53,6.94-12.5s9.64-5.95,15.03-5.95"/><path d="M618.56,330.04c3.12,0,5.73,.78,7.81,2.34,2.08,1.56,3.12,3.81,3.12,6.73,0,4.49-2.33,8.69-6.98,12.6-4.65,3.9-9.65,5.86-14.99,5.86-3.12,0-5.76-.82-7.91-2.44-2.02-1.76-3.03-3.98-3.03-6.64,0-4.37,2.31-8.53,6.94-12.5s9.64-5.95,15.03-5.95"/><path d="M1301.93,404.44c1.89,0,5.84-1.95,11.87-5.85,6.03-3.91,9.58-6.53,10.65-7.86,1.07-1.34,1.61-2.53,1.61-3.57s-.43-1.97-1.27-2.78c-.85-.81-1.83-1.22-2.93-1.22-1.95,0-5.94,1.97-11.97,5.91-6.02,3.94-9.56,6.56-10.6,7.86-1.04,1.3-1.56,2.47-1.56,3.51s.41,1.97,1.23,2.79c.81,.81,1.81,1.21,2.97,1.21m18.96-24.4c5.59,0,8.39,2.4,8.39,7.22,0,2.34-.68,5.06-2.05,8.15-1.36,3.1-3.19,5.46-5.47,7.08-5.01,3.39-11.29,5.08-18.84,5.08-5.61,0-8.41-2.41-8.41-7.22,0-2.15,.67-4.81,2-8.01,1.34-3.19,3.17-5.6,5.52-7.22,5.02-3.39,11.3-5.08,18.86-5.08"/><path d="M1685.19,367.54c3.12,0,5.73,.78,7.81,2.34,2.08,1.56,3.12,3.81,3.12,6.74,0,4.49-2.32,8.68-6.97,12.59-4.65,3.91-9.65,5.86-14.99,5.86-3.13,0-5.76-.81-7.91-2.44-2.02-1.76-3.03-3.97-3.03-6.64,0-4.36,2.31-8.53,6.94-12.5,4.62-3.97,9.63-5.95,15.03-5.95"/><path d="M1685.19,292.53c3.12,0,5.73,.78,7.81,2.35,2.08,1.56,3.12,3.8,3.12,6.73,0,4.49-2.32,8.69-6.97,12.59-4.65,3.91-9.65,5.86-14.99,5.86-3.13,0-5.76-.81-7.91-2.43-2.02-1.76-3.03-3.98-3.03-6.64,0-4.37,2.31-8.54,6.94-12.5,4.62-3.97,9.63-5.96,15.03-5.96"/><path d="M1880.12,367.54c3.13,0,5.73,.78,7.81,2.34,2.09,1.56,3.13,3.81,3.13,6.74,0,4.49-2.33,8.68-6.98,12.59-4.65,3.91-9.65,5.86-14.99,5.86-3.12,0-5.76-.81-7.91-2.44-2.02-1.76-3.03-3.97-3.03-6.64,0-4.36,2.32-8.53,6.94-12.5,4.63-3.97,9.64-5.95,15.03-5.95"/><path d="M2267.23,466.95c1.88,0,5.84-1.95,11.87-5.86,6.02-3.91,9.57-6.53,10.64-7.86,1.08-1.33,1.61-2.52,1.61-3.56s-.42-1.97-1.27-2.78c-.85-.82-1.83-1.22-2.93-1.22-1.95,0-5.93,1.97-11.96,5.9-6.03,3.94-9.56,6.56-10.6,7.86-1.04,1.3-1.57,2.48-1.57,3.52s.41,1.97,1.23,2.78,1.81,1.22,2.98,1.22m18.95-24.41c5.59,0,8.39,2.41,8.39,7.22,0,2.34-.68,5.06-2.05,8.16-1.36,3.09-3.18,5.45-5.46,7.08-5.01,3.38-11.3,5.07-18.85,5.07-5.6,0-8.4-2.4-8.4-7.22,0-2.14,.66-4.81,2-8,1.33-3.2,3.17-5.6,5.51-7.23,5.02-3.39,11.31-5.08,18.86-5.08"/><path d="M2267.23,379.44c1.88,0,5.84-1.95,11.87-5.86,6.02-3.9,9.57-6.52,10.64-7.86,1.08-1.33,1.61-2.52,1.61-3.56s-.42-1.97-1.27-2.78c-.85-.81-1.83-1.22-2.93-1.22-1.95,0-5.93,1.97-11.96,5.91-6.03,3.94-9.56,6.56-10.6,7.86-1.04,1.3-1.57,2.47-1.57,3.51s.41,1.97,1.23,2.78c.82,.82,1.81,1.22,2.98,1.22m18.95-24.4c5.59,0,8.39,2.4,8.39,7.22,0,2.34-.68,5.06-2.05,8.15-1.36,3.1-3.18,5.45-5.46,7.08-5.01,3.39-11.3,5.08-18.85,5.08-5.6,0-8.4-2.41-8.4-7.22,0-2.15,.66-4.82,2-8.01,1.33-3.19,3.17-5.6,5.51-7.23,5.02-3.38,11.31-5.07,18.86-5.07"/><path d="M2539.39,367.54c3.12,0,5.73,.78,7.81,2.34s3.13,3.81,3.13,6.74c0,4.49-2.33,8.68-6.98,12.59-4.65,3.91-9.65,5.86-14.99,5.86-3.13,0-5.76-.81-7.91-2.44-2.02-1.76-3.03-3.97-3.03-6.64,0-4.36,2.31-8.53,6.94-12.5,4.62-3.97,9.63-5.95,15.03-5.95"/><path d="M2967.12,405.04c3.12,0,5.72,.78,7.81,2.34,2.08,1.57,3.12,3.81,3.12,6.74,0,4.49-2.32,8.69-6.97,12.59-4.65,3.91-9.65,5.86-15,5.86-3.12,0-5.76-.81-7.9-2.44-2.02-1.76-3.03-3.97-3.03-6.64,0-4.36,2.31-8.53,6.93-12.5,4.63-3.97,9.64-5.95,15.04-5.95"/><path d="M3340.78,367.54c3.13,0,5.73,.78,7.82,2.34,2.08,1.56,3.12,3.81,3.12,6.74,0,4.49-2.32,8.68-6.98,12.59-4.65,3.91-9.64,5.86-14.99,5.86-3.12,0-5.76-.81-7.9-2.44-2.03-1.76-3.04-3.97-3.04-6.64,0-4.36,2.32-8.53,6.94-12.5,4.63-3.97,9.64-5.95,15.03-5.95"/><path d="M3465.28,367.54c3.12,0,5.72,.78,7.81,2.34,2.08,1.56,3.12,3.81,3.12,6.74,0,4.49-2.32,8.68-6.97,12.59-4.65,3.91-9.65,5.86-15,5.86-3.12,0-5.76-.81-7.9-2.44-2.02-1.76-3.03-3.97-3.03-6.64,0-4.36,2.31-8.53,6.93-12.5,4.63-3.97,9.64-5.95,15.04-5.95"/><path d="M3726.84,324.27c2.86,3.84,6.54,5.76,11.03,5.76s6.73-3.02,6.73-9.07c0-2.88-.81-5.42-2.44-7.63-2.8-3.84-6.57-5.77-11.32-5.77-2.09,0-3.68,.87-4.79,2.59-1.1,1.72-1.65,3.96-1.65,6.7s.81,5.21,2.44,7.42m-9.68-15.24c4.89-2.66,10.77-4,17.64-4s12.66,1.37,17.38,4.1c4.72,2.74,7.08,5.99,7.08,9.77s-2.45,7-7.33,9.66c-4.89,2.67-10.73,4-17.53,4s-12.61-1.36-17.43-4.1c-4.82-2.73-7.23-6.02-7.23-9.86s2.48-7.02,7.42-9.57"/><path d="M4685.77,404.44c1.88,0,5.84-1.95,11.86-5.85,6.03-3.91,9.58-6.53,10.65-7.86,1.08-1.34,1.61-2.53,1.61-3.57s-.42-1.97-1.27-2.78c-.85-.81-1.83-1.22-2.93-1.22-1.95,0-5.94,1.97-11.96,5.91-6.03,3.94-9.56,6.56-10.6,7.86s-1.57,2.47-1.57,3.51,.41,1.97,1.23,2.79c.82,.81,1.81,1.21,2.98,1.21m18.95-24.4c5.59,0,8.39,2.4,8.39,7.22,0,2.34-.68,5.06-2.05,8.15-1.36,3.1-3.18,5.46-5.46,7.08-5.01,3.39-11.3,5.08-18.85,5.08-5.6,0-8.4-2.41-8.4-7.22,0-2.15,.66-4.81,2-8.01,1.33-3.19,3.17-5.6,5.51-7.22,5.02-3.39,11.31-5.08,18.86-5.08"/><path d="M4685.77,316.94c1.88,0,5.84-1.95,11.86-5.86,6.03-3.91,9.58-6.53,10.65-7.86,1.08-1.33,1.61-2.52,1.61-3.56s-.42-1.97-1.27-2.78c-.85-.82-1.83-1.22-2.93-1.22-1.95,0-5.94,1.97-11.96,5.9-6.03,3.94-9.56,6.56-10.6,7.86-1.04,1.31-1.57,2.48-1.57,3.52s.41,1.97,1.23,2.78c.82,.81,1.81,1.22,2.98,1.22m18.95-24.41c5.59,0,8.39,2.41,8.39,7.22,0,2.35-.68,5.06-2.05,8.16-1.36,3.09-3.18,5.45-5.46,7.08-5.01,3.38-11.3,5.07-18.85,5.07-5.6,0-8.4-2.4-8.4-7.21,0-2.15,.66-4.82,2-8.01,1.33-3.2,3.17-5.6,5.51-7.23,5.02-3.38,11.31-5.08,18.86-5.08"/><path d="M4824.25,391.94c1.89,0,5.84-1.95,11.87-5.86,6.03-3.9,9.58-6.52,10.65-7.86,1.07-1.33,1.61-2.52,1.61-3.56s-.43-1.97-1.28-2.78c-.84-.81-1.82-1.22-2.93-1.22-1.94,0-5.93,1.97-11.96,5.91-6.02,3.94-9.56,6.56-10.6,7.86s-1.56,2.47-1.56,3.51,.41,1.97,1.23,2.78c.81,.82,1.81,1.22,2.97,1.22m18.96-24.4c5.59,0,8.39,2.4,8.39,7.22,0,2.34-.69,5.06-2.05,8.15-1.36,3.1-3.19,5.46-5.47,7.08-5.01,3.39-11.29,5.08-18.84,5.08-5.61,0-8.41-2.41-8.41-7.22,0-2.15,.67-4.82,2-8.01,1.33-3.19,3.17-5.6,5.52-7.22,5.02-3.39,11.3-5.08,18.86-5.08"/><path d="M4824.25,316.94c1.89,0,5.84-1.95,11.87-5.86,6.03-3.91,9.58-6.53,10.65-7.86s1.61-2.52,1.61-3.56-.43-1.97-1.28-2.78c-.84-.82-1.82-1.22-2.93-1.22-1.94,0-5.93,1.97-11.96,5.9-6.02,3.94-9.56,6.56-10.6,7.86-1.04,1.31-1.56,2.48-1.56,3.52s.41,1.97,1.23,2.78c.81,.81,1.81,1.22,2.97,1.22m18.96-24.41c5.59,0,8.39,2.41,8.39,7.22,0,2.35-.69,5.06-2.05,8.16-1.36,3.09-3.19,5.45-5.47,7.08-5.01,3.38-11.29,5.07-18.84,5.07-5.61,0-8.41-2.4-8.41-7.21,0-2.15,.67-4.82,2-8.01,1.33-3.2,3.17-5.6,5.52-7.23,5.02-3.38,11.3-5.08,18.86-5.08"/><path d="M5189.27,441.95c1.88,0,5.84-1.96,11.86-5.86,6.03-3.91,9.58-6.53,10.65-7.86,1.07-1.34,1.61-2.52,1.61-3.56s-.42-1.97-1.27-2.79c-.85-.81-1.83-1.21-2.93-1.21-1.95,0-5.94,1.96-11.96,5.9-6.03,3.94-9.56,6.56-10.6,7.86-1.05,1.3-1.57,2.48-1.57,3.52s.41,1.97,1.23,2.78c.82,.81,1.81,1.22,2.98,1.22m18.95-24.41c5.59,0,8.39,2.41,8.39,7.22,0,2.34-.68,5.06-2.05,8.16-1.36,3.09-3.18,5.45-5.47,7.07-5.01,3.39-11.29,5.08-18.84,5.08-5.6,0-8.41-2.4-8.41-7.22,0-2.14,.67-4.81,2-8,1.34-3.2,3.18-5.61,5.52-7.23,5.02-3.39,11.31-5.08,18.86-5.08"/><path d="M5189.27,354.44c1.88,0,5.84-1.95,11.86-5.86,6.03-3.9,9.58-6.52,10.65-7.86,1.07-1.33,1.61-2.52,1.61-3.56s-.42-1.97-1.27-2.78c-.85-.81-1.83-1.22-2.93-1.22-1.95,0-5.94,1.97-11.96,5.91-6.03,3.93-9.56,6.55-10.6,7.86-1.05,1.3-1.57,2.47-1.57,3.51s.41,1.97,1.23,2.78c.82,.82,1.81,1.22,2.98,1.22m18.95-24.4c5.59,0,8.39,2.4,8.39,7.21,0,2.35-.68,5.07-2.05,8.16-1.36,3.09-3.18,5.45-5.47,7.08-5.01,3.38-11.29,5.08-18.84,5.08-5.6,0-8.41-2.41-8.41-7.22,0-2.15,.67-4.82,2-8.01,1.34-3.19,3.18-5.6,5.52-7.23,5.02-3.38,11.31-5.07,18.86-5.07"/><path d="M5189.27,329.44c1.88,0,5.84-1.95,11.86-5.86,6.03-3.91,9.58-6.53,10.65-7.86,1.07-1.33,1.61-2.52,1.61-3.56s-.42-1.97-1.27-2.78c-.85-.82-1.83-1.22-2.93-1.22-1.95,0-5.94,1.97-11.96,5.9-6.03,3.94-9.56,6.56-10.6,7.86-1.05,1.31-1.57,2.48-1.57,3.52s.41,1.97,1.23,2.78c.82,.81,1.81,1.22,2.98,1.22m18.95-24.41c5.59,0,8.39,2.41,8.39,7.22,0,2.35-.68,5.06-2.05,8.16-1.36,3.09-3.18,5.45-5.47,7.08-5.01,3.38-11.29,5.07-18.84,5.07-5.6,0-8.41-2.4-8.41-7.21,0-2.15,.67-4.82,2-8.01,1.34-3.19,3.18-5.6,5.52-7.23,5.02-3.38,11.31-5.08,18.86-5.08"/><path d="M5531.41,417.54c3.13,0,5.73,.78,7.81,2.34,2.09,1.57,3.13,3.81,3.13,6.74,0,4.49-2.33,8.69-6.98,12.59-4.65,3.91-9.65,5.86-14.99,5.86-3.13,0-5.76-.81-7.91-2.44-2.02-1.76-3.03-3.97-3.03-6.64,0-4.36,2.31-8.53,6.94-12.5,4.62-3.97,9.63-5.95,15.03-5.95"/><path d="M5531.41,330.04c3.13,0,5.73,.78,7.81,2.34,2.09,1.56,3.13,3.81,3.13,6.73,0,4.49-2.33,8.69-6.98,12.6-4.65,3.9-9.65,5.86-14.99,5.86-3.13,0-5.76-.82-7.91-2.44-2.02-1.76-3.03-3.98-3.03-6.64,0-4.37,2.31-8.53,6.94-12.5,4.62-3.97,9.63-5.95,15.03-5.95"/><path d="M5531.41,305.03c3.13,0,5.73,.78,7.81,2.35,2.09,1.56,3.13,3.8,3.13,6.73,0,4.49-2.33,8.69-6.98,12.6-4.65,3.9-9.65,5.85-14.99,5.85-3.13,0-5.76-.81-7.91-2.43-2.02-1.76-3.03-3.98-3.03-6.64,0-4.37,2.31-8.53,6.94-12.5,4.62-3.97,9.63-5.96,15.03-5.96"/><path d="M5631.87,330.04c3.13,0,5.73,.78,7.81,2.34,2.09,1.56,3.13,3.81,3.13,6.73,0,4.49-2.33,8.69-6.98,12.6-4.65,3.9-9.65,5.86-14.99,5.86-3.13,0-5.76-.82-7.91-2.44-2.02-1.76-3.03-3.98-3.03-6.64,0-4.37,2.31-8.53,6.94-12.5,4.62-3.97,9.64-5.95,15.03-5.95"/><path d="M5771.1,330.04c3.13,0,5.73,.78,7.82,2.34,2.08,1.56,3.12,3.81,3.12,6.73,0,4.49-2.32,8.69-6.98,12.6-4.65,3.9-9.64,5.86-14.99,5.86-3.12,0-5.76-.82-7.9-2.44-2.02-1.76-3.03-3.98-3.03-6.64,0-4.37,2.31-8.53,6.93-12.5,4.63-3.97,9.64-5.95,15.03-5.95"/><path d="M6006.08,380.04c3.13,0,5.73,.78,7.81,2.34,2.09,1.56,3.13,3.81,3.13,6.74,0,4.49-2.33,8.68-6.98,12.59s-9.65,5.86-14.99,5.86c-3.12,0-5.76-.81-7.91-2.44-2.02-1.76-3.03-3.97-3.03-6.64,0-4.36,2.32-8.53,6.94-12.5,4.63-3.97,9.64-5.95,15.03-5.95"/><path d="M6006.08,292.53c3.13,0,5.73,.78,7.81,2.35,2.09,1.56,3.13,3.8,3.13,6.73,0,4.49-2.33,8.69-6.98,12.59-4.65,3.91-9.65,5.86-14.99,5.86-3.12,0-5.76-.81-7.91-2.43-2.02-1.76-3.03-3.98-3.03-6.64,0-4.37,2.32-8.54,6.94-12.5,4.63-3.97,9.64-5.96,15.03-5.96"/><path d="M6186.3,292.53c3.12,0,5.73,.78,7.81,2.35,2.08,1.56,3.13,3.8,3.13,6.73,0,4.49-2.33,8.69-6.98,12.59-4.65,3.91-9.65,5.86-14.99,5.86-3.13,0-5.76-.81-7.91-2.43-2.02-1.76-3.03-3.98-3.03-6.64,0-4.37,2.31-8.54,6.94-12.5,4.62-3.97,9.63-5.96,15.03-5.96"/><path d="M6279.77,391.94c1.89,0,5.85-1.95,11.87-5.86,6.03-3.9,9.58-6.52,10.65-7.86,1.07-1.33,1.61-2.52,1.61-3.56s-.43-1.97-1.27-2.78c-.85-.81-1.83-1.22-2.93-1.22-1.95,0-5.94,1.97-11.96,5.91-6.03,3.94-9.56,6.56-10.61,7.86-1.04,1.3-1.56,2.47-1.56,3.51s.41,1.97,1.23,2.78c.82,.82,1.81,1.22,2.97,1.22m18.96-24.4c5.59,0,8.39,2.4,8.39,7.22,0,2.34-.68,5.06-2.05,8.15-1.36,3.1-3.19,5.46-5.47,7.08-5.01,3.39-11.29,5.08-18.84,5.08-5.61,0-8.41-2.41-8.41-7.22,0-2.15,.67-4.82,2-8.01,1.34-3.19,3.17-5.6,5.52-7.22,5.02-3.39,11.31-5.08,18.86-5.08"/><path d="M6311.25,391.94c1.88,0,5.84-1.95,11.86-5.86,6.03-3.9,9.58-6.52,10.65-7.86,1.07-1.33,1.61-2.52,1.61-3.56s-.42-1.97-1.27-2.78-1.83-1.22-2.93-1.22c-1.95,0-5.94,1.97-11.96,5.91-6.03,3.94-9.56,6.56-10.61,7.86-1.04,1.3-1.56,2.47-1.56,3.51s.41,1.97,1.23,2.78c.82,.82,1.81,1.22,2.98,1.22m18.95-24.4c5.59,0,8.39,2.4,8.39,7.22,0,2.34-.68,5.06-2.05,8.15-1.36,3.1-3.19,5.46-5.47,7.08-5.01,3.39-11.29,5.08-18.84,5.08-5.6,0-8.41-2.41-8.41-7.22,0-2.15,.67-4.82,2-8.01,1.34-3.19,3.18-5.6,5.52-7.22,5.02-3.39,11.31-5.08,18.86-5.08"/><path d="M618.56,130.02c3.12,0,5.73,.78,7.81,2.35,2.08,1.56,3.12,3.8,3.12,6.73,0,4.49-2.33,8.69-6.98,12.59-4.65,3.91-9.65,5.86-14.99,5.86-3.12,0-5.76-.81-7.91-2.43-2.02-1.76-3.03-3.98-3.03-6.64,0-4.37,2.31-8.54,6.94-12.5,4.62-3.97,9.64-5.96,15.03-5.96"/><path d="M715.68,179.43c1.89,0,5.84-1.95,11.87-5.86,6.03-3.91,9.58-6.53,10.65-7.86,1.07-1.33,1.61-2.52,1.61-3.56s-.43-1.97-1.28-2.78c-.84-.81-1.82-1.22-2.93-1.22-1.94,0-5.93,1.97-11.96,5.91-6.02,3.93-9.56,6.55-10.6,7.85-1.04,1.31-1.56,2.48-1.56,3.52s.41,1.97,1.23,2.78c.82,.81,1.81,1.22,2.98,1.22m18.96-24.41c5.59,0,8.39,2.41,8.39,7.22,0,2.35-.69,5.07-2.05,8.16-1.36,3.09-3.19,5.45-5.47,7.08-5.01,3.38-11.29,5.08-18.84,5.08-5.6,0-8.41-2.41-8.41-7.22,0-2.15,.67-4.82,2-8.01,1.33-3.19,3.17-5.6,5.52-7.23,5.02-3.38,11.3-5.08,18.86-5.08"/><path d="M715.68,154.43c1.89,0,5.84-1.95,11.87-5.86,6.03-3.91,9.58-6.53,10.65-7.86,1.07-1.33,1.61-2.52,1.61-3.56s-.43-1.97-1.28-2.78c-.84-.82-1.82-1.22-2.93-1.22-1.94,0-5.93,1.97-11.96,5.9-6.02,3.94-9.56,6.56-10.6,7.86-1.04,1.31-1.56,2.48-1.56,3.52s.41,1.97,1.23,2.78c.82,.81,1.81,1.22,2.98,1.22m18.96-24.41c5.59,0,8.39,2.41,8.39,7.22,0,2.34-.69,5.06-2.05,8.16-1.36,3.09-3.19,5.45-5.47,7.08-5.01,3.38-11.29,5.07-18.84,5.07-5.6,0-8.41-2.4-8.41-7.22,0-2.14,.67-4.81,2-8,1.33-3.2,3.17-5.6,5.52-7.23,5.02-3.38,11.3-5.08,18.86-5.08"/><path d="M1301.93,191.93c1.89,0,5.84-1.95,11.87-5.86,6.03-3.9,9.58-6.52,10.65-7.86,1.07-1.33,1.61-2.52,1.61-3.56s-.43-1.97-1.27-2.78c-.85-.81-1.83-1.22-2.93-1.22-1.95,0-5.94,1.97-11.97,5.91-6.02,3.93-9.56,6.55-10.6,7.86-1.04,1.3-1.56,2.47-1.56,3.51s.41,1.97,1.23,2.78c.81,.81,1.81,1.22,2.97,1.22m18.96-24.41c5.59,0,8.39,2.41,8.39,7.22,0,2.35-.68,5.07-2.05,8.16-1.36,3.09-3.19,5.45-5.47,7.08-5.01,3.38-11.29,5.08-18.84,5.08-5.61,0-8.41-2.41-8.41-7.22,0-2.15,.67-4.82,2-8.01,1.34-3.19,3.17-5.6,5.52-7.23,5.02-3.38,11.3-5.08,18.86-5.08"/><path d="M1880.12,142.52c3.13,0,5.73,.78,7.81,2.35,2.09,1.56,3.13,3.8,3.13,6.73,0,4.49-2.33,8.69-6.98,12.6-4.65,3.9-9.65,5.85-14.99,5.85-3.12,0-5.76-.81-7.91-2.43-2.02-1.76-3.03-3.98-3.03-6.64,0-4.37,2.32-8.53,6.94-12.5,4.63-3.97,9.64-5.96,15.03-5.96"/><path d="M2267.23,191.93c1.88,0,5.84-1.95,11.87-5.86,6.02-3.9,9.57-6.52,10.64-7.86,1.08-1.33,1.61-2.52,1.61-3.56s-.42-1.97-1.27-2.78c-.85-.81-1.83-1.22-2.93-1.22-1.95,0-5.93,1.97-11.96,5.91-6.03,3.93-9.56,6.55-10.6,7.86-1.04,1.3-1.57,2.47-1.57,3.51s.41,1.97,1.23,2.78c.82,.81,1.81,1.22,2.98,1.22m18.95-24.41c5.59,0,8.39,2.41,8.39,7.22,0,2.35-.68,5.07-2.05,8.16-1.36,3.09-3.18,5.45-5.46,7.08-5.01,3.38-11.3,5.08-18.85,5.08-5.6,0-8.4-2.41-8.4-7.22,0-2.15,.66-4.82,2-8.01,1.33-3.19,3.17-5.6,5.51-7.23,5.02-3.38,11.31-5.08,18.86-5.08"/><path d="M2267.23,166.93c1.88,0,5.84-1.95,11.87-5.86,6.02-3.91,9.57-6.53,10.64-7.86,1.08-1.33,1.61-2.52,1.61-3.56s-.42-1.97-1.27-2.78c-.85-.82-1.83-1.22-2.93-1.22-1.95,0-5.93,1.97-11.96,5.9-6.03,3.94-9.56,6.56-10.6,7.86-1.04,1.31-1.57,2.48-1.57,3.52s.41,1.97,1.23,2.78c.82,.81,1.81,1.22,2.98,1.22m18.95-24.41c5.59,0,8.39,2.41,8.39,7.22,0,2.35-.68,5.06-2.05,8.16-1.36,3.09-3.18,5.45-5.46,7.08-5.01,3.38-11.3,5.07-18.85,5.07-5.6,0-8.4-2.4-8.4-7.21,0-2.15,.66-4.82,2-8.01,1.33-3.19,3.17-5.6,5.51-7.23,5.02-3.38,11.31-5.08,18.86-5.08"/><path d="M2951.67,204.43c1.88,0,5.84-1.95,11.86-5.86,6.03-3.9,9.58-6.52,10.65-7.86,1.07-1.33,1.61-2.52,1.61-3.56s-.42-1.97-1.27-2.78c-.85-.81-1.83-1.22-2.93-1.22-1.95,0-5.94,1.97-11.96,5.91-6.03,3.93-9.56,6.55-10.6,7.86-1.05,1.3-1.57,2.47-1.57,3.51s.41,1.97,1.23,2.78c.82,.82,1.81,1.22,2.98,1.22m18.95-24.4c5.59,0,8.39,2.4,8.39,7.21,0,2.35-.68,5.07-2.05,8.16-1.36,3.09-3.18,5.45-5.47,7.08-5.01,3.38-11.29,5.08-18.84,5.08-5.6,0-8.41-2.41-8.41-7.22,0-2.15,.67-4.82,2-8.01,1.34-3.19,3.18-5.6,5.52-7.23,5.02-3.38,11.31-5.07,18.86-5.07"/><path d="M2951.67,179.43c1.88,0,5.84-1.95,11.86-5.86,6.03-3.91,9.58-6.53,10.65-7.86,1.07-1.33,1.61-2.52,1.61-3.56s-.42-1.97-1.27-2.78c-.85-.81-1.83-1.22-2.93-1.22-1.95,0-5.94,1.97-11.96,5.91-6.03,3.93-9.56,6.55-10.6,7.85-1.05,1.31-1.57,2.48-1.57,3.52s.41,1.97,1.23,2.78c.82,.81,1.81,1.22,2.98,1.22m18.95-24.41c5.59,0,8.39,2.41,8.39,7.22,0,2.35-.68,5.07-2.05,8.16-1.36,3.09-3.18,5.45-5.47,7.08-5.01,3.38-11.29,5.08-18.84,5.08-5.6,0-8.41-2.41-8.41-7.22,0-2.15,.67-4.82,2-8.01,1.34-3.19,3.18-5.6,5.52-7.23,5.02-3.38,11.31-5.08,18.86-5.08"/><path d="M3724.56,166.93c1.89,0,5.84-1.95,11.87-5.86s9.58-6.53,10.65-7.86c1.07-1.33,1.61-2.52,1.61-3.56s-.43-1.97-1.28-2.78c-.84-.82-1.82-1.22-2.93-1.22-1.94,0-5.93,1.97-11.96,5.9-6.02,3.94-9.56,6.56-10.6,7.86-1.04,1.31-1.56,2.48-1.56,3.52s.41,1.97,1.23,2.78c.81,.81,1.81,1.22,2.97,1.22m18.96-24.41c5.59,0,8.39,2.41,8.39,7.22,0,2.35-.69,5.06-2.05,8.16-1.37,3.09-3.19,5.45-5.47,7.08-5.01,3.38-11.29,5.07-18.84,5.07-5.61,0-8.41-2.4-8.41-7.21,0-2.15,.67-4.82,2-8.01,1.33-3.19,3.17-5.6,5.52-7.23,5.02-3.38,11.3-5.08,18.86-5.08"/><path d="M4263.81,141.93c1.88,0,5.84-1.96,11.86-5.86,6.03-3.91,9.58-6.53,10.65-7.86,1.08-1.33,1.61-2.52,1.61-3.56s-.42-1.97-1.27-2.78c-.85-.82-1.83-1.22-2.93-1.22-1.95,0-5.94,1.97-11.96,5.9-6.03,3.94-9.56,6.56-10.6,7.86-1.04,1.3-1.57,2.48-1.57,3.52s.41,1.97,1.23,2.78c.82,.81,1.81,1.22,2.98,1.22m18.95-24.41c5.59,0,8.39,2.41,8.39,7.22,0,2.34-.68,5.06-2.05,8.16-1.36,3.09-3.18,5.45-5.46,7.07-5.01,3.39-11.3,5.08-18.85,5.08-5.6,0-8.4-2.4-8.4-7.22,0-2.14,.66-4.81,2-8,1.33-3.2,3.17-5.61,5.51-7.23,5.02-3.39,11.31-5.08,18.86-5.08"/><path d="M5027.65,130.02c3.12,0,5.73,.78,7.81,2.35,2.08,1.56,3.12,3.8,3.12,6.73,0,4.49-2.32,8.69-6.97,12.59-4.65,3.91-9.65,5.86-14.99,5.86-3.13,0-5.77-.81-7.91-2.43-2.02-1.76-3.03-3.98-3.03-6.64,0-4.37,2.31-8.54,6.94-12.5,4.62-3.97,9.63-5.96,15.03-5.96"/><path d="M5189.27,191.93c1.88,0,5.84-1.95,11.86-5.86,6.03-3.9,9.58-6.52,10.65-7.86,1.07-1.33,1.61-2.52,1.61-3.56s-.42-1.97-1.27-2.78c-.85-.81-1.83-1.22-2.93-1.22-1.95,0-5.94,1.97-11.96,5.91-6.03,3.93-9.56,6.55-10.6,7.86-1.05,1.3-1.57,2.47-1.57,3.51s.41,1.97,1.23,2.78c.82,.81,1.81,1.22,2.98,1.22m18.95-24.41c5.59,0,8.39,2.41,8.39,7.22,0,2.35-.68,5.07-2.05,8.16-1.36,3.09-3.18,5.45-5.47,7.08-5.01,3.38-11.29,5.08-18.84,5.08-5.6,0-8.41-2.41-8.41-7.22,0-2.15,.67-4.82,2-8.01,1.34-3.19,3.18-5.6,5.52-7.23,5.02-3.38,11.31-5.08,18.86-5.08"/><path d="M325.88,130.02c3.12,0,5.73,.78,7.81,2.35,2.08,1.56,3.12,3.8,3.12,6.73,0,4.49-2.33,8.69-6.98,12.59-4.65,3.91-9.65,5.86-14.99,5.86-3.12,0-5.76-.81-7.91-2.43-2.02-1.76-3.03-3.98-3.03-6.64,0-4.37,2.31-8.54,6.94-12.5,4.62-3.97,9.64-5.96,15.03-5.96"/><path d="M618.56,105.02c3.12,0,5.73,.78,7.81,2.34,2.08,1.57,3.12,3.81,3.12,6.74,0,4.49-2.33,8.69-6.98,12.59-4.65,3.91-9.65,5.86-14.99,5.86-3.12,0-5.76-.81-7.91-2.44-2.02-1.76-3.03-3.97-3.03-6.64,0-4.36,2.31-8.53,6.94-12.5,4.62-3.96,9.64-5.95,15.03-5.95"/><path d="M618.56,80.02c3.12,0,5.73,.78,7.81,2.34,2.08,1.57,3.12,3.81,3.12,6.74,0,4.49-2.33,8.68-6.98,12.59s-9.65,5.86-14.99,5.86c-3.12,0-5.76-.81-7.91-2.44-2.02-1.76-3.03-3.97-3.03-6.64,0-4.36,2.31-8.53,6.94-12.5s9.64-5.95,15.03-5.95"/><path d="M731.12,92.52c3.13,0,5.73,.78,7.81,2.34,2.09,1.57,3.13,3.81,3.13,6.74,0,4.49-2.33,8.69-6.98,12.59-4.65,3.91-9.65,5.86-14.99,5.86-3.12,0-5.76-.81-7.91-2.44-2.02-1.76-3.03-3.97-3.03-6.64,0-4.36,2.31-8.53,6.94-12.5s9.64-5.95,15.03-5.95"/><path d="M986.31,117.52c3.13,0,5.73,.78,7.82,2.35,2.08,1.56,3.12,3.8,3.12,6.73,0,4.49-2.32,8.69-6.97,12.59-4.66,3.91-9.65,5.86-15,5.86-3.12,0-5.76-.81-7.9-2.43-2.02-1.77-3.03-3.98-3.03-6.65,0-4.36,2.31-8.53,6.93-12.5,4.63-3.96,9.64-5.95,15.03-5.95"/><path d="M1117.71,130.02c3.13,0,5.73,.78,7.82,2.35,2.08,1.56,3.12,3.8,3.12,6.73,0,4.49-2.32,8.69-6.97,12.59-4.66,3.91-9.65,5.86-15,5.86-3.12,0-5.76-.81-7.9-2.43-2.02-1.76-3.03-3.98-3.03-6.64,0-4.37,2.31-8.54,6.93-12.5,4.63-3.97,9.64-5.96,15.03-5.96"/><path d="M1301.93,154.43c1.89,0,5.84-1.95,11.87-5.86,6.03-3.91,9.58-6.53,10.65-7.86,1.07-1.33,1.61-2.52,1.61-3.56s-.43-1.97-1.27-2.78c-.85-.82-1.83-1.22-2.93-1.22-1.95,0-5.94,1.97-11.97,5.9-6.02,3.94-9.56,6.56-10.6,7.86-1.04,1.31-1.56,2.48-1.56,3.52s.41,1.97,1.23,2.78c.81,.81,1.81,1.22,2.97,1.22m18.96-24.41c5.59,0,8.39,2.41,8.39,7.22,0,2.34-.68,5.06-2.05,8.16-1.36,3.09-3.19,5.45-5.47,7.08-5.01,3.38-11.29,5.07-18.84,5.07-5.61,0-8.41-2.4-8.41-7.22,0-2.14,.67-4.81,2-8,1.34-3.2,3.17-5.6,5.52-7.23,5.02-3.38,11.3-5.08,18.86-5.08"/><path d="M1685.19,167.52c3.12,0,5.73,.79,7.81,2.35,2.08,1.56,3.12,3.81,3.12,6.73,0,4.49-2.32,8.69-6.97,12.6-4.65,3.9-9.65,5.86-14.99,5.86-3.13,0-5.76-.82-7.91-2.44-2.02-1.76-3.03-3.98-3.03-6.64,0-4.37,2.31-8.53,6.94-12.5,4.62-3.97,9.63-5.96,15.03-5.96"/><path d="M1685.19,130.02c3.12,0,5.73,.78,7.81,2.35,2.08,1.56,3.12,3.8,3.12,6.73,0,4.49-2.32,8.69-6.97,12.59-4.65,3.91-9.65,5.86-14.99,5.86-3.13,0-5.76-.81-7.91-2.43-2.02-1.76-3.03-3.98-3.03-6.64,0-4.37,2.31-8.54,6.94-12.5,4.62-3.97,9.63-5.96,15.03-5.96"/><path d="M1880.12,117.52c3.13,0,5.73,.78,7.81,2.35,2.09,1.56,3.13,3.8,3.13,6.73,0,4.49-2.33,8.69-6.98,12.59-4.65,3.91-9.65,5.86-14.99,5.86-3.12,0-5.76-.81-7.91-2.43-2.02-1.77-3.03-3.98-3.03-6.65,0-4.36,2.32-8.53,6.94-12.5,4.63-3.96,9.64-5.95,15.03-5.95"/><path d="M2282.68,105.02c3.12,0,5.73,.78,7.81,2.34,2.08,1.57,3.12,3.81,3.12,6.74,0,4.49-2.32,8.69-6.97,12.59-4.65,3.91-9.65,5.86-14.99,5.86-3.13,0-5.76-.81-7.91-2.44-2.02-1.76-3.03-3.97-3.03-6.64,0-4.36,2.31-8.53,6.94-12.5,4.62-3.96,9.63-5.95,15.03-5.95"/><path d="M2452.4,80.02c3.12,0,5.73,.78,7.81,2.34,2.08,1.57,3.12,3.81,3.12,6.74,0,4.49-2.32,8.68-6.97,12.59-4.65,3.91-9.65,5.86-14.99,5.86-3.13,0-5.76-.81-7.91-2.44-2.02-1.76-3.03-3.97-3.03-6.64,0-4.36,2.31-8.53,6.94-12.5,4.62-3.97,9.63-5.95,15.03-5.95"/><path d="M2539.39,117.52c3.12,0,5.73,.78,7.81,2.35,2.08,1.56,3.13,3.8,3.13,6.73,0,4.49-2.33,8.69-6.98,12.59-4.65,3.91-9.65,5.86-14.99,5.86-3.13,0-5.76-.81-7.91-2.43-2.02-1.77-3.03-3.98-3.03-6.65,0-4.36,2.31-8.53,6.94-12.5,4.62-3.96,9.63-5.95,15.03-5.95"/><path d="M2713.37,142.52c3.13,0,5.73,.78,7.82,2.35,2.08,1.56,3.12,3.8,3.12,6.73,0,4.49-2.32,8.69-6.98,12.6-4.65,3.9-9.64,5.85-14.99,5.85-3.12,0-5.76-.81-7.9-2.43-2.03-1.76-3.04-3.98-3.04-6.64,0-4.37,2.32-8.53,6.94-12.5,4.63-3.97,9.64-5.96,15.03-5.96"/><path d="M2951.67,154.43c1.88,0,5.84-1.95,11.86-5.86,6.03-3.91,9.58-6.53,10.65-7.86,1.07-1.33,1.61-2.52,1.61-3.56s-.42-1.97-1.27-2.78c-.85-.82-1.83-1.22-2.93-1.22-1.95,0-5.94,1.97-11.96,5.9-6.03,3.94-9.56,6.56-10.6,7.86-1.05,1.31-1.57,2.48-1.57,3.52s.41,1.97,1.23,2.78c.82,.81,1.81,1.22,2.98,1.22m18.95-24.41c5.59,0,8.39,2.41,8.39,7.22,0,2.34-.68,5.06-2.05,8.16-1.36,3.09-3.18,5.45-5.47,7.08-5.01,3.38-11.29,5.07-18.84,5.07-5.6,0-8.41-2.4-8.41-7.22,0-2.14,.67-4.81,2-8,1.34-3.2,3.18-5.6,5.52-7.23,5.02-3.38,11.31-5.08,18.86-5.08"/><path d="M3555.81,130.02c3.13,0,5.73,.78,7.82,2.35,2.08,1.56,3.12,3.8,3.12,6.73,0,4.49-2.32,8.69-6.97,12.59-4.66,3.91-9.65,5.86-15,5.86-3.12,0-5.76-.81-7.9-2.43-2.02-1.76-3.03-3.98-3.03-6.64,0-4.37,2.31-8.54,6.93-12.5,4.63-3.97,9.64-5.96,15.03-5.96"/><path d="M3612.4,117.52c3.13,0,5.73,.78,7.81,2.35,2.09,1.56,3.13,3.8,3.13,6.73,0,4.49-2.33,8.69-6.98,12.59-4.65,3.91-9.65,5.86-14.99,5.86-3.12,0-5.76-.81-7.91-2.43-2.02-1.77-3.03-3.98-3.03-6.65,0-4.36,2.32-8.53,6.94-12.5,4.63-3.96,9.64-5.95,15.03-5.95"/><path d="M3740.01,105.02c3.13,0,5.73,.78,7.81,2.34,2.09,1.57,3.13,3.81,3.13,6.74,0,4.49-2.33,8.69-6.98,12.59-4.65,3.91-9.65,5.86-14.99,5.86-3.12,0-5.76-.81-7.91-2.44-2.02-1.76-3.03-3.97-3.03-6.64,0-4.36,2.32-8.53,6.94-12.5,4.63-3.96,9.64-5.95,15.03-5.95"/><path d="M3982.34,130.02c3.12,0,5.73,.78,7.81,2.35,2.08,1.56,3.12,3.8,3.12,6.73,0,4.49-2.32,8.69-6.97,12.59-4.65,3.91-9.65,5.86-15,5.86-3.12,0-5.76-.81-7.9-2.43-2.02-1.76-3.03-3.98-3.03-6.64,0-4.37,2.31-8.54,6.93-12.5,4.63-3.97,9.64-5.96,15.04-5.96"/><path d="M4432.57,80.02c3.13,0,5.73,.78,7.81,2.34,2.09,1.57,3.13,3.81,3.13,6.74,0,4.49-2.33,8.68-6.98,12.59-4.65,3.91-9.65,5.86-14.99,5.86-3.12,0-5.76-.81-7.91-2.44-2.02-1.76-3.03-3.97-3.03-6.64,0-4.36,2.32-8.53,6.94-12.5,4.63-3.97,9.64-5.95,15.03-5.95"/><path d="M4534.6,67.52c3.13,0,5.73,.78,7.82,2.34,2.08,1.56,3.12,3.81,3.12,6.74,0,4.49-2.32,8.68-6.98,12.59-4.65,3.91-9.64,5.86-14.99,5.86-3.12,0-5.76-.81-7.9-2.44-2.03-1.76-3.04-3.97-3.04-6.64,0-4.36,2.32-8.53,6.94-12.5,4.63-3.97,9.64-5.95,15.03-5.95"/><path d="M4685.77,154.43c1.88,0,5.84-1.95,11.86-5.86,6.03-3.91,9.58-6.53,10.65-7.86,1.08-1.33,1.61-2.52,1.61-3.56s-.42-1.97-1.27-2.78c-.85-.82-1.83-1.22-2.93-1.22-1.95,0-5.94,1.97-11.96,5.9-6.03,3.94-9.56,6.56-10.6,7.86-1.04,1.31-1.57,2.48-1.57,3.52s.41,1.97,1.23,2.78c.82,.81,1.81,1.22,2.98,1.22m18.95-24.41c5.59,0,8.39,2.41,8.39,7.22,0,2.34-.68,5.06-2.05,8.16-1.36,3.09-3.18,5.45-5.46,7.08-5.01,3.38-11.3,5.07-18.85,5.07-5.6,0-8.4-2.4-8.4-7.22,0-2.14,.66-4.81,2-8,1.33-3.2,3.17-5.6,5.51-7.23,5.02-3.38,11.31-5.08,18.86-5.08"/><path d="M5077.11,117.52c3.12,0,5.72,.78,7.81,2.35,2.08,1.56,3.12,3.8,3.12,6.73,0,4.49-2.32,8.69-6.97,12.59-4.65,3.91-9.65,5.86-15,5.86-3.12,0-5.76-.81-7.9-2.43-2.02-1.77-3.03-3.98-3.03-6.65,0-4.36,2.31-8.53,6.93-12.5,4.63-3.96,9.64-5.95,15.04-5.95"/><path d="M5204.72,105.02c3.12,0,5.72,.78,7.81,2.34,2.08,1.57,3.12,3.81,3.12,6.74,0,4.49-2.32,8.69-6.97,12.59-4.65,3.91-9.65,5.86-15,5.86-3.12,0-5.76-.81-7.9-2.44-2.02-1.76-3.03-3.97-3.03-6.64,0-4.36,2.31-8.53,6.93-12.5,4.63-3.96,9.64-5.95,15.04-5.95"/><path d="M5394.68,130.02c3.13,0,5.73,.78,7.82,2.35,2.08,1.56,3.12,3.8,3.12,6.73,0,4.49-2.32,8.69-6.98,12.59-4.65,3.91-9.64,5.86-14.99,5.86-3.12,0-5.76-.81-7.9-2.43-2.02-1.76-3.03-3.98-3.03-6.64,0-4.37,2.31-8.54,6.93-12.5,4.63-3.97,9.64-5.96,15.03-5.96"/><path d="M5490.99,117.52c3.13,0,5.73,.78,7.82,2.35,2.08,1.56,3.12,3.8,3.12,6.73,0,4.49-2.32,8.69-6.98,12.59-4.65,3.91-9.64,5.86-14.99,5.86-3.12,0-5.76-.81-7.9-2.43-2.02-1.77-3.04-3.98-3.04-6.65,0-4.36,2.32-8.53,6.94-12.5,4.63-3.96,9.64-5.95,15.03-5.95"/><path d="M5691.12,105.02c3.12,0,5.73,.78,7.81,2.34,2.08,1.57,3.12,3.81,3.12,6.74,0,4.49-2.32,8.69-6.97,12.59-4.65,3.91-9.65,5.86-14.99,5.86-3.13,0-5.76-.81-7.91-2.44-2.02-1.76-3.03-3.97-3.03-6.64,0-4.36,2.31-8.53,6.94-12.5,4.62-3.96,9.63-5.95,15.03-5.95"/><path d="M5771.1,80.02c3.13,0,5.73,.78,7.82,2.34,2.08,1.57,3.12,3.81,3.12,6.74,0,4.49-2.32,8.68-6.98,12.59-4.65,3.91-9.64,5.86-14.99,5.86-3.12,0-5.76-.81-7.9-2.44-2.02-1.76-3.03-3.97-3.03-6.64,0-4.36,2.31-8.53,6.93-12.5,4.63-3.97,9.64-5.95,15.03-5.95"/><path d="M5839.29,67.52c3.13,0,5.73,.78,7.82,2.34,2.08,1.56,3.12,3.81,3.12,6.74,0,4.49-2.32,8.68-6.97,12.59-4.66,3.91-9.65,5.86-15,5.86-3.12,0-5.76-.81-7.9-2.44-2.02-1.76-3.03-3.97-3.03-6.64,0-4.36,2.31-8.53,6.93-12.5,4.63-3.97,9.64-5.95,15.03-5.95"/><path d="M6006.08,130.02c3.13,0,5.73,.78,7.81,2.35,2.09,1.56,3.13,3.8,3.13,6.73,0,4.49-2.33,8.69-6.98,12.59-4.65,3.91-9.65,5.86-14.99,5.86-3.12,0-5.76-.81-7.91-2.43-2.02-1.76-3.03-3.98-3.03-6.64,0-4.37,2.32-8.54,6.94-12.5,4.63-3.97,9.64-5.96,15.03-5.96"/><path d="M6186.3,105.02c3.12,0,5.73,.78,7.81,2.34,2.08,1.57,3.13,3.81,3.13,6.74,0,4.49-2.33,8.69-6.98,12.59-4.65,3.91-9.65,5.86-14.99,5.86-3.13,0-5.76-.81-7.91-2.44-2.02-1.76-3.03-3.97-3.03-6.64,0-4.36,2.31-8.53,6.94-12.5,4.62-3.96,9.63-5.95,15.03-5.95"/><path d="M6295.22,117.52c3.13,0,5.73,.78,7.82,2.35,2.08,1.56,3.12,3.8,3.12,6.73,0,4.49-2.32,8.69-6.98,12.59-4.65,3.91-9.64,5.86-14.99,5.86-3.12,0-5.76-.81-7.9-2.43-2.02-1.77-3.04-3.98-3.04-6.65,0-4.36,2.32-8.53,6.94-12.5,4.63-3.96,9.64-5.95,15.03-5.95"/><path d="M6372.2,105.02c3.13,0,5.73,.78,7.81,2.34,2.09,1.57,3.13,3.81,3.13,6.74,0,4.49-2.33,8.69-6.98,12.59-4.65,3.91-9.65,5.86-14.99,5.86-3.12,0-5.76-.81-7.91-2.44-2.02-1.76-3.03-3.97-3.03-6.64,0-4.36,2.32-8.53,6.94-12.5,4.63-3.96,9.64-5.95,15.03-5.95"/><path d="M6482.58,130.02c3.13,0,5.73,.78,7.82,2.35,2.08,1.56,3.12,3.8,3.12,6.73,0,4.49-2.32,8.69-6.97,12.59-4.66,3.91-9.65,5.86-15,5.86-3.12,0-5.76-.81-7.9-2.43-2.02-1.76-3.03-3.98-3.03-6.64,0-4.37,2.31-8.54,6.93-12.5,4.63-3.97,9.64-5.96,15.03-5.96"/><path d="M6558.47,130.02c3.12,0,5.72,.78,7.81,2.35,2.08,1.56,3.12,3.8,3.12,6.73,0,4.49-2.32,8.69-6.97,12.59-4.65,3.91-9.65,5.86-15,5.86-3.12,0-5.76-.81-7.9-2.43-2.02-1.76-3.03-3.98-3.03-6.64,0-4.37,2.31-8.54,6.93-12.5,4.63-3.97,9.64-5.96,15.04-5.96"/><path d="M6605.89,130.02c3.13,0,5.73,.78,7.81,2.35,2.09,1.56,3.13,3.8,3.13,6.73,0,4.49-2.33,8.69-6.98,12.59-4.65,3.91-9.65,5.86-14.99,5.86-3.12,0-5.76-.81-7.91-2.43-2.02-1.76-3.03-3.98-3.03-6.64,0-4.37,2.32-8.54,6.94-12.5,4.63-3.97,9.64-5.96,15.03-5.96"/><path d="M124.41,334.91c-.97-.98-1.46-2.18-1.46-3.62s.49-2.63,1.46-3.61c.97-.97,2.18-1.46,3.61-1.46s2.64,.49,3.62,1.46c.98,.98,1.47,2.18,1.47,3.61s-.49,2.64-1.47,3.62c-.98,.98-2.18,1.47-3.62,1.47s-2.64-.49-3.61-1.47m0,25.01c-.97-.98-1.46-2.18-1.46-3.61s.49-2.64,1.46-3.62,2.18-1.47,3.61-1.47,2.64,.49,3.62,1.47c.98,.98,1.47,2.19,1.47,3.62s-.49,2.63-1.47,3.61c-.98,.97-2.18,1.46-3.62,1.46s-2.64-.49-3.61-1.46m-33.88-42.38c8.66,0,15.75,2.17,21.28,6.53,5.34,4.56,8.02,10.75,8.02,18.56,0,4.75-1.01,9.49-3.03,14.21-2.02,4.72-4.66,8.84-7.91,12.35-5.93,6.57-14.02,12.53-24.27,17.87-10.26,5.34-15.92,8.01-16.99,8.01s-1.61-.43-1.61-1.27c0-.32,.13-.61,.39-.87,3.32-1.96,6.97-4.21,10.94-6.75,3.97-2.53,8.01-5.54,12.11-9.03,4.1-3.48,7.28-6.71,9.52-9.67,2.25-2.96,4.31-6.62,6.2-10.98,1.62-4.36,2.44-8.66,2.44-12.9,0-6.31-1.56-11.81-4.69-16.5-3.12-4.69-7.26-7.03-12.39-7.03-3.65,0-6.84,1.22-9.57,3.66-2.74,2.44-4.69,5.42-5.87,8.93,1.24-.52,2.38-.78,3.42-.78,2.73,0,5.07,1.01,7.02,3.03s2.93,4.4,2.93,7.13-.94,5.21-2.83,7.43c-2.02,2.01-4.45,3.02-7.27,3.02s-5.41-1.01-7.76-3.02c-2.22-2.22-3.33-4.73-3.33-7.53,0-6.71,2.26-12.45,6.79-17.23s10.01-7.17,16.46-7.17"/><path d="M109.17,163.41v-2.14c-.06-1.1-.22-2.83-.49-5.17-3.25,.52-6.14,.78-8.69,.78-9.11,0-16.85-3.6-23.2-10.8-6.35-7.19-9.52-15.77-9.52-25.73,0-2.67,.52-5.87,1.56-9.62,1.04-3.74,2-6.25,2.88-7.52,.88-1.27,2.2-3.5,3.96-6.69,.52-.98,2.21-3.13,5.08-6.45,.52-.71,.98-1.29,1.37-1.75,.39-.46,1.02-1.27,1.9-2.45,.88-1.17,1.82-2.26,2.83-3.27,1.01-1.01,1.91-1.99,2.69-2.93,.78-.94,1.5-1.74,2.16-2.38-2.34-7.75-3.78-13.71-4.3-17.88-.52-4.16-.78-9.28-.78-15.33s1.3-11.56,3.91-16.51c2.53-5.14,6.08-9.33,10.64-12.6,.26-.19,.6-.29,1.02-.29s.73,.1,.93,.29c3.51,4.23,6.55,9.73,9.12,16.5,2.57,6.78,3.86,13.11,3.86,19s-1.5,11.58-4.48,17.05c-3.39,5.79-7.75,11.78-13.09,17.97,1.36,4.29,3.19,11.03,5.47,20.2h.59c.26-.06,.48-.09,.67-.09,7.36,0,13.37,2.59,18.02,7.77,4.65,5.17,6.98,11.15,6.98,17.92,0,8.39-3.48,15.16-10.44,20.31-2.02,1.5-4.4,2.67-7.14,3.52,.33,4.22,.5,7.04,.5,8.44s-.07,3.89-.2,7.48c-.06,6.11-2.15,11.35-6.25,15.72-4.1,4.36-8.79,6.54-14.06,6.54s-9.76-1.87-13.48-5.61c-3.71-3.75-5.57-8.29-5.57-13.62,0-2.8,1.08-5.18,3.23-7.14,2.21-1.95,4.7-2.92,7.46-2.92s5.03,1.01,6.79,3.03c1.82,1.88,2.73,4.16,2.73,6.83s-.91,4.91-2.73,6.73c-1.82,1.82-4.01,2.73-6.55,2.73-1.04,0-2.05-.19-3.01-.57,2.86,4.23,6.54,6.34,11.03,6.34s8.33-1.85,11.52-5.56c3.19-3.71,4.79-8.08,4.79-13.1l.28-7.03m3.12-12.29c3.39-1.24,6.07-3.44,8.06-6.6,1.99-3.15,2.98-6.3,2.98-9.42,0-4.63-1.6-8.76-4.79-12.41-3.19-3.64-7.23-5.69-12.12-6.15,2.8,13.74,4.76,25.26,5.86,34.58m-37.78-22.57c0,6.45,2.57,12.08,7.71,16.9,5.14,4.82,11.17,7.23,18.07,7.23,2.73,0,5.4-.2,8-.6-1.04-9.89-3.09-21.74-6.16-35.54-3.83,.39-6.81,1.71-8.93,3.96-2.12,2.24-3.18,4.8-3.18,7.66,0,4.95,2.64,8.96,7.92,12.02,.45,.26,.67,.7,.67,1.32s-.21,1.15-.63,1.61c-.42,.45-.79,.68-1.12,.68s-.74-.07-1.27-.19c-7.62-4.17-11.44-10.45-11.44-18.86,0-3.97,1.4-7.78,4.2-11.42,2.93-3.65,6.73-5.99,11.42-7.03-1.82-7.29-3.32-12.99-4.49-17.1-8.92,10.03-14.45,17.46-16.61,22.27-2.79,6.25-4.19,11.95-4.19,17.09M107.12,29.24c-4.89,2.41-8.74,5.89-11.57,10.45-2.83,4.55-4.24,9.34-4.24,14.35s1.17,11.49,3.52,19.43c4.69-5.66,8.23-10.97,10.64-15.92,2.41-4.95,3.61-9.84,3.61-14.69s-.65-9.39-1.95-13.62"/><path d="M159.33,411.38l-1.27-62.11c0-.98,.77-1.47,2.3-1.47s2.3,.49,2.3,1.47l-.78,33.89c1.76-1.76,3.27-2.98,4.54-3.66,1.27-.68,2.99-1.02,5.17-1.02s4.2,1,6.05,3.02c1.85,2.01,2.78,4.52,2.78,7.52,0,4.49-4.72,10.71-14.16,18.66-3.51,3.19-5.33,4.78-5.47,4.78h-.58c-.59,0-.89-.36-.89-1.08m2.45-25.09l-.3,22.17c2.02-1.9,4.07-5.04,6.16-9.44,2.08-4.39,3.12-8.15,3.12-11.28,0-1.56-.26-2.99-.78-4.3-.52-1.3-1.34-1.95-2.45-1.95s-2.1,.39-2.98,1.17c-.88,.78-1.8,1.99-2.77,3.63"/><path d="M159.33,123.86l-1.27-62.11c0-.97,.77-1.46,2.3-1.46s2.3,.49,2.3,1.46l-.78,33.9c1.76-1.77,3.27-2.99,4.54-3.67,1.27-.68,2.99-1.02,5.17-1.02s4.2,1.01,6.05,3.02c1.85,2.02,2.78,4.52,2.78,7.52,0,4.49-4.72,10.71-14.16,18.66-3.51,3.19-5.33,4.78-5.47,4.78h-.58c-.59,0-.89-.36-.89-1.08m2.45-25.09l-.3,22.17c2.02-1.89,4.07-5.04,6.16-9.44,2.08-4.39,3.12-8.15,3.12-11.28,0-1.56-.26-2.99-.78-4.29-.52-1.31-1.34-1.96-2.45-1.96s-2.1,.39-2.98,1.18c-.88,.78-1.8,1.98-2.77,3.62"/><path d="M228.75,319.98c1.49,0,2.93-.23,4.3-.68,1.37-.45,2.35-.68,2.93-.68s.97,.36,1.17,1.06c0,.08-.07,.27-.2,.6l-28.41,33.01h16.69v-13.09c0-1.63,.95-2.8,2.84-3.52,1.95-.72,4.16-3.61,6.64-8.68,.19-.4,.48-.6,.88-.6,.78,0,1.23,.46,1.36,1.38v24.51h7.14c.91,0,1.39,.49,1.46,1.46,.07,.98-.42,1.46-1.46,1.46h-7.14v.79c0,2.6,.65,4.81,1.95,6.64,1.5,1.82,3.26,2.73,5.28,2.73,.78,0,1.17,.39,1.17,1.17s-.54,1.17-1.61,1.17-3.08-.21-6.01-.63c-2.93-.42-5.2-.63-6.79-.63s-3.81,.21-6.64,.63c-2.83,.42-4.96,.63-6.39,.63-.78,0-1.17-.39-1.17-1.17s.39-1.17,1.17-1.17c2.01,0,3.76-.91,5.26-2.73,1.36-1.89,2.05-4.1,2.05-6.64v-.79h-16.69c-.85,0-1.59-.22-2.21-.68-.62-.45-.93-.87-.93-1.26s.82-1.56,2.45-3.52c1.63-1.95,3.96-5.71,6.98-11.28s4.54-11.96,4.54-19.19c0-1.04,.46-1.57,1.38-1.57,.2,0,.51,.07,.93,.2,.42,.13,1.33,.34,2.73,.63,1.4,.29,2.85,.44,4.34,.44"/><path d="M228.75,370.16c1.49,0,2.93-.23,4.3-.68,1.37-.46,2.35-.68,2.93-.68s.97,.35,1.17,1.06c0,.07-.07,.27-.2,.59l-28.41,33.02h16.69v-13.1c0-1.62,.95-2.79,2.84-3.51,1.95-.72,4.16-3.62,6.64-8.69,.19-.39,.48-.59,.88-.59,.78,0,1.23,.46,1.36,1.37v24.52h7.14c.91,0,1.39,.48,1.46,1.46,.07,.97-.42,1.46-1.46,1.46h-7.14v.78c0,2.61,.65,4.82,1.95,6.64,1.5,1.82,3.26,2.74,5.28,2.74,.78,0,1.17,.39,1.17,1.17s-.54,1.17-1.61,1.17-3.08-.21-6.01-.63c-2.93-.42-5.2-.64-6.79-.64s-3.81,.22-6.64,.64c-2.83,.42-4.96,.63-6.39,.63-.78,0-1.17-.39-1.17-1.17s.39-1.17,1.17-1.17c2.01,0,3.76-.92,5.26-2.74,1.36-1.88,2.05-4.1,2.05-6.64v-.78h-16.69c-.85,0-1.59-.23-2.21-.68-.62-.45-.93-.87-.93-1.27s.82-1.56,2.45-3.51c1.63-1.95,3.96-5.71,6.98-11.28s4.54-11.97,4.54-19.2c0-1.04,.46-1.56,1.38-1.56,.2,0,.51,.06,.93,.2,.42,.13,1.33,.34,2.73,.63s2.85,.44,4.34,.44"/><path d="M228.75,57.46c1.49,0,2.93-.22,4.3-.68,1.37-.45,2.35-.68,2.93-.68s.97,.36,1.17,1.07c0,.07-.07,.27-.2,.59l-28.41,33.02h16.69v-13.1c0-1.62,.95-2.79,2.84-3.51,1.95-.72,4.16-3.62,6.64-8.69,.19-.4,.48-.59,.88-.59,.78,0,1.23,.45,1.36,1.37v24.52h7.14c.91,0,1.39,.48,1.46,1.46,.07,.97-.42,1.46-1.46,1.46h-7.14v.78c0,2.6,.65,4.82,1.95,6.64,1.5,1.82,3.26,2.73,5.28,2.73,.78,0,1.17,.4,1.17,1.18s-.54,1.17-1.61,1.17-3.08-.21-6.01-.63c-2.93-.43-5.2-.64-6.79-.64s-3.81,.21-6.64,.64c-2.83,.42-4.96,.63-6.39,.63-.78,0-1.17-.39-1.17-1.17s.39-1.18,1.17-1.18c2.01,0,3.76-.91,5.26-2.73,1.36-1.89,2.05-4.1,2.05-6.64v-.78h-16.69c-.85,0-1.59-.23-2.21-.68-.62-.45-.93-.88-.93-1.27s.82-1.56,2.45-3.51c1.63-1.96,3.96-5.72,6.98-11.28,3.03-5.57,4.54-11.97,4.54-19.2,0-1.04,.46-1.56,1.38-1.56,.2,0,.51,.06,.93,.19s1.33,.34,2.73,.64c1.4,.29,2.85,.43,4.34,.43"/><path d="M228.75,107.64c1.49,0,2.93-.23,4.3-.68,1.37-.45,2.35-.68,2.93-.68s.97,.35,1.17,1.06c0,.07-.07,.27-.2,.6l-28.41,33.01h16.69v-13.09c0-1.63,.95-2.8,2.84-3.52,1.95-.72,4.16-3.61,6.64-8.69,.19-.39,.48-.59,.88-.59,.78,0,1.23,.46,1.36,1.38v24.51h7.14c.91,0,1.39,.49,1.46,1.46,.07,.98-.42,1.46-1.46,1.46h-7.14v.78c0,2.61,.65,4.82,1.95,6.65,1.5,1.82,3.26,2.73,5.28,2.73,.78,0,1.17,.39,1.17,1.17s-.54,1.17-1.61,1.17-3.08-.21-6.01-.63c-2.93-.42-5.2-.63-6.79-.63s-3.81,.21-6.64,.63c-2.83,.42-4.96,.63-6.39,.63-.78,0-1.17-.39-1.17-1.17s.39-1.17,1.17-1.17c2.01,0,3.76-.91,5.26-2.73,1.36-1.89,2.05-4.1,2.05-6.65v-.78h-16.69c-.85,0-1.59-.22-2.21-.68-.62-.45-.93-.87-.93-1.26s.82-1.56,2.45-3.52c1.63-1.95,3.96-5.71,6.98-11.28,3.03-5.57,4.54-11.97,4.54-19.19,0-1.05,.46-1.57,1.38-1.57,.2,0,.51,.07,.93,.2s1.33,.34,2.73,.63,2.85,.44,4.34,.44"/><path d="M304.3,363.52c-.66-.84-.98-1.75-.98-2.73,0-1.75,2.09-4.19,6.27-7.32,4.09-3.19,6.14-6.84,6.14-10.93,0-2.42-.84-4.63-2.53-6.64l-3.52-4.21c-.26-.26-.39-.58-.39-.97s.19-.75,.58-1.07c.46-.34,.88-.5,1.27-.5s.72,.19,.98,.59l15.14,17.97c.65,.84,.97,1.77,.97,2.78s-.54,2.1-1.61,3.27c-1.07,1.18-2.58,2.54-4.53,4.1-1.5,.91-2.92,2.34-4.25,4.29-1.33,1.96-2,4.17-2,6.65s.78,4.66,2.34,6.55l8.39,9.86c.2,.2,.33,.52,.39,.98,.06,.45-.1,.84-.49,1.17-.39,.33-.7,.49-.92,.49s-.81-.38-1.76-1.13c-.95-.75-2.28-1.48-4.01-2.19-1.72-.71-3.43-1.07-5.12-1.07s-3.03,.45-4,1.37c-.97,.91-1.46,3.01-1.46,6.29s.94,6.07,2.83,8.35c.2,.26,.23,.56,.1,.88-.13,.32-.39,.48-.78,.48s-1.39-1.2-2.98-3.61c-1.6-2.4-3.13-5.25-4.59-8.54-1.46-3.29-2.2-6.04-2.2-8.25,0-2.8,1.43-4.21,4.3-4.21s6.74,1.05,11.62,3.13l-13.19-15.83"/><path d="M745.68,368.8h-35.54c-.66,0-.98-.33-.98-.98v-13.67c0-.65,.33-.97,.98-.97h35.54c.65,0,.97,.32,.97,.97v13.67c0,.65-.32,.98-.97,.98"/><path d="M2691.8,363.52c-.66-.84-.99-1.75-.99-2.73,0-1.75,2.09-4.19,6.27-7.32,4.09-3.19,6.14-6.84,6.14-10.93,0-2.42-.85-4.63-2.53-6.64l-3.52-4.21c-.26-.26-.39-.58-.39-.97s.19-.75,.58-1.07c.46-.34,.88-.5,1.27-.5s.72,.19,.98,.59l15.14,17.97c.64,.84,.97,1.77,.97,2.78s-.54,2.1-1.61,3.27c-1.08,1.18-2.59,2.54-4.53,4.1-1.5,.91-2.92,2.34-4.25,4.29-1.34,1.96-2,4.17-2,6.65s.78,4.66,2.34,6.55l8.39,9.86c.2,.2,.33,.52,.39,.98,.06,.45-.1,.84-.49,1.17-.39,.33-.7,.49-.92,.49s-.81-.38-1.76-1.13-2.28-1.48-4.01-2.19c-1.72-.71-3.43-1.07-5.12-1.07s-3.03,.45-4,1.37c-.98,.91-1.46,3.01-1.46,6.29s.94,6.07,2.82,8.35c.2,.26,.24,.56,.11,.88-.13,.32-.4,.48-.79,.48s-1.38-1.2-2.98-3.61c-1.6-2.4-3.13-5.25-4.59-8.54-1.47-3.29-2.2-6.04-2.2-8.25,0-2.8,1.43-4.21,4.3-4.21s6.74,1.05,11.62,3.13l-13.18-15.83"/><path d="M3070.03,363.52c-.66-.84-.99-1.75-.99-2.73,0-1.75,2.09-4.19,6.27-7.32,4.09-3.19,6.14-6.84,6.14-10.93,0-2.42-.84-4.63-2.53-6.64l-3.52-4.21c-.26-.26-.39-.58-.39-.97s.2-.75,.58-1.07c.46-.34,.88-.5,1.28-.5s.71,.19,.97,.59l15.14,17.97c.65,.84,.97,1.77,.97,2.78s-.54,2.1-1.61,3.27c-1.07,1.18-2.58,2.54-4.53,4.1-1.5,.91-2.92,2.34-4.25,4.29-1.33,1.96-2,4.17-2,6.65s.78,4.66,2.34,6.55l8.39,9.86c.2,.2,.33,.52,.4,.98,.06,.45-.11,.84-.5,1.17-.39,.33-.69,.49-.92,.49s-.81-.38-1.76-1.13c-.94-.75-2.28-1.48-4-2.19-1.73-.71-3.44-1.07-5.13-1.07s-3.03,.45-4,1.37c-.97,.91-1.46,3.01-1.46,6.29s.94,6.07,2.83,8.35c.2,.26,.23,.56,.1,.88-.13,.32-.39,.48-.78,.48s-1.39-1.2-2.99-3.61c-1.6-2.4-3.13-5.25-4.59-8.54s-2.2-6.04-2.2-8.25c0-2.8,1.44-4.21,4.3-4.21s6.74,1.05,11.63,3.13l-13.19-15.83"/><path d="M502.97,98.66c-4.17,1.5-7.55,2.25-10.16,2.25s-4.77-.73-6.5-2.19c-1.73-1.47-2.59-3.29-2.59-5.47s.72-3.98,2.15-5.38c1.43-1.4,3.12-2.1,5.08-2.1s3.42,.55,4.4,1.66,1.52,2.17,1.62,3.18,.41,2.13,.93,3.36c.58,1.04,1.28,1.57,2.09,1.57s1.9-.77,3.27-2.29c1.37-1.53,2.28-2.73,2.73-3.61s1.01-1.31,1.66-1.28c.65,.04,1.11,.34,1.37,.93l-12.3,42c-.66,.65-1.57,.98-2.74,.98s-2.08-.33-2.73-.98l11.72-32.63"/><path d="M3319.2,101c-.65-.84-.98-1.75-.98-2.73,0-1.75,2.09-4.19,6.27-7.31,4.09-3.2,6.14-6.85,6.14-10.94,0-2.42-.85-4.63-2.53-6.64l-3.52-4.2c-.26-.26-.39-.59-.39-.98s.19-.75,.58-1.07c.46-.33,.88-.5,1.27-.5s.72,.2,.98,.59l15.14,17.97c.64,.85,.97,1.77,.97,2.78s-.54,2.1-1.61,3.28c-1.08,1.17-2.59,2.54-4.53,4.1-1.5,.9-2.92,2.33-4.25,4.29-1.34,1.95-2,4.17-2,6.65s.78,4.66,2.34,6.54l8.39,9.86c.2,.2,.33,.53,.39,.98,.06,.45-.1,.84-.49,1.17-.39,.33-.7,.49-.92,.49s-.81-.37-1.76-1.12-2.28-1.48-4.01-2.2c-1.72-.71-3.43-1.07-5.12-1.07s-3.03,.46-4,1.37c-.98,.91-1.46,3.01-1.46,6.3s.94,6.07,2.82,8.35c.2,.26,.24,.55,.11,.87-.13,.33-.4,.49-.79,.49s-1.38-1.21-2.98-3.61c-1.6-2.41-3.13-5.26-4.59-8.55-1.47-3.29-2.2-6.04-2.2-8.25,0-2.8,1.43-4.2,4.3-4.2s6.74,1.04,11.62,3.12l-13.19-15.83"/><path d="M3462.26,98.66c-4.17,1.5-7.55,2.25-10.16,2.25s-4.77-.73-6.5-2.19c-1.73-1.47-2.59-3.29-2.59-5.47s.72-3.98,2.15-5.38c1.43-1.4,3.12-2.1,5.08-2.1s3.42,.55,4.39,1.66c.98,1.11,1.52,2.17,1.62,3.18,.1,1.01,.41,2.13,.93,3.36,.58,1.04,1.28,1.57,2.1,1.57s1.9-.77,3.27-2.29c1.37-1.53,2.28-2.73,2.73-3.61,.46-.88,1.01-1.31,1.66-1.28,.65,.04,1.11,.34,1.37,.93l-12.3,42c-.66,.65-1.57,.98-2.74,.98s-2.08-.33-2.73-.98l11.72-32.63"/><path d="M4257.68,51c-.66-.84-.99-1.75-.99-2.73,0-1.75,2.09-4.19,6.27-7.32,4.09-3.19,6.14-6.84,6.14-10.93,0-2.42-.84-4.63-2.53-6.64l-3.52-4.21c-.26-.26-.39-.58-.39-.97s.2-.75,.58-1.07c.46-.34,.88-.5,1.27-.5s.72,.19,.98,.59l15.14,17.97c.65,.84,.97,1.77,.97,2.78s-.54,2.1-1.61,3.27c-1.07,1.18-2.58,2.54-4.53,4.11-1.5,.9-2.92,2.33-4.25,4.28-1.33,1.96-2,4.17-2,6.65s.78,4.66,2.34,6.55l8.39,9.86c.2,.2,.33,.52,.39,.98,.07,.45-.1,.84-.49,1.17-.39,.33-.7,.49-.92,.49s-.81-.38-1.76-1.13c-.94-.75-2.28-1.48-4-2.19-1.73-.71-3.44-1.07-5.13-1.07s-3.03,.45-4,1.37c-.97,.91-1.46,3.01-1.46,6.29s.94,6.07,2.83,8.35c.2,.26,.23,.56,.1,.88-.13,.32-.39,.48-.78,.48s-1.39-1.2-2.99-3.61c-1.6-2.4-3.13-5.25-4.59-8.54-1.46-3.29-2.2-6.04-2.2-8.25,0-2.8,1.44-4.21,4.3-4.21s6.74,1.05,11.63,3.13l-13.19-15.83"/><path d="M4818.12,101c-.65-.84-.98-1.75-.98-2.73,0-1.75,2.09-4.19,6.27-7.31,4.09-3.2,6.14-6.85,6.14-10.94,0-2.42-.85-4.63-2.54-6.64l-3.51-4.2c-.26-.26-.39-.59-.39-.98s.19-.75,.58-1.07c.45-.33,.88-.5,1.27-.5s.72,.2,.98,.59l15.14,17.97c.64,.85,.97,1.77,.97,2.78s-.54,2.1-1.61,3.28c-1.08,1.17-2.59,2.54-4.53,4.1-1.5,.9-2.92,2.33-4.25,4.29-1.34,1.95-2,4.17-2,6.65s.78,4.66,2.34,6.54l8.39,9.86c.2,.2,.33,.53,.39,.98,.06,.45-.1,.84-.49,1.17-.39,.33-.7,.49-.92,.49s-.81-.37-1.76-1.12c-.95-.75-2.29-1.48-4.01-2.2-1.72-.71-3.43-1.07-5.12-1.07s-3.03,.46-4,1.37c-.98,.91-1.47,3.01-1.47,6.3s.95,6.07,2.83,8.35c.2,.26,.23,.55,.1,.87-.13,.33-.39,.49-.78,.49s-1.38-1.21-2.98-3.61c-1.6-2.41-3.13-5.26-4.6-8.55-1.46-3.29-2.19-6.04-2.19-8.25,0-2.8,1.43-4.2,4.3-4.2s6.74,1.04,11.62,3.12l-13.19-15.83"/><path d="M4945.5,98.66c-4.17,1.5-7.56,2.25-10.16,2.25s-4.77-.73-6.5-2.19c-1.73-1.47-2.59-3.29-2.59-5.47s.71-3.98,2.14-5.38c1.44-1.4,3.13-2.1,5.08-2.1s3.42,.55,4.4,1.66,1.52,2.17,1.62,3.18c.1,1.01,.41,2.13,.93,3.36,.58,1.04,1.28,1.57,2.09,1.57s1.91-.77,3.28-2.29c1.37-1.53,2.28-2.73,2.73-3.61,.45-.88,1.01-1.31,1.66-1.28,.65,.04,1.1,.34,1.36,.93l-12.29,42c-.66,.65-1.57,.98-2.75,.98s-2.08-.33-2.72-.98l11.72-32.63"/><path d="M5029.99,23.66c-4.17,1.5-7.53,2.25-10.1,2.25s-4.72-.74-6.45-2.2-2.59-3.29-2.59-5.47,.72-3.97,2.15-5.37c1.43-1.4,3.14-2.1,5.13-2.1s3.42,.53,4.3,1.61c.87,1.08,1.38,2.04,1.51,2.89,.13,.84,.44,1.93,.93,3.26,.48,1.33,1.15,2,2,2s1.96-.83,3.32-2.48c1.37-1.66,2.25-2.86,2.64-3.61,.39-.75,.89-1.11,1.51-1.08,.62,.03,1.06,.34,1.32,.92l-17.87,67c-.65,.66-1.56,.99-2.73,.99s-2.09-.33-2.74-.99l10.06-32.72c-4.36,1.56-7.81,2.35-10.35,2.35s-4.67-.74-6.4-2.2-2.59-3.29-2.59-5.47,.7-3.97,2.1-5.37c1.4-1.39,3.09-2.09,5.08-2.09s3.43,.54,4.34,1.61c.91,1.07,1.47,2.23,1.66,3.47,.53,3.12,1.57,4.69,3.13,4.69,.78,0,1.89-.91,3.33-2.74,1.49-1.7,2.4-3.03,2.73-4.01l4.58-15.14"/><path class="cls-7" d="M484.02,412.55h115.82v12.51h-115.82v-12.51"/><path class="cls-7" d="M5539.11,236.54l103.71,25.81v12.89l-103.71-25.81v-12.89"/><path class="cls-7" d="M5539.11,255.3l33,8.21v12.88l-33-8.21v-12.88"/><path class="cls-7" d="M994.01,49.87l134.65,6.41v12.51l-134.65-6.4v-12.52"/><path class="cls-7" d="M3563.51,56.6l59.84-6.61v12.58l-59.84,6.61v-12.58"/><path class="cls-7" d="M3563.51,75.35l59.84-6.6v12.57l-59.84,6.61v-12.58"/><path class="cls-7" d="M4440.27,6.47L4545.55,.02V12.54l-105.28,6.45V6.47"/><path class="cls-7" d="M5498.69,50.13l203.37-6.35v12.51l-203.37,6.35v-12.51"/><path class="cls-7" d="M5778.8,6.55l71.44-6.55V12.56l-71.44,6.54V6.55"/><path class="cls-7" d="M5778.8,25.3l33-3.02v12.55l-33,3.03v-12.56"/><path class="cls-7" d="M6302.92,50.28l80.23-6.52v12.54l-80.23,6.52v-12.54"/><path class="cls-7" d="M6490.28,56.28h126.56v12.5h-126.56v-12.5"/><path class="cls-7" d="M6566.16,75.03h50.68v12.5h-50.68v-12.5"/><path d="M5395.47,358.95c1.5,0,3.08,2.42,4.74,7.27,1.66,4.85,2.49,9.29,2.49,13.33s-.93,7.94-2.78,11.72c-1.86,3.77-4.08,7.09-6.69,9.96l-8.01,8.98c-2.47,2.87-4.65,6.15-6.54,9.86-1.89,3.71-2.84,7.45-2.84,11.24h-3.12v-25h3.12c10.94-6.91,17.81-13.03,20.61-18.36,1.36-2.61,2.05-5.24,2.05-7.91,0-6.19-1.8-12.34-5.38-18.47v-.39c0-.58,.23-1.1,.69-1.55,.46-.46,1.01-.68,1.66-.68"/><path d="M5472.15,411.29c10.16-5.86,16.64-11.37,19.44-16.52,1.3-2.4,1.95-4.79,1.95-7.17s-.46-4.73-1.37-7.08c-.71,.91-2.61,2.8-5.71,5.66-3.09,2.87-5.53,5.26-7.33,7.18-1.79,1.92-3.4,4.27-4.83,7.03-1.43,2.77-2.15,5.58-2.15,8.45v2.45m26.86-46.3c0,3.91-1.24,7.78-3.72,11.63,1.64,3.45,2.45,6.91,2.45,10.4s-.91,6.92-2.73,10.3c-1.82,3.39-3.91,6.18-6.25,8.39l-7.63,7.42c-5.99,6.13-8.98,12.19-8.98,18.18h-3.13v-50h3.13v7.51c15.1-7.87,22.66-15.82,22.66-23.83,0-1.76-.46-3.81-1.36-6.15v-.39c0-.65,.22-1.2,.68-1.66,.45-.46,1-.69,1.66-.69,1.56,0,2.54,1.99,2.92,5.97l.21,1.06c.06,.46,.09,1.08,.09,1.86"/><path d="M6187.08,321.44c1.5,0,3.08,2.43,4.74,7.28,1.66,4.85,2.49,9.29,2.49,13.33s-.92,7.94-2.78,11.71c-1.85,3.78-4.08,7.1-6.68,9.97l-8.02,8.98c-2.47,2.86-4.65,6.15-6.54,9.86-1.89,3.71-2.83,7.45-2.83,11.23h-3.13v-25h3.13c10.93-6.9,17.8-13.02,20.6-18.36,1.37-2.6,2.05-5.24,2.05-7.9,0-6.19-1.79-12.35-5.37-18.47v-.39c0-.58,.23-1.1,.68-1.56,.46-.45,1.01-.68,1.66-.68"/><path d="M619.34,158.93c1.5,0,3.08,2.43,4.74,7.28,1.66,4.85,2.49,9.29,2.49,13.33s-.93,7.94-2.78,11.71c-1.85,3.78-4.08,7.1-6.69,9.97l-8.02,8.98c-2.47,2.86-4.65,6.15-6.54,9.86-1.89,3.71-2.84,7.45-2.84,11.23h-3.12v-25h3.12c10.94-6.9,17.81-13.02,20.61-18.36,1.36-2.6,2.05-5.24,2.05-7.9,0-6.19-1.79-12.35-5.38-18.47v-.39c0-.58,.23-1.1,.69-1.56,.46-.45,1.01-.68,1.66-.68"/><path d="M5028.43,158.93c1.5,0,3.08,2.43,4.74,7.28s2.49,9.29,2.49,13.33-.92,7.94-2.78,11.71c-1.85,3.78-4.08,7.1-6.69,9.97l-8.01,8.98c-2.47,2.86-4.65,6.15-6.54,9.86-1.89,3.71-2.84,7.45-2.84,11.23h-3.12v-25h3.12c10.94-6.9,17.81-13.02,20.61-18.36,1.37-2.6,2.05-5.24,2.05-7.9,0-6.19-1.79-12.35-5.38-18.47v-.39c0-.58,.23-1.1,.69-1.56,.46-.45,1.01-.68,1.66-.68"/><path d="M626.25,43.78V18.78h3.12c0,3.71,.75,7.5,2.25,11.38,1.5,3.87,3.06,7.09,4.69,9.67,1.62,2.57,3.64,5.81,6.05,9.72,5.28,8.53,7.92,16.11,7.92,22.75s-1.4,13.48-4.2,20.51c-.52,.78-1.12,1.17-1.8,1.17s-1.25-.23-1.71-.68c-.46-.46-.69-.98-.69-1.57v-.48c2.8-6.45,4.2-12.83,4.2-19.14,0-3.26-.99-6.81-2.98-10.65-1.99-3.84-4.04-6.98-6.16-9.42-2.12-2.44-4.64-5.2-7.57-8.26h-3.12"/><path d="M2460.09,43.78V18.78h3.13c0,3.71,.75,7.5,2.25,11.38,1.5,3.87,3.06,7.09,4.69,9.67,1.62,2.57,3.64,5.81,6.04,9.72,5.28,8.53,7.93,16.11,7.93,22.75s-1.41,13.48-4.21,20.51c-.52,.78-1.12,1.17-1.8,1.17s-1.26-.23-1.71-.68c-.46-.46-.69-.98-.69-1.57v-.48c2.8-6.45,4.2-12.83,4.2-19.14,0-3.26-.99-6.81-2.97-10.65-1.99-3.84-4.04-6.98-6.16-9.42-2.12-2.44-4.64-5.2-7.57-8.26h-3.13"/><path d="M3990.03,81.28v-25h3.13c0,3.71,.75,7.5,2.25,11.38,1.5,3.87,3.06,7.1,4.69,9.67,1.62,2.57,3.64,5.81,6.04,9.72,5.28,8.53,7.92,16.12,7.92,22.76s-1.4,13.47-4.2,20.5c-.52,.79-1.12,1.18-1.8,1.18s-1.26-.23-1.71-.69c-.46-.46-.69-.98-.69-1.56v-.49c2.8-6.45,4.2-12.83,4.2-19.14,0-3.26-.99-6.81-2.98-10.65-1.98-3.84-4.03-6.98-6.15-9.42-2.12-2.44-4.64-5.19-7.57-8.26h-3.13"/><path d="M5087.93,43.78c0,5.87,2.41,12.28,7.23,19.24l5.86,8.59c1.95,2.68,3.64,5.71,5.07,9.09,1.43,3.39,2.15,6.68,2.15,9.86s-.78,6.45-2.34,9.77c1.95,3.97,2.93,7.84,2.93,11.62,0,5.99-1.4,12.11-4.2,18.36-.52,.78-1.12,1.17-1.8,1.17s-1.26-.22-1.71-.68c-.46-.46-.69-.98-.69-1.57v-.48c2.8-5.54,4.2-11.14,4.2-16.8,0-4.42-1.92-9.11-5.76-14.06-2.29-2.94-4.12-5.1-5.52-6.5-1.4-1.39-3.2-3.1-5.42-5.12v7.51h-3.13V43.78h3.13m15.33,51.66c.45-1.37,.68-3.06,.68-5.08,0-4.09-1.82-8.65-5.47-13.67-3.38-4.23-6.9-8.1-10.54-11.61,0,4.61,1.76,9.88,5.28,15.81,.84,1.44,2.45,3.75,4.83,6.94,2.37,3.19,4.11,5.72,5.22,7.61"/><path d="M5402.38,81.28v-25h3.13c0,3.71,.75,7.5,2.25,11.38,1.5,3.87,3.06,7.1,4.68,9.67,1.63,2.57,3.64,5.81,6.05,9.72,5.28,8.53,7.92,16.12,7.92,22.76s-1.4,13.47-4.2,20.5c-.52,.79-1.12,1.18-1.81,1.18s-1.25-.23-1.71-.69c-.45-.46-.68-.98-.68-1.56v-.49c2.8-6.45,4.2-12.83,4.2-19.14,0-3.26-.99-6.81-2.98-10.65-1.98-3.84-4.03-6.98-6.15-9.42-2.12-2.44-4.65-5.19-7.57-8.26h-3.13"/><path d="M6194,62.53v-25h3.12c0,3.71,.75,7.5,2.25,11.38,1.5,3.87,3.06,7.1,4.69,9.67,1.62,2.57,3.64,5.81,6.05,9.72,5.28,8.53,7.92,16.11,7.92,22.75s-1.4,13.48-4.21,20.51c-.52,.78-1.12,1.17-1.8,1.17s-1.25-.22-1.71-.68-.69-.98-.69-1.57v-.48c2.8-6.45,4.2-12.83,4.2-19.14,0-3.26-.99-6.81-2.97-10.65-1.99-3.84-4.04-6.98-6.16-9.42-2.12-2.44-4.64-5.2-7.57-8.26h-3.12"/><path d="M5653.23,335.31c-1.11-1.11-1.66-2.45-1.66-4.01s.55-2.9,1.66-4.01c1.11-1.11,2.45-1.66,4.01-1.66s2.9,.55,4,1.66c1.11,1.11,1.66,2.45,1.66,4.01s-.55,2.9-1.66,4.01c-1.1,1.11-2.44,1.66-4,1.66s-2.9-.55-4.01-1.66"/><path d="M6027.44,385.31c-1.11-1.11-1.66-2.44-1.66-4.01s.55-2.9,1.66-4c1.11-1.11,2.45-1.67,4.01-1.67s2.9,.56,4,1.67c1.11,1.1,1.66,2.44,1.66,4s-.55,2.9-1.66,4.01c-1.1,1.11-2.44,1.66-4,1.66s-2.9-.55-4.01-1.66"/><path d="M6027.44,310.31c-1.11-1.11-1.66-2.45-1.66-4.01s.55-2.9,1.66-4.01c1.11-1.11,2.45-1.66,4.01-1.66s2.9,.55,4,1.66c1.11,1.11,1.66,2.45,1.66,4.01s-.55,2.9-1.66,4.01c-1.1,1.11-2.44,1.66-4,1.66s-2.9-.55-4.01-1.66"/><path d="M5226.98,197.8c-1.11-1.11-1.66-2.45-1.66-4.01s.55-2.9,1.66-4.01,2.44-1.66,4.01-1.66,2.89,.55,4,1.66c1.1,1.11,1.65,2.45,1.65,4.01s-.55,2.9-1.65,4.01c-1.11,1.11-2.44,1.66-4,1.66s-2.9-.55-4.01-1.66"/><path d="M2304.04,122.79c-1.11-1.11-1.66-2.44-1.66-4s.55-2.9,1.66-4.01c1.11-1.11,2.44-1.67,4.01-1.67s2.89,.56,4,1.67c1.1,1.11,1.65,2.44,1.65,4.01s-.55,2.89-1.65,4c-1.11,1.11-2.44,1.67-4,1.67s-2.9-.56-4.01-1.67"/><path d="M3761.37,122.79c-1.11-1.11-1.66-2.44-1.66-4s.55-2.9,1.66-4.01c1.11-1.11,2.45-1.67,4.01-1.67s2.9,.56,4,1.67c1.11,1.11,1.66,2.44,1.66,4.01s-.55,2.89-1.66,4c-1.1,1.11-2.44,1.67-4,1.67s-2.9-.56-4.01-1.67"/><path d="M5226.98,122.79c-1.11-1.11-1.66-2.44-1.66-4s.55-2.9,1.66-4.01,2.44-1.67,4.01-1.67,2.89,.56,4,1.67c1.1,1.11,1.65,2.44,1.65,4.01s-.55,2.89-1.65,4c-1.11,1.11-2.44,1.67-4,1.67s-2.9-.56-4.01-1.67"/><path d="M5860.66,72.79c-1.11-1.11-1.67-2.44-1.67-4.01s.56-2.9,1.67-4c1.11-1.11,2.44-1.67,4-1.67s2.9,.56,4,1.67c1.11,1.1,1.66,2.44,1.66,4s-.55,2.9-1.66,4.01c-1.1,1.11-2.43,1.67-4,1.67s-2.89-.56-4-1.67"/><path d="M6027.44,147.8c-1.11-1.11-1.66-2.45-1.66-4.01s.55-2.9,1.66-4.01,2.45-1.66,4.01-1.66,2.9,.55,4,1.66c1.11,1.11,1.66,2.45,1.66,4.01s-.55,2.9-1.66,4.01c-1.1,1.11-2.44,1.66-4,1.66s-2.9-.55-4.01-1.66"/><path class="cls-7" d="M31.55,185.26c0-29.21-20.12-57.6-20.12-85.58,0-14.09,5.49-27.77,22.4-40.03,.23-.15,.34-.41,.34-.56,0-.46-1.26-.87-2.17-.87-.46,0-1.26,.05-1.83,.41C8.23,74.36,.92,92.53,.92,110.92c0,29.61,21.49,58.2,21.49,86.59,0,14.1-5.49,27.37-22.4,39.63v.81c16.92,12.26,22.4,25.53,22.4,39.62,0,28.39-21.49,56.99-21.49,86.6,0,18.38,7.32,36.56,29.26,52.29,.57,.35,1.37,.41,1.83,.41,.91,0,2.17-.41,2.17-.87,0-.16-.11-.41-.34-.56-16.91-12.26-22.4-25.94-22.4-40.04,0-27.98,20.12-56.37,20.12-85.57,0-18.59-7.31-36.36-28.8-52.29,21.49-15.93,28.8-33.7,28.8-52.28"/></svg>