<?xml version="1.0" encoding="UTF-8"?><svg id="_レイヤー_1" xmlns="http://www.w3.org/2000/svg" viewBox="0 0 6668.34 467.8"><defs><style>.cls-1{stroke-width:12.5px;}.cls-1,.cls-2,.cls-3,.cls-4,.cls-5{stroke:#000;stroke-linejoin:bevel;}.cls-2{stroke-linecap:square;}.cls-2,.cls-3{stroke-width:4px;}.cls-4{stroke-linecap:round;stroke-width:3.25px;}.cls-5{fill:none;stroke-width:2px;}.cls-6{fill-rule:evenodd;}</style></defs><line class="cls-5" x1="42" y1="75.52" x2="6668.34" y2="75.52"/><line class="cls-5" x1="42" y1="100.52" x2="6668.34" y2="100.52"/><line class="cls-5" x1="42" y1="125.52" x2="6668.34" y2="125.52"/><line class="cls-5" x1="42" y1="150.53" x2="6668.34" y2="150.53"/><line class="cls-5" x1="42" y1="175.53" x2="6668.34" y2="175.53"/><line class="cls-5" x1="42" y1="338.04" x2="6668.34" y2="338.04"/><line class="cls-5" x1="42" y1="363.04" x2="6668.34" y2="363.04"/><line class="cls-5" x1="42" y1="388.04" x2="6668.34" y2="388.04"/><line class="cls-5" x1="42" y1="413.04" x2="6668.34" y2="413.04"/><line class="cls-5" x1="42" y1="438.04" x2="6668.34" y2="438.04"/><line class="cls-3" x1="44" y1="337.04" x2="44" y2="438.44"/><line class="cls-3" x1="1222.82" y1="337.04" x2="1222.82" y2="439.04"/><line class="cls-3" x1="2223.3" y1="337.04" x2="2223.3" y2="439.04"/><line class="cls-3" x1="2873.97" y1="337.04" x2="2873.97" y2="439.04"/><line class="cls-3" x1="3674.44" y1="337.04" x2="3674.44" y2="439.04"/><line class="cls-3" x1="4629.17" y1="337.04" x2="4629.17" y2="439.04"/><line class="cls-3" x1="5139.14" y1="337.04" x2="5139.14" y2="439.04"/><line class="cls-3" x1="5932.23" y1="337.04" x2="5932.23" y2="439.04"/><line class="cls-3" x1="6643.84" y1="337.04" x2="6643.84" y2="439.04"/><line class="cls-1" x1="6662.09" y1="337.04" x2="6662.09" y2="439.04"/><line class="cls-3" x1="44" y1="74.52" x2="44" y2="338.04"/><line class="cls-3" x1="1222.82" y1="74.52" x2="1222.82" y2="338.04"/><line class="cls-3" x1="2223.3" y1="74.52" x2="2223.3" y2="338.04"/><line class="cls-3" x1="2873.97" y1="74.52" x2="2873.97" y2="338.04"/><line class="cls-3" x1="3674.44" y1="74.52" x2="3674.44" y2="338.04"/><line class="cls-3" x1="4629.17" y1="74.52" x2="4629.17" y2="338.04"/><line class="cls-3" x1="5139.14" y1="74.52" x2="5139.14" y2="338.04"/><line class="cls-3" x1="5932.23" y1="74.52" x2="5932.23" y2="338.04"/><line class="cls-3" x1="6643.84" y1="74.52" x2="6643.84" y2="338.04"/><line class="cls-1" x1="6662.09" y1="74.52" x2="6662.09" y2="338.04"/><path d="M1850.73,378.57c1.44-.4,2.16-.04,2.16,1.06v7.81c0,.78-.62,1.4-1.86,1.86l-3.22,1.27v14.17l2.92-1.17c1.44-.4,2.16-.04,2.16,1.08v7.81c0,.78-.62,1.4-1.86,1.84l-3.22,1.28v16.2c0,1.24-.49,1.86-1.47,1.86s-1.47-.62-1.47-1.86v-15.03l-9.28,3.7v16.11c0,1.24-.49,1.86-1.46,1.86s-1.46-.62-1.46-1.86v-14.94l-2.55,1.08c-1.37,.58-2.05,.19-2.05-1.17v-7.72c0-.65,.59-1.23,1.77-1.75l2.83-1.17v-14.27l-2.55,1.08c-1.37,.58-2.05,.19-2.05-1.17v-7.72c0-.66,.59-1.24,1.77-1.77l2.83-1.17v-16.11c0-1.24,.48-1.86,1.46-1.86s1.46,.62,1.46,1.86v14.94l9.28-3.8v-15.92c0-1.24,.49-1.86,1.47-1.86s1.47,.62,1.47,1.86v14.75l2.92-1.17m-15.14,16.89v14.27l9.28-3.81v-14.17l-9.28,3.72"/><path d="M1509.02,178.56c1.44-.4,2.16-.04,2.16,1.06v7.81c0,.78-.62,1.4-1.86,1.86l-3.22,1.27v14.17l2.92-1.17c1.44-.4,2.16-.04,2.16,1.08v7.81c0,.78-.62,1.4-1.86,1.84l-3.22,1.28v16.2c0,1.24-.49,1.86-1.47,1.86s-1.47-.62-1.47-1.86v-15.03l-9.28,3.7v16.11c0,1.24-.48,1.86-1.46,1.86s-1.46-.62-1.46-1.86v-14.94l-2.55,1.08c-1.36,.58-2.04,.19-2.04-1.17v-7.72c0-.65,.59-1.23,1.76-1.75l2.83-1.17v-14.27l-2.55,1.08c-1.36,.58-2.04,.19-2.04-1.17v-7.72c0-.66,.59-1.24,1.76-1.77l2.83-1.17v-16.11c0-1.24,.49-1.86,1.46-1.86s1.46,.62,1.46,1.86v14.94l9.28-3.8v-15.92c0-1.24,.49-1.86,1.47-1.86s1.47,.62,1.47,1.86v14.75l2.92-1.17m-15.14,16.89v14.27l9.28-3.81v-14.17l-9.28,3.72"/><line class="cls-2" x1="1513.95" y1="200.53" x2="1561.86" y2="200.53"/><line class="cls-4" x1="1327.61" y1="409.2" x2="1327.61" y2="328.66"/><line class="cls-4" x1="1694.51" y1="395.85" x2="1694.51" y2="319.29"/><line class="cls-4" x1="1889.44" y1="395.85" x2="1889.44" y2="319.29"/><line class="cls-4" x1="2261.43" y1="391.96" x2="2261.43" y2="466.17"/><line class="cls-4" x1="2518.14" y1="341.96" x2="2518.14" y2="425.54"/><line class="cls-4" x1="2945.87" y1="354.46" x2="2945.87" y2="438.04"/><line class="cls-4" x1="3351.01" y1="396.7" x2="3351.01" y2="319.29"/><line class="cls-4" x1="4711.44" y1="409.2" x2="4711.44" y2="328.66"/><line class="cls-4" x1="4849.93" y1="396.7" x2="4849.93" y2="319.29"/><line class="cls-4" x1="6016.31" y1="409.2" x2="6016.31" y2="328.66"/><line class="cls-4" x1="6305.45" y1="396.7" x2="6305.45" y2="319.29"/><line class="cls-4" x1="1326.71" y1="158.33" x2="1326.71" y2="75.52"/><line class="cls-4" x1="1552.74" y1="195.83" x2="1552.74" y2="113.02"/><line class="cls-4" x1="1694.51" y1="158.33" x2="1694.51" y2="75.52"/><line class="cls-4" x1="1889.44" y1="145.83" x2="1889.44" y2="75.52"/><line class="cls-4" x1="2031.21" y1="158.33" x2="2031.21" y2="75.52"/><line class="cls-4" x1="2163.99" y1="145.83" x2="2163.99" y2="75.52"/><line class="cls-4" x1="2292" y1="133.33" x2="2292" y2="56.77"/><line class="cls-4" x1="2432.05" y1="80.22" x2="2432.05" y2="163.03"/><line class="cls-4" x1="2548.71" y1="83.33" x2="2548.71" y2="6.77"/><line class="cls-4" x1="2635.7" y1="108.33" x2="2635.7" y2="18.96"/><line class="cls-4" x1="2722.7" y1="145.83" x2="2722.7" y2="31.15"/><line class="cls-4" x1="2816.26" y1="170.83" x2="2816.26" y2="44.27"/><line class="cls-4" x1="2976.44" y1="158.33" x2="2976.44" y2="75.52"/><line class="cls-4" x1="3198.18" y1="183.33" x2="3198.18" y2="106.77"/><line class="cls-4" x1="3261.37" y1="170.83" x2="3261.37" y2="100.52"/><line class="cls-4" x1="3350.11" y1="158.33" x2="3350.11" y2="75.52"/><line class="cls-4" x1="3474.6" y1="145.83" x2="3474.6" y2="75.52"/><line class="cls-4" x1="3565.14" y1="158.33" x2="3565.14" y2="75.52"/><line class="cls-4" x1="3621.72" y1="145.83" x2="3621.72" y2="75.52"/><line class="cls-4" x1="3749.33" y1="133.33" x2="3749.33" y2="56.77"/><line class="cls-4" x1="3991.66" y1="158.33" x2="3991.66" y2="75.52"/><line class="cls-4" x1="4288.58" y1="145.83" x2="4288.58" y2="66.15"/><line class="cls-4" x1="4412.23" y1="117.72" x2="4412.23" y2="181.78"/><line class="cls-4" x1="4514.26" y1="105.22" x2="4514.26" y2="175.53"/><line class="cls-4" x1="4711.44" y1="159.19" x2="4711.44" y2="75.52"/><line class="cls-4" x1="5036.97" y1="158.33" x2="5036.97" y2="81.77"/><line class="cls-4" x1="5086.43" y1="145.83" x2="5086.43" y2="75.52"/><line class="cls-4" x1="5214.04" y1="133.33" x2="5214.04" y2="56.77"/><line class="cls-4" x1="5404.01" y1="158.33" x2="5404.01" y2="75.52"/><line class="cls-4" x1="5500.32" y1="145.83" x2="5500.32" y2="75.52"/><line class="cls-4" x1="5700.44" y1="133.33" x2="5700.44" y2="69.27"/><line class="cls-4" x1="5750.76" y1="117.72" x2="5750.76" y2="200.53"/><line class="cls-4" x1="5818.95" y1="105.22" x2="5818.95" y2="194.28"/><line class="cls-4" x1="6015.4" y1="158.33" x2="6015.4" y2="75.52"/><line class="cls-4" x1="6195.62" y1="133.33" x2="6195.62" y2="56.77"/><line class="cls-4" x1="6304.55" y1="145.83" x2="6304.55" y2="75.52"/><line class="cls-4" x1="6381.52" y1="133.33" x2="6381.52" y2="69.27"/><line class="cls-4" x1="6491.91" y1="158.33" x2="6491.91" y2="81.77"/><line class="cls-4" x1="6567.79" y1="158.33" x2="6567.79" y2="81.77"/><line class="cls-4" x1="6615.21" y1="158.33" x2="6615.21" y2="81.77"/><line class="cls-4" x1="335.2" y1="158.33" x2="335.2" y2="75.52"/><line class="cls-4" x1="598.21" y1="117.72" x2="598.21" y2="200.53"/><line class="cls-4" x1="740.44" y1="120.83" x2="740.44" y2="50.52"/><line class="cls-4" x1="883.07" y1="133.33" x2="883.07" y2="62.05"/><line class="cls-4" x1="995.64" y1="145.83" x2="995.64" y2="71.15"/><line class="cls-4" x1="1127.04" y1="158.33" x2="1127.04" y2="81.77"/><path d="M312.7,368.51c2.86,3.84,6.54,5.77,11.03,5.77s6.73-3.03,6.73-9.08c0-2.88-.81-5.42-2.44-7.62-2.8-3.84-6.58-5.77-11.33-5.77-2.08,0-3.68,.86-4.78,2.59-1.1,1.72-1.66,3.96-1.66,6.7s.81,5.21,2.44,7.42m-9.67-15.23c4.89-2.67,10.76-4,17.63-4s12.66,1.37,17.38,4.1c4.72,2.73,7.08,5.99,7.08,9.77s-2.44,7-7.33,9.66c-4.89,2.67-10.73,4-17.53,4s-12.61-1.37-17.43-4.1c-4.82-2.73-7.23-6.02-7.23-9.86s2.47-7.03,7.42-9.57"/><path d="M1301.93,423.68c1.89,0,5.84-1.95,11.87-5.86,6.03-3.91,9.58-6.53,10.65-7.86,1.07-1.33,1.61-2.52,1.61-3.56s-.43-1.97-1.27-2.78c-.85-.81-1.83-1.22-2.93-1.22-1.95,0-5.94,1.97-11.97,5.91-6.02,3.94-9.56,6.56-10.6,7.86-1.04,1.3-1.56,2.47-1.56,3.52s.41,1.97,1.23,2.78c.81,.81,1.81,1.22,2.97,1.22m18.96-24.41c5.59,0,8.39,2.41,8.39,7.22,0,2.34-.68,5.06-2.05,8.16-1.36,3.09-3.19,5.45-5.47,7.08-5.01,3.38-11.29,5.08-18.84,5.08-5.61,0-8.41-2.41-8.41-7.22,0-2.14,.67-4.82,2-8.01,1.34-3.19,3.17-5.6,5.52-7.23,5.02-3.39,11.3-5.08,18.86-5.08"/><path d="M1685.19,386.78c3.12,0,5.73,.78,7.81,2.34,2.08,1.56,3.12,3.81,3.12,6.73,0,4.49-2.32,8.69-6.97,12.59-4.65,3.91-9.65,5.86-14.99,5.86-3.13,0-5.76-.81-7.91-2.44-2.02-1.76-3.03-3.97-3.03-6.64,0-4.36,2.31-8.53,6.94-12.5,4.62-3.97,9.63-5.95,15.03-5.95"/><path d="M1880.12,386.78c3.13,0,5.73,.78,7.81,2.34,2.09,1.56,3.13,3.81,3.13,6.73,0,4.49-2.33,8.69-6.98,12.59-4.65,3.91-9.65,5.86-14.99,5.86-3.12,0-5.76-.81-7.91-2.44-2.02-1.76-3.03-3.97-3.03-6.64,0-4.36,2.32-8.53,6.94-12.5,4.63-3.97,9.64-5.95,15.03-5.95"/><path d="M2267.23,398.68c1.88,0,5.84-1.95,11.87-5.86,6.02-3.91,9.57-6.53,10.64-7.86,1.08-1.33,1.61-2.52,1.61-3.56s-.42-1.97-1.27-2.78c-.85-.81-1.83-1.22-2.93-1.22-1.95,0-5.93,1.97-11.96,5.91-6.03,3.94-9.56,6.56-10.6,7.86-1.04,1.3-1.57,2.47-1.57,3.52s.41,1.97,1.23,2.78c.82,.81,1.81,1.22,2.98,1.22m18.95-24.41c5.59,0,8.39,2.41,8.39,7.22,0,2.34-.68,5.06-2.05,8.16-1.36,3.09-3.18,5.45-5.46,7.08-5.01,3.39-11.3,5.08-18.85,5.08-5.6,0-8.4-2.41-8.4-7.22,0-2.15,.66-4.82,2-8.01,1.33-3.19,3.17-5.6,5.51-7.23,5.02-3.39,11.31-5.08,18.86-5.08"/><path d="M2523.94,348.68c1.89,0,5.84-1.95,11.87-5.86,6.02-3.91,9.57-6.53,10.65-7.86,1.07-1.33,1.6-2.52,1.6-3.56s-.42-1.97-1.27-2.78c-.85-.81-1.82-1.22-2.93-1.22-1.95,0-5.93,1.97-11.96,5.91-6.03,3.94-9.56,6.56-10.6,7.86-1.04,1.3-1.56,2.47-1.56,3.52s.41,1.97,1.22,2.78c.82,.81,1.81,1.22,2.98,1.22m18.95-24.41c5.6,0,8.39,2.41,8.39,7.22,0,2.34-.68,5.06-2.04,8.16-1.37,3.09-3.19,5.45-5.47,7.08-5.01,3.39-11.29,5.08-18.85,5.08-5.6,0-8.4-2.41-8.4-7.22,0-2.15,.66-4.82,2-8.01,1.33-3.19,3.17-5.6,5.51-7.23,5.02-3.39,11.31-5.08,18.86-5.08"/><path d="M2951.67,361.18c1.88,0,5.84-1.95,11.86-5.86,6.03-3.91,9.58-6.53,10.65-7.86,1.07-1.33,1.61-2.52,1.61-3.56s-.42-1.97-1.27-2.78c-.85-.81-1.83-1.22-2.93-1.22-1.95,0-5.94,1.97-11.96,5.91-6.03,3.94-9.56,6.56-10.6,7.86-1.05,1.3-1.57,2.47-1.57,3.52s.41,1.97,1.23,2.78c.82,.81,1.81,1.22,2.98,1.22m18.95-24.41c5.59,0,8.39,2.41,8.39,7.22,0,2.34-.68,5.06-2.05,8.16-1.36,3.09-3.18,5.45-5.47,7.08-5.01,3.39-11.29,5.08-18.84,5.08-5.6,0-8.41-2.41-8.41-7.22,0-2.15,.67-4.82,2-8.01,1.34-3.19,3.18-5.6,5.52-7.23,5.02-3.39,11.31-5.08,18.86-5.08"/><path d="M3325.33,411.18c1.89,0,5.84-1.95,11.87-5.86s9.58-6.53,10.65-7.86c1.07-1.33,1.61-2.52,1.61-3.56s-.43-1.97-1.27-2.78c-.85-.81-1.83-1.22-2.93-1.22-1.95,0-5.94,1.97-11.97,5.91-6.02,3.94-9.56,6.56-10.6,7.86s-1.56,2.47-1.56,3.52,.41,1.97,1.23,2.78c.81,.81,1.81,1.22,2.97,1.22m18.96-24.41c5.59,0,8.39,2.41,8.39,7.22,0,2.34-.68,5.06-2.05,8.16-1.36,3.09-3.19,5.45-5.47,7.08-5.01,3.39-11.29,5.08-18.84,5.08-5.61,0-8.41-2.41-8.41-7.22,0-2.15,.67-4.82,2-8.01,1.34-3.19,3.17-5.6,5.52-7.23,5.02-3.39,11.3-5.08,18.86-5.08"/><path d="M3726.84,368.51c2.86,3.84,6.54,5.77,11.03,5.77s6.73-3.03,6.73-9.08c0-2.88-.81-5.42-2.44-7.62-2.8-3.84-6.57-5.77-11.32-5.77-2.09,0-3.68,.86-4.79,2.59-1.1,1.72-1.65,3.96-1.65,6.7s.81,5.21,2.44,7.42m-9.68-15.23c4.89-2.67,10.77-4,17.64-4s12.66,1.37,17.38,4.1c4.72,2.73,7.08,5.99,7.08,9.77s-2.45,7-7.33,9.66c-4.89,2.67-10.73,4-17.53,4s-12.61-1.37-17.43-4.1c-4.82-2.73-7.23-6.02-7.23-9.86s2.48-7.03,7.42-9.57"/><path d="M4685.77,423.68c1.88,0,5.84-1.95,11.86-5.86,6.03-3.91,9.58-6.53,10.65-7.86,1.08-1.33,1.61-2.52,1.61-3.56s-.42-1.97-1.27-2.78c-.85-.81-1.83-1.22-2.93-1.22-1.95,0-5.94,1.97-11.96,5.91-6.03,3.94-9.56,6.56-10.6,7.86-1.04,1.3-1.57,2.47-1.57,3.52s.41,1.97,1.23,2.78c.82,.81,1.81,1.22,2.98,1.22m18.95-24.41c5.59,0,8.39,2.41,8.39,7.22,0,2.34-.68,5.06-2.05,8.16-1.36,3.09-3.18,5.45-5.46,7.08-5.01,3.38-11.3,5.08-18.85,5.08-5.6,0-8.4-2.41-8.4-7.22,0-2.14,.66-4.82,2-8.01,1.33-3.19,3.17-5.6,5.51-7.23,5.02-3.39,11.31-5.08,18.86-5.08"/><path d="M4824.25,411.18c1.89,0,5.84-1.95,11.87-5.86,6.03-3.91,9.58-6.53,10.65-7.86,1.07-1.33,1.61-2.52,1.61-3.56s-.43-1.97-1.28-2.78c-.84-.81-1.82-1.22-2.93-1.22-1.94,0-5.93,1.97-11.96,5.91-6.02,3.94-9.56,6.56-10.6,7.86s-1.56,2.47-1.56,3.52,.41,1.97,1.23,2.78c.81,.81,1.81,1.22,2.97,1.22m18.96-24.41c5.59,0,8.39,2.41,8.39,7.22,0,2.34-.69,5.06-2.05,8.16-1.36,3.09-3.19,5.45-5.47,7.08-5.01,3.39-11.29,5.08-18.84,5.08-5.61,0-8.41-2.41-8.41-7.22,0-2.15,.67-4.82,2-8.01s3.17-5.6,5.52-7.23c5.02-3.39,11.3-5.08,18.86-5.08"/><path d="M5191.54,368.51c2.86,3.84,6.54,5.77,11.03,5.77s6.73-3.03,6.73-9.08c0-2.88-.81-5.42-2.43-7.62-2.81-3.84-6.58-5.77-11.33-5.77-2.08,0-3.68,.86-4.78,2.59-1.11,1.72-1.66,3.96-1.66,6.7s.81,5.21,2.44,7.42m-9.67-15.23c4.88-2.67,10.76-4,17.63-4s12.66,1.37,17.38,4.1c4.72,2.73,7.08,5.99,7.08,9.77s-2.44,7-7.33,9.66c-4.88,2.67-10.73,4-17.53,4s-12.61-1.37-17.43-4.1c-4.82-2.73-7.22-6.02-7.22-9.86s2.47-7.03,7.42-9.57"/><path d="M5990.63,423.68c1.89,0,5.84-1.95,11.87-5.86,6.03-3.91,9.58-6.53,10.65-7.86,1.07-1.33,1.61-2.52,1.61-3.56s-.43-1.97-1.28-2.78c-.84-.81-1.82-1.22-2.93-1.22-1.94,0-5.93,1.97-11.96,5.91-6.02,3.94-9.56,6.56-10.6,7.86-1.04,1.3-1.56,2.47-1.56,3.52s.41,1.97,1.23,2.78c.81,.81,1.81,1.22,2.97,1.22m18.96-24.41c5.59,0,8.39,2.41,8.39,7.22,0,2.34-.69,5.06-2.05,8.16-1.37,3.09-3.19,5.45-5.47,7.08-5.01,3.38-11.29,5.08-18.84,5.08-5.61,0-8.41-2.41-8.41-7.22,0-2.14,.67-4.82,2-8.01,1.33-3.19,3.17-5.6,5.52-7.23,5.02-3.39,11.3-5.08,18.86-5.08"/><path d="M6279.77,411.18c1.89,0,5.85-1.95,11.87-5.86,6.03-3.91,9.58-6.53,10.65-7.86,1.07-1.33,1.61-2.52,1.61-3.56s-.43-1.97-1.27-2.78c-.85-.81-1.83-1.22-2.93-1.22-1.95,0-5.94,1.97-11.96,5.91-6.03,3.94-9.56,6.56-10.61,7.86-1.04,1.3-1.56,2.47-1.56,3.52s.41,1.97,1.23,2.78c.82,.81,1.81,1.22,2.97,1.22m18.96-24.41c5.59,0,8.39,2.41,8.39,7.22,0,2.34-.68,5.06-2.05,8.16-1.36,3.09-3.19,5.45-5.47,7.08-5.01,3.39-11.29,5.08-18.84,5.08-5.61,0-8.41-2.41-8.41-7.22,0-2.15,.67-4.82,2-8.01,1.34-3.19,3.17-5.6,5.52-7.23,5.02-3.39,11.31-5.08,18.86-5.08"/><path d="M1317.38,149.26c3.13,0,5.73,.78,7.82,2.34,2.08,1.56,3.12,3.81,3.12,6.73,0,4.49-2.33,8.69-6.98,12.59s-9.64,5.86-14.99,5.86c-3.12,0-5.76-.81-7.9-2.44-2.03-1.76-3.04-3.97-3.04-6.64,0-4.36,2.32-8.53,6.94-12.5,4.63-3.97,9.64-5.95,15.03-5.95"/><path d="M1543.42,186.76c3.12,0,5.73,.78,7.81,2.34,2.08,1.56,3.12,3.81,3.12,6.73,0,4.49-2.32,8.69-6.97,12.59-4.65,3.91-9.65,5.86-14.99,5.86-3.13,0-5.77-.81-7.91-2.44-2.02-1.76-3.03-3.97-3.03-6.64,0-4.36,2.31-8.53,6.94-12.5,4.62-3.97,9.63-5.95,15.03-5.95"/><path d="M1685.19,149.26c3.12,0,5.73,.78,7.81,2.34,2.08,1.56,3.12,3.81,3.12,6.73,0,4.49-2.32,8.69-6.97,12.59-4.65,3.91-9.65,5.86-14.99,5.86-3.13,0-5.76-.81-7.91-2.44-2.02-1.76-3.03-3.97-3.03-6.64,0-4.36,2.31-8.53,6.94-12.5,4.62-3.97,9.63-5.95,15.03-5.95"/><path d="M1880.12,136.76c3.13,0,5.73,.78,7.81,2.34,2.09,1.56,3.13,3.81,3.13,6.74,0,4.49-2.33,8.69-6.98,12.59-4.65,3.91-9.65,5.86-14.99,5.86-3.12,0-5.76-.81-7.91-2.44-2.02-1.76-3.03-3.97-3.03-6.64,0-4.36,2.32-8.53,6.94-12.5,4.63-3.97,9.64-5.95,15.03-5.95"/><path d="M2021.89,149.26c3.13,0,5.73,.78,7.81,2.34,2.09,1.56,3.13,3.81,3.13,6.73,0,4.49-2.33,8.69-6.98,12.59-4.65,3.91-9.65,5.86-14.99,5.86-3.12,0-5.76-.81-7.91-2.44-2.02-1.76-3.03-3.97-3.03-6.64,0-4.36,2.32-8.53,6.94-12.5,4.63-3.97,9.64-5.95,15.03-5.95"/><path d="M2154.67,136.76c3.12,0,5.73,.78,7.81,2.34,2.08,1.56,3.12,3.81,3.12,6.74,0,4.49-2.32,8.69-6.97,12.59-4.65,3.91-9.65,5.86-15,5.86-3.12,0-5.76-.81-7.9-2.44-2.02-1.76-3.03-3.97-3.03-6.64,0-4.36,2.31-8.53,6.93-12.5,4.63-3.97,9.64-5.95,15.04-5.95"/><path d="M2282.68,124.26c3.12,0,5.73,.78,7.81,2.34,2.08,1.56,3.12,3.81,3.12,6.73,0,4.49-2.32,8.69-6.97,12.59-4.65,3.91-9.65,5.86-14.99,5.86-3.13,0-5.76-.81-7.91-2.44-2.02-1.76-3.03-3.97-3.03-6.64,0-4.36,2.31-8.53,6.94-12.5,4.62-3.97,9.63-5.95,15.03-5.95"/><path d="M2452.4,61.76c3.12,0,5.73,.78,7.81,2.34,2.08,1.56,3.12,3.81,3.12,6.73,0,4.49-2.32,8.69-6.97,12.59-4.65,3.91-9.65,5.86-14.99,5.86-3.13,0-5.76-.81-7.91-2.44-2.02-1.76-3.03-3.97-3.03-6.64,0-4.36,2.31-8.53,6.94-12.5,4.62-3.97,9.63-5.95,15.03-5.95"/><path d="M2539.39,74.26c3.12,0,5.73,.78,7.81,2.34,2.08,1.56,3.13,3.81,3.13,6.74,0,4.49-2.33,8.69-6.98,12.59-4.65,3.91-9.65,5.86-14.99,5.86-3.13,0-5.76-.81-7.91-2.44-2.02-1.76-3.03-3.97-3.03-6.64,0-4.37,2.31-8.53,6.94-12.5,4.62-3.97,9.63-5.95,15.03-5.95"/><path d="M2626.38,99.26c3.13,0,5.73,.78,7.81,2.34,2.09,1.56,3.13,3.81,3.13,6.73,0,4.49-2.33,8.69-6.98,12.59-4.65,3.91-9.65,5.86-14.99,5.86-3.13,0-5.76-.81-7.91-2.44-2.02-1.76-3.03-3.97-3.03-6.64,0-4.36,2.31-8.53,6.94-12.5,4.62-3.97,9.64-5.95,15.03-5.95"/><path d="M2713.37,136.76c3.13,0,5.73,.78,7.82,2.34,2.08,1.56,3.12,3.81,3.12,6.74,0,4.49-2.32,8.69-6.98,12.59-4.65,3.91-9.64,5.86-14.99,5.86-3.12,0-5.76-.81-7.9-2.44-2.03-1.76-3.04-3.97-3.04-6.64,0-4.36,2.32-8.53,6.94-12.5,4.63-3.97,9.64-5.95,15.03-5.95"/><path d="M2806.94,161.76c3.13,0,5.73,.78,7.82,2.34,2.08,1.56,3.12,3.81,3.12,6.73,0,4.49-2.33,8.69-6.98,12.59-4.65,3.91-9.64,5.86-14.99,5.86-3.12,0-5.76-.81-7.9-2.44-2.03-1.76-3.04-3.97-3.04-6.64,0-4.36,2.32-8.53,6.94-12.5,4.63-3.97,9.64-5.95,15.03-5.95"/><path d="M2967.12,149.26c3.12,0,5.72,.78,7.81,2.34,2.08,1.56,3.12,3.81,3.12,6.73,0,4.49-2.32,8.69-6.97,12.59-4.65,3.91-9.65,5.86-15,5.86-3.12,0-5.76-.81-7.9-2.44-2.02-1.76-3.03-3.97-3.03-6.64,0-4.36,2.31-8.53,6.93-12.5,4.63-3.97,9.64-5.95,15.04-5.95"/><path d="M3188.86,174.26c3.12,0,5.72,.78,7.81,2.34,2.08,1.56,3.12,3.81,3.12,6.73,0,4.49-2.32,8.69-6.97,12.59-4.65,3.91-9.65,5.86-15,5.86-3.12,0-5.76-.81-7.9-2.44-2.02-1.76-3.03-3.97-3.03-6.64,0-4.36,2.31-8.53,6.93-12.5,4.63-3.97,9.64-5.95,15.04-5.95"/><path d="M3252.05,161.76c3.12,0,5.73,.78,7.81,2.34,2.08,1.56,3.12,3.81,3.12,6.73,0,4.49-2.32,8.69-6.97,12.59-4.65,3.91-9.65,5.86-14.99,5.86-3.13,0-5.76-.81-7.91-2.44-2.02-1.76-3.03-3.97-3.03-6.64,0-4.36,2.31-8.53,6.94-12.5,4.62-3.97,9.63-5.95,15.03-5.95"/><path d="M3340.78,149.26c3.13,0,5.73,.78,7.82,2.34,2.08,1.56,3.12,3.81,3.12,6.73,0,4.49-2.32,8.69-6.98,12.59-4.65,3.91-9.64,5.86-14.99,5.86-3.12,0-5.76-.81-7.9-2.44-2.03-1.76-3.04-3.97-3.04-6.64,0-4.36,2.32-8.53,6.94-12.5,4.63-3.97,9.64-5.95,15.03-5.95"/><path d="M3465.28,136.76c3.12,0,5.72,.78,7.81,2.34,2.08,1.56,3.12,3.81,3.12,6.74,0,4.49-2.32,8.69-6.97,12.59-4.65,3.91-9.65,5.86-15,5.86-3.12,0-5.76-.81-7.9-2.44-2.02-1.76-3.03-3.97-3.03-6.64,0-4.36,2.31-8.53,6.93-12.5,4.63-3.97,9.64-5.95,15.04-5.95"/><path d="M3555.81,149.26c3.13,0,5.73,.78,7.82,2.34,2.08,1.56,3.12,3.81,3.12,6.73,0,4.49-2.32,8.69-6.97,12.59-4.66,3.91-9.65,5.86-15,5.86-3.12,0-5.76-.81-7.9-2.44-2.02-1.76-3.03-3.97-3.03-6.64,0-4.36,2.31-8.53,6.93-12.5,4.63-3.97,9.64-5.95,15.03-5.95"/><path d="M3612.4,136.76c3.13,0,5.73,.78,7.81,2.34,2.09,1.56,3.13,3.81,3.13,6.74,0,4.49-2.33,8.69-6.98,12.59-4.65,3.91-9.65,5.86-14.99,5.86-3.12,0-5.76-.81-7.91-2.44-2.02-1.76-3.03-3.97-3.03-6.64,0-4.36,2.32-8.53,6.94-12.5,4.63-3.97,9.64-5.95,15.03-5.95"/><path d="M3740.01,124.26c3.13,0,5.73,.78,7.81,2.34,2.09,1.56,3.13,3.81,3.13,6.73,0,4.49-2.33,8.69-6.98,12.59-4.65,3.91-9.65,5.86-14.99,5.86-3.12,0-5.76-.81-7.91-2.44-2.02-1.76-3.03-3.97-3.03-6.64,0-4.36,2.32-8.53,6.94-12.5,4.63-3.97,9.64-5.95,15.03-5.95"/><path d="M3982.34,149.26c3.12,0,5.73,.78,7.81,2.34,2.08,1.56,3.12,3.81,3.12,6.73,0,4.49-2.32,8.69-6.97,12.59-4.65,3.91-9.65,5.86-15,5.86-3.12,0-5.76-.81-7.9-2.44-2.02-1.76-3.03-3.97-3.03-6.64,0-4.36,2.31-8.53,6.93-12.5,4.63-3.97,9.64-5.95,15.04-5.95"/><path d="M4279.26,136.76c3.12,0,5.73,.78,7.81,2.34,2.08,1.56,3.12,3.81,3.12,6.74,0,4.49-2.32,8.69-6.97,12.59-4.65,3.91-9.65,5.86-14.99,5.86-3.13,0-5.76-.81-7.91-2.44-2.02-1.76-3.03-3.97-3.03-6.64,0-4.36,2.31-8.53,6.94-12.5,4.62-3.97,9.63-5.95,15.03-5.95"/><path d="M4432.57,99.26c3.13,0,5.73,.78,7.81,2.34,2.09,1.56,3.13,3.81,3.13,6.73,0,4.49-2.33,8.69-6.98,12.59-4.65,3.91-9.65,5.86-14.99,5.86-3.12,0-5.76-.81-7.91-2.44-2.02-1.76-3.03-3.97-3.03-6.64,0-4.36,2.32-8.53,6.94-12.5,4.63-3.97,9.64-5.95,15.03-5.95"/><path d="M4534.6,86.76c3.13,0,5.73,.78,7.82,2.34,2.08,1.56,3.12,3.81,3.12,6.73,0,4.49-2.32,8.69-6.98,12.59-4.65,3.91-9.64,5.86-14.99,5.86-3.12,0-5.76-.81-7.9-2.44-2.03-1.76-3.04-3.97-3.04-6.64,0-4.36,2.32-8.53,6.94-12.5,4.63-3.97,9.64-5.95,15.03-5.95"/><path d="M4685.77,173.67c1.88,0,5.84-1.95,11.86-5.86,6.03-3.91,9.58-6.53,10.65-7.86,1.08-1.33,1.61-2.52,1.61-3.56s-.42-1.97-1.27-2.78c-.85-.81-1.83-1.22-2.93-1.22-1.95,0-5.94,1.97-11.96,5.91-6.03,3.94-9.56,6.56-10.6,7.86s-1.57,2.47-1.57,3.52,.41,1.97,1.23,2.78c.82,.81,1.81,1.22,2.98,1.22m18.95-24.41c5.59,0,8.39,2.41,8.39,7.22,0,2.34-.68,5.06-2.05,8.16-1.36,3.09-3.18,5.45-5.46,7.08-5.01,3.39-11.3,5.08-18.85,5.08-5.6,0-8.4-2.41-8.4-7.22,0-2.15,.66-4.82,2-8.01,1.33-3.19,3.17-5.6,5.51-7.23,5.02-3.39,11.31-5.08,18.86-5.08"/><path d="M5027.65,149.26c3.12,0,5.73,.78,7.81,2.34,2.08,1.56,3.12,3.81,3.12,6.73,0,4.49-2.32,8.69-6.97,12.59s-9.65,5.86-14.99,5.86c-3.13,0-5.77-.81-7.91-2.44-2.02-1.76-3.03-3.97-3.03-6.64,0-4.36,2.31-8.53,6.94-12.5,4.62-3.97,9.63-5.95,15.03-5.95"/><path d="M5077.11,136.76c3.12,0,5.72,.78,7.81,2.34,2.08,1.56,3.12,3.81,3.12,6.74,0,4.49-2.32,8.69-6.97,12.59-4.65,3.91-9.65,5.86-15,5.86-3.12,0-5.76-.81-7.9-2.44-2.02-1.76-3.03-3.97-3.03-6.64,0-4.36,2.31-8.53,6.93-12.5,4.63-3.97,9.64-5.95,15.04-5.95"/><path d="M5204.72,124.26c3.12,0,5.72,.78,7.81,2.34,2.08,1.56,3.12,3.81,3.12,6.73,0,4.49-2.32,8.69-6.97,12.59-4.65,3.91-9.65,5.86-15,5.86-3.12,0-5.76-.81-7.9-2.44-2.02-1.76-3.03-3.97-3.03-6.64,0-4.36,2.31-8.53,6.93-12.5,4.63-3.97,9.64-5.95,15.04-5.95"/><path d="M5394.68,149.26c3.13,0,5.73,.78,7.82,2.34,2.08,1.56,3.12,3.81,3.12,6.73,0,4.49-2.32,8.69-6.98,12.59-4.65,3.91-9.64,5.86-14.99,5.86-3.12,0-5.76-.81-7.9-2.44-2.02-1.76-3.03-3.97-3.03-6.64,0-4.36,2.31-8.53,6.93-12.5,4.63-3.97,9.64-5.95,15.03-5.95"/><path d="M5490.99,136.76c3.13,0,5.73,.78,7.82,2.34,2.08,1.56,3.12,3.81,3.12,6.74,0,4.49-2.32,8.69-6.98,12.59-4.65,3.91-9.64,5.86-14.99,5.86-3.12,0-5.76-.81-7.9-2.44-2.02-1.76-3.04-3.97-3.04-6.64,0-4.36,2.32-8.53,6.94-12.5,4.63-3.97,9.64-5.95,15.03-5.95"/><path d="M5691.12,124.26c3.12,0,5.73,.78,7.81,2.34,2.08,1.56,3.12,3.81,3.12,6.73,0,4.49-2.32,8.69-6.97,12.59-4.65,3.91-9.65,5.86-14.99,5.86-3.13,0-5.76-.81-7.91-2.44-2.02-1.76-3.03-3.97-3.03-6.64,0-4.36,2.31-8.53,6.94-12.5,4.62-3.97,9.63-5.95,15.03-5.95"/><path d="M5771.1,99.26c3.13,0,5.73,.78,7.82,2.34,2.08,1.56,3.12,3.81,3.12,6.73,0,4.49-2.32,8.69-6.98,12.59-4.65,3.91-9.64,5.86-14.99,5.86-3.12,0-5.76-.81-7.9-2.44-2.02-1.76-3.03-3.97-3.03-6.64,0-4.36,2.31-8.53,6.93-12.5,4.63-3.97,9.64-5.95,15.03-5.95"/><path d="M5839.29,86.76c3.13,0,5.73,.78,7.82,2.34,2.08,1.56,3.12,3.81,3.12,6.73,0,4.49-2.32,8.69-6.97,12.59-4.66,3.91-9.65,5.86-15,5.86-3.12,0-5.76-.81-7.9-2.44-2.02-1.76-3.03-3.97-3.03-6.64,0-4.36,2.31-8.53,6.93-12.5,4.63-3.97,9.64-5.95,15.03-5.95"/><path d="M6006.08,149.26c3.13,0,5.73,.78,7.81,2.34,2.09,1.56,3.13,3.81,3.13,6.73,0,4.49-2.33,8.69-6.98,12.59s-9.65,5.86-14.99,5.86c-3.12,0-5.76-.81-7.91-2.44-2.02-1.76-3.03-3.97-3.03-6.64,0-4.36,2.32-8.53,6.94-12.5,4.63-3.97,9.64-5.95,15.03-5.95"/><path d="M6186.3,124.26c3.12,0,5.73,.78,7.81,2.34,2.08,1.56,3.13,3.81,3.13,6.73,0,4.49-2.33,8.69-6.98,12.59-4.65,3.91-9.65,5.86-14.99,5.86-3.13,0-5.76-.81-7.91-2.44-2.02-1.76-3.03-3.97-3.03-6.64,0-4.36,2.31-8.53,6.94-12.5,4.62-3.97,9.63-5.95,15.03-5.95"/><path d="M6295.22,136.76c3.13,0,5.73,.78,7.82,2.34,2.08,1.56,3.12,3.81,3.12,6.74,0,4.49-2.32,8.69-6.98,12.59-4.65,3.91-9.64,5.86-14.99,5.86-3.12,0-5.76-.81-7.9-2.44-2.02-1.76-3.04-3.97-3.04-6.64,0-4.36,2.32-8.53,6.94-12.5,4.63-3.97,9.64-5.95,15.03-5.95"/><path d="M6372.2,124.26c3.13,0,5.73,.78,7.81,2.34,2.09,1.56,3.13,3.81,3.13,6.73,0,4.49-2.33,8.69-6.98,12.59-4.65,3.91-9.65,5.86-14.99,5.86-3.12,0-5.76-.81-7.91-2.44-2.02-1.76-3.03-3.97-3.03-6.64,0-4.36,2.32-8.53,6.94-12.5,4.63-3.97,9.64-5.95,15.03-5.95"/><path d="M6482.58,149.26c3.13,0,5.73,.78,7.82,2.34,2.08,1.56,3.12,3.81,3.12,6.73,0,4.49-2.32,8.69-6.97,12.59-4.66,3.91-9.65,5.86-15,5.86-3.12,0-5.76-.81-7.9-2.44-2.02-1.76-3.03-3.97-3.03-6.64,0-4.36,2.31-8.53,6.93-12.5,4.63-3.97,9.64-5.95,15.03-5.95"/><path d="M6558.47,149.26c3.12,0,5.72,.78,7.81,2.34,2.08,1.56,3.12,3.81,3.12,6.73,0,4.49-2.32,8.69-6.97,12.59-4.65,3.91-9.65,5.86-15,5.86-3.12,0-5.76-.81-7.9-2.44-2.02-1.76-3.03-3.97-3.03-6.64,0-4.36,2.31-8.53,6.93-12.5,4.63-3.97,9.64-5.95,15.04-5.95"/><path d="M6605.89,149.26c3.13,0,5.73,.78,7.81,2.34,2.09,1.56,3.13,3.81,3.13,6.73,0,4.49-2.33,8.69-6.98,12.59s-9.65,5.86-14.99,5.86c-3.12,0-5.76-.81-7.91-2.44-2.02-1.76-3.03-3.97-3.03-6.64,0-4.36,2.32-8.53,6.94-12.5,4.63-3.97,9.64-5.95,15.03-5.95"/><path d="M325.88,149.26c3.12,0,5.73,.78,7.81,2.34,2.08,1.56,3.12,3.81,3.12,6.73,0,4.49-2.33,8.69-6.98,12.59s-9.65,5.86-14.99,5.86c-3.12,0-5.76-.81-7.91-2.44-2.02-1.76-3.03-3.97-3.03-6.64,0-4.36,2.31-8.53,6.94-12.5,4.62-3.97,9.64-5.95,15.03-5.95"/><path d="M618.56,99.26c3.12,0,5.73,.78,7.81,2.34,2.08,1.56,3.12,3.81,3.12,6.73,0,4.49-2.33,8.69-6.98,12.59s-9.65,5.86-14.99,5.86c-3.12,0-5.76-.81-7.91-2.44-2.02-1.76-3.03-3.97-3.03-6.64,0-4.36,2.31-8.53,6.94-12.5,4.62-3.97,9.64-5.95,15.03-5.95"/><path d="M731.12,111.76c3.13,0,5.73,.78,7.81,2.34,2.09,1.56,3.13,3.81,3.13,6.73,0,4.49-2.33,8.69-6.98,12.59-4.65,3.91-9.65,5.86-14.99,5.86-3.12,0-5.76-.81-7.91-2.44-2.02-1.76-3.03-3.97-3.03-6.64,0-4.36,2.31-8.53,6.94-12.5,4.62-3.97,9.64-5.95,15.03-5.95"/><path d="M873.75,124.26c3.12,0,5.72,.78,7.81,2.34,2.08,1.56,3.12,3.81,3.12,6.73,0,4.49-2.32,8.69-6.97,12.59-4.65,3.91-9.65,5.86-15,5.86-3.12,0-5.76-.81-7.9-2.44-2.02-1.76-3.03-3.97-3.03-6.64,0-4.36,2.31-8.53,6.93-12.5,4.63-3.97,9.64-5.95,15.04-5.95"/><path d="M986.31,136.76c3.13,0,5.73,.78,7.82,2.34,2.08,1.56,3.12,3.81,3.12,6.74,0,4.49-2.32,8.69-6.97,12.59-4.66,3.91-9.65,5.86-15,5.86-3.12,0-5.76-.81-7.9-2.44-2.02-1.76-3.03-3.97-3.03-6.64,0-4.36,2.31-8.53,6.93-12.5,4.63-3.97,9.64-5.95,15.03-5.95"/><path d="M1117.71,149.26c3.13,0,5.73,.78,7.82,2.34,2.08,1.56,3.12,3.81,3.12,6.73,0,4.49-2.32,8.69-6.97,12.59-4.66,3.91-9.65,5.86-15,5.86-3.12,0-5.76-.81-7.9-2.44-2.02-1.76-3.03-3.97-3.03-6.64,0-4.36,2.31-8.53,6.93-12.5,4.63-3.97,9.64-5.95,15.03-5.95"/><path d="M124.41,354.15c-.97-.98-1.46-2.18-1.46-3.62s.49-2.64,1.46-3.61,2.18-1.46,3.61-1.46,2.64,.49,3.62,1.46c.98,.97,1.47,2.18,1.47,3.61s-.49,2.64-1.47,3.62c-.98,.98-2.18,1.47-3.62,1.47s-2.64-.49-3.61-1.47m0,25.01c-.97-.97-1.46-2.18-1.46-3.61s.49-2.64,1.46-3.62,2.18-1.47,3.61-1.47,2.64,.49,3.62,1.47c.98,.98,1.47,2.18,1.47,3.62s-.49,2.64-1.47,3.61c-.98,.97-2.18,1.46-3.62,1.46s-2.64-.49-3.61-1.46m-33.88-42.38c8.66,0,15.75,2.18,21.28,6.53,5.34,4.56,8.02,10.75,8.02,18.56,0,4.75-1.01,9.49-3.03,14.21-2.02,4.72-4.66,8.84-7.91,12.35-5.93,6.57-14.02,12.53-24.27,17.87-10.26,5.34-15.92,8.01-16.99,8.01s-1.61-.42-1.61-1.27c0-.32,.13-.61,.39-.88,3.32-1.96,6.97-4.2,10.94-6.74,3.97-2.54,8.01-5.55,12.11-9.03,4.1-3.48,7.28-6.71,9.52-9.67,2.25-2.96,4.31-6.62,6.2-10.98,1.62-4.37,2.44-8.67,2.44-12.91,0-6.31-1.56-11.81-4.69-16.5-3.12-4.69-7.26-7.03-12.39-7.03-3.65,0-6.84,1.22-9.57,3.66-2.74,2.44-4.69,5.42-5.87,8.93,1.24-.52,2.38-.78,3.42-.78,2.73,0,5.07,1.01,7.02,3.03,1.95,2.02,2.93,4.4,2.93,7.13s-.94,5.21-2.83,7.43c-2.02,2.01-4.45,3.02-7.27,3.02s-5.41-1.01-7.76-3.02c-2.22-2.22-3.33-4.73-3.33-7.53,0-6.71,2.26-12.45,6.79-17.23,4.53-4.78,10.01-7.17,16.46-7.17"/><path d="M109.17,182.65v-2.14c-.06-1.1-.22-2.83-.49-5.17-3.25,.52-6.14,.78-8.69,.78-9.11,0-16.85-3.6-23.2-10.8-6.35-7.2-9.52-15.78-9.52-25.73,0-2.67,.52-5.87,1.56-9.62,1.04-3.74,2-6.25,2.88-7.52,.88-1.27,2.2-3.5,3.96-6.69,.52-.98,2.21-3.13,5.08-6.45,.52-.71,.98-1.29,1.37-1.75,.39-.46,1.02-1.27,1.9-2.44,.88-1.17,1.82-2.26,2.83-3.27,1.01-1.01,1.91-1.99,2.69-2.93,.78-.94,1.5-1.74,2.16-2.38-2.34-7.75-3.78-13.71-4.3-17.88-.52-4.17-.78-9.28-.78-15.34s1.3-11.56,3.91-16.51c2.53-5.13,6.08-9.33,10.64-12.59,.26-.2,.6-.3,1.02-.3s.73,.1,.93,.3c3.51,4.23,6.55,9.73,9.12,16.5,2.57,6.77,3.86,13.1,3.86,19s-1.5,11.58-4.48,17.05c-3.39,5.79-7.75,11.78-13.09,17.97,1.36,4.29,3.19,11.03,5.47,20.2h.59c.26-.06,.48-.09,.67-.09,7.36,0,13.37,2.59,18.02,7.76s6.98,11.15,6.98,17.92c0,8.4-3.48,15.17-10.44,20.31-2.02,1.5-4.4,2.67-7.14,3.51,.33,4.23,.5,7.04,.5,8.45s-.07,3.89-.2,7.48c-.06,6.12-2.15,11.35-6.25,15.72-4.1,4.36-8.79,6.55-14.06,6.55s-9.76-1.87-13.48-5.62c-3.71-3.74-5.57-8.28-5.57-13.62,0-2.8,1.08-5.18,3.23-7.14,2.21-1.95,4.7-2.92,7.46-2.92s5.03,1.01,6.79,3.03c1.82,1.89,2.73,4.16,2.73,6.83s-.91,4.91-2.73,6.74c-1.82,1.82-4.01,2.73-6.55,2.73-1.04,0-2.05-.19-3.01-.58,2.86,4.23,6.54,6.34,11.03,6.34s8.33-1.86,11.52-5.56c3.19-3.71,4.79-8.07,4.79-13.09l.28-7.03m3.12-12.3c3.39-1.24,6.07-3.44,8.06-6.59,1.99-3.16,2.98-6.3,2.98-9.42,0-4.62-1.6-8.76-4.79-12.41-3.19-3.65-7.23-5.7-12.12-6.16,2.8,13.74,4.76,25.27,5.86,34.58m-37.78-22.56c0,6.45,2.57,12.08,7.71,16.9,5.14,4.82,11.17,7.23,18.07,7.23,2.73,0,5.4-.2,8-.59-1.04-9.9-3.09-21.75-6.16-35.55-3.83,.4-6.81,1.72-8.93,3.96-2.12,2.24-3.18,4.8-3.18,7.66,0,4.95,2.64,8.95,7.92,12.02,.45,.26,.67,.7,.67,1.32s-.21,1.16-.63,1.61-.79,.68-1.12,.68-.74-.06-1.27-.19c-7.62-4.17-11.44-10.45-11.44-18.86,0-3.97,1.4-7.78,4.2-11.42,2.93-3.65,6.73-5.99,11.42-7.03-1.82-7.29-3.32-12.99-4.49-17.09-8.92,10.03-14.45,17.45-16.61,22.27-2.79,6.25-4.19,11.95-4.19,17.09M107.12,48.48c-4.89,2.41-8.74,5.89-11.57,10.45-2.83,4.56-4.24,9.34-4.24,14.35s1.17,11.49,3.52,19.44c4.69-5.67,8.23-10.97,10.64-15.92,2.41-4.95,3.61-9.85,3.61-14.7s-.65-9.39-1.95-13.62"/><path d="M159.33,430.62l-1.27-62.11c0-.98,.77-1.47,2.3-1.47s2.3,.49,2.3,1.47l-.78,33.89c1.76-1.76,3.27-2.98,4.54-3.66,1.27-.68,2.99-1.02,5.17-1.02s4.2,1.01,6.05,3.02c1.85,2.02,2.78,4.52,2.78,7.52,0,4.49-4.72,10.71-14.16,18.66-3.51,3.19-5.33,4.78-5.47,4.78h-.58c-.59,0-.89-.36-.89-1.08m2.45-25.09l-.3,22.17c2.02-1.9,4.07-5.04,6.16-9.44,2.08-4.4,3.12-8.16,3.12-11.28,0-1.56-.26-3-.78-4.3-.52-1.3-1.34-1.95-2.45-1.95s-2.1,.39-2.98,1.17c-.88,.78-1.8,1.99-2.77,3.62"/><path d="M159.33,143.1l-1.27-62.11c0-.98,.77-1.47,2.3-1.47s2.3,.49,2.3,1.47l-.78,33.89c1.76-1.76,3.27-2.98,4.54-3.66,1.27-.68,2.99-1.02,5.17-1.02s4.2,1.01,6.05,3.02c1.85,2.02,2.78,4.52,2.78,7.52,0,4.49-4.72,10.71-14.16,18.66-3.51,3.19-5.33,4.78-5.47,4.78h-.58c-.59,0-.89-.36-.89-1.08m2.45-25.09l-.3,22.17c2.02-1.9,4.07-5.04,6.16-9.44,2.08-4.4,3.12-8.16,3.12-11.28,0-1.56-.26-2.99-.78-4.3s-1.34-1.95-2.45-1.95-2.1,.39-2.98,1.17c-.88,.78-1.8,1.99-2.77,3.62"/><path d="M228.75,339.22c1.49,0,2.93-.23,4.3-.68,1.37-.45,2.35-.68,2.93-.68s.97,.35,1.17,1.06c0,.07-.07,.27-.2,.59l-28.41,33.02h16.69v-13.09c0-1.62,.95-2.8,2.84-3.52,1.95-.72,4.16-3.61,6.64-8.69,.19-.4,.48-.59,.88-.59,.78,0,1.23,.46,1.36,1.38v24.52h7.14c.91,0,1.39,.49,1.46,1.46,.07,.97-.42,1.46-1.46,1.46h-7.14v.78c0,2.6,.65,4.82,1.95,6.64,1.5,1.82,3.26,2.73,5.28,2.73,.78,0,1.17,.39,1.17,1.17s-.54,1.17-1.61,1.17-3.08-.21-6.01-.63c-2.93-.42-5.2-.63-6.79-.63s-3.81,.21-6.64,.63c-2.83,.42-4.96,.63-6.39,.63-.78,0-1.17-.39-1.17-1.17s.39-1.17,1.17-1.17c2.01,0,3.76-.91,5.26-2.73,1.36-1.89,2.05-4.1,2.05-6.64v-.78h-16.69c-.85,0-1.59-.23-2.21-.68-.62-.45-.93-.88-.93-1.27s.82-1.56,2.45-3.51c1.63-1.95,3.96-5.71,6.98-11.28,3.03-5.57,4.54-11.97,4.54-19.2,0-1.04,.46-1.56,1.38-1.56,.2,0,.51,.07,.93,.2,.42,.13,1.33,.34,2.73,.63,1.4,.29,2.85,.44,4.34,.44"/><path d="M228.75,389.39c1.49,0,2.93-.23,4.3-.68,1.37-.45,2.35-.68,2.93-.68s.97,.35,1.17,1.06c0,.07-.07,.27-.2,.59l-28.41,33.02h16.69v-13.09c0-1.62,.95-2.8,2.84-3.52,1.95-.72,4.16-3.61,6.64-8.69,.19-.4,.48-.59,.88-.59,.78,0,1.23,.46,1.36,1.38v24.52h7.14c.91,0,1.39,.49,1.46,1.46,.07,.97-.42,1.46-1.46,1.46h-7.14v.78c0,2.6,.65,4.82,1.95,6.64,1.5,1.82,3.26,2.74,5.28,2.74,.78,0,1.17,.39,1.17,1.17s-.54,1.17-1.61,1.17-3.08-.21-6.01-.63-5.2-.63-6.79-.63-3.81,.21-6.64,.63c-2.83,.42-4.96,.63-6.39,.63-.78,0-1.17-.39-1.17-1.17s.39-1.17,1.17-1.17c2.01,0,3.76-.91,5.26-2.74,1.36-1.88,2.05-4.1,2.05-6.64v-.78h-16.69c-.85,0-1.59-.23-2.21-.68-.62-.45-.93-.88-.93-1.27s.82-1.56,2.45-3.52c1.63-1.95,3.96-5.71,6.98-11.28,3.03-5.57,4.54-11.97,4.54-19.19,0-1.04,.46-1.56,1.38-1.56,.2,0,.51,.07,.93,.2s1.33,.34,2.73,.63c1.4,.29,2.85,.44,4.34,.44"/><path d="M228.75,76.7c1.49,0,2.93-.23,4.3-.68,1.37-.45,2.35-.68,2.93-.68s.97,.35,1.17,1.06c0,.07-.07,.27-.2,.59l-28.41,33.02h16.69v-13.09c0-1.62,.95-2.8,2.84-3.52,1.95-.72,4.16-3.61,6.64-8.69,.19-.4,.48-.59,.88-.59,.78,0,1.23,.46,1.36,1.38v24.52h7.14c.91,0,1.39,.49,1.46,1.46,.07,.97-.42,1.46-1.46,1.46h-7.14v.78c0,2.6,.65,4.82,1.95,6.64,1.5,1.82,3.26,2.73,5.28,2.73,.78,0,1.17,.39,1.17,1.17s-.54,1.17-1.61,1.17-3.08-.21-6.01-.63-5.2-.63-6.79-.63-3.81,.21-6.64,.63c-2.83,.42-4.96,.63-6.39,.63-.78,0-1.17-.39-1.17-1.17s.39-1.17,1.17-1.17c2.01,0,3.76-.91,5.26-2.73,1.36-1.89,2.05-4.1,2.05-6.64v-.78h-16.69c-.85,0-1.59-.23-2.21-.68-.62-.45-.93-.88-.93-1.27s.82-1.56,2.45-3.52c1.63-1.95,3.96-5.71,6.98-11.28,3.03-5.57,4.54-11.97,4.54-19.2,0-1.04,.46-1.56,1.38-1.56,.2,0,.51,.07,.93,.2s1.33,.34,2.73,.63,2.85,.44,4.34,.44"/><path d="M228.75,126.88c1.49,0,2.93-.23,4.3-.68,1.37-.45,2.35-.68,2.93-.68s.97,.35,1.17,1.06c0,.07-.07,.27-.2,.59l-28.41,33.02h16.69v-13.09c0-1.62,.95-2.8,2.84-3.51,1.95-.72,4.16-3.62,6.64-8.69,.19-.4,.48-.59,.88-.59,.78,0,1.23,.46,1.36,1.38v24.52h7.14c.91,0,1.39,.49,1.46,1.46,.07,.97-.42,1.46-1.46,1.46h-7.14v.78c0,2.6,.65,4.82,1.95,6.64,1.5,1.82,3.26,2.73,5.28,2.73,.78,0,1.17,.39,1.17,1.17s-.54,1.17-1.61,1.17-3.08-.21-6.01-.63-5.2-.63-6.79-.63-3.81,.21-6.64,.63c-2.83,.42-4.96,.63-6.39,.63-.78,0-1.17-.39-1.17-1.17s.39-1.17,1.17-1.17c2.01,0,3.76-.91,5.26-2.73,1.36-1.89,2.05-4.1,2.05-6.64v-.78h-16.69c-.85,0-1.59-.23-2.21-.68-.62-.45-.93-.88-.93-1.26s.82-1.56,2.45-3.52c1.63-1.95,3.96-5.71,6.98-11.28,3.03-5.57,4.54-11.97,4.54-19.2,0-1.04,.46-1.56,1.38-1.56,.2,0,.51,.06,.93,.19s1.33,.34,2.73,.63c1.4,.29,2.85,.44,4.34,.44"/><path d="M4945.5,117.9c-4.17,1.5-7.56,2.25-10.16,2.25s-4.77-.73-6.5-2.2c-1.73-1.46-2.59-3.29-2.59-5.47s.71-3.97,2.14-5.38c1.44-1.4,3.13-2.1,5.08-2.1s3.42,.56,4.4,1.66c.98,1.11,1.52,2.17,1.62,3.18,.1,1.01,.41,2.13,.93,3.36,.58,1.04,1.28,1.56,2.09,1.56s1.91-.76,3.28-2.29,2.28-2.73,2.73-3.61c.45-.88,1.01-1.3,1.66-1.27,.65,.03,1.1,.34,1.36,.92l-12.29,42c-.66,.66-1.57,.98-2.75,.98s-2.08-.33-2.72-.98l11.72-32.62"/><path class="cls-6" d="M1887.82,69.27h277.79v12.5h-277.79v-12.5"/><path class="cls-6" d="M2029.59,88.02h136.02v12.5h-136.02v-12.5"/><path class="cls-6" d="M2547.09,0l270.8,37.96v12.62l-270.8-37.96V0"/><path class="cls-6" d="M3196.55,100.81l66.44-6.57v12.56l-66.44,6.57v-12.56"/><path class="cls-6" d="M3196.55,119.56l66.44-6.57v12.56l-66.44,6.57v-12.56"/><path class="cls-6" d="M3472.97,69.27h150.38v12.5h-150.38v-12.5"/><path class="cls-6" d="M3563.51,88.02h59.84v12.5h-59.84v-12.5"/><path class="cls-6" d="M4410.6,175.52l105.28-6.45v12.52l-105.28,6.45v-12.52"/><path class="cls-6" d="M5035.34,75.88l52.71-6.66v12.6l-52.71,6.66v-12.6"/><path class="cls-6" d="M5035.34,94.63l52.71-6.66v12.6l-52.71,6.66v-12.6"/><path class="cls-6" d="M5498.69,69.37l203.37-6.35v12.51l-203.37,6.35v-12.51"/><path class="cls-6" d="M5749.14,194.25l71.44-6.55v12.55l-71.44,6.55v-12.55"/><path class="cls-6" d="M5749.14,175.5l33-3.02v12.55l-33,3.02v-12.55"/><path class="cls-6" d="M6302.92,69.51l80.23-6.51v12.54l-80.23,6.51v-12.54"/><path class="cls-6" d="M6490.28,75.52h126.56v12.5h-126.56v-12.5"/><path class="cls-6" d="M6566.16,94.27h50.68v12.5h-50.68v-12.5"/><path class="cls-6" d="M738.82,43.99l389.84,31.51v12.54l-389.84-31.51v-12.54"/><path d="M1551.11,138.02v-25h3.13c0,3.71,.75,7.5,2.25,11.38s3.06,7.1,4.69,9.67c1.62,2.57,3.64,5.81,6.04,9.72,5.28,8.53,7.92,16.12,7.92,22.76s-1.4,13.48-4.2,20.51c-.52,.78-1.12,1.17-1.8,1.17s-1.26-.23-1.71-.69c-.46-.46-.69-.98-.69-1.56v-.49c2.8-6.45,4.2-12.83,4.2-19.14,0-3.26-.99-6.81-2.97-10.65-1.99-3.84-4.04-6.98-6.16-9.42-2.12-2.44-4.64-5.19-7.57-8.26h-3.13"/><path d="M2453.18,90.67c1.5,0,3.08,2.42,4.74,7.27,1.66,4.85,2.49,9.29,2.49,13.33s-.92,7.94-2.78,11.72c-1.85,3.78-4.08,7.1-6.69,9.96l-8.01,8.98c-2.47,2.86-4.65,6.15-6.54,9.86-1.89,3.71-2.84,7.45-2.84,11.23h-3.12v-25h3.12c10.94-6.91,17.81-13.03,20.61-18.36,1.37-2.6,2.05-5.24,2.05-7.91,0-6.19-1.79-12.34-5.38-18.47v-.39c0-.58,.23-1.1,.69-1.55s1.01-.68,1.66-.68"/><path d="M3990.03,100.52v-25h3.13c0,3.71,.75,7.5,2.25,11.38s3.06,7.1,4.69,9.67c1.62,2.57,3.64,5.81,6.04,9.72,5.28,8.53,7.92,16.12,7.92,22.76s-1.4,13.48-4.2,20.51c-.52,.78-1.12,1.17-1.8,1.17s-1.26-.23-1.71-.69c-.46-.46-.69-.98-.69-1.56v-.48c2.8-6.45,4.2-12.83,4.2-19.14,0-3.26-.99-6.81-2.98-10.65-1.98-3.84-4.03-6.98-6.15-9.42s-4.64-5.2-7.57-8.26h-3.13"/><path d="M5402.38,100.52v-25h3.13c0,3.71,.75,7.5,2.25,11.38s3.06,7.1,4.68,9.67c1.63,2.57,3.64,5.81,6.05,9.72,5.28,8.53,7.92,16.12,7.92,22.76s-1.4,13.48-4.2,20.51c-.52,.78-1.12,1.17-1.81,1.17s-1.25-.23-1.71-.69c-.45-.46-.68-.98-.68-1.56v-.48c2.8-6.45,4.2-12.83,4.2-19.14,0-3.26-.99-6.81-2.98-10.65-1.98-3.84-4.03-6.98-6.15-9.42s-4.65-5.2-7.57-8.26h-3.13"/><path d="M6194,81.77v-25h3.12c0,3.71,.75,7.5,2.25,11.38s3.06,7.1,4.69,9.67c1.62,2.57,3.64,5.81,6.05,9.72,5.28,8.53,7.92,16.12,7.92,22.76s-1.4,13.48-4.21,20.51c-.52,.78-1.12,1.17-1.8,1.17s-1.25-.23-1.71-.69c-.46-.46-.69-.98-.69-1.56v-.48c2.8-6.45,4.2-12.83,4.2-19.14,0-3.26-.99-6.81-2.97-10.65-1.99-3.84-4.04-6.98-6.16-9.42s-4.64-5.2-7.57-8.26h-3.12"/><path d="M619.34,128.17c1.5,0,3.08,2.42,4.74,7.27,1.66,4.85,2.49,9.29,2.49,13.33s-.93,7.94-2.78,11.72c-1.85,3.78-4.08,7.1-6.69,9.96l-8.02,8.98c-2.47,2.86-4.65,6.15-6.54,9.86-1.89,3.71-2.84,7.45-2.84,11.23h-3.12v-25h3.12c10.94-6.91,17.81-13.03,20.61-18.36,1.36-2.6,2.05-5.24,2.05-7.91,0-6.19-1.79-12.34-5.38-18.47v-.39c0-.58,.23-1.1,.69-1.55,.46-.45,1.01-.68,1.66-.68"/><path d="M1338.74,167.03c-1.1-1.11-1.66-2.45-1.66-4.01s.56-2.9,1.66-4.01c1.11-1.11,2.45-1.66,4.01-1.66s2.9,.55,4,1.66c1.11,1.11,1.66,2.45,1.66,4.01s-.55,2.9-1.66,4.01c-1.1,1.11-2.43,1.66-4,1.66s-2.9-.55-4.01-1.66"/><path d="M2304.04,142.03c-1.11-1.11-1.66-2.45-1.66-4.01s.55-2.9,1.66-4.01c1.11-1.11,2.44-1.66,4.01-1.66s2.89,.55,4,1.66c1.1,1.11,1.65,2.45,1.65,4.01s-.55,2.9-1.65,4.01c-1.11,1.11-2.44,1.66-4,1.66s-2.9-.55-4.01-1.66"/><path d="M2988.48,167.03c-1.11-1.11-1.67-2.45-1.67-4.01s.56-2.9,1.67-4.01c1.11-1.11,2.44-1.66,4-1.66s2.9,.55,4,1.66c1.11,1.11,1.66,2.45,1.66,4.01s-.55,2.9-1.66,4.01c-1.1,1.11-2.43,1.66-4,1.66s-2.89-.55-4-1.66"/><path d="M3761.37,142.03c-1.11-1.11-1.66-2.45-1.66-4.01s.55-2.9,1.66-4.01c1.11-1.11,2.45-1.66,4.01-1.66s2.9,.55,4,1.66c1.11,1.11,1.66,2.45,1.66,4.01s-.55,2.9-1.66,4.01c-1.1,1.11-2.44,1.66-4,1.66s-2.9-.55-4.01-1.66"/><path d="M4723.48,167.03c-1.11-1.11-1.66-2.45-1.66-4.01s.55-2.9,1.66-4.01,2.45-1.66,4.01-1.66,2.89,.55,4,1.66c1.1,1.11,1.66,2.45,1.66,4.01s-.56,2.9-1.66,4.01c-1.11,1.11-2.44,1.66-4,1.66s-2.9-.55-4.01-1.66"/><path d="M5226.08,142.03c-1.11-1.11-1.67-2.45-1.67-4.01s.56-2.9,1.67-4.01c1.11-1.11,2.44-1.66,4-1.66s2.9,.55,4,1.66c1.11,1.11,1.66,2.45,1.66,4.01s-.55,2.9-1.66,4.01c-1.1,1.11-2.43,1.66-4,1.66s-2.89-.55-4-1.66"/><path d="M5860.66,92.03c-1.11-1.11-1.67-2.45-1.67-4.01s.56-2.9,1.67-4.01c1.11-1.11,2.44-1.66,4-1.66s2.9,.56,4,1.66c1.11,1.11,1.66,2.45,1.66,4.01s-.55,2.9-1.66,4.01c-1.1,1.11-2.43,1.66-4,1.66s-2.89-.55-4-1.66"/><path d="M6027.44,167.03c-1.11-1.11-1.66-2.45-1.66-4.01s.55-2.9,1.66-4.01,2.45-1.66,4.01-1.66,2.9,.55,4,1.66c1.11,1.11,1.66,2.45,1.66,4.01s-.55,2.9-1.66,4.01c-1.1,1.11-2.44,1.66-4,1.66s-2.9-.55-4.01-1.66"/><path d="M347.24,167.03c-1.11-1.11-1.66-2.45-1.66-4.01s.55-2.9,1.66-4.01c1.11-1.11,2.44-1.66,4.01-1.66s2.9,.55,4,1.66,1.66,2.45,1.66,4.01-.55,2.9-1.66,4.01c-1.1,1.11-2.44,1.66-4,1.66s-2.9-.55-4.01-1.66"/><path class="cls-6" d="M31.55,204.5c0-29.21-20.12-57.6-20.12-85.58,0-14.09,5.49-27.78,22.4-40.03,.23-.15,.34-.41,.34-.56,0-.46-1.26-.87-2.17-.87-.46,0-1.26,.05-1.83,.41C8.23,93.6,.92,111.77,.92,130.16c0,29.61,21.49,58.21,21.49,86.6,0,14.09-5.49,27.37-22.4,39.62v.82c16.92,12.25,22.4,25.53,22.4,39.62,0,28.39-21.49,56.98-21.49,86.6,0,18.38,7.32,36.56,29.26,52.28,.57,.36,1.37,.41,1.83,.41,.91,0,2.17-.41,2.17-.87,0-.15-.11-.41-.34-.56-16.91-12.25-22.4-25.94-22.4-40.03,0-27.98,20.12-56.37,20.12-85.58,0-18.59-7.31-36.35-28.8-52.28,21.49-15.93,28.8-33.7,28.8-52.29"/></svg>