<?xml version="1.0" encoding="UTF-8"?><svg id="_レイヤー_1" xmlns="http://www.w3.org/2000/svg" viewBox="0 0 7675.49 521.22"><defs><style>.cls-1{stroke-width:12.5px;}.cls-1,.cls-2,.cls-3,.cls-4,.cls-5,.cls-6{stroke:#000;}.cls-1,.cls-2,.cls-3,.cls-5,.cls-6{stroke-linejoin:bevel;}.cls-2{stroke-linecap:square;}.cls-2,.cls-3{stroke-width:4px;}.cls-4{stroke-linejoin:round;stroke-width:1.75px;}.cls-4,.cls-5{stroke-linecap:round;}.cls-4,.cls-7{fill-rule:evenodd;}.cls-5{stroke-width:3.25px;}.cls-6{fill:none;stroke-width:2px;}</style></defs><line class="cls-6" x1="42" y1="82.06" x2="7675.49" y2="82.06"/><line class="cls-6" x1="42" y1="107.06" x2="7675.49" y2="107.06"/><line class="cls-6" x1="42" y1="132.07" x2="7675.49" y2="132.07"/><line class="cls-6" x1="42" y1="157.07" x2="7675.49" y2="157.07"/><line class="cls-6" x1="42" y1="182.07" x2="7675.49" y2="182.07"/><line class="cls-6" x1="42" y1="344.58" x2="7675.49" y2="344.58"/><line class="cls-6" x1="42" y1="369.58" x2="7675.49" y2="369.58"/><line class="cls-6" x1="42" y1="394.58" x2="7675.49" y2="394.58"/><line class="cls-6" x1="42" y1="419.58" x2="7675.49" y2="419.58"/><line class="cls-6" x1="42" y1="444.59" x2="7675.49" y2="444.59"/><path class="cls-4" d="M2267.2,122.19c12.9-12,51.59-12,64.49,0-12.9-8-51.59-8-64.49,0"/><path class="cls-4" d="M2975.58,122.19c6.25-12,25-12,31.25,0-6.25-8-25-8-31.25,0"/><path class="cls-4" d="M3742.76,122.19c8.03-12,32.11-12,40.14,0-8.03-8-32.11-8-40.14,0"/><path class="cls-4" d="M3914.2,122.19c17.7-15.45,70.81-15.45,88.51,0-17.7-11.45-70.81-11.45-88.51,0"/><path class="cls-4" d="M6050.46,122.19c14.04-12.67,56.16-12.67,70.21,0-14.05-8.67-56.17-8.67-70.21,0"/><path class="cls-4" d="M6716.62,122.19c6.25-12,25-12,31.25,0-6.25-8-25-8-31.25,0"/><path class="cls-4" d="M2267.2,122.19c12.9-12,51.59-12,64.49,0-12.9-8-51.59-8-64.49,0"/><path class="cls-4" d="M2975.58,122.19c6.25-12,25-12,31.25,0-6.25-8-25-8-31.25,0"/><path class="cls-4" d="M3742.76,122.19c8.03-12,32.11-12,40.14,0-8.03-8-32.11-8-40.14,0"/><path class="cls-4" d="M3914.2,122.19c17.7-15.45,70.81-15.45,88.51,0-17.7-11.45-70.81-11.45-88.51,0"/><path class="cls-4" d="M6050.46,122.19c14.04-12.67,56.16-12.67,70.21,0-14.05-8.67-56.17-8.67-70.21,0"/><path class="cls-4" d="M6716.62,122.19c6.25-12,25-12,31.25,0-6.25-8-25-8-31.25,0"/><line class="cls-3" x1="44" y1="343.58" x2="44" y2="444.98"/><line class="cls-3" x1="1319.21" y1="343.58" x2="1319.21" y2="445.59"/><line class="cls-3" x1="2290.25" y1="343.58" x2="2290.25" y2="445.59"/><line class="cls-3" x1="3222.25" y1="343.58" x2="3222.25" y2="445.59"/><line class="cls-3" x1="3961.27" y1="343.58" x2="3961.27" y2="445.59"/><line class="cls-3" x1="4983.1" y1="343.58" x2="4983.1" y2="445.59"/><line class="cls-3" x1="6079.23" y1="343.58" x2="6079.23" y2="445.59"/><line class="cls-3" x1="6955.07" y1="343.58" x2="6955.07" y2="445.59"/><line class="cls-3" x1="7650.99" y1="343.58" x2="7650.99" y2="445.59"/><line class="cls-1" x1="7669.24" y1="343.58" x2="7669.24" y2="445.59"/><line class="cls-3" x1="44" y1="81.06" x2="44" y2="344.58"/><line class="cls-3" x1="1319.21" y1="81.06" x2="1319.21" y2="183.07"/><line class="cls-3" x1="2290.25" y1="81.06" x2="2290.25" y2="183.07"/><line class="cls-3" x1="3222.25" y1="81.06" x2="3222.25" y2="183.07"/><line class="cls-3" x1="3961.27" y1="81.06" x2="3961.27" y2="183.07"/><line class="cls-3" x1="4983.1" y1="81.06" x2="4983.1" y2="183.07"/><line class="cls-3" x1="6079.23" y1="81.06" x2="6079.23" y2="183.07"/><line class="cls-3" x1="6955.07" y1="81.06" x2="6955.07" y2="183.07"/><line class="cls-3" x1="7650.99" y1="81.06" x2="7650.99" y2="344.58"/><line class="cls-1" x1="7669.24" y1="81.06" x2="7669.24" y2="344.58"/><line class="cls-2" x1="6108.23" y1="469.59" x2="6156.14" y2="469.59"/><line class="cls-5" x1="2089.78" y1="449.28" x2="2089.78" y2="510.21"/><line class="cls-5" x1="2520.15" y1="386.78" x2="2520.15" y2="463.34"/><line class="cls-5" x1="3578.35" y1="461.78" x2="3578.35" y2="519.59"/><line class="cls-5" x1="6993.2" y1="449.28" x2="6993.2" y2="510.21"/><line class="cls-5" x1="439.39" y1="415.74" x2="439.39" y2="335.2"/><line class="cls-5" x1="1027.03" y1="414.89" x2="1027.03" y2="335.2"/><line class="cls-5" x1="1387.91" y1="403.24" x2="1387.91" y2="325.83"/><line class="cls-5" x1="2010.08" y1="402.39" x2="2010.08" y2="325.83"/><line class="cls-5" x1="2453.93" y1="327.38" x2="2453.93" y2="269.57"/><line class="cls-5" x1="2790.22" y1="389.89" x2="2790.22" y2="275.82"/><line class="cls-5" x1="2910.08" y1="389.89" x2="2910.08" y2="275.82"/><line class="cls-5" x1="3033.19" y1="389.89" x2="3033.19" y2="275.82"/><line class="cls-5" x1="3131.68" y1="389.89" x2="3131.68" y2="275.82"/><line class="cls-5" x1="3290.04" y1="439.89" x2="3290.04" y2="288.33"/><line class="cls-5" x1="3528.52" y1="439.89" x2="3528.52" y2="288.33"/><line class="cls-5" x1="3608.01" y1="364.88" x2="3608.01" y2="297.7"/><line class="cls-5" x1="3908.62" y1="364.88" x2="3908.62" y2="294.58"/><line class="cls-5" x1="4029.97" y1="415.74" x2="4029.97" y2="335.2"/><line class="cls-5" x1="4693.28" y1="414.89" x2="4693.28" y2="335.2"/><line class="cls-5" x1="4886.91" y1="374.28" x2="4886.91" y2="457.09"/><line class="cls-5" x1="5050.9" y1="402.39" x2="5050.9" y2="325.83"/><line class="cls-5" x1="5399.96" y1="402.39" x2="5399.96" y2="325.83"/><line class="cls-5" x1="5624.93" y1="402.39" x2="5624.93" y2="325.83"/><line class="cls-5" x1="5752.19" y1="402.39" x2="5752.19" y2="325.83"/><line class="cls-5" x1="5981.26" y1="402.39" x2="5981.26" y2="325.83"/><line class="cls-5" x1="6147.02" y1="464.89" x2="6147.02" y2="307.08"/><line class="cls-5" x1="6375.2" y1="386.78" x2="6375.2" y2="469.59"/><line class="cls-5" x1="6514.7" y1="399.28" x2="6514.7" y2="469.59"/><line class="cls-5" x1="6627.66" y1="399.28" x2="6627.66" y2="469.59"/><line class="cls-5" x1="6744.56" y1="399.28" x2="6744.56" y2="469.59"/><line class="cls-5" x1="6843.06" y1="399.28" x2="6843.06" y2="469.59"/><line class="cls-5" x1="7022.86" y1="352.38" x2="7022.86" y2="288.33"/><line class="cls-5" x1="7263.73" y1="439.89" x2="7263.73" y2="357.08"/><line class="cls-5" x1="7338.09" y1="452.39" x2="7338.09" y2="297.7"/><line class="cls-5" x1="7598.34" y1="364.88" x2="7598.34" y2="294.58"/><line class="cls-5" x1="605.75" y1="173.49" x2="605.75" y2="257.07"/><line class="cls-5" x1="1866.66" y1="149.26" x2="1866.66" y2="219.57"/><line class="cls-5" x1="2820.48" y1="124.26" x2="2820.48" y2="200.82"/><line class="cls-5" x1="2880.41" y1="136.76" x2="2880.41" y2="207.07"/><line class="cls-5" x1="3033.19" y1="149.26" x2="3033.19" y2="219.57"/><line class="cls-5" x1="3578.35" y1="161.76" x2="3578.35" y2="228.95"/><line class="cls-5" x1="3779.59" y1="174.26" x2="3779.59" y2="238.32"/><line class="cls-5" x1="4191.04" y1="199.27" x2="4191.04" y2="257.07"/><line class="cls-5" x1="4535.78" y1="149.26" x2="4535.78" y2="225.82"/><line class="cls-5" x1="4727.35" y1="124.26" x2="4727.35" y2="207.07"/><line class="cls-5" x1="5595.27" y1="149.26" x2="5595.27" y2="219.57"/><line class="cls-5" x1="5951.59" y1="124.26" x2="5951.59" y2="207.07"/><line class="cls-5" x1="6117.35" y1="161.76" x2="6117.35" y2="228.95"/><line class="cls-5" x1="6573.94" y1="124.26" x2="6573.94" y2="207.07"/><line class="cls-5" x1="6774.23" y1="149.26" x2="6774.23" y2="219.57"/><line class="cls-5" x1="7308.42" y1="124.26" x2="7308.42" y2="200.82"/><line class="cls-5" x1="438.49" y1="164.87" x2="438.49" y2="82.06"/><line class="cls-5" x1="735.23" y1="127.37" x2="735.23" y2="57.06"/><line class="cls-5" x1="831.32" y1="127.37" x2="831.32" y2="57.06"/><line class="cls-5" x1="903.39" y1="139.87" x2="903.39" y2="32.06"/><line class="cls-5" x1="965.21" y1="102.37" x2="965.21" y2="32.06"/><line class="cls-5" x1="1088.85" y1="114.87" x2="1088.85" y2="32.06"/><line class="cls-5" x1="1150.68" y1="102.37" x2="1150.68" y2="35.18"/><line class="cls-5" x1="1387.01" y1="152.37" x2="1387.01" y2="72.69"/><line class="cls-5" x1="1561.99" y1="164.87" x2="1561.99" y2="63.31"/><line class="cls-5" x1="1616.68" y1="164.87" x2="1616.68" y2="58.1"/><line class="cls-5" x1="1671.36" y1="127.37" x2="1671.36" y2="52.89"/><line class="cls-5" x1="1824.26" y1="127.37" x2="1824.26" y2="38.31"/><line class="cls-5" x1="1896.33" y1="114.87" x2="1896.33" y2="32.06"/><line class="cls-5" x1="1953.21" y1="102.37" x2="1953.21" y2="32.06"/><line class="cls-5" x1="2064.76" y1="114.87" x2="2064.76" y2="32.06"/><line class="cls-5" x1="2119.45" y1="102.37" x2="2119.45" y2="32.06"/><line class="cls-5" x1="2206.94" y1="114.87" x2="2206.94" y2="47.44"/><line class="cls-5" x1="2261.63" y1="127.37" x2="2261.63" y2="57.06"/><line class="cls-5" x1="2358.05" y1="127.37" x2="2358.05" y2="53.94"/><line class="cls-5" x1="2645.7" y1="77.37" x2="2645.7" y2="7.06"/><line class="cls-5" x1="2790.22" y1="102.37" x2="2790.22" y2="32.06"/><line class="cls-5" x1="2970" y1="127.37" x2="2970" y2="57.06"/><line class="cls-5" x1="3033.19" y1="127.37" x2="3033.19" y2="38.31"/><line class="cls-5" x1="3131.68" y1="114.87" x2="3131.68" y2="38.31"/><line class="cls-5" x1="3191.61" y1="114.87" x2="3191.61" y2="38.31"/><line class="cls-5" x1="3290.04" y1="139.87" x2="3290.04" y2="35.18"/><line class="cls-5" x1="3449.03" y1="152.37" x2="3449.03" y2="57.06"/><line class="cls-5" x1="3528.52" y1="102.37" x2="3528.52" y2="32.06"/><line class="cls-5" x1="3608.01" y1="114.87" x2="3608.01" y2="32.06"/><line class="cls-5" x1="3687.5" y1="102.37" x2="3687.5" y2="32.06"/><line class="cls-5" x1="3737.19" y1="127.37" x2="3737.19" y2="32.06"/><line class="cls-5" x1="3809.26" y1="127.37" x2="3809.26" y2="57.06"/><line class="cls-5" x1="3858.94" y1="139.87" x2="3858.94" y2="57.06"/><line class="cls-5" x1="3908.62" y1="127.37" x2="3908.62" y2="57.06"/><line class="cls-5" x1="4029.07" y1="127.37" x2="4029.07" y2="53.94"/><line class="cls-5" x1="4220.7" y1="164.87" x2="4220.7" y2="63.31"/><line class="cls-5" x1="4280.59" y1="164.87" x2="4280.59" y2="57.82"/><line class="cls-5" x1="4340.47" y1="127.37" x2="4340.47" y2="52.33"/><line class="cls-5" x1="4493.38" y1="127.37" x2="4493.38" y2="38.31"/><line class="cls-5" x1="4565.44" y1="114.87" x2="4565.44" y2="38.31"/><line class="cls-5" x1="4633.39" y1="102.37" x2="4633.39" y2="32.06"/><line class="cls-5" x1="4820.76" y1="102.37" x2="4820.76" y2="35.18"/><line class="cls-5" x1="5050.9" y1="152.37" x2="5050.9" y2="72.69"/><line class="cls-5" x1="5272.7" y1="164.87" x2="5272.7" y2="63.31"/><line class="cls-5" x1="5336.33" y1="164.87" x2="5336.33" y2="57.63"/><line class="cls-5" x1="5399.96" y1="127.37" x2="5399.96" y2="51.95"/><line class="cls-5" x1="5552.86" y1="127.37" x2="5552.86" y2="38.31"/><line class="cls-5" x1="5624.93" y1="114.87" x2="5624.93" y2="32.06"/><line class="cls-5" x1="5688.56" y1="102.37" x2="5688.56" y2="32.06"/><line class="cls-5" x1="5815.82" y1="114.87" x2="5815.82" y2="32.06"/><line class="cls-5" x1="5879.45" y1="102.37" x2="5879.45" y2="13.31"/><line class="cls-5" x1="6044.89" y1="127.37" x2="6044.89" y2="32.06"/><line class="cls-5" x1="6147.02" y1="127.37" x2="6147.02" y2="53.94"/><line class="cls-5" x1="6404.87" y1="77.37" x2="6404.87" y2="7.06"/><line class="cls-5" x1="6544.36" y1="102.37" x2="6544.36" y2="32.06"/><line class="cls-5" x1="6711.05" y1="127.37" x2="6711.05" y2="57.06"/><line class="cls-5" x1="6774.23" y1="127.37" x2="6774.23" y2="38.31"/><line class="cls-5" x1="6872.72" y1="114.87" x2="6872.72" y2="38.31"/><line class="cls-5" x1="6926.44" y1="114.87" x2="6926.44" y2="38.31"/><line class="cls-5" x1="7022.86" y1="139.87" x2="7022.86" y2="35.18"/><line class="cls-5" x1="7189.37" y1="152.37" x2="7189.37" y2="57.06"/><line class="cls-5" x1="7263.73" y1="102.37" x2="7263.73" y2="32.06"/><line class="cls-5" x1="7412.44" y1="102.37" x2="7412.44" y2="32.06"/><line class="cls-5" x1="7458.92" y1="77.37" x2="7458.92" y2="7.06"/><line class="cls-5" x1="7551.87" y1="102.37" x2="7551.87" y2="32.06"/><line class="cls-5" x1="7598.34" y1="102.37" x2="7598.34" y2="32.06"/><path d="M2110.13,430.82c3.12,0,5.73,.78,7.81,2.34,2.08,1.57,3.12,3.81,3.12,6.74,0,4.49-2.32,8.69-6.97,12.59-4.65,3.91-9.65,5.86-15,5.86-3.12,0-5.76-.81-7.9-2.44-2.02-1.76-3.03-3.97-3.03-6.64,0-4.36,2.31-8.53,6.93-12.5,4.63-3.97,9.64-5.95,15.04-5.95"/><path d="M2540.5,368.32c3.12,0,5.72,.78,7.81,2.34,2.08,1.56,3.12,3.81,3.12,6.73,0,4.49-2.32,8.69-6.97,12.6-4.65,3.9-9.65,5.86-15,5.86-3.12,0-5.76-.82-7.9-2.44-2.02-1.76-3.03-3.97-3.03-6.64,0-4.37,2.31-8.53,6.93-12.5,4.63-3.97,9.64-5.95,15.04-5.95"/><path d="M3598.69,443.32c3.13,0,5.73,.78,7.81,2.34,2.09,1.57,3.13,3.81,3.13,6.74,0,4.49-2.33,8.69-6.98,12.59-4.65,3.91-9.65,5.86-14.99,5.86-3.13,0-5.76-.81-7.91-2.44-2.02-1.76-3.03-3.97-3.03-6.64,0-4.36,2.31-8.53,6.94-12.5,4.62-3.97,9.63-5.95,15.03-5.95"/><path d="M7013.54,430.82c3.13,0,5.73,.78,7.81,2.34,2.09,1.57,3.13,3.81,3.13,6.74,0,4.49-2.33,8.69-6.98,12.59-4.65,3.91-9.65,5.86-14.99,5.86-3.13,0-5.76-.81-7.91-2.44-2.02-1.76-3.03-3.97-3.03-6.64,0-4.36,2.31-8.53,6.94-12.5,4.62-3.97,9.64-5.95,15.03-5.95"/><path d="M413.72,430.22c1.89,0,5.84-1.95,11.87-5.85,6.03-3.91,9.58-6.53,10.65-7.86,1.07-1.34,1.61-2.53,1.61-3.57s-.42-1.97-1.27-2.78-1.83-1.22-2.93-1.22c-1.95,0-5.93,1.97-11.96,5.91-6.03,3.94-9.56,6.56-10.6,7.86-1.04,1.3-1.56,2.47-1.56,3.51s.41,1.97,1.23,2.79c.82,.81,1.81,1.21,2.98,1.21m18.95-24.4c5.59,0,8.39,2.4,8.39,7.22,0,2.34-.68,5.06-2.05,8.15-1.36,3.1-3.19,5.46-5.47,7.08-5.01,3.39-11.29,5.08-18.84,5.08-5.6,0-8.41-2.41-8.41-7.22,0-2.15,.67-4.81,2-8.01,1.33-3.19,3.17-5.6,5.52-7.22,5.02-3.39,11.31-5.08,18.86-5.08"/><path d="M1017.71,405.82c3.13,0,5.73,.78,7.81,2.34,2.09,1.56,3.13,3.81,3.13,6.74,0,4.49-2.33,8.68-6.98,12.59s-9.65,5.86-14.99,5.86c-3.12,0-5.76-.81-7.91-2.44-2.02-1.76-3.03-3.97-3.03-6.64,0-4.36,2.32-8.53,6.94-12.5,4.63-3.97,9.64-5.95,15.03-5.95"/><path d="M1362.23,417.72c1.89,0,5.84-1.95,11.87-5.86,6.03-3.9,9.58-6.52,10.65-7.86,1.07-1.33,1.61-2.52,1.61-3.56s-.43-1.97-1.27-2.78c-.85-.81-1.83-1.22-2.93-1.22-1.95,0-5.94,1.97-11.97,5.91-6.02,3.94-9.56,6.56-10.6,7.86-1.04,1.3-1.56,2.47-1.56,3.51s.41,1.97,1.23,2.78c.81,.82,1.81,1.22,2.97,1.22m18.96-24.4c5.59,0,8.39,2.4,8.39,7.22,0,2.34-.68,5.06-2.05,8.15-1.36,3.1-3.19,5.46-5.47,7.08-5.01,3.39-11.29,5.08-18.84,5.08-5.61,0-8.41-2.41-8.41-7.22,0-2.15,.67-4.82,2-8.01,1.34-3.19,3.17-5.6,5.52-7.22,5.02-3.39,11.3-5.08,18.86-5.08"/><path d="M2000.76,393.32c3.12,0,5.73,.78,7.81,2.34,2.08,1.56,3.13,3.81,3.13,6.74,0,4.49-2.33,8.68-6.98,12.59-4.65,3.91-9.65,5.86-14.99,5.86-3.13,0-5.76-.81-7.91-2.44-2.02-1.76-3.03-3.97-3.03-6.64,0-4.36,2.31-8.53,6.94-12.5,4.62-3.97,9.63-5.95,15.03-5.95"/><path d="M2444.61,318.31c3.12,0,5.73,.78,7.81,2.35,2.09,1.56,3.13,3.8,3.13,6.73,0,4.49-2.33,8.69-6.98,12.59-4.65,3.91-9.65,5.86-14.99,5.86-3.13,0-5.76-.81-7.91-2.43-2.02-1.76-3.03-3.98-3.03-6.64,0-4.37,2.31-8.54,6.94-12.5,4.62-3.97,9.63-5.96,15.03-5.96"/><path d="M2780.9,380.82c3.12,0,5.73,.78,7.81,2.34,2.08,1.56,3.13,3.81,3.13,6.73,0,4.49-2.33,8.69-6.98,12.6-4.65,3.9-9.65,5.86-14.99,5.86-3.13,0-5.76-.81-7.91-2.44-2.02-1.76-3.03-3.97-3.03-6.64,0-4.36,2.31-8.53,6.94-12.5,4.62-3.97,9.63-5.95,15.03-5.95"/><path d="M2900.75,380.82c3.13,0,5.73,.78,7.82,2.34,2.08,1.56,3.12,3.81,3.12,6.73,0,4.49-2.32,8.69-6.97,12.6-4.66,3.9-9.65,5.86-15,5.86-3.12,0-5.76-.81-7.9-2.44-2.02-1.76-3.03-3.97-3.03-6.64,0-4.36,2.31-8.53,6.93-12.5,4.63-3.97,9.64-5.95,15.03-5.95"/><path d="M2900.75,330.81c3.13,0,5.73,.78,7.82,2.35,2.08,1.56,3.12,3.8,3.12,6.73,0,4.49-2.32,8.69-6.97,12.6-4.66,3.9-9.65,5.85-15,5.85-3.12,0-5.76-.81-7.9-2.43-2.02-1.76-3.03-3.98-3.03-6.64,0-4.37,2.31-8.53,6.93-12.5,4.63-3.97,9.64-5.96,15.03-5.96"/><path d="M3023.86,380.82c3.13,0,5.73,.78,7.82,2.34,2.08,1.56,3.12,3.81,3.12,6.73,0,4.49-2.32,8.69-6.98,12.6-4.65,3.9-9.64,5.86-14.99,5.86-3.12,0-5.76-.81-7.9-2.44-2.03-1.76-3.04-3.97-3.04-6.64,0-4.36,2.32-8.53,6.94-12.5,4.63-3.97,9.64-5.95,15.03-5.95"/><path d="M3122.36,380.82c3.13,0,5.73,.78,7.81,2.34,2.09,1.56,3.13,3.81,3.13,6.73,0,4.49-2.33,8.69-6.98,12.6-4.65,3.9-9.65,5.86-14.99,5.86-3.12,0-5.76-.81-7.91-2.44-2.02-1.76-3.03-3.97-3.03-6.64,0-4.36,2.32-8.53,6.94-12.5,4.63-3.97,9.64-5.95,15.03-5.95"/><path d="M3280.72,430.82c3.13,0,5.73,.78,7.81,2.34,2.09,1.57,3.13,3.81,3.13,6.74,0,4.49-2.33,8.69-6.98,12.59-4.65,3.91-9.65,5.86-14.99,5.86-3.13,0-5.76-.81-7.91-2.44-2.02-1.76-3.03-3.97-3.03-6.64,0-4.36,2.31-8.53,6.94-12.5,4.62-3.97,9.64-5.95,15.03-5.95"/><path d="M3280.72,343.31c3.13,0,5.73,.79,7.81,2.35,2.09,1.56,3.13,3.81,3.13,6.73,0,4.49-2.33,8.69-6.98,12.6-4.65,3.9-9.65,5.86-14.99,5.86-3.13,0-5.76-.82-7.91-2.44-2.02-1.76-3.03-3.98-3.03-6.64,0-4.37,2.31-8.53,6.94-12.5,4.62-3.97,9.64-5.96,15.03-5.96"/><path d="M3519.2,430.82c3.12,0,5.73,.78,7.81,2.34,2.08,1.57,3.13,3.81,3.13,6.74,0,4.49-2.33,8.69-6.98,12.59-4.65,3.91-9.65,5.86-14.99,5.86-3.13,0-5.76-.81-7.91-2.44-2.02-1.76-3.03-3.97-3.03-6.64,0-4.36,2.31-8.53,6.94-12.5,4.62-3.97,9.63-5.95,15.03-5.95"/><path d="M3519.2,343.31c3.12,0,5.73,.79,7.81,2.35s3.13,3.81,3.13,6.73c0,4.49-2.33,8.69-6.98,12.6-4.65,3.9-9.65,5.86-14.99,5.86-3.13,0-5.76-.82-7.91-2.44-2.02-1.76-3.03-3.98-3.03-6.64,0-4.37,2.31-8.53,6.94-12.5,4.62-3.97,9.63-5.96,15.03-5.96"/><path d="M3598.69,355.82c3.13,0,5.73,.78,7.81,2.34,2.09,1.56,3.13,3.81,3.13,6.73,0,4.49-2.33,8.69-6.98,12.6-4.65,3.9-9.65,5.86-14.99,5.86-3.13,0-5.76-.82-7.91-2.44-2.02-1.76-3.03-3.98-3.03-6.64,0-4.37,2.31-8.53,6.94-12.5,4.62-3.97,9.63-5.95,15.03-5.95"/><path d="M3899.3,355.82c3.12,0,5.73,.78,7.81,2.34s3.13,3.81,3.13,6.73c0,4.49-2.33,8.69-6.98,12.6-4.65,3.9-9.65,5.86-14.99,5.86-3.13,0-5.76-.82-7.91-2.44-2.02-1.76-3.03-3.98-3.03-6.64,0-4.37,2.31-8.53,6.94-12.5,4.62-3.97,9.63-5.95,15.03-5.95"/><path d="M4004.29,430.22c1.89,0,5.85-1.95,11.87-5.85,6.03-3.91,9.58-6.53,10.65-7.86,1.07-1.34,1.61-2.53,1.61-3.57s-.43-1.97-1.27-2.78c-.85-.81-1.83-1.22-2.93-1.22-1.95,0-5.94,1.97-11.96,5.91-6.03,3.94-9.56,6.56-10.61,7.86-1.04,1.3-1.56,2.47-1.56,3.51s.41,1.97,1.23,2.79c.82,.81,1.81,1.21,2.97,1.21m18.96-24.4c5.59,0,8.39,2.4,8.39,7.22,0,2.34-.68,5.06-2.05,8.15-1.36,3.1-3.19,5.46-5.47,7.08-5.01,3.39-11.29,5.08-18.84,5.08-5.61,0-8.41-2.41-8.41-7.22,0-2.15,.67-4.81,2-8.01,1.34-3.19,3.17-5.6,5.52-7.22,5.02-3.39,11.31-5.08,18.86-5.08"/><path d="M4683.96,405.82c3.12,0,5.73,.78,7.81,2.34s3.13,3.81,3.13,6.74c0,4.49-2.33,8.68-6.98,12.59s-9.65,5.86-14.99,5.86c-3.13,0-5.76-.81-7.91-2.44-2.02-1.76-3.03-3.97-3.03-6.64,0-4.36,2.31-8.53,6.94-12.5,4.62-3.97,9.63-5.95,15.03-5.95"/><path d="M4907.25,355.82c3.13,0,5.73,.78,7.82,2.34,2.08,1.56,3.12,3.81,3.12,6.73,0,4.49-2.32,8.69-6.97,12.6-4.66,3.9-9.65,5.86-15,5.86-3.12,0-5.76-.82-7.9-2.44-2.02-1.76-3.03-3.98-3.03-6.64,0-4.37,2.31-8.53,6.93-12.5,4.63-3.97,9.64-5.95,15.03-5.95"/><path d="M5041.57,393.32c3.13,0,5.73,.78,7.82,2.34,2.08,1.56,3.12,3.81,3.12,6.74,0,4.49-2.32,8.68-6.97,12.59-4.66,3.91-9.65,5.86-15,5.86-3.12,0-5.76-.81-7.9-2.44-2.02-1.76-3.03-3.97-3.03-6.64,0-4.36,2.31-8.53,6.93-12.5,4.63-3.97,9.64-5.95,15.03-5.95"/><path d="M5390.64,393.32c3.13,0,5.73,.78,7.81,2.34,2.09,1.56,3.13,3.81,3.13,6.74,0,4.49-2.33,8.68-6.98,12.59s-9.65,5.86-14.99,5.86c-3.13,0-5.76-.81-7.91-2.44-2.02-1.76-3.03-3.97-3.03-6.64,0-4.36,2.31-8.53,6.94-12.5,4.62-3.97,9.63-5.95,15.03-5.95"/><path d="M5615.61,393.32c3.12,0,5.73,.78,7.81,2.34,2.09,1.56,3.13,3.81,3.13,6.74,0,4.49-2.33,8.68-6.98,12.59-4.65,3.91-9.65,5.86-14.99,5.86-3.13,0-5.76-.81-7.91-2.44-2.02-1.76-3.03-3.97-3.03-6.64,0-4.36,2.31-8.53,6.94-12.5,4.62-3.97,9.63-5.95,15.03-5.95"/><path d="M5742.87,393.32c3.12,0,5.73,.78,7.81,2.34s3.13,3.81,3.13,6.74c0,4.49-2.33,8.68-6.98,12.59s-9.65,5.86-14.99,5.86c-3.13,0-5.76-.81-7.91-2.44-2.02-1.76-3.03-3.97-3.03-6.64,0-4.36,2.31-8.53,6.94-12.5,4.62-3.97,9.63-5.95,15.03-5.95"/><path d="M5971.94,393.32c3.12,0,5.72,.78,7.81,2.34,2.08,1.56,3.12,3.81,3.12,6.74,0,4.49-2.32,8.68-6.97,12.59s-9.65,5.86-15,5.86c-3.12,0-5.76-.81-7.9-2.44-2.02-1.76-3.03-3.97-3.03-6.64,0-4.36,2.31-8.53,6.93-12.5,4.63-3.97,9.64-5.95,15.04-5.95"/><path d="M6137.7,455.82c3.12,0,5.73,.78,7.81,2.35,2.08,1.56,3.12,3.8,3.12,6.73,0,4.49-2.32,8.69-6.97,12.59-4.65,3.91-9.65,5.86-14.99,5.86-3.13,0-5.76-.81-7.91-2.43-2.02-1.77-3.03-3.98-3.03-6.65,0-4.36,2.31-8.53,6.94-12.5,4.62-3.96,9.63-5.95,15.03-5.95"/><path d="M6137.7,368.32c3.12,0,5.73,.78,7.81,2.34,2.08,1.56,3.12,3.81,3.12,6.73,0,4.49-2.32,8.69-6.97,12.6-4.65,3.9-9.65,5.86-14.99,5.86-3.13,0-5.76-.82-7.91-2.44-2.02-1.76-3.03-3.97-3.03-6.64,0-4.37,2.31-8.53,6.94-12.5,4.62-3.97,9.63-5.95,15.03-5.95"/><path d="M6395.55,368.32c3.12,0,5.73,.78,7.81,2.34s3.12,3.81,3.12,6.73c0,4.49-2.32,8.69-6.97,12.6-4.65,3.9-9.65,5.86-14.99,5.86-3.13,0-5.76-.82-7.91-2.44-2.02-1.76-3.03-3.97-3.03-6.64,0-4.37,2.31-8.53,6.94-12.5,4.62-3.97,9.63-5.95,15.03-5.95"/><path d="M6535.04,380.82c3.12,0,5.73,.78,7.81,2.34,2.09,1.56,3.13,3.81,3.13,6.73,0,4.49-2.33,8.69-6.98,12.6-4.65,3.9-9.65,5.86-14.99,5.86-3.13,0-5.76-.81-7.91-2.44-2.02-1.76-3.03-3.97-3.03-6.64,0-4.36,2.31-8.53,6.94-12.5,4.62-3.97,9.63-5.95,15.03-5.95"/><path d="M6648,380.82c3.13,0,5.73,.78,7.82,2.34,2.08,1.56,3.12,3.81,3.12,6.73,0,4.49-2.32,8.69-6.97,12.6-4.66,3.9-9.65,5.86-15,5.86-3.12,0-5.76-.81-7.9-2.44-2.02-1.76-3.03-3.97-3.03-6.64,0-4.36,2.31-8.53,6.93-12.5,4.63-3.97,9.64-5.95,15.03-5.95"/><path d="M6764.9,380.82c3.13,0,5.73,.78,7.82,2.34,2.08,1.56,3.12,3.81,3.12,6.73,0,4.49-2.32,8.69-6.98,12.6-4.65,3.9-9.64,5.86-14.99,5.86-3.12,0-5.76-.81-7.9-2.44-2.02-1.76-3.03-3.97-3.03-6.64,0-4.36,2.31-8.53,6.93-12.5,4.63-3.97,9.64-5.95,15.03-5.95"/><path d="M6863.4,380.82c3.13,0,5.73,.78,7.81,2.34,2.09,1.56,3.13,3.81,3.13,6.73,0,4.49-2.33,8.69-6.98,12.6-4.65,3.9-9.65,5.86-14.99,5.86-3.12,0-5.76-.81-7.91-2.44-2.02-1.76-3.03-3.97-3.03-6.64,0-4.36,2.32-8.53,6.94-12.5,4.63-3.97,9.64-5.95,15.03-5.95"/><path d="M7013.54,343.31c3.13,0,5.73,.79,7.81,2.35,2.09,1.56,3.13,3.81,3.13,6.73,0,4.49-2.33,8.69-6.98,12.6-4.65,3.9-9.65,5.86-14.99,5.86-3.13,0-5.76-.82-7.91-2.44-2.02-1.76-3.03-3.98-3.03-6.64,0-4.37,2.31-8.53,6.94-12.5,4.62-3.97,9.64-5.96,15.03-5.96"/><path d="M7254.41,430.82c3.12,0,5.72,.78,7.81,2.34,2.08,1.57,3.12,3.81,3.12,6.74,0,4.49-2.32,8.69-6.97,12.59-4.65,3.91-9.65,5.86-15,5.86-3.12,0-5.76-.81-7.9-2.44-2.02-1.76-3.03-3.97-3.03-6.64,0-4.36,2.31-8.53,6.93-12.5,4.63-3.97,9.64-5.95,15.04-5.95"/><path d="M7328.76,443.32c3.13,0,5.73,.78,7.82,2.34,2.08,1.57,3.12,3.81,3.12,6.74,0,4.49-2.32,8.69-6.98,12.59-4.65,3.91-9.64,5.86-14.99,5.86-3.12,0-5.76-.81-7.9-2.44-2.02-1.76-3.03-3.97-3.03-6.64,0-4.36,2.31-8.53,6.93-12.5,4.63-3.97,9.64-5.95,15.03-5.95"/><path d="M7328.76,355.82c3.13,0,5.73,.78,7.82,2.34,2.08,1.56,3.12,3.81,3.12,6.73,0,4.49-2.32,8.69-6.98,12.6-4.65,3.9-9.64,5.86-14.99,5.86-3.12,0-5.76-.82-7.9-2.44-2.02-1.76-3.03-3.98-3.03-6.64,0-4.37,2.31-8.53,6.93-12.5,4.63-3.97,9.64-5.95,15.03-5.95"/><path d="M7589.02,355.82c3.12,0,5.73,.78,7.81,2.34s3.13,3.81,3.13,6.73c0,4.49-2.33,8.69-6.98,12.6-4.65,3.9-9.65,5.86-14.99,5.86-3.13,0-5.76-.82-7.91-2.44-2.02-1.76-3.03-3.98-3.03-6.64,0-4.37,2.31-8.53,6.94-12.5,4.62-3.97,9.63-5.95,15.03-5.95"/><path d="M611.55,205.21c1.89,0,5.84-1.95,11.87-5.86s9.58-6.53,10.65-7.86c1.07-1.33,1.61-2.52,1.61-3.56s-.42-1.97-1.27-2.78c-.85-.81-1.83-1.22-2.93-1.22-1.95,0-5.93,1.97-11.96,5.91-6.03,3.93-9.56,6.55-10.6,7.85-1.04,1.31-1.56,2.48-1.56,3.52s.41,1.97,1.23,2.78c.82,.81,1.81,1.22,2.98,1.22m18.95-24.41c5.59,0,8.39,2.41,8.39,7.22,0,2.35-.68,5.07-2.05,8.16-1.36,3.09-3.19,5.45-5.47,7.08-5.01,3.38-11.29,5.08-18.84,5.08-5.6,0-8.41-2.41-8.41-7.22,0-2.15,.67-4.82,2-8.01,1.33-3.19,3.17-5.6,5.52-7.23,5.02-3.38,11.31-5.08,18.86-5.08"/><path d="M611.55,180.21c1.89,0,5.84-1.95,11.87-5.86s9.58-6.53,10.65-7.86c1.07-1.33,1.61-2.52,1.61-3.56s-.42-1.97-1.27-2.78c-.85-.82-1.83-1.22-2.93-1.22-1.95,0-5.93,1.97-11.96,5.9-6.03,3.94-9.56,6.56-10.6,7.86-1.04,1.31-1.56,2.48-1.56,3.52s.41,1.97,1.23,2.78c.82,.81,1.81,1.22,2.98,1.22m18.95-24.41c5.59,0,8.39,2.41,8.39,7.22,0,2.34-.68,5.06-2.05,8.16-1.36,3.09-3.19,5.45-5.47,7.08-5.01,3.38-11.29,5.07-18.84,5.07-5.6,0-8.41-2.4-8.41-7.22,0-2.14,.67-4.81,2-8,1.33-3.2,3.17-5.6,5.52-7.23,5.02-3.38,11.31-5.08,18.86-5.08"/><path d="M1887.01,130.8c3.12,0,5.73,.78,7.81,2.34,2.08,1.57,3.13,3.81,3.13,6.74,0,4.49-2.33,8.69-6.98,12.59-4.65,3.91-9.65,5.86-14.99,5.86-3.13,0-5.76-.81-7.91-2.44-2.02-1.76-3.03-3.97-3.03-6.64,0-4.36,2.31-8.53,6.94-12.5,4.62-3.96,9.63-5.95,15.03-5.95"/><path d="M2840.83,105.8c3.12,0,5.73,.78,7.81,2.34,2.08,1.57,3.12,3.81,3.12,6.74,0,4.49-2.32,8.68-6.97,12.59s-9.65,5.86-15,5.86c-3.12,0-5.76-.81-7.9-2.44-2.02-1.76-3.03-3.97-3.03-6.64,0-4.36,2.31-8.53,6.93-12.5,4.63-3.97,9.64-5.95,15.04-5.95"/><path d="M2900.75,118.3c3.13,0,5.73,.78,7.82,2.34,2.08,1.57,3.12,3.81,3.12,6.74,0,4.49-2.32,8.69-6.97,12.59-4.66,3.91-9.65,5.86-15,5.86-3.12,0-5.76-.81-7.9-2.44-2.02-1.76-3.03-3.97-3.03-6.64,0-4.36,2.31-8.53,6.93-12.5,4.63-3.97,9.64-5.95,15.03-5.95"/><path d="M3053.53,130.8c3.12,0,5.73,.78,7.81,2.34,2.09,1.57,3.13,3.81,3.13,6.74,0,4.49-2.33,8.69-6.98,12.59-4.65,3.91-9.65,5.86-14.99,5.86-3.13,0-5.76-.81-7.91-2.44-2.02-1.76-3.03-3.97-3.03-6.64,0-4.36,2.31-8.53,6.94-12.5,4.62-3.96,9.63-5.95,15.03-5.95"/><path d="M3598.69,143.3c3.13,0,5.73,.78,7.81,2.35,2.09,1.56,3.13,3.8,3.13,6.73,0,4.49-2.33,8.69-6.98,12.59-4.65,3.91-9.65,5.86-14.99,5.86-3.13,0-5.76-.81-7.91-2.43-2.02-1.77-3.03-3.98-3.03-6.65,0-4.36,2.31-8.53,6.94-12.5,4.62-3.96,9.63-5.95,15.03-5.95"/><path d="M3799.93,155.8c3.13,0,5.73,.78,7.82,2.35,2.08,1.56,3.12,3.8,3.12,6.73,0,4.49-2.32,8.69-6.98,12.59-4.65,3.91-9.64,5.86-14.99,5.86-3.12,0-5.76-.81-7.9-2.43-2.03-1.76-3.04-3.98-3.04-6.64,0-4.37,2.32-8.54,6.94-12.5,4.63-3.97,9.64-5.96,15.03-5.96"/><path d="M4211.38,180.8c3.12,0,5.73,.79,7.81,2.35,2.09,1.56,3.13,3.81,3.13,6.73,0,4.49-2.33,8.69-6.98,12.6-4.65,3.9-9.65,5.86-14.99,5.86-3.13,0-5.76-.82-7.91-2.44-2.02-1.76-3.03-3.98-3.03-6.64,0-4.37,2.31-8.53,6.94-12.5,4.62-3.97,9.63-5.96,15.03-5.96"/><path d="M4556.12,130.8c3.13,0,5.73,.78,7.81,2.34,2.09,1.57,3.13,3.81,3.13,6.74,0,4.49-2.33,8.69-6.98,12.59-4.65,3.91-9.65,5.86-14.99,5.86-3.12,0-5.76-.81-7.91-2.44-2.02-1.76-3.03-3.97-3.03-6.64,0-4.36,2.32-8.53,6.94-12.5,4.63-3.96,9.64-5.95,15.03-5.95"/><path d="M4747.7,105.8c3.12,0,5.73,.78,7.81,2.34,2.08,1.57,3.12,3.81,3.12,6.74,0,4.49-2.32,8.68-6.97,12.59s-9.65,5.86-14.99,5.86c-3.13,0-5.76-.81-7.91-2.44-2.02-1.76-3.03-3.97-3.03-6.64,0-4.36,2.31-8.53,6.94-12.5,4.62-3.97,9.63-5.95,15.03-5.95"/><path d="M5615.61,130.8c3.12,0,5.73,.78,7.81,2.34,2.09,1.57,3.13,3.81,3.13,6.74,0,4.49-2.33,8.69-6.98,12.59-4.65,3.91-9.65,5.86-14.99,5.86-3.13,0-5.76-.81-7.91-2.44-2.02-1.76-3.03-3.97-3.03-6.64,0-4.36,2.31-8.53,6.94-12.5,4.62-3.96,9.63-5.95,15.03-5.95"/><path d="M5971.94,105.8c3.12,0,5.72,.78,7.81,2.34,2.08,1.57,3.12,3.81,3.12,6.74,0,4.49-2.32,8.68-6.97,12.59s-9.65,5.86-15,5.86c-3.12,0-5.76-.81-7.9-2.44-2.02-1.76-3.03-3.97-3.03-6.64,0-4.36,2.31-8.53,6.93-12.5,4.63-3.97,9.64-5.95,15.04-5.95"/><path d="M6137.7,143.3c3.12,0,5.73,.78,7.81,2.35,2.08,1.56,3.12,3.8,3.12,6.73,0,4.49-2.32,8.69-6.97,12.59-4.65,3.91-9.65,5.86-14.99,5.86-3.13,0-5.76-.81-7.91-2.43-2.02-1.77-3.03-3.98-3.03-6.65,0-4.36,2.31-8.53,6.94-12.5,4.62-3.96,9.63-5.95,15.03-5.95"/><path d="M6594.29,105.8c3.12,0,5.72,.78,7.81,2.34,2.08,1.57,3.12,3.81,3.12,6.74,0,4.49-2.32,8.68-6.97,12.59s-9.65,5.86-15,5.86c-3.12,0-5.76-.81-7.9-2.44-2.02-1.76-3.03-3.97-3.03-6.64,0-4.36,2.31-8.53,6.93-12.5,4.63-3.97,9.64-5.95,15.04-5.95"/><path d="M6794.57,130.8c3.12,0,5.73,.78,7.81,2.34,2.09,1.57,3.13,3.81,3.13,6.74,0,4.49-2.33,8.69-6.98,12.59-4.65,3.91-9.65,5.86-14.99,5.86-3.13,0-5.76-.81-7.91-2.44-2.02-1.76-3.03-3.97-3.03-6.64,0-4.36,2.31-8.53,6.94-12.5,4.62-3.96,9.63-5.95,15.03-5.95"/><path d="M7328.76,105.8c3.13,0,5.73,.78,7.82,2.34,2.08,1.57,3.12,3.81,3.12,6.74,0,4.49-2.32,8.68-6.98,12.59-4.65,3.91-9.64,5.86-14.99,5.86-3.12,0-5.76-.81-7.9-2.44-2.02-1.76-3.03-3.97-3.03-6.64,0-4.36,2.31-8.53,6.93-12.5,4.63-3.97,9.64-5.95,15.03-5.95"/><path d="M429.17,155.8c3.12,0,5.73,.78,7.81,2.35,2.08,1.56,3.12,3.8,3.12,6.73,0,4.49-2.33,8.69-6.98,12.59-4.65,3.91-9.65,5.86-14.99,5.86-3.12,0-5.76-.81-7.91-2.43-2.02-1.76-3.03-3.98-3.03-6.64,0-4.37,2.31-8.54,6.94-12.5,4.62-3.97,9.64-5.96,15.03-5.96"/><path d="M725.91,118.3c3.12,0,5.73,.78,7.81,2.34,2.08,1.57,3.13,3.81,3.13,6.74,0,4.49-2.33,8.69-6.98,12.59-4.65,3.91-9.65,5.86-14.99,5.86-3.13,0-5.76-.81-7.91-2.44-2.02-1.76-3.03-3.97-3.03-6.64,0-4.36,2.31-8.53,6.94-12.5,4.62-3.97,9.63-5.95,15.03-5.95"/><path d="M822,118.3c3.13,0,5.73,.78,7.81,2.34,2.09,1.57,3.13,3.81,3.13,6.74,0,4.49-2.33,8.69-6.98,12.59-4.65,3.91-9.65,5.86-14.99,5.86-3.12,0-5.76-.81-7.91-2.44-2.02-1.76-3.03-3.97-3.03-6.64,0-4.36,2.32-8.53,6.94-12.5,4.63-3.97,9.64-5.95,15.03-5.95"/><path d="M894.07,130.8c3.12,0,5.73,.78,7.81,2.34,2.09,1.57,3.13,3.81,3.13,6.74,0,4.49-2.33,8.69-6.98,12.59-4.65,3.91-9.65,5.86-14.99,5.86-3.13,0-5.76-.81-7.91-2.44-2.02-1.76-3.03-3.97-3.03-6.64,0-4.36,2.31-8.53,6.94-12.5,4.62-3.96,9.63-5.95,15.03-5.95"/><path d="M894.07,105.8c3.12,0,5.73,.78,7.81,2.34,2.09,1.57,3.13,3.81,3.13,6.74,0,4.49-2.33,8.68-6.98,12.59s-9.65,5.86-14.99,5.86c-3.13,0-5.76-.81-7.91-2.44-2.02-1.76-3.03-3.97-3.03-6.64,0-4.36,2.31-8.53,6.94-12.5,4.62-3.97,9.63-5.95,15.03-5.95"/><path d="M955.89,93.3c3.13,0,5.73,.78,7.81,2.34,2.09,1.56,3.13,3.81,3.13,6.74,0,4.49-2.33,8.68-6.98,12.59-4.65,3.91-9.65,5.86-14.99,5.86-3.13,0-5.76-.81-7.91-2.44-2.02-1.76-3.03-3.97-3.03-6.64,0-4.36,2.31-8.53,6.94-12.5,4.62-3.97,9.63-5.95,15.03-5.95"/><path d="M1079.53,105.8c3.13,0,5.73,.78,7.81,2.34,2.09,1.57,3.13,3.81,3.13,6.74,0,4.49-2.33,8.68-6.98,12.59s-9.65,5.86-14.99,5.86c-3.12,0-5.76-.81-7.91-2.44-2.02-1.76-3.03-3.97-3.03-6.64,0-4.36,2.32-8.53,6.94-12.5,4.63-3.97,9.64-5.95,15.03-5.95"/><path d="M1141.35,93.3c3.13,0,5.73,.78,7.82,2.34,2.08,1.56,3.12,3.81,3.12,6.74,0,4.49-2.32,8.68-6.98,12.59-4.65,3.91-9.64,5.86-14.99,5.86-3.12,0-5.76-.81-7.9-2.44-2.03-1.76-3.04-3.97-3.04-6.64,0-4.36,2.32-8.53,6.94-12.5,4.63-3.97,9.64-5.95,15.03-5.95"/><path d="M1377.68,143.3c3.13,0,5.73,.78,7.82,2.35,2.08,1.56,3.12,3.8,3.12,6.73,0,4.49-2.33,8.69-6.98,12.59-4.65,3.91-9.64,5.86-14.99,5.86-3.12,0-5.76-.81-7.9-2.43-2.03-1.77-3.04-3.98-3.04-6.65,0-4.36,2.32-8.53,6.94-12.5,4.63-3.96,9.64-5.95,15.03-5.95"/><path d="M1552.67,155.8c3.13,0,5.73,.78,7.81,2.35,2.09,1.56,3.13,3.8,3.13,6.73,0,4.49-2.33,8.69-6.98,12.59-4.65,3.91-9.65,5.86-14.99,5.86-3.12,0-5.76-.81-7.91-2.43-2.02-1.76-3.03-3.98-3.03-6.64,0-4.37,2.32-8.54,6.94-12.5,4.63-3.97,9.64-5.96,15.03-5.96"/><path d="M1607.36,155.8c3.12,0,5.72,.78,7.81,2.35,2.08,1.56,3.12,3.8,3.12,6.73,0,4.49-2.32,8.69-6.97,12.59-4.65,3.91-9.65,5.86-15,5.86-3.12,0-5.76-.81-7.9-2.43-2.02-1.76-3.03-3.98-3.03-6.64,0-4.37,2.31-8.54,6.93-12.5,4.63-3.97,9.64-5.96,15.04-5.96"/><path d="M1662.04,118.3c3.12,0,5.73,.78,7.81,2.34,2.09,1.57,3.13,3.81,3.13,6.74,0,4.49-2.33,8.69-6.98,12.59-4.65,3.91-9.65,5.86-14.99,5.86-3.13,0-5.76-.81-7.91-2.44-2.02-1.76-3.03-3.97-3.03-6.64,0-4.36,2.31-8.53,6.94-12.5,4.62-3.97,9.63-5.95,15.03-5.95"/><path d="M1814.94,118.3c3.13,0,5.73,.78,7.81,2.34,2.09,1.57,3.13,3.81,3.13,6.74,0,4.49-2.33,8.69-6.98,12.59-4.65,3.91-9.65,5.86-14.99,5.86-3.13,0-5.76-.81-7.91-2.44-2.02-1.76-3.03-3.97-3.03-6.64,0-4.36,2.31-8.53,6.94-12.5,4.62-3.97,9.63-5.95,15.03-5.95"/><path d="M1887.01,105.8c3.12,0,5.73,.78,7.81,2.34,2.08,1.57,3.13,3.81,3.13,6.74,0,4.49-2.33,8.68-6.98,12.59-4.65,3.91-9.65,5.86-14.99,5.86-3.13,0-5.76-.81-7.91-2.44-2.02-1.76-3.03-3.97-3.03-6.64,0-4.36,2.31-8.53,6.94-12.5,4.62-3.97,9.63-5.95,15.03-5.95"/><path d="M1943.88,93.3c3.13,0,5.73,.78,7.82,2.34,2.08,1.56,3.12,3.81,3.12,6.74,0,4.49-2.32,8.68-6.98,12.59-4.65,3.91-9.64,5.86-14.99,5.86-3.12,0-5.76-.81-7.9-2.44-2.03-1.76-3.04-3.97-3.04-6.64,0-4.36,2.32-8.53,6.94-12.5,4.63-3.97,9.64-5.95,15.03-5.95"/><path d="M2055.44,105.8c3.13,0,5.73,.78,7.81,2.34,2.09,1.57,3.13,3.81,3.13,6.74,0,4.49-2.33,8.68-6.98,12.59-4.65,3.91-9.65,5.86-14.99,5.86-3.12,0-5.76-.81-7.91-2.44-2.02-1.76-3.03-3.97-3.03-6.64,0-4.36,2.32-8.53,6.94-12.5,4.63-3.97,9.64-5.95,15.03-5.95"/><path d="M2110.13,93.3c3.12,0,5.73,.78,7.81,2.34,2.08,1.56,3.12,3.81,3.12,6.74,0,4.49-2.32,8.68-6.97,12.59-4.65,3.91-9.65,5.86-15,5.86-3.12,0-5.76-.81-7.9-2.44-2.02-1.76-3.03-3.97-3.03-6.64,0-4.36,2.31-8.53,6.93-12.5,4.63-3.97,9.64-5.95,15.04-5.95"/><path d="M2197.62,105.8c3.13,0,5.73,.78,7.81,2.34,2.09,1.57,3.13,3.81,3.13,6.74,0,4.49-2.33,8.68-6.98,12.59-4.65,3.91-9.65,5.86-14.99,5.86-3.13,0-5.76-.81-7.91-2.44-2.02-1.76-3.03-3.97-3.03-6.64,0-4.36,2.31-8.53,6.94-12.5,4.62-3.97,9.63-5.95,15.03-5.95"/><path d="M2252.3,118.3c3.13,0,5.73,.78,7.82,2.34,2.08,1.57,3.12,3.81,3.12,6.74,0,4.49-2.32,8.69-6.97,12.59-4.66,3.91-9.65,5.86-15,5.86-3.12,0-5.76-.81-7.9-2.44-2.02-1.76-3.03-3.97-3.03-6.64,0-4.36,2.31-8.53,6.93-12.5,4.63-3.97,9.64-5.95,15.03-5.95"/><path d="M2348.72,118.3c3.13,0,5.73,.78,7.82,2.34,2.08,1.57,3.12,3.81,3.12,6.74,0,4.49-2.32,8.69-6.97,12.59-4.66,3.91-9.65,5.86-15,5.86-3.12,0-5.76-.81-7.9-2.44-2.02-1.76-3.03-3.97-3.03-6.64,0-4.36,2.31-8.53,6.93-12.5,4.63-3.97,9.64-5.95,15.03-5.95"/><path d="M2636.38,68.3c3.13,0,5.73,.78,7.81,2.34,2.09,1.56,3.13,3.81,3.13,6.74,0,4.48-2.33,8.68-6.98,12.59-4.65,3.91-9.65,5.86-14.99,5.86-3.13,0-5.76-.81-7.91-2.44-2.02-1.76-3.03-3.97-3.03-6.64,0-4.36,2.31-8.53,6.94-12.5,4.62-3.97,9.63-5.95,15.03-5.95"/><path d="M2780.9,93.3c3.12,0,5.73,.78,7.81,2.34,2.08,1.56,3.13,3.81,3.13,6.74,0,4.49-2.33,8.68-6.98,12.59-4.65,3.91-9.65,5.86-14.99,5.86-3.13,0-5.76-.81-7.91-2.44-2.02-1.76-3.03-3.97-3.03-6.64,0-4.36,2.31-8.53,6.94-12.5,4.62-3.97,9.63-5.95,15.03-5.95"/><path d="M2960.68,118.3c3.13,0,5.73,.78,7.82,2.34,2.08,1.57,3.12,3.81,3.12,6.74,0,4.49-2.33,8.69-6.98,12.59-4.65,3.91-9.64,5.86-14.99,5.86-3.12,0-5.76-.81-7.9-2.44-2.03-1.76-3.04-3.97-3.04-6.64,0-4.36,2.32-8.53,6.94-12.5,4.63-3.97,9.64-5.95,15.03-5.95"/><path d="M3023.86,118.3c3.13,0,5.73,.78,7.82,2.34,2.08,1.57,3.12,3.81,3.12,6.74,0,4.49-2.32,8.69-6.98,12.59-4.65,3.91-9.64,5.86-14.99,5.86-3.12,0-5.76-.81-7.9-2.44-2.03-1.76-3.04-3.97-3.04-6.64,0-4.36,2.32-8.53,6.94-12.5,4.63-3.97,9.64-5.95,15.03-5.95"/><path d="M3122.36,105.8c3.13,0,5.73,.78,7.81,2.34,2.09,1.57,3.13,3.81,3.13,6.74,0,4.49-2.33,8.68-6.98,12.59-4.65,3.91-9.65,5.86-14.99,5.86-3.12,0-5.76-.81-7.91-2.44-2.02-1.76-3.03-3.97-3.03-6.64,0-4.36,2.32-8.53,6.94-12.5,4.63-3.97,9.64-5.95,15.03-5.95"/><path d="M3182.29,105.8c3.13,0,5.73,.78,7.81,2.34,2.09,1.57,3.13,3.81,3.13,6.74,0,4.49-2.33,8.68-6.98,12.59s-9.65,5.86-14.99,5.86c-3.13,0-5.76-.81-7.91-2.44-2.02-1.76-3.03-3.97-3.03-6.64,0-4.36,2.31-8.53,6.94-12.5,4.62-3.97,9.63-5.95,15.03-5.95"/><path d="M3280.72,130.8c3.13,0,5.73,.78,7.81,2.34,2.09,1.57,3.13,3.81,3.13,6.74,0,4.49-2.33,8.69-6.98,12.59-4.65,3.91-9.65,5.86-14.99,5.86-3.13,0-5.76-.81-7.91-2.44-2.02-1.76-3.03-3.97-3.03-6.64,0-4.36,2.31-8.53,6.94-12.5,4.62-3.96,9.64-5.95,15.03-5.95"/><path d="M3280.72,93.3c3.13,0,5.73,.78,7.81,2.34,2.09,1.56,3.13,3.81,3.13,6.74,0,4.49-2.33,8.68-6.98,12.59-4.65,3.91-9.65,5.86-14.99,5.86-3.13,0-5.76-.81-7.91-2.44-2.02-1.76-3.03-3.97-3.03-6.64,0-4.36,2.31-8.53,6.94-12.5,4.62-3.97,9.64-5.95,15.03-5.95"/><path d="M3439.71,143.3c3.12,0,5.72,.78,7.81,2.35,2.08,1.56,3.12,3.8,3.12,6.73,0,4.49-2.32,8.69-6.97,12.59-4.65,3.91-9.65,5.86-15,5.86-3.12,0-5.76-.81-7.9-2.43-2.02-1.77-3.03-3.98-3.03-6.65,0-4.36,2.31-8.53,6.93-12.5,4.63-3.96,9.64-5.95,15.04-5.95"/><path d="M3519.2,93.3c3.12,0,5.73,.78,7.81,2.34,2.08,1.56,3.13,3.81,3.13,6.74,0,4.49-2.33,8.68-6.98,12.59-4.65,3.91-9.65,5.86-14.99,5.86-3.13,0-5.76-.81-7.91-2.44-2.02-1.76-3.03-3.97-3.03-6.64,0-4.36,2.31-8.53,6.94-12.5,4.62-3.97,9.63-5.95,15.03-5.95"/><path d="M3598.69,105.8c3.13,0,5.73,.78,7.81,2.34,2.09,1.57,3.13,3.81,3.13,6.74,0,4.49-2.33,8.68-6.98,12.59-4.65,3.91-9.65,5.86-14.99,5.86-3.13,0-5.76-.81-7.91-2.44-2.02-1.76-3.03-3.97-3.03-6.64,0-4.36,2.31-8.53,6.94-12.5,4.62-3.97,9.63-5.95,15.03-5.95"/><path d="M3678.18,93.3c3.13,0,5.73,.78,7.81,2.34,2.09,1.56,3.13,3.81,3.13,6.74,0,4.49-2.33,8.68-6.98,12.59-4.65,3.91-9.65,5.86-14.99,5.86-3.12,0-5.76-.81-7.91-2.44-2.02-1.76-3.03-3.97-3.03-6.64,0-4.36,2.32-8.53,6.94-12.5,4.63-3.97,9.64-5.95,15.03-5.95"/><path d="M3727.87,118.3c3.12,0,5.72,.78,7.81,2.34,2.08,1.57,3.12,3.81,3.12,6.74,0,4.49-2.32,8.69-6.97,12.59-4.66,3.91-9.65,5.86-15,5.86-3.12,0-5.76-.81-7.9-2.44-2.02-1.76-3.03-3.97-3.03-6.64,0-4.36,2.31-8.53,6.93-12.5,4.63-3.97,9.64-5.95,15.04-5.95"/><path d="M3799.93,118.3c3.13,0,5.73,.78,7.82,2.34,2.08,1.57,3.12,3.81,3.12,6.74,0,4.49-2.32,8.69-6.98,12.59-4.65,3.91-9.64,5.86-14.99,5.86-3.12,0-5.76-.81-7.9-2.44-2.03-1.76-3.04-3.97-3.04-6.64,0-4.36,2.32-8.53,6.94-12.5,4.63-3.97,9.64-5.95,15.03-5.95"/><path d="M3849.62,130.8c3.12,0,5.72,.78,7.81,2.34,2.08,1.57,3.12,3.81,3.12,6.74,0,4.49-2.32,8.69-6.97,12.59-4.65,3.91-9.65,5.86-15,5.86-3.12,0-5.76-.81-7.9-2.44-2.02-1.76-3.03-3.97-3.03-6.64,0-4.36,2.31-8.53,6.93-12.5,4.63-3.96,9.64-5.95,15.04-5.95"/><path d="M3899.3,118.3c3.12,0,5.73,.78,7.81,2.34,2.08,1.57,3.13,3.81,3.13,6.74,0,4.49-2.33,8.69-6.98,12.59-4.65,3.91-9.65,5.86-14.99,5.86-3.13,0-5.76-.81-7.91-2.44-2.02-1.76-3.03-3.97-3.03-6.64,0-4.36,2.31-8.53,6.94-12.5,4.62-3.97,9.63-5.95,15.03-5.95"/><path d="M4019.74,118.3c3.13,0,5.73,.78,7.82,2.34,2.08,1.57,3.12,3.81,3.12,6.74,0,4.49-2.32,8.69-6.98,12.59-4.65,3.91-9.64,5.86-14.99,5.86-3.12,0-5.76-.81-7.9-2.44-2.02-1.76-3.04-3.97-3.04-6.64,0-4.36,2.32-8.53,6.94-12.5,4.63-3.97,9.64-5.95,15.03-5.95"/><path d="M4211.38,155.8c3.12,0,5.73,.78,7.81,2.35,2.09,1.56,3.13,3.8,3.13,6.73,0,4.49-2.33,8.69-6.98,12.59-4.65,3.91-9.65,5.86-14.99,5.86-3.13,0-5.76-.81-7.91-2.43-2.02-1.76-3.03-3.98-3.03-6.64,0-4.37,2.31-8.54,6.94-12.5,4.62-3.97,9.63-5.96,15.03-5.96"/><path d="M4271.27,155.8c3.12,0,5.73,.78,7.81,2.35,2.08,1.56,3.12,3.8,3.12,6.73,0,4.49-2.32,8.69-6.97,12.59-4.65,3.91-9.65,5.86-15,5.86-3.12,0-5.76-.81-7.9-2.43-2.02-1.76-3.03-3.98-3.03-6.64,0-4.37,2.31-8.54,6.93-12.5,4.63-3.97,9.64-5.96,15.04-5.96"/><path d="M4331.15,118.3c3.13,0,5.73,.78,7.82,2.34,2.08,1.57,3.12,3.81,3.12,6.74,0,4.49-2.33,8.69-6.98,12.59-4.65,3.91-9.64,5.86-14.99,5.86-3.12,0-5.76-.81-7.9-2.44-2.03-1.76-3.04-3.97-3.04-6.64,0-4.36,2.32-8.53,6.94-12.5,4.63-3.97,9.64-5.95,15.03-5.95"/><path d="M4484.05,118.3c3.13,0,5.73,.78,7.82,2.34,2.08,1.57,3.12,3.81,3.12,6.74,0,4.49-2.32,8.69-6.98,12.59-4.65,3.91-9.64,5.86-14.99,5.86-3.12,0-5.76-.81-7.9-2.44-2.02-1.76-3.03-3.97-3.03-6.64,0-4.36,2.31-8.53,6.93-12.5,4.63-3.97,9.64-5.95,15.03-5.95"/><path d="M4556.12,105.8c3.13,0,5.73,.78,7.81,2.34,2.09,1.57,3.13,3.81,3.13,6.74,0,4.49-2.33,8.68-6.98,12.59s-9.65,5.86-14.99,5.86c-3.12,0-5.76-.81-7.91-2.44-2.02-1.76-3.03-3.97-3.03-6.64,0-4.36,2.32-8.53,6.94-12.5,4.63-3.97,9.64-5.95,15.03-5.95"/><path d="M4624.07,93.3c3.13,0,5.73,.78,7.81,2.34,2.09,1.56,3.13,3.81,3.13,6.74,0,4.49-2.33,8.68-6.98,12.59-4.65,3.91-9.65,5.86-14.99,5.86-3.12,0-5.76-.81-7.91-2.44-2.02-1.76-3.03-3.97-3.03-6.64,0-4.36,2.32-8.53,6.94-12.5,4.63-3.97,9.64-5.95,15.03-5.95"/><path d="M4811.44,93.3c3.12,0,5.73,.78,7.81,2.34,2.08,1.56,3.12,3.81,3.12,6.74,0,4.49-2.32,8.68-6.97,12.59s-9.65,5.86-15,5.86c-3.12,0-5.76-.81-7.9-2.44-2.02-1.76-3.03-3.97-3.03-6.64,0-4.36,2.31-8.53,6.93-12.5,4.63-3.97,9.64-5.95,15.04-5.95"/><path d="M5041.57,143.3c3.13,0,5.73,.78,7.82,2.35,2.08,1.56,3.12,3.8,3.12,6.73,0,4.49-2.32,8.69-6.97,12.59-4.66,3.91-9.65,5.86-15,5.86-3.12,0-5.76-.81-7.9-2.43-2.02-1.77-3.03-3.98-3.03-6.65,0-4.36,2.31-8.53,6.93-12.5,4.63-3.96,9.64-5.95,15.03-5.95"/><path d="M5263.38,155.8c3.13,0,5.73,.78,7.81,2.35,2.09,1.56,3.13,3.8,3.13,6.73,0,4.49-2.33,8.69-6.98,12.59-4.65,3.91-9.65,5.86-14.99,5.86-3.12,0-5.76-.81-7.91-2.43-2.02-1.76-3.03-3.98-3.03-6.64,0-4.37,2.32-8.54,6.94-12.5,4.63-3.97,9.64-5.96,15.03-5.96"/><path d="M5327.01,155.8c3.13,0,5.73,.78,7.81,2.35,2.09,1.56,3.13,3.8,3.13,6.73,0,4.49-2.33,8.69-6.98,12.59-4.65,3.91-9.65,5.86-14.99,5.86-3.12,0-5.76-.81-7.91-2.43-2.02-1.76-3.03-3.98-3.03-6.64,0-4.37,2.32-8.54,6.94-12.5,4.63-3.97,9.64-5.96,15.03-5.96"/><path d="M5390.64,118.3c3.13,0,5.73,.78,7.81,2.34,2.09,1.57,3.13,3.81,3.13,6.74,0,4.49-2.33,8.69-6.98,12.59-4.65,3.91-9.65,5.86-14.99,5.86-3.13,0-5.76-.81-7.91-2.44-2.02-1.76-3.03-3.97-3.03-6.64,0-4.36,2.31-8.53,6.94-12.5,4.62-3.97,9.63-5.95,15.03-5.95"/><path d="M5543.54,118.3c3.13,0,5.73,.78,7.81,2.34,2.09,1.57,3.13,3.81,3.13,6.74,0,4.49-2.33,8.69-6.98,12.59-4.65,3.91-9.65,5.86-14.99,5.86-3.12,0-5.76-.81-7.91-2.44-2.02-1.76-3.03-3.97-3.03-6.64,0-4.36,2.32-8.53,6.94-12.5,4.63-3.97,9.64-5.95,15.03-5.95"/><path d="M5615.61,105.8c3.12,0,5.73,.78,7.81,2.34,2.09,1.57,3.13,3.81,3.13,6.74,0,4.49-2.33,8.68-6.98,12.59-4.65,3.91-9.65,5.86-14.99,5.86-3.13,0-5.76-.81-7.91-2.44-2.02-1.76-3.03-3.97-3.03-6.64,0-4.36,2.31-8.53,6.94-12.5,4.62-3.97,9.63-5.95,15.03-5.95"/><path d="M5679.24,93.3c3.12,0,5.73,.78,7.81,2.34,2.09,1.56,3.13,3.81,3.13,6.74,0,4.49-2.33,8.68-6.98,12.59-4.65,3.91-9.65,5.86-14.99,5.86-3.13,0-5.76-.81-7.91-2.44-2.02-1.76-3.03-3.97-3.03-6.64,0-4.36,2.31-8.53,6.94-12.5,4.62-3.97,9.63-5.95,15.03-5.95"/><path d="M5806.5,105.8c3.12,0,5.73,.78,7.81,2.34,2.08,1.57,3.13,3.81,3.13,6.74,0,4.49-2.33,8.68-6.98,12.59s-9.65,5.86-14.99,5.86c-3.13,0-5.76-.81-7.91-2.44-2.02-1.76-3.03-3.97-3.03-6.64,0-4.36,2.31-8.53,6.94-12.5,4.62-3.97,9.63-5.95,15.03-5.95"/><path d="M5870.13,93.3c3.12,0,5.73,.78,7.81,2.34,2.08,1.56,3.13,3.81,3.13,6.74,0,4.49-2.33,8.68-6.98,12.59-4.65,3.91-9.65,5.86-14.99,5.86-3.13,0-5.76-.81-7.91-2.44-2.02-1.76-3.03-3.97-3.03-6.64,0-4.36,2.31-8.53,6.94-12.5,4.62-3.97,9.63-5.95,15.03-5.95"/><path d="M5899.79,80.8c3.13,0,5.73,.78,7.82,2.34,2.08,1.56,3.12,3.81,3.12,6.74,0,4.49-2.32,8.68-6.97,12.59-4.66,3.91-9.65,5.86-15,5.86-3.12,0-5.76-.81-7.9-2.44-2.02-1.76-3.03-3.97-3.03-6.64,0-4.36,2.31-8.53,6.93-12.5,4.63-3.97,9.64-5.95,15.03-5.95"/><path d="M6035.56,118.3c3.13,0,5.73,.78,7.82,2.34,2.08,1.57,3.12,3.81,3.12,6.74,0,4.49-2.32,8.69-6.97,12.59-4.66,3.91-9.65,5.86-15,5.86-3.12,0-5.76-.81-7.9-2.44-2.02-1.76-3.03-3.97-3.03-6.64,0-4.36,2.31-8.53,6.93-12.5,4.63-3.97,9.64-5.95,15.03-5.95"/><path d="M6137.7,118.3c3.12,0,5.73,.78,7.81,2.34,2.08,1.57,3.12,3.81,3.12,6.74,0,4.49-2.32,8.69-6.97,12.59-4.65,3.91-9.65,5.86-14.99,5.86-3.13,0-5.76-.81-7.91-2.44-2.02-1.76-3.03-3.97-3.03-6.64,0-4.36,2.31-8.53,6.94-12.5,4.62-3.97,9.63-5.95,15.03-5.95"/><path d="M6395.55,68.3c3.12,0,5.73,.78,7.81,2.34,2.08,1.56,3.12,3.81,3.12,6.74,0,4.48-2.32,8.68-6.97,12.59-4.65,3.91-9.65,5.86-14.99,5.86-3.13,0-5.76-.81-7.91-2.44-2.02-1.76-3.03-3.97-3.03-6.64,0-4.36,2.31-8.53,6.94-12.5,4.62-3.97,9.63-5.95,15.03-5.95"/><path d="M6535.04,93.3c3.12,0,5.73,.78,7.81,2.34,2.09,1.56,3.13,3.81,3.13,6.74,0,4.49-2.33,8.68-6.98,12.59s-9.65,5.86-14.99,5.86c-3.13,0-5.76-.81-7.91-2.44-2.02-1.76-3.03-3.97-3.03-6.64,0-4.36,2.31-8.53,6.94-12.5,4.62-3.97,9.63-5.95,15.03-5.95"/><path d="M6701.72,118.3c3.13,0,5.73,.78,7.82,2.34,2.08,1.57,3.12,3.81,3.12,6.74,0,4.49-2.32,8.69-6.98,12.59-4.65,3.91-9.64,5.86-14.99,5.86-3.12,0-5.76-.81-7.9-2.44-2.03-1.76-3.04-3.97-3.04-6.64,0-4.36,2.32-8.53,6.94-12.5,4.63-3.97,9.64-5.95,15.03-5.95"/><path d="M6764.9,118.3c3.13,0,5.73,.78,7.82,2.34,2.08,1.57,3.12,3.81,3.12,6.74,0,4.49-2.32,8.69-6.98,12.59-4.65,3.91-9.64,5.86-14.99,5.86-3.12,0-5.76-.81-7.9-2.44-2.02-1.76-3.03-3.97-3.03-6.64,0-4.36,2.31-8.53,6.93-12.5,4.63-3.97,9.64-5.95,15.03-5.95"/><path d="M6863.4,105.8c3.13,0,5.73,.78,7.81,2.34,2.09,1.57,3.13,3.81,3.13,6.74,0,4.49-2.33,8.68-6.98,12.59-4.65,3.91-9.65,5.86-14.99,5.86-3.12,0-5.76-.81-7.91-2.44-2.02-1.76-3.03-3.97-3.03-6.64,0-4.36,2.32-8.53,6.94-12.5,4.63-3.97,9.64-5.95,15.03-5.95"/><path d="M6917.12,105.8c3.13,0,5.73,.78,7.81,2.34,2.09,1.57,3.13,3.81,3.13,6.74,0,4.49-2.33,8.68-6.98,12.59s-9.65,5.86-14.99,5.86c-3.13,0-5.76-.81-7.91-2.44-2.02-1.76-3.03-3.97-3.03-6.64,0-4.36,2.31-8.53,6.94-12.5,4.62-3.97,9.64-5.95,15.03-5.95"/><path d="M7013.54,130.8c3.13,0,5.73,.78,7.81,2.34,2.09,1.57,3.13,3.81,3.13,6.74,0,4.49-2.33,8.69-6.98,12.59-4.65,3.91-9.65,5.86-14.99,5.86-3.13,0-5.76-.81-7.91-2.44-2.02-1.76-3.03-3.97-3.03-6.64,0-4.36,2.31-8.53,6.94-12.5,4.62-3.96,9.64-5.95,15.03-5.95"/><path d="M7013.54,93.3c3.13,0,5.73,.78,7.81,2.34,2.09,1.56,3.13,3.81,3.13,6.74,0,4.49-2.33,8.68-6.98,12.59s-9.65,5.86-14.99,5.86c-3.13,0-5.76-.81-7.91-2.44-2.02-1.76-3.03-3.97-3.03-6.64,0-4.36,2.31-8.53,6.94-12.5,4.62-3.97,9.64-5.95,15.03-5.95"/><path d="M7180.05,143.3c3.12,0,5.73,.78,7.81,2.35,2.08,1.56,3.12,3.8,3.12,6.73,0,4.49-2.32,8.69-6.97,12.59-4.65,3.91-9.65,5.86-14.99,5.86-3.13,0-5.76-.81-7.91-2.43-2.02-1.77-3.03-3.98-3.03-6.65,0-4.36,2.31-8.53,6.94-12.5,4.62-3.96,9.63-5.95,15.03-5.95"/><path d="M7254.41,93.3c3.12,0,5.72,.78,7.81,2.34,2.08,1.56,3.12,3.81,3.12,6.74,0,4.49-2.32,8.68-6.97,12.59s-9.65,5.86-15,5.86c-3.12,0-5.76-.81-7.9-2.44-2.02-1.76-3.03-3.97-3.03-6.64,0-4.36,2.31-8.53,6.93-12.5,4.63-3.97,9.64-5.95,15.04-5.95"/><path d="M7403.12,93.3c3.13,0,5.73,.78,7.81,2.34,2.09,1.56,3.13,3.81,3.13,6.74,0,4.49-2.33,8.68-6.98,12.59s-9.65,5.86-14.99,5.86c-3.12,0-5.76-.81-7.91-2.44-2.02-1.76-3.03-3.97-3.03-6.64,0-4.36,2.32-8.53,6.94-12.5,4.63-3.97,9.64-5.95,15.03-5.95"/><path d="M7449.6,68.3c3.12,0,5.73,.78,7.81,2.34,2.08,1.56,3.12,3.81,3.12,6.74,0,4.48-2.32,8.68-6.97,12.59s-9.65,5.86-14.99,5.86c-3.13,0-5.77-.81-7.91-2.44-2.02-1.76-3.03-3.97-3.03-6.64,0-4.36,2.31-8.53,6.94-12.5,4.62-3.97,9.63-5.95,15.03-5.95"/><path d="M7542.54,93.3c3.13,0,5.73,.78,7.82,2.34,2.08,1.56,3.12,3.81,3.12,6.74,0,4.49-2.32,8.68-6.97,12.59-4.66,3.91-9.65,5.86-15,5.86-3.12,0-5.76-.81-7.9-2.44-2.02-1.76-3.03-3.97-3.03-6.64,0-4.36,2.31-8.53,6.93-12.5,4.63-3.97,9.64-5.95,15.03-5.95"/><path d="M7589.02,93.3c3.12,0,5.73,.78,7.81,2.34,2.08,1.56,3.13,3.81,3.13,6.74,0,4.49-2.33,8.68-6.98,12.59s-9.65,5.86-14.99,5.86c-3.13,0-5.76-.81-7.91-2.44-2.02-1.76-3.03-3.97-3.03-6.64,0-4.36,2.31-8.53,6.94-12.5,4.62-3.97,9.63-5.95,15.03-5.95"/><path d="M124.41,360.69c-.97-.98-1.46-2.18-1.46-3.62s.49-2.63,1.46-3.61c.97-.97,2.18-1.46,3.61-1.46s2.64,.49,3.62,1.46c.98,.98,1.47,2.18,1.47,3.61s-.49,2.64-1.47,3.62c-.98,.98-2.18,1.47-3.62,1.47s-2.64-.49-3.61-1.47m0,25.01c-.97-.98-1.46-2.18-1.46-3.61s.49-2.64,1.46-3.62,2.18-1.47,3.61-1.47,2.64,.49,3.62,1.47c.98,.98,1.47,2.19,1.47,3.62s-.49,2.63-1.47,3.61c-.98,.97-2.18,1.46-3.62,1.46s-2.64-.49-3.61-1.46m-33.88-42.38c8.66,0,15.75,2.17,21.28,6.53,5.34,4.56,8.02,10.75,8.02,18.56,0,4.75-1.01,9.49-3.03,14.21-2.02,4.72-4.66,8.84-7.91,12.35-5.93,6.57-14.02,12.53-24.27,17.87-10.26,5.34-15.92,8.01-16.99,8.01s-1.61-.43-1.61-1.27c0-.32,.13-.61,.39-.87,3.32-1.96,6.97-4.21,10.94-6.75,3.97-2.53,8.01-5.54,12.11-9.03,4.1-3.48,7.28-6.71,9.52-9.67,2.24-2.96,4.31-6.62,6.2-10.98,1.62-4.36,2.44-8.66,2.44-12.9,0-6.31-1.56-11.81-4.69-16.5-3.12-4.69-7.26-7.03-12.39-7.03-3.65,0-6.84,1.22-9.57,3.66-2.73,2.44-4.69,5.42-5.87,8.93,1.24-.52,2.38-.78,3.42-.78,2.73,0,5.07,1.01,7.02,3.03s2.93,4.4,2.93,7.13-.94,5.21-2.83,7.43c-2.02,2.01-4.45,3.02-7.27,3.02s-5.41-1.01-7.76-3.02c-2.22-2.22-3.33-4.73-3.33-7.53,0-6.71,2.26-12.45,6.79-17.23s10.01-7.17,16.46-7.17"/><path d="M109.17,189.19v-2.14c-.06-1.1-.22-2.83-.48-5.17-3.25,.52-6.15,.78-8.69,.78-9.11,0-16.85-3.6-23.2-10.8-6.35-7.19-9.52-15.77-9.52-25.73,0-2.67,.52-5.87,1.56-9.62,1.04-3.74,2-6.25,2.88-7.52,.88-1.27,2.2-3.5,3.96-6.69,.52-.98,2.21-3.13,5.08-6.45,.52-.71,.98-1.29,1.37-1.75,.39-.46,1.02-1.27,1.9-2.45,.88-1.17,1.82-2.26,2.83-3.27,1.01-1.01,1.91-1.99,2.69-2.93,.78-.94,1.5-1.74,2.16-2.38-2.34-7.75-3.78-13.71-4.3-17.88-.52-4.16-.78-9.28-.78-15.33s1.3-11.56,3.91-16.51c2.53-5.14,6.08-9.33,10.64-12.6,.26-.19,.6-.29,1.02-.29s.73,.1,.93,.29c3.51,4.23,6.55,9.73,9.12,16.5,2.57,6.78,3.86,13.11,3.86,19s-1.49,11.58-4.48,17.05c-3.39,5.79-7.75,11.78-13.09,17.97,1.36,4.29,3.19,11.03,5.47,20.2h.59c.26-.06,.48-.09,.67-.09,7.36,0,13.37,2.59,18.02,7.77,4.65,5.17,6.98,11.15,6.98,17.92,0,8.39-3.48,15.16-10.44,20.31-2.02,1.5-4.4,2.67-7.14,3.52,.33,4.22,.5,7.04,.5,8.44s-.07,3.89-.2,7.48c-.06,6.11-2.15,11.35-6.25,15.72-4.1,4.36-8.79,6.54-14.06,6.54s-9.76-1.87-13.48-5.61c-3.71-3.75-5.57-8.29-5.57-13.62,0-2.8,1.08-5.18,3.23-7.14,2.21-1.95,4.7-2.92,7.46-2.92s5.03,1.01,6.79,3.03c1.82,1.88,2.73,4.16,2.73,6.83s-.91,4.91-2.73,6.73c-1.82,1.82-4.01,2.73-6.55,2.73-1.04,0-2.05-.19-3.02-.57,2.86,4.23,6.54,6.34,11.03,6.34s8.33-1.85,11.52-5.56c3.19-3.71,4.79-8.08,4.79-13.1l.28-7.03m3.12-12.29c3.39-1.24,6.07-3.44,8.06-6.6,1.99-3.15,2.98-6.3,2.98-9.42,0-4.63-1.6-8.76-4.79-12.41-3.19-3.64-7.23-5.69-12.12-6.15,2.8,13.74,4.76,25.26,5.86,34.58m-37.78-22.57c0,6.45,2.57,12.08,7.71,16.9,5.14,4.82,11.16,7.23,18.07,7.23,2.73,0,5.4-.2,8-.6-1.04-9.89-3.09-21.74-6.16-35.54-3.83,.39-6.81,1.71-8.93,3.96-2.12,2.24-3.18,4.8-3.18,7.66,0,4.95,2.64,8.96,7.92,12.02,.45,.26,.67,.7,.67,1.32s-.21,1.15-.63,1.61c-.42,.45-.79,.68-1.12,.68s-.74-.07-1.27-.19c-7.62-4.17-11.44-10.45-11.44-18.86,0-3.97,1.4-7.78,4.2-11.42,2.93-3.65,6.73-5.99,11.42-7.03-1.82-7.29-3.32-12.99-4.48-17.1-8.92,10.03-14.45,17.46-16.61,22.27-2.79,6.25-4.19,11.95-4.19,17.09M107.12,55.02c-4.89,2.41-8.74,5.89-11.57,10.45-2.83,4.55-4.24,9.34-4.24,14.35s1.17,11.49,3.52,19.43c4.69-5.66,8.23-10.97,10.64-15.92,2.41-4.95,3.61-9.84,3.61-14.69s-.65-9.39-1.95-13.62"/><path d="M280.63,410.12c1.44-.4,2.16-.05,2.16,1.06v7.81c0,.78-.62,1.4-1.86,1.86l-3.22,1.27v14.17l2.92-1.17c1.44-.4,2.16-.04,2.16,1.07v7.82c0,.78-.62,1.39-1.86,1.84l-3.22,1.28v16.2c0,1.24-.49,1.86-1.47,1.86s-1.47-.62-1.47-1.86v-15.03l-9.28,3.71v16.11c0,1.24-.49,1.86-1.46,1.86s-1.46-.62-1.46-1.86v-14.94l-2.55,1.08c-1.36,.58-2.05,.19-2.05-1.18v-7.71c0-.65,.59-1.23,1.77-1.75l2.83-1.18v-14.26l-2.55,1.08c-1.36,.58-2.05,.19-2.05-1.18v-7.71c0-.66,.59-1.25,1.77-1.77l2.83-1.17v-16.11c0-1.24,.49-1.86,1.46-1.86s1.46,.62,1.46,1.86v14.94l9.28-3.8v-15.92c0-1.24,.49-1.86,1.47-1.86s1.47,.62,1.47,1.86v14.75l2.92-1.17m-15.14,16.89v14.26l9.28-3.81v-14.17l-9.28,3.72"/><path d="M255.62,372.61c1.44-.39,2.16-.04,2.16,1.07v7.81c0,.78-.62,1.4-1.86,1.86l-3.22,1.26v14.18l2.92-1.18c1.44-.39,2.16-.03,2.16,1.08v7.81c0,.79-.62,1.4-1.86,1.85l-3.22,1.28v16.2c0,1.24-.49,1.86-1.47,1.86s-1.47-.62-1.47-1.86v-15.03l-9.28,3.7v16.11c0,1.24-.49,1.86-1.46,1.86s-1.46-.62-1.46-1.86v-14.93l-2.55,1.07c-1.36,.59-2.05,.2-2.05-1.17v-7.72c0-.64,.59-1.23,1.77-1.75l2.83-1.17v-14.26l-2.55,1.07c-1.36,.59-2.05,.2-2.05-1.17v-7.72c0-.65,.59-1.24,1.77-1.76l2.83-1.17v-16.11c0-1.24,.49-1.86,1.46-1.86s1.46,.62,1.46,1.86v14.93l9.28-3.79v-15.92c0-1.24,.49-1.86,1.47-1.86s1.47,.62,1.47,1.86v14.75l2.92-1.18m-15.14,16.89v14.27l9.28-3.81v-14.17l-9.28,3.71"/><path d="M230.62,335.11c1.44-.39,2.16-.04,2.16,1.06v7.82c0,.78-.62,1.4-1.86,1.86l-3.22,1.26v14.17l2.92-1.17c1.44-.39,2.16-.04,2.16,1.08v7.81c0,.78-.62,1.4-1.86,1.85l-3.22,1.28v16.2c0,1.24-.49,1.86-1.47,1.86s-1.47-.62-1.47-1.86v-15.03l-9.28,3.7v16.11c0,1.24-.49,1.86-1.46,1.86s-1.46-.62-1.46-1.86v-14.94l-2.55,1.08c-1.36,.59-2.05,.19-2.05-1.17v-7.72c0-.64,.59-1.23,1.77-1.75l2.83-1.17v-14.27l-2.55,1.08c-1.36,.59-2.05,.19-2.05-1.17v-7.72c0-.66,.59-1.24,1.77-1.76l2.83-1.18v-16.11c0-1.24,.49-1.86,1.46-1.86s1.46,.62,1.46,1.86v14.94l9.28-3.8v-15.92c0-1.24,.49-1.86,1.47-1.86s1.47,.62,1.47,1.86v14.75l2.92-1.17m-15.14,16.89v14.27l9.28-3.82v-14.17l-9.28,3.72"/><path d="M205.62,385.11c1.44-.39,2.16-.04,2.16,1.07v7.81c0,.78-.62,1.4-1.86,1.86l-3.22,1.26v14.18l2.92-1.18c1.44-.39,2.16-.03,2.16,1.08v7.81c0,.79-.62,1.4-1.86,1.85l-3.22,1.28v16.2c0,1.24-.49,1.86-1.47,1.86s-1.47-.62-1.47-1.86v-15.03l-9.28,3.7v16.11c0,1.24-.49,1.86-1.46,1.86s-1.46-.62-1.46-1.86v-14.93l-2.55,1.07c-1.36,.59-2.05,.2-2.05-1.17v-7.72c0-.64,.59-1.22,1.77-1.75l2.83-1.17v-14.26l-2.55,1.07c-1.36,.59-2.05,.2-2.05-1.17v-7.72c0-.65,.59-1.24,1.77-1.76l2.83-1.17v-16.11c0-1.24,.49-1.86,1.46-1.86s1.46,.62,1.46,1.86v14.93l9.28-3.79v-15.92c0-1.24,.49-1.86,1.47-1.86s1.47,.62,1.47,1.86v14.75l2.92-1.18m-15.14,16.89v14.27l9.28-3.81v-14.17l-9.28,3.71"/><path d="M180.62,347.61c1.44-.39,2.16-.04,2.16,1.06v7.82c0,.78-.62,1.4-1.86,1.86l-3.22,1.26v14.17l2.92-1.17c1.44-.39,2.16-.03,2.16,1.08v7.81c0,.78-.62,1.4-1.86,1.85l-3.22,1.28v16.2c0,1.24-.49,1.86-1.47,1.86s-1.47-.62-1.47-1.86v-15.03l-9.28,3.7v16.11c0,1.24-.49,1.86-1.46,1.86s-1.46-.62-1.46-1.86v-14.94l-2.55,1.08c-1.36,.59-2.05,.2-2.05-1.17v-7.72c0-.64,.59-1.23,1.77-1.75l2.83-1.17v-14.27l-2.55,1.08c-1.36,.59-2.05,.2-2.05-1.17v-7.72c0-.65,.59-1.24,1.77-1.76l2.83-1.18v-16.1c0-1.24,.49-1.86,1.46-1.86s1.46,.62,1.46,1.86v14.93l9.28-3.79v-15.93c0-1.24,.49-1.86,1.47-1.86s1.47,.62,1.47,1.86v14.75l2.92-1.17m-15.14,16.89v14.27l9.28-3.81v-14.18l-9.28,3.72"/><path d="M280.63,122.6c1.44-.4,2.16-.04,2.16,1.06v7.81c0,.78-.62,1.4-1.86,1.86l-3.22,1.27v14.17l2.92-1.17c1.44-.4,2.16-.04,2.16,1.08v7.81c0,.78-.62,1.39-1.86,1.84l-3.22,1.28v16.21c0,1.24-.49,1.86-1.47,1.86s-1.47-.62-1.47-1.86v-15.03l-9.28,3.7v16.11c0,1.24-.49,1.86-1.46,1.86s-1.46-.62-1.46-1.86v-14.94l-2.55,1.08c-1.36,.58-2.05,.19-2.05-1.17v-7.72c0-.65,.59-1.23,1.77-1.75l2.83-1.17v-14.27l-2.55,1.08c-1.36,.58-2.05,.19-2.05-1.17v-7.72c0-.66,.59-1.25,1.77-1.77l2.83-1.17v-16.11c0-1.24,.49-1.86,1.46-1.86s1.46,.62,1.46,1.86v14.94l9.28-3.8v-15.92c0-1.24,.49-1.86,1.47-1.86s1.47,.62,1.47,1.86v14.75l2.92-1.17m-15.14,16.89v14.26l9.28-3.81v-14.17l-9.28,3.72"/><path d="M255.62,85.1c1.44-.4,2.16-.05,2.16,1.06v7.81c0,.78-.62,1.4-1.86,1.86l-3.22,1.27v14.17l2.92-1.17c1.44-.4,2.16-.04,2.16,1.07v7.82c0,.78-.62,1.39-1.86,1.84l-3.22,1.28v16.2c0,1.24-.49,1.86-1.47,1.86s-1.47-.62-1.47-1.86v-15.03l-9.28,3.71v16.11c0,1.23-.49,1.85-1.46,1.85s-1.46-.62-1.46-1.85v-14.94l-2.55,1.08c-1.36,.58-2.05,.19-2.05-1.18v-7.71c0-.65,.59-1.23,1.77-1.75l2.83-1.18v-14.26l-2.55,1.08c-1.36,.58-2.05,.19-2.05-1.18v-7.71c0-.66,.59-1.25,1.77-1.77l2.83-1.17v-16.11c0-1.24,.49-1.86,1.46-1.86s1.46,.62,1.46,1.86v14.94l9.28-3.8v-15.92c0-1.24,.49-1.86,1.47-1.86s1.47,.62,1.47,1.86v14.75l2.92-1.17m-15.14,16.89v14.26l9.28-3.81v-14.17l-9.28,3.72"/><path d="M230.62,47.59c1.44-.39,2.16-.04,2.16,1.07v7.81c0,.78-.62,1.4-1.86,1.86l-3.22,1.26v14.17l2.92-1.17c1.44-.39,2.16-.03,2.16,1.08v7.81c0,.78-.62,1.4-1.86,1.85l-3.22,1.28v16.2c0,1.24-.49,1.86-1.47,1.86s-1.47-.62-1.47-1.86v-15.03l-9.28,3.7v16.11c0,1.24-.49,1.86-1.46,1.86s-1.46-.62-1.46-1.86v-14.93l-2.55,1.07c-1.36,.59-2.05,.2-2.05-1.17v-7.72c0-.64,.59-1.23,1.77-1.75l2.83-1.17v-14.26l-2.55,1.07c-1.36,.59-2.05,.2-2.05-1.17v-7.72c0-.65,.59-1.24,1.77-1.76l2.83-1.17v-16.11c0-1.24,.49-1.86,1.46-1.86s1.46,.62,1.46,1.86v14.93l9.28-3.79v-15.93c0-1.23,.49-1.85,1.47-1.85s1.47,.62,1.47,1.85v14.75l2.92-1.17m-15.14,16.89v14.27l9.28-3.81v-14.18l-9.28,3.72"/><path d="M205.62,97.6c1.44-.4,2.16-.05,2.16,1.06v7.81c0,.78-.62,1.4-1.86,1.86l-3.22,1.27v14.17l2.92-1.17c1.44-.4,2.16-.04,2.16,1.07v7.82c0,.78-.62,1.39-1.86,1.84l-3.22,1.28v16.2c0,1.24-.49,1.86-1.47,1.86s-1.47-.62-1.47-1.86v-15.03l-9.28,3.71v16.11c0,1.24-.49,1.86-1.46,1.86s-1.46-.62-1.46-1.86v-14.94l-2.55,1.08c-1.36,.58-2.05,.19-2.05-1.18v-7.71c0-.65,.59-1.23,1.77-1.75l2.83-1.18v-14.26l-2.55,1.08c-1.36,.58-2.05,.19-2.05-1.18v-7.71c0-.66,.59-1.25,1.77-1.77l2.83-1.17v-16.11c0-1.24,.49-1.86,1.46-1.86s1.46,.62,1.46,1.86v14.94l9.28-3.8v-15.92c0-1.24,.49-1.86,1.47-1.86s1.47,.62,1.47,1.86v14.75l2.92-1.17m-15.14,16.89v14.26l9.28-3.81v-14.17l-9.28,3.72"/><path d="M180.62,60.09c1.44-.39,2.16-.04,2.16,1.07v7.81c0,.78-.62,1.4-1.86,1.86l-3.22,1.26v14.18l2.92-1.18c1.44-.39,2.16-.03,2.16,1.08v7.81c0,.79-.62,1.4-1.86,1.85l-3.22,1.28v16.2c0,1.24-.49,1.86-1.47,1.86s-1.47-.62-1.47-1.86v-15.03l-9.28,3.7v16.11c0,1.24-.49,1.86-1.46,1.86s-1.46-.62-1.46-1.86v-14.93l-2.55,1.07c-1.36,.59-2.05,.2-2.05-1.17v-7.72c0-.64,.59-1.23,1.77-1.75l2.83-1.17v-14.26l-2.55,1.07c-1.36,.59-2.05,.2-2.05-1.17v-7.72c0-.65,.59-1.24,1.77-1.76l2.83-1.17v-16.11c0-1.24,.49-1.86,1.46-1.86s1.46,.62,1.46,1.86v14.93l9.28-3.79v-15.92c0-1.24,.49-1.86,1.47-1.86s1.47,.62,1.47,1.86v14.75l2.92-1.18m-15.14,16.89v14.27l9.28-3.81v-14.17l-9.28,3.71"/><path d="M330.84,345.76c1.49,0,2.93-.23,4.3-.68,1.37-.45,2.35-.68,2.93-.68s.97,.36,1.17,1.06c0,.08-.07,.27-.2,.6l-28.41,33.01h16.69v-13.09c0-1.63,.95-2.8,2.84-3.52,1.95-.72,4.16-3.61,6.64-8.68,.19-.4,.48-.6,.88-.6,.78,0,1.23,.46,1.36,1.38v24.51h7.14c.91,0,1.39,.49,1.46,1.46,.07,.98-.42,1.46-1.46,1.46h-7.14v.79c0,2.6,.65,4.81,1.95,6.64,1.5,1.82,3.26,2.73,5.28,2.73,.78,0,1.17,.39,1.17,1.17s-.54,1.17-1.61,1.17-3.08-.21-6.01-.63c-2.93-.42-5.2-.63-6.79-.63s-3.81,.21-6.64,.63c-2.83,.42-4.96,.63-6.39,.63-.78,0-1.17-.39-1.17-1.17s.39-1.17,1.17-1.17c2.01,0,3.77-.91,5.27-2.73,1.36-1.89,2.05-4.1,2.05-6.64v-.79h-16.69c-.85,0-1.59-.22-2.21-.68-.62-.45-.93-.87-.93-1.26s.82-1.56,2.45-3.52c1.63-1.95,3.96-5.71,6.98-11.28s4.54-11.96,4.54-19.19c0-1.04,.46-1.57,1.38-1.57,.2,0,.51,.07,.93,.2,.42,.13,1.33,.34,2.73,.63,1.4,.29,2.85,.44,4.34,.44"/><path d="M330.84,395.94c1.49,0,2.93-.23,4.3-.68,1.37-.46,2.35-.68,2.93-.68s.97,.35,1.17,1.06c0,.07-.07,.27-.2,.59l-28.41,33.02h16.69v-13.1c0-1.62,.95-2.79,2.84-3.51,1.95-.72,4.16-3.62,6.64-8.69,.19-.39,.48-.59,.88-.59,.78,0,1.23,.46,1.36,1.37v24.52h7.14c.91,0,1.39,.48,1.46,1.46,.07,.97-.42,1.46-1.46,1.46h-7.14v.78c0,2.61,.65,4.82,1.95,6.64,1.5,1.82,3.26,2.74,5.28,2.74,.78,0,1.17,.39,1.17,1.17s-.54,1.17-1.61,1.17-3.08-.21-6.01-.63c-2.93-.42-5.2-.64-6.79-.64s-3.81,.22-6.64,.64c-2.83,.42-4.96,.63-6.39,.63-.78,0-1.17-.39-1.17-1.17s.39-1.17,1.17-1.17c2.01,0,3.77-.92,5.27-2.74,1.36-1.88,2.05-4.1,2.05-6.64v-.78h-16.69c-.85,0-1.59-.23-2.21-.68s-.93-.87-.93-1.27,.82-1.56,2.45-3.51,3.96-5.71,6.98-11.28,4.54-11.97,4.54-19.2c0-1.04,.46-1.56,1.38-1.56,.2,0,.51,.06,.93,.2,.42,.13,1.33,.34,2.73,.63s2.85,.44,4.34,.44"/><path d="M330.84,83.24c1.49,0,2.93-.22,4.3-.68,1.37-.45,2.35-.68,2.93-.68s.97,.36,1.17,1.07c0,.07-.07,.27-.2,.59l-28.41,33.02h16.69v-13.1c0-1.62,.95-2.79,2.84-3.51,1.95-.72,4.16-3.62,6.64-8.69,.19-.4,.48-.59,.88-.59,.78,0,1.23,.45,1.36,1.37v24.52h7.14c.91,0,1.39,.48,1.46,1.46,.07,.97-.42,1.46-1.46,1.46h-7.14v.78c0,2.6,.65,4.82,1.95,6.64,1.5,1.82,3.26,2.73,5.28,2.73,.78,0,1.17,.4,1.17,1.18s-.54,1.17-1.61,1.17-3.08-.21-6.01-.63c-2.93-.43-5.2-.64-6.79-.64s-3.81,.21-6.64,.64c-2.83,.42-4.96,.63-6.39,.63-.78,0-1.17-.39-1.17-1.17s.39-1.18,1.17-1.18c2.01,0,3.77-.91,5.27-2.73,1.36-1.89,2.05-4.1,2.05-6.64v-.78h-16.69c-.85,0-1.59-.23-2.21-.68-.62-.45-.93-.88-.93-1.27s.82-1.56,2.45-3.51c1.63-1.96,3.96-5.72,6.98-11.28,3.03-5.57,4.54-11.97,4.54-19.2,0-1.04,.46-1.56,1.38-1.56,.2,0,.51,.06,.93,.19s1.33,.34,2.73,.64c1.4,.29,2.85,.43,4.34,.43"/><path d="M330.84,133.42c1.49,0,2.93-.23,4.3-.68,1.37-.45,2.35-.68,2.93-.68s.97,.35,1.17,1.06c0,.07-.07,.27-.2,.6l-28.41,33.01h16.69v-13.09c0-1.63,.95-2.8,2.84-3.52,1.95-.72,4.16-3.61,6.64-8.69,.19-.39,.48-.59,.88-.59,.78,0,1.23,.46,1.36,1.38v24.51h7.14c.91,0,1.39,.49,1.46,1.46,.07,.98-.42,1.46-1.46,1.46h-7.14v.78c0,2.61,.65,4.82,1.95,6.65,1.5,1.82,3.26,2.73,5.28,2.73,.78,0,1.17,.39,1.17,1.17s-.54,1.17-1.61,1.17-3.08-.21-6.01-.63c-2.93-.42-5.2-.63-6.79-.63s-3.81,.21-6.64,.63c-2.83,.42-4.96,.63-6.39,.63-.78,0-1.17-.39-1.17-1.17s.39-1.17,1.17-1.17c2.01,0,3.77-.91,5.27-2.73,1.36-1.89,2.05-4.1,2.05-6.65v-.78h-16.69c-.85,0-1.59-.22-2.21-.68-.62-.45-.93-.87-.93-1.26s.82-1.56,2.45-3.52c1.63-1.95,3.96-5.71,6.98-11.28,3.03-5.57,4.54-11.97,4.54-19.19,0-1.05,.46-1.57,1.38-1.57,.2,0,.51,.07,.93,.2s1.33,.34,2.73,.63,2.85,.44,4.34,.44"/><path d="M891.05,386.96c-4.16,1.5-7.55,2.25-10.15,2.25s-4.77-.73-6.5-2.2c-1.73-1.46-2.6-3.28-2.6-5.47s.72-3.97,2.15-5.37c1.43-1.4,3.13-2.1,5.08-2.1s3.42,.55,4.4,1.66,1.52,2.17,1.62,3.18c.09,1.01,.4,2.13,.93,3.36,.58,1.04,1.28,1.56,2.09,1.56s1.9-.76,3.27-2.29c1.37-1.52,2.28-2.73,2.74-3.61,.45-.88,1-1.3,1.65-1.27,.65,.03,1.11,.34,1.37,.92l-12.3,42c-.65,.66-1.57,.99-2.74,.99s-2.08-.33-2.73-.99l11.72-32.62"/><path d="M1883.99,386.96c-4.16,1.5-7.55,2.25-10.15,2.25s-4.77-.73-6.5-2.2c-1.73-1.46-2.6-3.28-2.6-5.47s.72-3.97,2.15-5.37c1.43-1.4,3.13-2.1,5.08-2.1s3.42,.55,4.4,1.66,1.52,2.17,1.62,3.18c.09,1.01,.4,2.13,.92,3.36,.59,1.04,1.29,1.56,2.1,1.56s1.9-.76,3.27-2.29c1.37-1.52,2.28-2.73,2.74-3.61,.45-.88,1-1.3,1.65-1.27,.65,.03,1.11,.34,1.37,.92l-12.3,42c-.65,.66-1.57,.99-2.74,.99s-2.08-.33-2.73-.99l11.72-32.62"/><path d="M2345.71,386.96c-4.17,1.5-7.55,2.25-10.16,2.25s-4.77-.73-6.5-2.2c-1.73-1.46-2.59-3.28-2.59-5.47s.71-3.97,2.15-5.37c1.43-1.4,3.12-2.1,5.08-2.1s3.41,.55,4.39,1.66,1.52,2.17,1.62,3.18c.1,1.01,.41,2.13,.93,3.36,.58,1.04,1.28,1.56,2.09,1.56s1.91-.76,3.28-2.29c1.37-1.52,2.28-2.73,2.73-3.61,.46-.88,1.01-1.3,1.66-1.27,.65,.03,1.11,.34,1.37,.92l-12.3,42c-.66,.66-1.57,.99-2.74,.99s-2.08-.33-2.73-.99l11.72-32.62"/><path d="M3796.92,386.96c-4.17,1.5-7.55,2.25-10.16,2.25s-4.77-.73-6.5-2.2c-1.73-1.46-2.59-3.28-2.59-5.47s.71-3.97,2.15-5.37c1.43-1.4,3.12-2.1,5.07-2.1s3.42,.55,4.4,1.66,1.52,2.17,1.62,3.18,.41,2.13,.93,3.36c.58,1.04,1.28,1.56,2.09,1.56s1.91-.76,3.28-2.29c1.37-1.52,2.28-2.73,2.73-3.61,.45-.88,1.01-1.3,1.66-1.27s1.1,.34,1.36,.92l-12.29,42c-.66,.66-1.57,.99-2.74,.99s-2.09-.33-2.73-.99l11.72-32.62"/><path d="M4553.11,386.96c-4.17,1.5-7.56,2.25-10.16,2.25s-4.77-.73-6.5-2.2c-1.73-1.46-2.59-3.28-2.59-5.47s.71-3.97,2.14-5.37c1.44-1.4,3.13-2.1,5.08-2.1s3.42,.55,4.4,1.66,1.52,2.17,1.62,3.18,.41,2.13,.93,3.36c.58,1.04,1.28,1.56,2.09,1.56s1.91-.76,3.28-2.29c1.36-1.52,2.28-2.73,2.73-3.61,.45-.88,1-1.3,1.66-1.27,.65,.03,1.1,.34,1.36,.92l-12.29,42c-.66,.66-1.57,.99-2.75,.99s-2.08-.33-2.72-.99l11.72-32.62"/><path d="M7177.03,386.96c-4.17,1.5-7.55,2.25-10.16,2.25s-4.77-.73-6.5-2.2c-1.72-1.46-2.59-3.28-2.59-5.47s.72-3.97,2.15-5.37c1.43-1.4,3.12-2.1,5.08-2.1s3.42,.55,4.4,1.66,1.51,2.17,1.61,3.18,.41,2.13,.93,3.36c.59,1.04,1.28,1.56,2.1,1.56s1.9-.76,3.27-2.29c1.37-1.52,2.28-2.73,2.73-3.61,.46-.88,1.01-1.3,1.66-1.27s1.11,.34,1.37,.92l-12.3,42c-.66,.66-1.57,.99-2.74,.99s-2.08-.33-2.73-.99l11.72-32.62"/><path d="M7493.06,386.96c-4.17,1.5-7.56,2.25-10.16,2.25s-4.77-.73-6.5-2.2c-1.73-1.46-2.59-3.28-2.59-5.47s.71-3.97,2.14-5.37c1.44-1.4,3.13-2.1,5.08-2.1s3.42,.55,4.4,1.66,1.52,2.17,1.62,3.18c.1,1.01,.41,2.13,.93,3.36,.58,1.04,1.28,1.56,2.09,1.56s1.9-.76,3.27-2.29c1.37-1.52,2.29-2.73,2.74-3.61,.45-.88,1-1.3,1.65-1.27,.66,.03,1.11,.34,1.37,.92l-12.29,42c-.66,.66-1.58,.99-2.75,.99s-2.08-.33-2.72-.99l11.72-32.62"/><path d="M623.98,74.44c-4.17,1.5-7.55,2.25-10.16,2.25s-4.77-.73-6.5-2.2c-1.73-1.46-2.59-3.28-2.59-5.47s.72-3.97,2.15-5.37c1.43-1.4,3.12-2.1,5.08-2.1s3.42,.55,4.4,1.66,1.52,2.17,1.62,3.18,.41,2.13,.93,3.36c.58,1.04,1.28,1.56,2.09,1.56s1.9-.76,3.27-2.29c1.37-1.52,2.28-2.73,2.73-3.61,.45-.88,1.01-1.3,1.66-1.27,.65,.03,1.11,.34,1.37,.92l-12.3,42c-.66,.66-1.57,.99-2.74,.99s-2.08-.33-2.73-.99l11.72-32.62"/><path d="M2441.59,124.44c-4.16,1.5-7.55,2.25-10.15,2.25s-4.77-.73-6.5-2.19c-1.73-1.47-2.6-3.29-2.6-5.47s.72-3.98,2.15-5.38c1.43-1.4,3.13-2.1,5.08-2.1s3.42,.55,4.4,1.66,1.52,2.17,1.62,3.18c.1,1.01,.41,2.13,.93,3.36,.58,1.04,1.28,1.57,2.09,1.57s1.9-.77,3.27-2.29c1.37-1.53,2.28-2.73,2.74-3.61,.45-.88,1-1.31,1.65-1.28,.65,.04,1.11,.34,1.37,.93l-12.3,42c-.65,.65-1.57,.98-2.74,.98s-2.08-.33-2.72-.98l11.71-32.63"/><path d="M2537.48,124.44c-4.17,1.5-7.55,2.25-10.16,2.25s-4.77-.73-6.5-2.19c-1.73-1.47-2.59-3.29-2.59-5.47s.72-3.98,2.15-5.38c1.43-1.4,3.12-2.1,5.08-2.1s3.42,.55,4.39,1.66c.98,1.11,1.52,2.17,1.62,3.18,.1,1.01,.41,2.13,.93,3.36,.58,1.04,1.28,1.57,2.1,1.57s1.9-.77,3.27-2.29c1.37-1.53,2.28-2.73,2.73-3.61,.46-.88,1.01-1.31,1.66-1.28,.65,.04,1.11,.34,1.37,.93l-12.3,42c-.66,.65-1.57,.98-2.74,.98s-2.08-.33-2.73-.98l11.72-32.63"/><path d="M6220.63,74.44c-4.17,1.5-7.55,2.25-10.16,2.25s-4.77-.73-6.5-2.2c-1.72-1.46-2.59-3.28-2.59-5.47s.72-3.97,2.15-5.37c1.43-1.4,3.12-2.1,5.08-2.1s3.42,.55,4.4,1.66c.98,1.11,1.51,2.17,1.61,3.18s.41,2.13,.93,3.36c.59,1.04,1.28,1.56,2.1,1.56s1.9-.76,3.27-2.29c1.37-1.52,2.28-2.73,2.73-3.61,.46-.88,1.01-1.3,1.66-1.27,.65,.03,1.11,.34,1.37,.92l-12.3,42c-.66,.66-1.57,.99-2.74,.99s-2.08-.33-2.73-.99l11.72-32.62"/><path d="M6306.58,124.44c-4.17,1.5-7.55,2.25-10.16,2.25s-4.77-.73-6.5-2.19c-1.72-1.47-2.59-3.29-2.59-5.47s.72-3.98,2.15-5.38c1.43-1.4,3.12-2.1,5.08-2.1s3.42,.55,4.4,1.66,1.51,2.17,1.61,3.18c.1,1.01,.41,2.13,.93,3.36,.59,1.04,1.28,1.57,2.1,1.57s1.9-.77,3.27-2.29c1.37-1.53,2.28-2.73,2.73-3.61,.46-.88,1.01-1.31,1.66-1.28,.65,.04,1.11,.34,1.37,.93l-12.3,42c-.66,.65-1.57,.98-2.74,.98s-2.08-.33-2.73-.98l11.72-32.63"/><path d="M7325.75,74.44c-4.17,1.5-7.55,2.25-10.16,2.25s-4.77-.73-6.5-2.2c-1.73-1.46-2.59-3.28-2.59-5.47s.71-3.97,2.15-5.37c1.43-1.4,3.12-2.1,5.07-2.1s3.42,.55,4.4,1.66,1.52,2.17,1.62,3.18c.1,1.01,.41,2.13,.93,3.36,.58,1.04,1.28,1.56,2.09,1.56s1.91-.76,3.28-2.29c1.37-1.52,2.28-2.73,2.73-3.61,.45-.88,1.01-1.3,1.66-1.27,.65,.03,1.1,.34,1.37,.92l-12.3,42c-.66,.66-1.57,.99-2.74,.99s-2.08-.33-2.73-.99l11.72-32.62"/><path d="M7498.41,124.44c-4.16,1.5-7.53,2.25-10.1,2.25s-4.71-.73-6.44-2.19c-1.73-1.47-2.6-3.29-2.6-5.47s.72-3.98,2.15-5.38c1.43-1.4,3.15-2.1,5.14-2.1s3.42,.54,4.29,1.62c.88,1.08,1.38,2.04,1.51,2.88,.13,.84,.44,1.93,.93,3.27,.49,1.33,1.16,2,2.01,2s1.95-.83,3.32-2.49c1.36-1.65,2.24-2.86,2.63-3.61s.9-1.11,1.52-1.08c.62,.04,1.06,.34,1.32,.93l-17.88,67c-.64,.65-1.55,.98-2.73,.98s-2.08-.33-2.74-.98l10.07-32.72c-4.37,1.56-7.82,2.34-10.36,2.34s-4.67-.73-6.39-2.19c-1.73-1.47-2.6-3.29-2.6-5.47s.7-3.97,2.1-5.37c1.4-1.4,3.1-2.09,5.08-2.09s3.43,.53,4.34,1.61c.92,1.07,1.47,2.22,1.67,3.46,.52,3.13,1.56,4.69,3.12,4.69,.79,0,1.89-.91,3.33-2.73,1.49-1.7,2.4-3.04,2.74-4.02l4.57-15.14"/><path class="cls-7" d="M2788.59,269.57h344.72v12.51h-344.72v-12.51"/><path class="cls-7" d="M6513.07,463.34h331.61v12.5h-331.61v-12.5"/><path class="cls-7" d="M2818.86,194.54l63.18,6.59v12.56l-63.18-6.59v-12.56"/><path class="cls-7" d="M2818.86,175.78l33,3.45v12.57l-33-3.45v-12.57"/><path class="cls-7" d="M4534.15,219.54l194.83-19.07v12.56l-194.83,19.07v-12.56"/><path class="cls-7" d="M4728.98,181.72l-33,3.23v12.56l33-3.23v-12.56"/><path class="cls-7" d="M733.61,50.81h99.34v12.5h-99.34v-12.5"/><path class="cls-7" d="M733.61,69.56h99.34v12.5h-99.34v-12.5"/><path class="cls-7" d="M901.77,25.81h188.71v12.5h-188.71v-12.5"/><path class="cls-7" d="M901.77,44.56h33v12.5h-33v-12.5"/><path class="cls-7" d="M1090.48,44.56h-33v12.5h33v-12.5"/><path class="cls-7" d="M1560.37,57.34l265.52-25.31v12.56l-265.52,25.31v-12.56"/><path class="cls-7" d="M1560.37,76.09l265.52-25.31v12.56l-265.52,25.31v-12.56"/><path class="cls-7" d="M1894.71,25.81h171.68v12.5h-171.68v-12.5"/><path class="cls-7" d="M1894.71,44.56h33v12.5h-33v-12.5"/><path class="cls-7" d="M2066.39,44.56h-33v12.5h33v-12.5"/><path class="cls-7" d="M2117.82,25.14l145.43,25.57v12.7l-145.43-25.58v-12.69"/><path class="cls-7" d="M2205.32,59.28l57.93,10.19v12.69l-57.93-10.19v-12.69"/><path class="cls-7" d="M2788.59,25.3l183.04,25.45v12.62l-183.04-25.45v-12.62"/><path class="cls-7" d="M2971.63,69.5l-33-4.59v12.62l33,4.59v-12.62"/><path class="cls-7" d="M3031.56,32.06h161.68v12.5h-161.68v-12.5"/><path class="cls-7" d="M3130.06,50.81h63.18v12.5h-63.18v-12.5"/><path class="cls-7" d="M3447.4,51.53l82.75-26.02v13.1l-82.75,26.03v-13.11"/><path class="cls-7" d="M3606.39,25.81h132.42v12.5h-132.42v-12.5"/><path class="cls-7" d="M3685.88,44.56h52.93v12.5h-52.93v-12.5"/><path class="cls-7" d="M3807.63,50.81h102.62v12.5h-102.62v-12.5"/><path class="cls-7" d="M3807.63,69.56h52.93v12.5h-52.93v-12.5"/><path class="cls-7" d="M4219.08,57.33l275.92-25.3v12.56l-275.92,25.3v-12.56"/><path class="cls-7" d="M4219.08,76.08l275.92-25.3v12.56l-275.92,25.3v-12.56"/><path class="cls-7" d="M4563.82,32.33l71.2-6.55v12.56l-71.2,6.55v-12.56"/><path class="cls-7" d="M4563.82,51.08l33-3.03v12.55l-33,3.04v-12.56"/><path class="cls-7" d="M5271.08,57.33l283.41-25.3v12.55l-283.41,25.3v-12.55"/><path class="cls-7" d="M5271.08,76.08l283.41-25.29v12.55l-283.41,25.29v-12.55"/><path class="cls-7" d="M5623.31,25.81h194.14v12.5h-194.14v-12.5"/><path class="cls-7" d="M5623.31,44.56h33v12.5h-33v-12.5"/><path class="cls-7" d="M5817.45,44.56h-33.01v12.5h33.01v-12.5"/><path class="cls-7" d="M5877.83,6.65l168.68,19.12v12.58l-168.68-19.12V6.65"/><path class="cls-7" d="M6046.51,44.52l-33-3.74v12.58l33,3.74v-12.58"/><path class="cls-7" d="M6542.74,25.25l169.93,25.49v12.64l-169.93-25.49v-12.64"/><path class="cls-7" d="M6712.67,69.49l-33-4.95v12.64l33,4.95v-12.64"/><path class="cls-7" d="M6772.6,32.06h155.47v12.5h-155.47v-12.5"/><path class="cls-7" d="M6871.1,50.81h56.97v12.5h-56.97v-12.5"/><path class="cls-7" d="M7187.74,51.56l77.61-26.09v13.18l-77.61,26.1v-13.19"/><path class="cls-7" d="M7410.82,26.75l49.72-26.75V14.11l-49.72,26.75v-14.11"/><path class="cls-7" d="M7410.82,45.5l49.72-26.75v14.11l-49.72,26.75v-14.11"/><path class="cls-7" d="M7550.24,25.81h49.73v12.5h-49.73v-12.5"/><path class="cls-7" d="M7550.24,44.56h33v12.5h-33v-12.5"/><path d="M3526.89,313.33v-25h3.13c0,3.7,.75,7.5,2.25,11.37,1.5,3.88,3.06,7.1,4.69,9.67,1.62,2.58,3.64,5.81,6.04,9.72,5.29,8.53,7.93,16.12,7.93,22.76s-1.4,13.48-4.21,20.51c-.52,.78-1.12,1.17-1.8,1.17s-1.25-.23-1.71-.69c-.46-.46-.69-.98-.69-1.56v-.49c2.8-6.44,4.2-12.82,4.2-19.14,0-3.26-.99-6.81-2.97-10.64-1.99-3.84-4.04-6.98-6.16-9.43-2.12-2.44-4.64-5.19-7.57-8.25h-3.13"/><path d="M3907,319.58v-25h3.12c0,3.7,.75,7.5,2.25,11.37,1.5,3.88,3.06,7.1,4.69,9.67,1.62,2.58,3.64,5.82,6.04,9.72,5.29,8.53,7.93,16.12,7.93,22.76s-1.4,13.48-4.21,20.51c-.52,.78-1.12,1.17-1.8,1.17s-1.25-.23-1.71-.69c-.46-.46-.69-.98-.69-1.56v-.49c2.8-6.44,4.2-12.82,4.2-19.14,0-3.26-.99-6.81-2.97-10.64-1.99-3.84-4.04-6.98-6.16-9.43-2.12-2.44-4.64-5.19-7.57-8.25h-3.12"/><path d="M4908.04,384.73c1.5,0,3.08,2.42,4.74,7.27,1.66,4.85,2.49,9.29,2.49,13.33s-.93,7.94-2.78,11.72c-1.86,3.77-4.08,7.09-6.69,9.96l-8.01,8.98c-2.47,2.87-4.65,6.15-6.54,9.86-1.89,3.71-2.84,7.45-2.84,11.24h-3.12v-25h3.12c10.94-6.91,17.81-13.03,20.61-18.36,1.36-2.61,2.05-5.24,2.05-7.91,0-6.19-1.8-12.34-5.38-18.47v-.39c0-.58,.23-1.1,.69-1.55,.46-.46,1.01-.68,1.66-.68"/><path d="M5398.34,350.83v-25h3.12c0,3.71,.75,7.5,2.25,11.37,1.5,3.88,3.07,7.1,4.69,9.67,1.63,2.58,3.64,5.82,6.05,9.72,5.28,8.53,7.92,16.12,7.92,22.76s-1.4,13.48-4.2,20.51c-.52,.78-1.13,1.17-1.81,1.17s-1.25-.23-1.71-.69c-.46-.45-.69-.98-.69-1.56v-.48c2.81-6.45,4.21-12.83,4.21-19.14,0-3.26-1-6.81-2.98-10.65-1.98-3.84-4.04-6.98-6.16-9.42-2.12-2.45-4.64-5.2-7.57-8.26h-3.12"/><path d="M5623.31,350.83v-25h3.12c0,3.71,.75,7.5,2.25,11.37,1.5,3.88,3.06,7.1,4.69,9.67,1.62,2.58,3.64,5.82,6.05,9.72,5.28,8.53,7.92,16.12,7.92,22.76s-1.4,13.48-4.2,20.51c-.53,.78-1.13,1.17-1.81,1.17s-1.25-.23-1.71-.69c-.46-.45-.69-.98-.69-1.56v-.48c2.8-6.45,4.21-12.83,4.21-19.14,0-3.26-1-6.81-2.98-10.65-1.99-3.84-4.04-6.98-6.16-9.42-2.12-2.45-4.64-5.2-7.57-8.26h-3.12"/><path d="M5979.63,350.83v-25h3.13c0,3.71,.75,7.5,2.25,11.37,1.5,3.88,3.06,7.1,4.69,9.67,1.62,2.58,3.64,5.82,6.04,9.72,5.28,8.53,7.92,16.12,7.92,22.76s-1.4,13.48-4.2,20.51c-.52,.78-1.12,1.17-1.8,1.17s-1.26-.23-1.71-.69c-.46-.45-.69-.98-.69-1.56v-.48c2.8-6.45,4.2-12.83,4.2-19.14,0-3.26-.99-6.81-2.98-10.65-1.98-3.84-4.03-6.98-6.15-9.42-2.12-2.45-4.65-5.2-7.57-8.26h-3.13"/><path d="M6396.33,397.23c1.5,0,3.08,2.42,4.74,7.27,1.66,4.85,2.49,9.29,2.49,13.33s-.92,7.94-2.78,11.72c-1.85,3.77-4.08,7.09-6.69,9.96l-8.01,8.98c-2.47,2.87-4.65,6.15-6.54,9.86-1.89,3.71-2.84,7.46-2.84,11.24h-3.12v-25h3.12c10.94-6.91,17.81-13.03,20.61-18.36,1.37-2.61,2.05-5.24,2.05-7.91,0-6.19-1.79-12.34-5.38-18.47v-.39c0-.58,.23-1.1,.69-1.55,.46-.46,1.01-.68,1.66-.68"/><path d="M7262.1,382.08v-25h3.13c0,3.71,.75,7.5,2.25,11.37,1.5,3.88,3.06,7.1,4.69,9.68,1.62,2.57,3.64,5.81,6.04,9.72,5.28,8.53,7.92,16.11,7.92,22.75s-1.4,13.48-4.2,20.51c-.52,.78-1.12,1.17-1.8,1.17s-1.26-.23-1.71-.68-.69-.98-.69-1.57v-.48c2.8-6.45,4.2-12.83,4.2-19.14,0-3.26-.99-6.81-2.98-10.65-1.98-3.84-4.03-6.98-6.15-9.42-2.12-2.45-4.65-5.2-7.57-8.26h-3.13"/><path d="M7596.72,319.58v-25h3.12c0,3.7,.75,7.5,2.25,11.37,1.5,3.88,3.06,7.1,4.69,9.67,1.62,2.58,3.64,5.82,6.05,9.72,5.28,8.53,7.92,16.12,7.92,22.76s-1.4,13.48-4.21,20.51c-.52,.78-1.12,1.17-1.8,1.17s-1.25-.23-1.71-.69c-.46-.46-.69-.98-.69-1.56v-.49c2.8-6.44,4.2-12.82,4.2-19.14,0-3.26-.99-6.81-2.97-10.64-1.99-3.84-4.04-6.98-6.16-9.43-2.12-2.44-4.64-5.19-7.57-8.25h-3.12"/><path d="M5972.72,134.71c1.5,0,3.08,2.43,4.74,7.27,1.66,4.85,2.49,9.3,2.49,13.33s-.93,7.95-2.78,11.72c-1.85,3.78-4.08,7.1-6.69,9.96l-8.01,8.99c-2.47,2.86-4.65,6.15-6.54,9.86-1.89,3.7-2.84,7.45-2.84,11.23h-3.12v-25h3.12c10.94-6.91,17.81-13.03,20.61-18.36,1.37-2.6,2.05-5.24,2.05-7.91,0-6.18-1.79-12.34-5.38-18.46v-.39c0-.59,.23-1.11,.69-1.56,.46-.45,1.01-.68,1.66-.68"/><path d="M6595.07,134.71c1.5,0,3.08,2.43,4.74,7.27,1.66,4.85,2.49,9.3,2.49,13.33s-.93,7.95-2.78,11.72c-1.85,3.78-4.08,7.1-6.69,9.96l-8.01,8.99c-2.47,2.86-4.65,6.15-6.54,9.86-1.89,3.7-2.84,7.45-2.84,11.23h-3.12v-25h3.12c10.94-6.91,17.81-13.03,20.61-18.36,1.37-2.6,2.05-5.24,2.05-7.91,0-6.18-1.79-12.34-5.38-18.46v-.39c0-.59,.23-1.11,.69-1.56,.46-.45,1.01-.68,1.66-.68"/><path d="M2356.42,78.94v-25h3.13c0,3.7,.75,7.5,2.25,11.37,1.5,3.88,3.06,7.1,4.68,9.67,1.63,2.58,3.64,5.82,6.05,9.72,5.28,8.53,7.92,16.12,7.92,22.76s-1.4,13.48-4.2,20.51c-.52,.78-1.12,1.17-1.81,1.17s-1.25-.23-1.71-.69c-.45-.46-.68-.98-.68-1.56v-.49c2.8-6.44,4.2-12.82,4.2-19.14,0-3.26-.99-6.81-2.98-10.64-1.98-3.84-4.03-6.98-6.15-9.43-2.12-2.44-4.65-5.19-7.57-8.25h-3.13"/><path d="M2644.08,32.06V7.06h3.12c0,3.71,.75,7.5,2.25,11.37,1.5,3.88,3.07,7.1,4.69,9.67,1.63,2.58,3.64,5.82,6.05,9.72,5.28,8.53,7.92,16.12,7.92,22.76s-1.4,13.48-4.2,20.51c-.52,.78-1.13,1.17-1.81,1.17s-1.25-.23-1.71-.69c-.46-.45-.69-.98-.69-1.56v-.48c2.8-6.45,4.21-12.83,4.21-19.14,0-3.26-1-6.81-2.98-10.65-1.99-3.84-4.04-6.98-6.16-9.42-2.12-2.45-4.64-5.2-7.57-8.26h-3.12"/><path d="M6145.39,78.94v-25h3.13c0,3.7,.75,7.5,2.25,11.37,1.5,3.88,3.06,7.1,4.69,9.67,1.62,2.58,3.64,5.82,6.04,9.72,5.28,8.53,7.93,16.12,7.93,22.76s-1.41,13.48-4.21,20.51c-.52,.78-1.12,1.17-1.8,1.17s-1.26-.23-1.71-.69c-.46-.46-.69-.98-.69-1.56v-.49c2.8-6.44,4.2-12.82,4.2-19.14,0-3.26-.99-6.81-2.97-10.64-1.99-3.84-4.04-6.98-6.16-9.43-2.12-2.44-4.64-5.19-7.57-8.25h-3.13"/><path d="M6403.24,32.06V7.06h3.13c0,3.71,.75,7.5,2.25,11.37,1.5,3.88,3.06,7.1,4.69,9.67,1.62,2.58,3.64,5.82,6.04,9.72,5.28,8.53,7.93,16.12,7.93,22.76s-1.41,13.48-4.21,20.51c-.52,.78-1.12,1.17-1.8,1.17s-1.26-.23-1.71-.69c-.46-.45-.69-.98-.69-1.56v-.48c2.8-6.45,4.2-12.83,4.2-19.14,0-3.26-.99-6.81-2.97-10.65-1.99-3.84-4.04-6.98-6.16-9.42-2.12-2.45-4.64-5.2-7.57-8.26h-3.13"/><path d="M1357.38,348.59c-1.11-1.11-1.67-2.45-1.67-4.01s.56-2.9,1.67-4.01c1.11-1.11,2.44-1.66,4.01-1.66s2.89,.55,4,1.66c1.1,1.11,1.65,2.45,1.65,4.01s-.55,2.9-1.65,4.01c-1.11,1.11-2.44,1.66-4,1.66s-2.9-.55-4.01-1.66"/><path d="M7159.74,348.59c-1.11-1.11-1.66-2.45-1.66-4.01s.55-2.9,1.66-4.01c1.11-1.11,2.45-1.66,4.01-1.66s2.9,.55,4,1.66c1.1,1.11,1.66,2.45,1.66,4.01s-.56,2.9-1.66,4.01c-1.1,1.11-2.44,1.66-4,1.66s-2.9-.55-4.01-1.66"/><path d="M1039.07,411.09c-1.11-1.11-1.66-2.44-1.66-4.01s.55-2.9,1.66-4c1.11-1.11,2.45-1.67,4.01-1.67s2.9,.56,4,1.67c1.11,1.1,1.66,2.44,1.66,4s-.55,2.9-1.66,4.01c-1.1,1.11-2.44,1.66-4,1.66s-2.9-.55-4.01-1.66"/><path d="M2022.12,411.09c-1.11-1.11-1.66-2.44-1.66-4.01s.55-2.9,1.66-4c1.11-1.11,2.45-1.67,4.01-1.67s2.89,.56,4,1.67,1.65,2.44,1.65,4-.55,2.9-1.65,4.01c-1.11,1.11-2.44,1.66-4,1.66s-2.9-.55-4.01-1.66"/><path d="M2465.97,336.09c-1.11-1.11-1.66-2.45-1.66-4.01s.55-2.9,1.66-4.01,2.45-1.66,4.01-1.66,2.9,.55,4,1.66c1.1,1.11,1.66,2.45,1.66,4.01s-.56,2.9-1.66,4.01c-1.1,1.11-2.44,1.66-4,1.66s-2.9-.55-4.01-1.66"/><path d="M3302.08,436.09c-1.11-1.11-1.66-2.44-1.66-4.01s.55-2.89,1.66-4c1.11-1.11,2.45-1.67,4.01-1.67s2.9,.56,4,1.67c1.1,1.11,1.66,2.44,1.66,4s-.56,2.9-1.66,4.01c-1.1,1.11-2.44,1.67-4,1.67s-2.9-.56-4.01-1.67"/><path d="M3302.08,361.09c-1.11-1.11-1.66-2.45-1.66-4.01s.55-2.9,1.66-4.01c1.11-1.11,2.45-1.66,4.01-1.66s2.9,.55,4,1.66c1.1,1.11,1.66,2.45,1.66,4.01s-.56,2.9-1.66,4.01c-1.1,1.11-2.44,1.66-4,1.66s-2.9-.55-4.01-1.66"/><path d="M5062.94,411.09c-1.11-1.11-1.67-2.44-1.67-4.01s.56-2.9,1.67-4c1.11-1.11,2.44-1.67,4-1.67s2.9,.56,4,1.67c1.11,1.1,1.66,2.44,1.66,4s-.55,2.9-1.66,4.01c-1.1,1.11-2.43,1.66-4,1.66s-2.89-.55-4-1.66"/><path d="M6159.06,461.09c-1.11-1.11-1.67-2.44-1.67-4s.56-2.9,1.67-4.01c1.11-1.11,2.44-1.67,4.01-1.67s2.89,.56,4,1.67c1.1,1.11,1.65,2.44,1.65,4.01s-.55,2.89-1.65,4c-1.11,1.11-2.44,1.67-4,1.67s-2.9-.56-4.01-1.67"/><path d="M6159.06,386.09c-1.11-1.11-1.67-2.45-1.67-4.01s.56-2.9,1.67-4.01c1.11-1.11,2.44-1.66,4.01-1.66s2.89,.55,4,1.66c1.1,1.11,1.65,2.45,1.65,4.01s-.55,2.9-1.65,4.01c-1.11,1.11-2.44,1.66-4,1.66s-2.9-.55-4.01-1.66"/><path d="M649.26,198.58c-1.11-1.11-1.66-2.45-1.66-4.01s.55-2.9,1.66-4.01c1.11-1.11,2.45-1.66,4.01-1.66s2.9,.55,4,1.66,1.66,2.45,1.66,4.01-.55,2.9-1.66,4.01-2.44,1.66-4,1.66-2.9-.55-4.01-1.66"/><path d="M649.26,173.58c-1.11-1.11-1.66-2.45-1.66-4.01s.55-2.9,1.66-4.01c1.11-1.11,2.45-1.66,4.01-1.66s2.9,.55,4,1.66,1.66,2.45,1.66,4.01-.55,2.9-1.66,4.01-2.44,1.66-4,1.66-2.9-.55-4.01-1.66"/><path d="M2328.42,86.07c-1.11-1.11-1.66-2.44-1.66-4.01s.55-2.9,1.66-4.01c1.11-1.1,2.44-1.66,4.01-1.66s2.89,.56,4,1.66c1.1,1.11,1.65,2.45,1.65,4.01s-.55,2.9-1.65,4.01c-1.11,1.11-2.44,1.66-4,1.66s-2.9-.55-4.01-1.66"/><path d="M4577.48,148.57c-1.11-1.11-1.66-2.44-1.66-4s.55-2.9,1.66-4.01,2.45-1.67,4.01-1.67,2.9,.56,4,1.67c1.11,1.11,1.66,2.44,1.66,4.01s-.55,2.89-1.66,4c-1.1,1.11-2.44,1.67-4,1.67s-2.9-.56-4.01-1.67"/><path d="M6289.29,86.07c-1.11-1.11-1.66-2.44-1.66-4.01s.55-2.9,1.66-4.01c1.11-1.1,2.45-1.66,4.01-1.66s2.9,.56,4,1.66c1.1,1.11,1.66,2.45,1.66,4.01s-.56,2.9-1.66,4.01c-1.1,1.11-2.44,1.66-4,1.66s-2.9-.55-4.01-1.66"/><path d="M6615.65,123.57c-1.11-1.11-1.67-2.44-1.67-4.01s.56-2.89,1.67-4c1.11-1.11,2.44-1.67,4.01-1.67s2.89,.56,4,1.67c1.1,1.11,1.65,2.44,1.65,4s-.55,2.9-1.65,4.01c-1.11,1.11-2.44,1.67-4,1.67s-2.9-.56-4.01-1.67"/><path d="M2802.26,98.57c-1.11-1.11-1.66-2.44-1.66-4.01s.55-2.9,1.66-4c1.11-1.11,2.44-1.67,4.01-1.67s2.89,.56,4,1.67c1.1,1.1,1.65,2.44,1.65,4s-.55,2.9-1.65,4.01c-1.11,1.11-2.44,1.67-4,1.67s-2.9-.56-4.01-1.67"/><path d="M4645.43,98.57c-1.11-1.11-1.66-2.44-1.66-4.01s.55-2.9,1.66-4c1.11-1.11,2.45-1.67,4.01-1.67s2.9,.56,4,1.67c1.11,1.1,1.66,2.44,1.66,4s-.55,2.9-1.66,4.01c-1.1,1.11-2.44,1.67-4,1.67s-2.9-.56-4.01-1.67"/><path d="M5921.16,123.57c-1.11-1.11-1.67-2.44-1.67-4.01s.56-2.89,1.67-4c1.11-1.11,2.44-1.67,4-1.67s2.9,.56,4,1.67c1.11,1.11,1.66,2.44,1.66,4s-.55,2.9-1.66,4.01c-1.1,1.11-2.43,1.67-4,1.67s-2.89-.56-4-1.67"/><path d="M5921.16,98.57c-1.11-1.11-1.67-2.44-1.67-4.01s.56-2.9,1.67-4c1.11-1.11,2.44-1.67,4-1.67s2.9,.56,4,1.67c1.11,1.1,1.66,2.44,1.66,4s-.55,2.9-1.66,4.01c-1.1,1.11-2.43,1.67-4,1.67s-2.89-.56-4-1.67"/><path d="M6556.4,98.57c-1.11-1.11-1.66-2.44-1.66-4.01s.55-2.9,1.66-4c1.11-1.11,2.45-1.67,4.01-1.67s2.9,.56,4,1.67c1.1,1.1,1.66,2.44,1.66,4s-.56,2.9-1.66,4.01-2.44,1.67-4,1.67-2.9-.56-4.01-1.67"/><path class="cls-7" d="M31.55,211.04c0-29.21-20.11-57.6-20.11-85.58,0-14.09,5.49-27.77,22.4-40.03,.23-.15,.34-.41,.34-.56,0-.46-1.26-.87-2.17-.87-.46,0-1.26,.05-1.83,.41C8.23,100.14,.92,118.31,.92,136.7c0,29.61,21.49,58.2,21.49,86.59,0,14.1-5.49,27.37-22.4,39.63v.81c16.92,12.26,22.4,25.53,22.4,39.62,0,28.39-21.49,56.99-21.49,86.6,0,18.38,7.31,36.56,29.26,52.29,.57,.35,1.37,.41,1.83,.41,.92,0,2.17-.41,2.17-.87,0-.16-.11-.41-.34-.56-16.92-12.26-22.4-25.94-22.4-40.04,0-27.98,20.11-56.37,20.11-85.57,0-18.59-7.32-36.36-28.8-52.29,21.49-15.93,28.8-33.7,28.8-52.28"/></svg>