<?xml version="1.0" encoding="UTF-8"?><svg id="_レイヤー_1" xmlns="http://www.w3.org/2000/svg" viewBox="0 0 7675.49 442.31"><defs><style>.cls-1{stroke-width:12.5px;}.cls-1,.cls-2,.cls-3,.cls-4,.cls-5{stroke:#000;}.cls-1,.cls-2,.cls-4,.cls-5{stroke-linejoin:bevel;}.cls-2{stroke-width:4px;}.cls-3{stroke-linejoin:round;stroke-width:1.75px;}.cls-3,.cls-4{stroke-linecap:round;}.cls-3,.cls-6{fill-rule:evenodd;}.cls-4{stroke-width:3.25px;}.cls-5{fill:none;stroke-width:2px;}</style></defs><line class="cls-5" x1="42" y1="50.03" x2="7675.49" y2="50.03"/><line class="cls-5" x1="42" y1="75.03" x2="7675.49" y2="75.03"/><line class="cls-5" x1="42" y1="100.03" x2="7675.49" y2="100.03"/><line class="cls-5" x1="42" y1="125.04" x2="7675.49" y2="125.04"/><line class="cls-5" x1="42" y1="150.04" x2="7675.49" y2="150.04"/><line class="cls-5" x1="42" y1="312.55" x2="7675.49" y2="312.55"/><line class="cls-5" x1="42" y1="337.55" x2="7675.49" y2="337.55"/><line class="cls-5" x1="42" y1="362.55" x2="7675.49" y2="362.55"/><line class="cls-5" x1="42" y1="387.55" x2="7675.49" y2="387.55"/><line class="cls-5" x1="42" y1="412.55" x2="7675.49" y2="412.55"/><path class="cls-3" d="M1140.78,56.28c45.29-34.5,181.16-34.5,226.45,0-45.29-30.5-181.16-30.5-226.45,0"/><path class="cls-3" d="M2251.73,73.9c17.31-15.15,69.24-15.15,86.55,0-17.31-11.15-69.24-11.15-86.55,0"/><path class="cls-3" d="M2960.11,71.53c10.66-12,42.64-12,53.31,0-10.67-8-42.65-8-53.31,0"/><path class="cls-3" d="M3727.29,71.53c12.44-12,49.76-12,62.19,0-12.43-8-49.75-8-62.19,0"/><path class="cls-3" d="M3914.2,90.16c17.7-15.46,70.81-15.46,88.51,0-17.7-11.46-70.81-11.46-88.51,0"/><path class="cls-3" d="M4810.86,56.28c44.06-34.5,176.21-34.5,220.27,0-44.06-30.5-176.21-30.5-220.27,0"/><path class="cls-3" d="M6034.99,74.55c18.45-16.02,73.81-16.02,92.26,0-18.45-12.02-73.81-12.02-92.26,0"/><path class="cls-3" d="M6701.15,71.53c10.66-12,42.64-12,53.31,0-10.67-8-42.65-8-53.31,0"/><path class="cls-3" d="M7449.02,31.28c7.32-12,29.28-12,36.6,0-7.32-8-29.28-8-36.6,0"/><path class="cls-3" d="M1140.78,56.28c45.29-34.5,181.16-34.5,226.45,0-45.29-30.5-181.16-30.5-226.45,0"/><path class="cls-3" d="M2251.73,73.9c17.31-15.15,69.24-15.15,86.55,0-17.31-11.15-69.24-11.15-86.55,0"/><path class="cls-3" d="M2960.11,71.53c10.66-12,42.64-12,53.31,0-10.67-8-42.65-8-53.31,0"/><path class="cls-3" d="M3727.29,71.53c12.44-12,49.76-12,62.19,0-12.43-8-49.75-8-62.19,0"/><path class="cls-3" d="M3914.2,90.16c17.7-15.46,70.81-15.46,88.51,0-17.7-11.46-70.81-11.46-88.51,0"/><path class="cls-3" d="M4810.86,56.28c44.06-34.5,176.21-34.5,220.27,0-44.06-30.5-176.21-30.5-220.27,0"/><path class="cls-3" d="M6034.99,74.55c18.45-16.02,73.81-16.02,92.26,0-18.45-12.02-73.81-12.02-92.26,0"/><path class="cls-3" d="M6701.15,71.53c10.66-12,42.64-12,53.31,0-10.67-8-42.65-8-53.31,0"/><path class="cls-3" d="M7449.02,31.28c7.32-12,29.28-12,36.6,0-7.32-8-29.28-8-36.6,0"/><line class="cls-2" x1="44" y1="311.55" x2="44" y2="412.95"/><line class="cls-2" x1="1319.21" y1="311.55" x2="1319.21" y2="413.55"/><line class="cls-2" x1="2290.25" y1="311.55" x2="2290.25" y2="413.55"/><line class="cls-2" x1="3222.25" y1="311.55" x2="3222.25" y2="413.55"/><line class="cls-2" x1="3961.27" y1="311.55" x2="3961.27" y2="413.55"/><line class="cls-2" x1="4983.1" y1="311.55" x2="4983.1" y2="413.55"/><line class="cls-2" x1="6079.23" y1="311.55" x2="6079.23" y2="413.55"/><line class="cls-2" x1="6955.07" y1="311.55" x2="6955.07" y2="413.55"/><line class="cls-2" x1="7650.99" y1="311.55" x2="7650.99" y2="413.55"/><line class="cls-1" x1="7669.24" y1="311.55" x2="7669.24" y2="413.55"/><line class="cls-2" x1="44" y1="49.03" x2="44" y2="312.55"/><line class="cls-2" x1="1319.21" y1="49.03" x2="1319.21" y2="312.55"/><line class="cls-2" x1="2290.25" y1="49.03" x2="2290.25" y2="312.55"/><line class="cls-2" x1="3222.25" y1="49.03" x2="3222.25" y2="312.55"/><line class="cls-2" x1="3961.27" y1="49.03" x2="3961.27" y2="312.55"/><line class="cls-2" x1="4983.1" y1="49.03" x2="4983.1" y2="312.55"/><line class="cls-2" x1="6079.23" y1="49.03" x2="6079.23" y2="312.55"/><line class="cls-2" x1="6955.07" y1="49.03" x2="6955.07" y2="312.55"/><line class="cls-2" x1="7650.99" y1="49.03" x2="7650.99" y2="312.55"/><line class="cls-1" x1="7669.24" y1="49.03" x2="7669.24" y2="312.55"/><line class="cls-4" x1="2327.48" y1="353.97" x2="2327.48" y2="431.31"/><line class="cls-4" x1="2759.65" y1="366.47" x2="2759.65" y2="440.68"/><line class="cls-4" x1="3259.47" y1="328.97" x2="3259.47" y2="412.55"/><line class="cls-4" x1="3577.44" y1="341.47" x2="3577.44" y2="421.93"/><line class="cls-4" x1="6116.45" y1="353.97" x2="6116.45" y2="431.31"/><line class="cls-4" x1="6513.79" y1="366.47" x2="6513.79" y2="440.68"/><line class="cls-4" x1="6992.29" y1="328.97" x2="6992.29" y2="412.55"/><line class="cls-4" x1="7307.52" y1="341.47" x2="7307.52" y2="421.93"/><line class="cls-4" x1="1357.34" y1="79.73" x2="1357.34" y2="162.54"/><line class="cls-4" x1="1561.99" y1="132.84" x2="1561.99" y2="31.28"/><line class="cls-4" x1="1616.68" y1="132.84" x2="1616.68" y2="26.07"/><line class="cls-4" x1="1671.36" y1="95.34" x2="1671.36" y2="20.85"/><line class="cls-4" x1="1824.26" y1="95.34" x2="1824.26" y2="6.28"/><line class="cls-4" x1="1866.66" y1="92.23" x2="1866.66" y2="168.79"/><line class="cls-4" x1="1923.54" y1="79.73" x2="1923.54" y2="168.79"/><line class="cls-4" x1="2035.1" y1="92.23" x2="2035.1" y2="168.79"/><line class="cls-4" x1="2089.78" y1="79.73" x2="2089.78" y2="150.04"/><line class="cls-4" x1="2177.28" y1="92.23" x2="2177.28" y2="165.42"/><line class="cls-4" x1="2231.96" y1="104.73" x2="2231.96" y2="175.04"/><line class="cls-4" x1="2328.38" y1="104.73" x2="2328.38" y2="178.16"/><line class="cls-4" x1="2616.04" y1="54.73" x2="2616.04" y2="137.54"/><line class="cls-4" x1="2760.55" y1="79.73" x2="2760.55" y2="168.79"/><line class="cls-4" x1="2820.48" y1="92.23" x2="2820.48" y2="177.12"/><line class="cls-4" x1="2940.34" y1="104.73" x2="2940.34" y2="193.79"/><line class="cls-4" x1="3003.52" y1="104.73" x2="3003.52" y2="175.04"/><line class="cls-4" x1="3102.02" y1="92.23" x2="3102.02" y2="171.15"/><line class="cls-4" x1="3161.95" y1="92.23" x2="3161.95" y2="168.79"/><line class="cls-4" x1="3260.38" y1="79.73" x2="3260.38" y2="159.41"/><line class="cls-4" x1="3498.85" y1="79.73" x2="3498.85" y2="162.54"/><line class="cls-4" x1="3578.35" y1="92.23" x2="3578.35" y2="168.79"/><line class="cls-4" x1="3657.84" y1="79.73" x2="3657.84" y2="172.63"/><line class="cls-4" x1="3707.52" y1="104.73" x2="3707.52" y2="175.04"/><line class="cls-4" x1="3809.26" y1="95.34" x2="3809.26" y2="25.03"/><line class="cls-4" x1="3858.94" y1="107.84" x2="3858.94" y2="25.03"/><line class="cls-4" x1="3908.62" y1="95.34" x2="3908.62" y2="25.03"/><line class="cls-4" x1="3999.4" y1="104.73" x2="3999.4" y2="187.54"/><line class="cls-4" x1="4220.7" y1="132.84" x2="4220.7" y2="31.28"/><line class="cls-4" x1="4280.59" y1="132.84" x2="4280.59" y2="25.79"/><line class="cls-4" x1="4340.47" y1="95.34" x2="4340.47" y2="20.3"/><line class="cls-4" x1="4493.38" y1="95.34" x2="4493.38" y2="6.28"/><line class="cls-4" x1="4535.78" y1="92.23" x2="4535.78" y2="168.79"/><line class="cls-4" x1="4603.73" y1="79.73" x2="4603.73" y2="168.79"/><line class="cls-4" x1="4727.35" y1="92.23" x2="4727.35" y2="168.79"/><line class="cls-4" x1="4791.09" y1="79.73" x2="4791.09" y2="159.41"/><line class="cls-4" x1="5021.23" y1="79.73" x2="5021.23" y2="162.54"/><line class="cls-4" x1="5272.7" y1="132.84" x2="5272.7" y2="31.28"/><line class="cls-4" x1="5336.33" y1="132.84" x2="5336.33" y2="25.6"/><line class="cls-4" x1="5399.96" y1="95.34" x2="5399.96" y2="19.92"/><line class="cls-4" x1="5552.86" y1="95.34" x2="5552.86" y2="6.28"/><line class="cls-4" x1="5595.27" y1="92.23" x2="5595.27" y2="168.79"/><line class="cls-4" x1="5658.9" y1="79.73" x2="5658.9" y2="168.79"/><line class="cls-4" x1="5786.15" y1="92.23" x2="5786.15" y2="168.79"/><line class="cls-4" x1="5849.78" y1="79.73" x2="5849.78" y2="150.04"/><line class="cls-4" x1="5951.59" y1="92.23" x2="5951.59" y2="165.42"/><line class="cls-4" x1="6015.22" y1="104.73" x2="6015.22" y2="175.04"/><line class="cls-4" x1="6117.35" y1="104.73" x2="6117.35" y2="178.16"/><line class="cls-4" x1="6375.2" y1="54.73" x2="6375.2" y2="137.54"/><line class="cls-4" x1="6514.7" y1="79.73" x2="6514.7" y2="168.79"/><line class="cls-4" x1="6573.94" y1="92.23" x2="6573.94" y2="177.67"/><line class="cls-4" x1="6681.38" y1="104.73" x2="6681.38" y2="193.79"/><line class="cls-4" x1="6744.56" y1="104.73" x2="6744.56" y2="175.04"/><line class="cls-4" x1="6843.06" y1="92.23" x2="6843.06" y2="170.99"/><line class="cls-4" x1="6896.78" y1="92.23" x2="6896.78" y2="168.79"/><line class="cls-4" x1="6993.2" y1="79.73" x2="6993.2" y2="159.41"/><line class="cls-4" x1="7234.06" y1="79.73" x2="7234.06" y2="162.54"/><line class="cls-4" x1="7308.42" y1="92.23" x2="7308.42" y2="168.79"/><line class="cls-4" x1="7382.78" y1="79.73" x2="7382.78" y2="153.4"/><line class="cls-4" x1="7429.25" y1="54.73" x2="7429.25" y2="143.79"/><line class="cls-4" x1="7475.73" y1="54.73" x2="7475.73" y2="150.04"/><line class="cls-4" x1="7522.2" y1="79.73" x2="7522.2" y2="150.04"/><line class="cls-4" x1="7568.68" y1="79.73" x2="7568.68" y2="150.04"/><line class="cls-4" x1="636.32" y1="132.84" x2="636.32" y2="25.03"/><line class="cls-4" x1="735.23" y1="95.34" x2="735.23" y2="25.03"/><line class="cls-4" x1="831.32" y1="95.34" x2="831.32" y2="25.03"/><line class="cls-4" x1="873.73" y1="92.23" x2="873.73" y2="168.79"/><line class="cls-4" x1="935.55" y1="79.73" x2="935.55" y2="168.79"/><line class="cls-4" x1="1059.19" y1="92.23" x2="1059.19" y2="168.79"/><line class="cls-4" x1="1121.01" y1="79.73" x2="1121.01" y2="159.41"/><path d="M415.99,393.02c2.86,3.84,6.54,5.77,11.03,5.77s6.73-3.03,6.73-9.08c0-2.88-.81-5.42-2.44-7.62-2.8-3.84-6.58-5.77-11.33-5.77-2.08,0-3.68,.86-4.78,2.59s-1.66,3.96-1.66,6.69,.81,5.21,2.44,7.42m-9.67-15.23c4.89-2.67,10.76-4,17.63-4s12.66,1.37,17.38,4.1c4.72,2.73,7.08,5.99,7.08,9.77s-2.44,7-7.33,9.66c-4.89,2.67-10.73,4-17.53,4s-12.61-1.37-17.43-4.1c-4.82-2.74-7.23-6.02-7.23-9.86s2.47-7.03,7.42-9.57"/><path d="M1364.51,380.52c2.86,3.84,6.54,5.77,11.03,5.77s6.73-3.03,6.73-9.08c0-2.88-.81-5.42-2.44-7.62-2.8-3.84-6.57-5.77-11.32-5.77-2.09,0-3.68,.86-4.78,2.59-1.11,1.72-1.66,3.96-1.66,6.7s.81,5.21,2.44,7.42m-9.68-15.23c4.89-2.67,10.77-4,17.64-4s12.66,1.37,17.38,4.1c4.72,2.73,7.08,5.99,7.08,9.77s-2.44,7-7.33,9.66c-4.89,2.67-10.73,4-17.53,4s-12.61-1.37-17.43-4.1c-4.82-2.73-7.23-6.02-7.23-9.86s2.48-7.03,7.42-9.57"/><path d="M2333.27,360.69c1.89,0,5.85-1.95,11.87-5.86,6.03-3.91,9.58-6.53,10.65-7.86s1.61-2.52,1.61-3.56-.42-1.97-1.27-2.78c-.85-.81-1.83-1.22-2.93-1.22-1.95,0-5.94,1.97-11.96,5.91-6.03,3.94-9.56,6.56-10.61,7.86-1.04,1.3-1.56,2.47-1.56,3.52s.41,1.97,1.23,2.78c.82,.81,1.81,1.22,2.97,1.22m18.96-24.41c5.59,0,8.39,2.41,8.39,7.22,0,2.34-.68,5.06-2.05,8.16-1.36,3.09-3.19,5.45-5.47,7.08-5.01,3.39-11.29,5.08-18.84,5.08-5.6,0-8.41-2.41-8.41-7.22,0-2.15,.67-4.82,2-8.01,1.34-3.19,3.17-5.6,5.52-7.23,5.02-3.39,11.31-5.08,18.86-5.08"/><path d="M2765.45,373.19c1.88,0,5.84-1.95,11.87-5.86,6.02-3.91,9.57-6.53,10.64-7.86,1.08-1.33,1.61-2.52,1.61-3.56s-.42-1.97-1.27-2.78c-.85-.81-1.83-1.22-2.93-1.22-1.95,0-5.93,1.97-11.96,5.91-6.03,3.94-9.56,6.56-10.6,7.86s-1.56,2.47-1.56,3.52,.4,1.97,1.22,2.78c.82,.81,1.81,1.22,2.98,1.22m18.95-24.41c5.6,0,8.39,2.41,8.39,7.22,0,2.34-.68,5.06-2.04,8.16-1.37,3.09-3.19,5.45-5.47,7.08-5.01,3.39-11.3,5.08-18.85,5.08-5.6,0-8.4-2.41-8.4-7.22,0-2.15,.66-4.82,2-8.01,1.33-3.19,3.17-5.6,5.51-7.23,5.02-3.39,11.31-5.08,18.86-5.08"/><path d="M3265.27,335.69c1.89,0,5.84-1.95,11.87-5.86,6.02-3.91,9.57-6.53,10.65-7.86,1.07-1.33,1.61-2.52,1.61-3.56s-.43-1.97-1.28-2.78c-.85-.81-1.82-1.22-2.93-1.22-1.94,0-5.93,1.97-11.96,5.91-6.02,3.94-9.56,6.56-10.6,7.86-1.04,1.3-1.56,2.47-1.56,3.52s.41,1.97,1.23,2.78c.81,.81,1.8,1.22,2.97,1.22m18.95-24.41c5.6,0,8.4,2.41,8.4,7.22,0,2.34-.69,5.06-2.05,8.16-1.37,3.09-3.19,5.45-5.47,7.08-5.01,3.39-11.29,5.08-18.84,5.08-5.61,0-8.41-2.41-8.41-7.22,0-2.15,.67-4.82,2-8.01,1.33-3.19,3.17-5.6,5.52-7.23,5.02-3.39,11.3-5.08,18.85-5.08"/><path d="M3583.24,348.19c1.89,0,5.84-1.95,11.87-5.86,6.02-3.91,9.57-6.53,10.65-7.86,1.07-1.33,1.61-2.52,1.61-3.56s-.43-1.97-1.28-2.78c-.85-.81-1.82-1.22-2.93-1.22-1.95,0-5.93,1.97-11.96,5.91-6.02,3.94-9.56,6.56-10.6,7.86-1.04,1.3-1.56,2.47-1.56,3.52s.41,1.97,1.22,2.78c.82,.81,1.81,1.22,2.98,1.22m18.95-24.41c5.6,0,8.39,2.41,8.39,7.22,0,2.34-.68,5.06-2.04,8.16-1.37,3.09-3.19,5.45-5.47,7.08-5.01,3.39-11.29,5.08-18.84,5.08-5.61,0-8.41-2.41-8.41-7.22,0-2.15,.67-4.82,2-8.01,1.33-3.19,3.17-5.6,5.51-7.23,5.03-3.38,11.31-5.08,18.86-5.08"/><path d="M4006.57,393.02c2.86,3.84,6.54,5.77,11.03,5.77s6.73-3.03,6.73-9.08c0-2.88-.81-5.42-2.43-7.62-2.81-3.84-6.58-5.77-11.33-5.77-2.09,0-3.68,.86-4.78,2.59-1.11,1.72-1.66,3.96-1.66,6.69s.81,5.21,2.44,7.42m-9.67-15.23c4.88-2.67,10.76-4,17.63-4s12.66,1.37,17.38,4.1c4.72,2.73,7.08,5.99,7.08,9.77s-2.44,7-7.33,9.66c-4.88,2.67-10.73,4-17.53,4s-12.61-1.37-17.43-4.1c-4.82-2.74-7.23-6.02-7.23-9.86s2.48-7.03,7.43-9.57"/><path d="M5028.4,380.52c2.86,3.84,6.54,5.77,11.03,5.77s6.73-3.03,6.73-9.08c0-2.88-.81-5.42-2.43-7.62-2.81-3.84-6.58-5.77-11.33-5.77-2.08,0-3.68,.86-4.78,2.59-1.11,1.72-1.66,3.96-1.66,6.7s.81,5.21,2.44,7.42m-9.67-15.23c4.88-2.67,10.76-4,17.63-4s12.66,1.37,17.38,4.1c4.72,2.73,7.08,5.99,7.08,9.77s-2.44,7-7.33,9.66c-4.88,2.67-10.73,4-17.53,4s-12.61-1.37-17.43-4.1c-4.82-2.73-7.23-6.02-7.23-9.86s2.48-7.03,7.43-9.57"/><path d="M6122.25,360.69c1.88,0,5.84-1.95,11.86-5.86,6.03-3.91,9.58-6.53,10.65-7.86,1.08-1.33,1.61-2.52,1.61-3.56s-.42-1.97-1.27-2.78c-.85-.81-1.83-1.22-2.93-1.22-1.95,0-5.94,1.97-11.96,5.91-6.03,3.94-9.56,6.56-10.6,7.86s-1.57,2.47-1.57,3.52,.41,1.97,1.23,2.78c.82,.81,1.81,1.22,2.98,1.22m18.95-24.41c5.59,0,8.39,2.41,8.39,7.22,0,2.34-.68,5.06-2.05,8.16-1.36,3.09-3.18,5.45-5.46,7.08-5.01,3.39-11.3,5.08-18.85,5.08-5.6,0-8.4-2.41-8.4-7.22,0-2.15,.66-4.82,2-8.01,1.33-3.19,3.17-5.6,5.51-7.23,5.02-3.39,11.31-5.08,18.86-5.08"/><path d="M6519.59,373.19c1.89,0,5.84-1.95,11.87-5.86,6.02-3.91,9.57-6.53,10.65-7.86,1.07-1.33,1.61-2.52,1.61-3.56s-.43-1.97-1.28-2.78c-.85-.81-1.82-1.22-2.93-1.22-1.95,0-5.93,1.97-11.96,5.91-6.02,3.94-9.56,6.56-10.6,7.86s-1.56,2.47-1.56,3.52,.41,1.97,1.22,2.78c.82,.81,1.81,1.22,2.98,1.22m18.95-24.41c5.6,0,8.39,2.41,8.39,7.22,0,2.34-.68,5.06-2.04,8.16-1.37,3.09-3.19,5.45-5.47,7.08-5.01,3.39-11.29,5.08-18.85,5.08-5.6,0-8.4-2.41-8.4-7.22,0-2.15,.67-4.82,2-8.01s3.17-5.6,5.51-7.23c5.03-3.39,11.31-5.08,18.86-5.08"/><path d="M6998.09,335.69c1.89,0,5.84-1.95,11.87-5.86,6.02-3.91,9.57-6.53,10.65-7.86,1.07-1.33,1.61-2.52,1.61-3.56s-.43-1.97-1.28-2.78c-.85-.81-1.82-1.22-2.93-1.22-1.94,0-5.93,1.97-11.96,5.91-6.02,3.94-9.56,6.56-10.6,7.86s-1.56,2.47-1.56,3.52,.41,1.97,1.23,2.78c.81,.81,1.81,1.22,2.97,1.22m18.95-24.41c5.6,0,8.4,2.41,8.4,7.22,0,2.34-.69,5.06-2.05,8.16-1.37,3.09-3.19,5.45-5.47,7.08-5.01,3.39-11.29,5.08-18.84,5.08-5.61,0-8.41-2.41-8.41-7.22,0-2.15,.67-4.82,2-8.01,1.33-3.19,3.17-5.6,5.52-7.23,5.02-3.39,11.3-5.08,18.85-5.08"/><path d="M7313.31,348.19c1.89,0,5.85-1.95,11.87-5.86,6.03-3.91,9.58-6.53,10.65-7.86,1.07-1.33,1.61-2.52,1.61-3.56s-.42-1.97-1.27-2.78c-.85-.81-1.83-1.22-2.93-1.22-1.95,0-5.94,1.97-11.96,5.91-6.03,3.94-9.56,6.56-10.61,7.86-1.04,1.3-1.56,2.47-1.56,3.52s.41,1.97,1.23,2.78c.82,.81,1.81,1.22,2.97,1.22m18.96-24.41c5.59,0,8.39,2.41,8.39,7.22,0,2.34-.68,5.06-2.05,8.16-1.36,3.09-3.19,5.45-5.47,7.08-5.01,3.39-11.29,5.08-18.84,5.08-5.61,0-8.41-2.41-8.41-7.22,0-2.15,.67-4.82,2-8.01,1.34-3.19,3.17-5.6,5.52-7.23,5.02-3.38,11.31-5.08,18.86-5.08"/><path d="M1377.68,61.27c3.13,0,5.73,.78,7.82,2.34,2.08,1.56,3.12,3.81,3.12,6.73,0,4.49-2.33,8.69-6.98,12.59s-9.64,5.86-14.99,5.86c-3.12,0-5.76-.81-7.9-2.44-2.03-1.76-3.04-3.97-3.04-6.64,0-4.36,2.32-8.53,6.94-12.5,4.63-3.97,9.64-5.95,15.03-5.95"/><path d="M1552.67,123.77c3.13,0,5.73,.78,7.81,2.34,2.09,1.56,3.13,3.81,3.13,6.73,0,4.49-2.33,8.69-6.98,12.59s-9.65,5.86-14.99,5.86c-3.12,0-5.76-.81-7.91-2.44-2.02-1.76-3.03-3.97-3.03-6.64,0-4.36,2.32-8.53,6.94-12.5,4.63-3.97,9.64-5.95,15.03-5.95"/><path d="M1607.36,123.77c3.12,0,5.72,.78,7.81,2.34,2.08,1.56,3.12,3.81,3.12,6.73,0,4.49-2.32,8.69-6.97,12.59-4.65,3.91-9.65,5.86-15,5.86-3.12,0-5.76-.81-7.9-2.44-2.02-1.76-3.03-3.97-3.03-6.64,0-4.36,2.31-8.53,6.93-12.5,4.63-3.97,9.64-5.95,15.04-5.95"/><path d="M1662.04,86.27c3.12,0,5.73,.78,7.81,2.34,2.09,1.56,3.13,3.81,3.13,6.73,0,4.49-2.33,8.69-6.98,12.59-4.65,3.91-9.65,5.86-14.99,5.86-3.13,0-5.76-.81-7.91-2.44-2.02-1.76-3.03-3.97-3.03-6.64,0-4.36,2.31-8.53,6.94-12.5,4.62-3.97,9.63-5.95,15.03-5.95"/><path d="M1814.94,86.27c3.13,0,5.73,.78,7.81,2.34,2.09,1.56,3.13,3.81,3.13,6.73,0,4.49-2.33,8.69-6.98,12.59-4.65,3.91-9.65,5.86-14.99,5.86-3.13,0-5.76-.81-7.91-2.44-2.02-1.76-3.03-3.97-3.03-6.64,0-4.36,2.31-8.53,6.94-12.5,4.62-3.97,9.63-5.95,15.03-5.95"/><path d="M1887.01,73.77c3.12,0,5.73,.78,7.81,2.34,2.08,1.56,3.13,3.81,3.13,6.73,0,4.49-2.33,8.69-6.98,12.59-4.65,3.91-9.65,5.86-14.99,5.86-3.13,0-5.76-.81-7.91-2.44-2.02-1.76-3.03-3.97-3.03-6.64,0-4.36,2.31-8.53,6.94-12.5,4.62-3.97,9.63-5.95,15.03-5.95"/><path d="M1943.88,61.27c3.13,0,5.73,.78,7.82,2.34,2.08,1.56,3.12,3.81,3.12,6.73,0,4.49-2.32,8.69-6.98,12.59-4.65,3.91-9.64,5.86-14.99,5.86-3.12,0-5.76-.81-7.9-2.44-2.03-1.76-3.04-3.97-3.04-6.64,0-4.36,2.32-8.53,6.94-12.5,4.63-3.97,9.64-5.95,15.03-5.95"/><path d="M2055.44,73.77c3.13,0,5.73,.78,7.81,2.34,2.09,1.56,3.13,3.81,3.13,6.73,0,4.49-2.33,8.69-6.98,12.59-4.65,3.91-9.65,5.86-14.99,5.86-3.12,0-5.76-.81-7.91-2.44-2.02-1.76-3.03-3.97-3.03-6.64,0-4.36,2.32-8.53,6.94-12.5,4.63-3.97,9.64-5.95,15.03-5.95"/><path d="M2110.13,61.27c3.12,0,5.73,.78,7.81,2.34,2.08,1.56,3.12,3.81,3.12,6.73,0,4.49-2.32,8.69-6.97,12.59-4.65,3.91-9.65,5.86-15,5.86-3.12,0-5.76-.81-7.9-2.44-2.02-1.76-3.03-3.97-3.03-6.64,0-4.36,2.31-8.53,6.93-12.5,4.63-3.97,9.64-5.95,15.04-5.95"/><path d="M2197.62,73.77c3.13,0,5.73,.78,7.81,2.34,2.09,1.56,3.13,3.81,3.13,6.73,0,4.49-2.33,8.69-6.98,12.59-4.65,3.91-9.65,5.86-14.99,5.86-3.13,0-5.76-.81-7.91-2.44-2.02-1.76-3.03-3.97-3.03-6.64,0-4.36,2.31-8.53,6.94-12.5,4.62-3.97,9.63-5.95,15.03-5.95"/><path d="M2252.3,86.27c3.13,0,5.73,.78,7.82,2.34,2.08,1.56,3.12,3.81,3.12,6.73,0,4.49-2.32,8.69-6.97,12.59-4.66,3.91-9.65,5.86-15,5.86-3.12,0-5.76-.81-7.9-2.44-2.02-1.76-3.03-3.97-3.03-6.64,0-4.36,2.31-8.53,6.93-12.5,4.63-3.97,9.64-5.95,15.03-5.95"/><path d="M2348.72,86.27c3.13,0,5.73,.78,7.82,2.34,2.08,1.56,3.12,3.81,3.12,6.73,0,4.49-2.32,8.69-6.97,12.59-4.66,3.91-9.65,5.86-15,5.86-3.12,0-5.76-.81-7.9-2.44-2.02-1.76-3.03-3.97-3.03-6.64,0-4.36,2.31-8.53,6.93-12.5,4.63-3.97,9.64-5.95,15.03-5.95"/><path d="M2636.38,36.27c3.13,0,5.73,.78,7.81,2.34,2.09,1.56,3.13,3.81,3.13,6.73,0,4.49-2.33,8.69-6.98,12.59-4.65,3.91-9.65,5.86-14.99,5.86-3.13,0-5.76-.81-7.91-2.44-2.02-1.76-3.03-3.97-3.03-6.64,0-4.36,2.31-8.53,6.94-12.5,4.62-3.97,9.63-5.95,15.03-5.95"/><path d="M2780.9,61.27c3.12,0,5.73,.78,7.81,2.34,2.08,1.56,3.13,3.81,3.13,6.73,0,4.49-2.33,8.69-6.98,12.59-4.65,3.91-9.65,5.86-14.99,5.86-3.13,0-5.76-.81-7.91-2.44-2.02-1.76-3.03-3.97-3.03-6.64,0-4.36,2.31-8.53,6.94-12.5,4.62-3.97,9.63-5.95,15.03-5.95"/><path d="M2840.83,73.77c3.12,0,5.73,.78,7.81,2.34,2.08,1.56,3.12,3.81,3.12,6.73,0,4.49-2.32,8.69-6.97,12.59s-9.65,5.86-15,5.86c-3.12,0-5.76-.81-7.9-2.44-2.02-1.76-3.03-3.97-3.03-6.64,0-4.36,2.31-8.53,6.93-12.5,4.63-3.97,9.64-5.95,15.04-5.95"/><path d="M2960.68,86.27c3.13,0,5.73,.78,7.82,2.34,2.08,1.56,3.12,3.81,3.12,6.73,0,4.49-2.33,8.69-6.98,12.59-4.65,3.91-9.64,5.86-14.99,5.86-3.12,0-5.76-.81-7.9-2.44-2.03-1.76-3.04-3.97-3.04-6.64,0-4.36,2.32-8.53,6.94-12.5,4.63-3.97,9.64-5.95,15.03-5.95"/><path d="M3023.86,86.27c3.13,0,5.73,.78,7.82,2.34,2.08,1.56,3.12,3.81,3.12,6.73,0,4.49-2.32,8.69-6.98,12.59-4.65,3.91-9.64,5.86-14.99,5.86-3.12,0-5.76-.81-7.9-2.44-2.03-1.76-3.04-3.97-3.04-6.64,0-4.36,2.32-8.53,6.94-12.5,4.63-3.97,9.64-5.95,15.03-5.95"/><path d="M3122.36,73.77c3.13,0,5.73,.78,7.81,2.34,2.09,1.56,3.13,3.81,3.13,6.73,0,4.49-2.33,8.69-6.98,12.59-4.65,3.91-9.65,5.86-14.99,5.86-3.12,0-5.76-.81-7.91-2.44-2.02-1.76-3.03-3.97-3.03-6.64,0-4.36,2.32-8.53,6.94-12.5,4.63-3.97,9.64-5.95,15.03-5.95"/><path d="M3182.29,73.77c3.13,0,5.73,.78,7.81,2.34,2.09,1.56,3.13,3.81,3.13,6.73,0,4.49-2.33,8.69-6.98,12.59s-9.65,5.86-14.99,5.86c-3.13,0-5.76-.81-7.91-2.44-2.02-1.76-3.03-3.97-3.03-6.64,0-4.36,2.31-8.53,6.94-12.5,4.62-3.97,9.63-5.95,15.03-5.95"/><path d="M3280.72,61.27c3.13,0,5.73,.78,7.81,2.34,2.09,1.56,3.13,3.81,3.13,6.73,0,4.49-2.33,8.69-6.98,12.59-4.65,3.91-9.65,5.86-14.99,5.86-3.13,0-5.76-.81-7.91-2.44-2.02-1.76-3.03-3.97-3.03-6.64,0-4.36,2.31-8.53,6.94-12.5,4.62-3.97,9.64-5.95,15.03-5.95"/><path d="M3519.2,61.27c3.12,0,5.73,.78,7.81,2.34,2.08,1.56,3.13,3.81,3.13,6.73,0,4.49-2.33,8.69-6.98,12.59-4.65,3.91-9.65,5.86-14.99,5.86-3.13,0-5.76-.81-7.91-2.44-2.02-1.76-3.03-3.97-3.03-6.64,0-4.36,2.31-8.53,6.94-12.5,4.62-3.97,9.63-5.95,15.03-5.95"/><path d="M3598.69,73.77c3.13,0,5.73,.78,7.81,2.34,2.09,1.56,3.13,3.81,3.13,6.73,0,4.49-2.33,8.69-6.98,12.59-4.65,3.91-9.65,5.86-14.99,5.86-3.13,0-5.76-.81-7.91-2.44-2.02-1.76-3.03-3.97-3.03-6.64,0-4.36,2.31-8.53,6.94-12.5,4.62-3.97,9.63-5.95,15.03-5.95"/><path d="M3678.18,61.27c3.13,0,5.73,.78,7.81,2.34,2.09,1.56,3.13,3.81,3.13,6.73,0,4.49-2.33,8.69-6.98,12.59-4.65,3.91-9.65,5.86-14.99,5.86-3.12,0-5.76-.81-7.91-2.44-2.02-1.76-3.03-3.97-3.03-6.64,0-4.36,2.32-8.53,6.94-12.5,4.63-3.97,9.64-5.95,15.03-5.95"/><path d="M3727.87,86.27c3.12,0,5.72,.78,7.81,2.34,2.08,1.56,3.12,3.81,3.12,6.73,0,4.49-2.32,8.69-6.97,12.59-4.66,3.91-9.65,5.86-15,5.86-3.12,0-5.76-.81-7.9-2.44-2.02-1.76-3.03-3.97-3.03-6.64,0-4.36,2.31-8.53,6.93-12.5,4.63-3.97,9.64-5.95,15.04-5.95"/><path d="M3799.93,86.27c3.13,0,5.73,.78,7.82,2.34,2.08,1.56,3.12,3.81,3.12,6.73,0,4.49-2.32,8.69-6.98,12.59-4.65,3.91-9.64,5.86-14.99,5.86-3.12,0-5.76-.81-7.9-2.44-2.03-1.76-3.04-3.97-3.04-6.64,0-4.36,2.32-8.53,6.94-12.5,4.63-3.97,9.64-5.95,15.03-5.95"/><path d="M3849.62,98.77c3.12,0,5.72,.78,7.81,2.34,2.08,1.56,3.12,3.81,3.12,6.73,0,4.49-2.32,8.69-6.97,12.59-4.65,3.91-9.65,5.86-15,5.86-3.12,0-5.76-.81-7.9-2.44-2.02-1.76-3.03-3.97-3.03-6.64,0-4.36,2.31-8.53,6.93-12.5,4.63-3.97,9.64-5.95,15.04-5.95"/><path d="M3899.3,86.27c3.12,0,5.73,.78,7.81,2.34,2.08,1.56,3.13,3.81,3.13,6.73,0,4.49-2.33,8.69-6.98,12.59-4.65,3.91-9.65,5.86-14.99,5.86-3.13,0-5.76-.81-7.91-2.44-2.02-1.76-3.03-3.97-3.03-6.64,0-4.36,2.31-8.53,6.94-12.5,4.62-3.97,9.63-5.95,15.03-5.95"/><path d="M4019.74,86.27c3.13,0,5.73,.78,7.82,2.34,2.08,1.56,3.12,3.81,3.12,6.73,0,4.49-2.32,8.69-6.98,12.59-4.65,3.91-9.64,5.86-14.99,5.86-3.12,0-5.76-.81-7.9-2.44-2.02-1.76-3.04-3.97-3.04-6.64,0-4.36,2.32-8.53,6.94-12.5,4.63-3.97,9.64-5.95,15.03-5.95"/><path d="M4211.38,123.77c3.12,0,5.73,.78,7.81,2.34,2.09,1.56,3.13,3.81,3.13,6.73,0,4.49-2.33,8.69-6.98,12.59-4.65,3.91-9.65,5.86-14.99,5.86-3.13,0-5.76-.81-7.91-2.44-2.02-1.76-3.03-3.97-3.03-6.64,0-4.36,2.31-8.53,6.94-12.5,4.62-3.97,9.63-5.95,15.03-5.95"/><path d="M4271.27,123.77c3.12,0,5.73,.78,7.81,2.34,2.08,1.56,3.12,3.81,3.12,6.73,0,4.49-2.32,8.69-6.97,12.59s-9.65,5.86-15,5.86c-3.12,0-5.76-.81-7.9-2.44-2.02-1.76-3.03-3.97-3.03-6.64,0-4.36,2.31-8.53,6.93-12.5,4.63-3.97,9.64-5.95,15.04-5.95"/><path d="M4331.15,86.27c3.13,0,5.73,.78,7.82,2.34,2.08,1.56,3.12,3.81,3.12,6.73,0,4.49-2.33,8.69-6.98,12.59-4.65,3.91-9.64,5.86-14.99,5.86-3.12,0-5.76-.81-7.9-2.44-2.03-1.76-3.04-3.97-3.04-6.64,0-4.36,2.32-8.53,6.94-12.5,4.63-3.97,9.64-5.95,15.03-5.95"/><path d="M4484.05,86.27c3.13,0,5.73,.78,7.82,2.34,2.08,1.56,3.12,3.81,3.12,6.73,0,4.49-2.32,8.69-6.98,12.59-4.65,3.91-9.64,5.86-14.99,5.86-3.12,0-5.76-.81-7.9-2.44-2.02-1.76-3.03-3.97-3.03-6.64,0-4.36,2.31-8.53,6.93-12.5,4.63-3.97,9.64-5.95,15.03-5.95"/><path d="M4556.12,73.77c3.13,0,5.73,.78,7.81,2.34,2.09,1.56,3.13,3.81,3.13,6.73,0,4.49-2.33,8.69-6.98,12.59s-9.65,5.86-14.99,5.86c-3.12,0-5.76-.81-7.91-2.44-2.02-1.76-3.03-3.97-3.03-6.64,0-4.36,2.32-8.53,6.94-12.5,4.63-3.97,9.64-5.95,15.03-5.95"/><path d="M4624.07,61.27c3.13,0,5.73,.78,7.81,2.34,2.09,1.56,3.13,3.81,3.13,6.73,0,4.49-2.33,8.69-6.98,12.59-4.65,3.91-9.65,5.86-14.99,5.86-3.12,0-5.76-.81-7.91-2.44-2.02-1.76-3.03-3.97-3.03-6.64,0-4.36,2.32-8.53,6.94-12.5,4.63-3.97,9.64-5.95,15.03-5.95"/><path d="M4747.7,73.77c3.12,0,5.73,.78,7.81,2.34,2.08,1.56,3.12,3.81,3.12,6.73,0,4.49-2.32,8.69-6.97,12.59s-9.65,5.86-14.99,5.86c-3.13,0-5.76-.81-7.91-2.44-2.02-1.76-3.03-3.97-3.03-6.64,0-4.36,2.31-8.53,6.94-12.5,4.62-3.97,9.63-5.95,15.03-5.95"/><path d="M4811.44,61.27c3.12,0,5.73,.78,7.81,2.34,2.08,1.56,3.12,3.81,3.12,6.73,0,4.49-2.32,8.69-6.97,12.59s-9.65,5.86-15,5.86c-3.12,0-5.76-.81-7.9-2.44-2.02-1.76-3.03-3.97-3.03-6.64,0-4.36,2.31-8.53,6.93-12.5,4.63-3.97,9.64-5.95,15.04-5.95"/><path d="M5041.57,61.27c3.13,0,5.73,.78,7.82,2.34,2.08,1.56,3.12,3.81,3.12,6.73,0,4.49-2.32,8.69-6.97,12.59-4.66,3.91-9.65,5.86-15,5.86-3.12,0-5.76-.81-7.9-2.44-2.02-1.76-3.03-3.97-3.03-6.64,0-4.36,2.31-8.53,6.93-12.5,4.63-3.97,9.64-5.95,15.03-5.95"/><path d="M5263.38,123.77c3.13,0,5.73,.78,7.81,2.34,2.09,1.56,3.13,3.81,3.13,6.73,0,4.49-2.33,8.69-6.98,12.59-4.65,3.91-9.65,5.86-14.99,5.86-3.12,0-5.76-.81-7.91-2.44-2.02-1.76-3.03-3.97-3.03-6.64,0-4.36,2.32-8.53,6.94-12.5,4.63-3.97,9.64-5.95,15.03-5.95"/><path d="M5327.01,123.77c3.13,0,5.73,.78,7.81,2.34,2.09,1.56,3.13,3.81,3.13,6.73,0,4.49-2.33,8.69-6.98,12.59-4.65,3.91-9.65,5.86-14.99,5.86-3.12,0-5.76-.81-7.91-2.44-2.02-1.76-3.03-3.97-3.03-6.64,0-4.36,2.32-8.53,6.94-12.5,4.63-3.97,9.64-5.95,15.03-5.95"/><path d="M5390.64,86.27c3.13,0,5.73,.78,7.81,2.34,2.09,1.56,3.13,3.81,3.13,6.73,0,4.49-2.33,8.69-6.98,12.59-4.65,3.91-9.65,5.86-14.99,5.86-3.13,0-5.76-.81-7.91-2.44-2.02-1.76-3.03-3.97-3.03-6.64,0-4.36,2.31-8.53,6.94-12.5,4.62-3.97,9.63-5.95,15.03-5.95"/><path d="M5543.54,86.27c3.13,0,5.73,.78,7.81,2.34,2.09,1.56,3.13,3.81,3.13,6.73,0,4.49-2.33,8.69-6.98,12.59-4.65,3.91-9.65,5.86-14.99,5.86-3.12,0-5.76-.81-7.91-2.44-2.02-1.76-3.03-3.97-3.03-6.64,0-4.36,2.32-8.53,6.94-12.5,4.63-3.97,9.64-5.95,15.03-5.95"/><path d="M5615.61,73.77c3.12,0,5.73,.78,7.81,2.34,2.09,1.56,3.13,3.81,3.13,6.73,0,4.49-2.33,8.69-6.98,12.59-4.65,3.91-9.65,5.86-14.99,5.86-3.13,0-5.76-.81-7.91-2.44-2.02-1.76-3.03-3.97-3.03-6.64,0-4.36,2.31-8.53,6.94-12.5,4.62-3.97,9.63-5.95,15.03-5.95"/><path d="M5679.24,61.27c3.12,0,5.73,.78,7.81,2.34,2.09,1.56,3.13,3.81,3.13,6.73,0,4.49-2.33,8.69-6.98,12.59-4.65,3.91-9.65,5.86-14.99,5.86-3.13,0-5.76-.81-7.91-2.44-2.02-1.76-3.03-3.97-3.03-6.64,0-4.36,2.31-8.53,6.94-12.5,4.62-3.97,9.63-5.95,15.03-5.95"/><path d="M5806.5,73.77c3.12,0,5.73,.78,7.81,2.34,2.08,1.56,3.13,3.81,3.13,6.73,0,4.49-2.33,8.69-6.98,12.59s-9.65,5.86-14.99,5.86c-3.13,0-5.76-.81-7.91-2.44-2.02-1.76-3.03-3.97-3.03-6.64,0-4.36,2.31-8.53,6.94-12.5,4.62-3.97,9.63-5.95,15.03-5.95"/><path d="M5870.13,61.27c3.12,0,5.73,.78,7.81,2.34,2.08,1.56,3.13,3.81,3.13,6.73,0,4.49-2.33,8.69-6.98,12.59-4.65,3.91-9.65,5.86-14.99,5.86-3.13,0-5.76-.81-7.91-2.44-2.02-1.76-3.03-3.97-3.03-6.64,0-4.36,2.31-8.53,6.94-12.5,4.62-3.97,9.63-5.95,15.03-5.95"/><path d="M5971.94,73.77c3.12,0,5.72,.78,7.81,2.34,2.08,1.56,3.12,3.81,3.12,6.73,0,4.49-2.32,8.69-6.97,12.59s-9.65,5.86-15,5.86c-3.12,0-5.76-.81-7.9-2.44-2.02-1.76-3.03-3.97-3.03-6.64,0-4.36,2.31-8.53,6.93-12.5,4.63-3.97,9.64-5.95,15.04-5.95"/><path d="M6035.56,86.27c3.13,0,5.73,.78,7.82,2.34,2.08,1.56,3.12,3.81,3.12,6.73,0,4.49-2.32,8.69-6.97,12.59-4.66,3.91-9.65,5.86-15,5.86-3.12,0-5.76-.81-7.9-2.44-2.02-1.76-3.03-3.97-3.03-6.64,0-4.36,2.31-8.53,6.93-12.5,4.63-3.97,9.64-5.95,15.03-5.95"/><path d="M6137.7,86.27c3.12,0,5.73,.78,7.81,2.34,2.08,1.56,3.12,3.81,3.12,6.73,0,4.49-2.32,8.69-6.97,12.59-4.65,3.91-9.65,5.86-14.99,5.86-3.13,0-5.76-.81-7.91-2.44-2.02-1.76-3.03-3.97-3.03-6.64,0-4.36,2.31-8.53,6.94-12.5,4.62-3.97,9.63-5.95,15.03-5.95"/><path d="M6395.55,36.27c3.12,0,5.73,.78,7.81,2.34,2.08,1.56,3.12,3.81,3.12,6.73,0,4.49-2.32,8.69-6.97,12.59-4.65,3.91-9.65,5.86-14.99,5.86-3.13,0-5.76-.81-7.91-2.44-2.02-1.76-3.03-3.97-3.03-6.64,0-4.36,2.31-8.53,6.94-12.5,4.62-3.97,9.63-5.95,15.03-5.95"/><path d="M6535.04,61.27c3.12,0,5.73,.78,7.81,2.34,2.09,1.56,3.13,3.81,3.13,6.73,0,4.49-2.33,8.69-6.98,12.59s-9.65,5.86-14.99,5.86c-3.13,0-5.76-.81-7.91-2.44-2.02-1.76-3.03-3.97-3.03-6.64,0-4.36,2.31-8.53,6.94-12.5,4.62-3.97,9.63-5.95,15.03-5.95"/><path d="M6594.29,73.77c3.12,0,5.72,.78,7.81,2.34,2.08,1.56,3.12,3.81,3.12,6.73,0,4.49-2.32,8.69-6.97,12.59s-9.65,5.86-15,5.86c-3.12,0-5.76-.81-7.9-2.44-2.02-1.76-3.03-3.97-3.03-6.64,0-4.36,2.31-8.53,6.93-12.5,4.63-3.97,9.64-5.95,15.04-5.95"/><path d="M6701.72,86.27c3.13,0,5.73,.78,7.82,2.34,2.08,1.56,3.12,3.81,3.12,6.73,0,4.49-2.32,8.69-6.98,12.59-4.65,3.91-9.64,5.86-14.99,5.86-3.12,0-5.76-.81-7.9-2.44-2.03-1.76-3.04-3.97-3.04-6.64,0-4.36,2.32-8.53,6.94-12.5,4.63-3.97,9.64-5.95,15.03-5.95"/><path d="M6764.9,86.27c3.13,0,5.73,.78,7.82,2.34,2.08,1.56,3.12,3.81,3.12,6.73,0,4.49-2.32,8.69-6.98,12.59-4.65,3.91-9.64,5.86-14.99,5.86-3.12,0-5.76-.81-7.9-2.44-2.02-1.76-3.03-3.97-3.03-6.64,0-4.36,2.31-8.53,6.93-12.5,4.63-3.97,9.64-5.95,15.03-5.95"/><path d="M6863.4,73.77c3.13,0,5.73,.78,7.81,2.34,2.09,1.56,3.13,3.81,3.13,6.73,0,4.49-2.33,8.69-6.98,12.59-4.65,3.91-9.65,5.86-14.99,5.86-3.12,0-5.76-.81-7.91-2.44-2.02-1.76-3.03-3.97-3.03-6.64,0-4.36,2.32-8.53,6.94-12.5,4.63-3.97,9.64-5.95,15.03-5.95"/><path d="M6917.12,73.77c3.13,0,5.73,.78,7.81,2.34,2.09,1.56,3.13,3.81,3.13,6.73,0,4.49-2.33,8.69-6.98,12.59s-9.65,5.86-14.99,5.86c-3.13,0-5.76-.81-7.91-2.44-2.02-1.76-3.03-3.97-3.03-6.64,0-4.36,2.31-8.53,6.94-12.5,4.62-3.97,9.64-5.95,15.03-5.95"/><path d="M7013.54,61.27c3.13,0,5.73,.78,7.81,2.34,2.09,1.56,3.13,3.81,3.13,6.73,0,4.49-2.33,8.69-6.98,12.59s-9.65,5.86-14.99,5.86c-3.13,0-5.76-.81-7.91-2.44-2.02-1.76-3.03-3.97-3.03-6.64,0-4.36,2.31-8.53,6.94-12.5,4.62-3.97,9.64-5.95,15.03-5.95"/><path d="M7254.41,61.27c3.12,0,5.72,.78,7.81,2.34,2.08,1.56,3.12,3.81,3.12,6.73,0,4.49-2.32,8.69-6.97,12.59s-9.65,5.86-15,5.86c-3.12,0-5.76-.81-7.9-2.44-2.02-1.76-3.03-3.97-3.03-6.64,0-4.36,2.31-8.53,6.93-12.5,4.63-3.97,9.64-5.95,15.04-5.95"/><path d="M7328.76,73.77c3.13,0,5.73,.78,7.82,2.34,2.08,1.56,3.12,3.81,3.12,6.73,0,4.49-2.32,8.69-6.98,12.59-4.65,3.91-9.64,5.86-14.99,5.86-3.12,0-5.76-.81-7.9-2.44-2.02-1.76-3.03-3.97-3.03-6.64,0-4.36,2.31-8.53,6.93-12.5,4.63-3.97,9.64-5.95,15.03-5.95"/><path d="M7403.12,61.27c3.13,0,5.73,.78,7.81,2.34,2.09,1.56,3.13,3.81,3.13,6.73,0,4.49-2.33,8.69-6.98,12.59s-9.65,5.86-14.99,5.86c-3.12,0-5.76-.81-7.91-2.44-2.02-1.76-3.03-3.97-3.03-6.64,0-4.36,2.32-8.53,6.94-12.5,4.63-3.97,9.64-5.95,15.03-5.95"/><path d="M7449.6,36.27c3.12,0,5.73,.78,7.81,2.34,2.08,1.56,3.12,3.81,3.12,6.73,0,4.49-2.32,8.69-6.97,12.59-4.65,3.91-9.65,5.86-14.99,5.86-3.13,0-5.77-.81-7.91-2.44-2.02-1.76-3.03-3.97-3.03-6.64,0-4.36,2.31-8.53,6.94-12.5,4.62-3.97,9.63-5.95,15.03-5.95"/><path d="M7496.07,36.27c3.13,0,5.73,.78,7.81,2.34,2.09,1.56,3.13,3.81,3.13,6.73,0,4.49-2.33,8.69-6.98,12.59-4.65,3.91-9.65,5.86-14.99,5.86-3.13,0-5.76-.81-7.91-2.44-2.02-1.76-3.03-3.97-3.03-6.64,0-4.36,2.31-8.53,6.94-12.5,4.62-3.97,9.63-5.95,15.03-5.95"/><path d="M7542.54,61.27c3.13,0,5.73,.78,7.82,2.34,2.08,1.56,3.12,3.81,3.12,6.73,0,4.49-2.32,8.69-6.97,12.59-4.66,3.91-9.65,5.86-15,5.86-3.12,0-5.76-.81-7.9-2.44-2.02-1.76-3.03-3.97-3.03-6.64,0-4.36,2.31-8.53,6.93-12.5,4.63-3.97,9.64-5.95,15.03-5.95"/><path d="M7589.02,61.27c3.12,0,5.73,.78,7.81,2.34,2.08,1.56,3.13,3.81,3.13,6.73,0,4.49-2.33,8.69-6.98,12.59s-9.65,5.86-14.99,5.86c-3.13,0-5.76-.81-7.91-2.44-2.02-1.76-3.03-3.97-3.03-6.64,0-4.36,2.31-8.53,6.94-12.5,4.62-3.97,9.63-5.95,15.03-5.95"/><path d="M626.99,123.77c3.12,0,5.73,.78,7.81,2.34,2.08,1.56,3.12,3.81,3.12,6.73,0,4.49-2.33,8.69-6.98,12.59s-9.65,5.86-14.99,5.86c-3.12,0-5.76-.81-7.91-2.44-2.02-1.76-3.03-3.97-3.03-6.64,0-4.36,2.31-8.53,6.94-12.5,4.62-3.97,9.64-5.95,15.03-5.95"/><path d="M725.91,86.27c3.12,0,5.73,.78,7.81,2.34,2.08,1.56,3.13,3.81,3.13,6.73,0,4.49-2.33,8.69-6.98,12.59-4.65,3.91-9.65,5.86-14.99,5.86-3.13,0-5.76-.81-7.91-2.44-2.02-1.76-3.03-3.97-3.03-6.64,0-4.36,2.31-8.53,6.94-12.5,4.62-3.97,9.63-5.95,15.03-5.95"/><path d="M822,86.27c3.13,0,5.73,.78,7.81,2.34,2.09,1.56,3.13,3.81,3.13,6.73,0,4.49-2.33,8.69-6.98,12.59-4.65,3.91-9.65,5.86-14.99,5.86-3.12,0-5.76-.81-7.91-2.44-2.02-1.76-3.03-3.97-3.03-6.64,0-4.36,2.32-8.53,6.94-12.5,4.63-3.97,9.64-5.95,15.03-5.95"/><path d="M894.07,73.77c3.12,0,5.73,.78,7.81,2.34,2.09,1.56,3.13,3.81,3.13,6.73,0,4.49-2.33,8.69-6.98,12.59s-9.65,5.86-14.99,5.86c-3.13,0-5.76-.81-7.91-2.44-2.02-1.76-3.03-3.97-3.03-6.64,0-4.36,2.31-8.53,6.94-12.5,4.62-3.97,9.63-5.95,15.03-5.95"/><path d="M955.89,61.27c3.13,0,5.73,.78,7.81,2.34,2.09,1.56,3.13,3.81,3.13,6.73,0,4.49-2.33,8.69-6.98,12.59-4.65,3.91-9.65,5.86-14.99,5.86-3.13,0-5.76-.81-7.91-2.44-2.02-1.76-3.03-3.97-3.03-6.64,0-4.36,2.31-8.53,6.94-12.5,4.62-3.97,9.63-5.95,15.03-5.95"/><path d="M1079.53,73.77c3.13,0,5.73,.78,7.81,2.34,2.09,1.56,3.13,3.81,3.13,6.73,0,4.49-2.33,8.69-6.98,12.59s-9.65,5.86-14.99,5.86c-3.12,0-5.76-.81-7.91-2.44-2.02-1.76-3.03-3.97-3.03-6.64,0-4.36,2.32-8.53,6.94-12.5,4.63-3.97,9.64-5.95,15.03-5.95"/><path d="M1141.35,61.27c3.13,0,5.73,.78,7.82,2.34,2.08,1.56,3.12,3.81,3.12,6.73,0,4.49-2.32,8.69-6.98,12.59-4.65,3.91-9.64,5.86-14.99,5.86-3.12,0-5.76-.81-7.9-2.44-2.03-1.76-3.04-3.97-3.04-6.64,0-4.36,2.32-8.53,6.94-12.5,4.63-3.97,9.64-5.95,15.03-5.95"/><path d="M124.41,328.66c-.97-.98-1.46-2.18-1.46-3.62s.49-2.64,1.46-3.61,2.18-1.46,3.61-1.46,2.64,.49,3.62,1.46c.98,.97,1.47,2.18,1.47,3.61s-.49,2.64-1.47,3.62c-.98,.98-2.18,1.47-3.62,1.47s-2.64-.49-3.61-1.47m0,25.01c-.97-.97-1.46-2.18-1.46-3.61s.49-2.64,1.46-3.62,2.18-1.47,3.61-1.47,2.64,.49,3.62,1.47c.98,.98,1.47,2.18,1.47,3.62s-.49,2.64-1.47,3.61c-.98,.97-2.18,1.46-3.62,1.46s-2.64-.49-3.61-1.46m-33.88-42.38c8.66,0,15.75,2.18,21.28,6.53,5.34,4.56,8.02,10.75,8.02,18.56,0,4.75-1.01,9.49-3.03,14.21-2.02,4.72-4.66,8.84-7.91,12.35-5.93,6.57-14.02,12.53-24.27,17.87-10.26,5.34-15.92,8.01-16.99,8.01s-1.61-.42-1.61-1.27c0-.32,.13-.61,.39-.88,3.32-1.96,6.97-4.2,10.94-6.74,3.97-2.54,8.01-5.55,12.11-9.03,4.1-3.48,7.28-6.71,9.52-9.67,2.24-2.96,4.31-6.62,6.2-10.98,1.62-4.37,2.44-8.67,2.44-12.91,0-6.31-1.56-11.81-4.69-16.5-3.12-4.69-7.26-7.03-12.39-7.03-3.65,0-6.84,1.22-9.57,3.66-2.73,2.44-4.69,5.42-5.87,8.93,1.24-.52,2.38-.78,3.42-.78,2.73,0,5.07,1.01,7.02,3.03,1.95,2.02,2.93,4.4,2.93,7.13s-.94,5.21-2.83,7.43c-2.02,2.01-4.45,3.02-7.27,3.02s-5.41-1.01-7.76-3.02c-2.22-2.22-3.33-4.73-3.33-7.53,0-6.71,2.26-12.45,6.79-17.23,4.53-4.78,10.01-7.17,16.46-7.17"/><path d="M109.17,157.16v-2.14c-.06-1.1-.22-2.83-.48-5.17-3.25,.52-6.15,.78-8.69,.78-9.11,0-16.85-3.6-23.2-10.8-6.35-7.2-9.52-15.78-9.52-25.73,0-2.67,.52-5.87,1.56-9.62,1.04-3.74,2-6.25,2.88-7.52,.88-1.27,2.2-3.5,3.96-6.69,.52-.98,2.21-3.13,5.08-6.45,.52-.71,.98-1.29,1.37-1.75,.39-.46,1.02-1.27,1.9-2.44,.88-1.17,1.82-2.26,2.83-3.27,1.01-1.01,1.91-1.99,2.69-2.93,.78-.94,1.5-1.74,2.16-2.38-2.34-7.75-3.78-13.71-4.3-17.88-.52-4.17-.78-9.28-.78-15.34s1.3-11.56,3.91-16.51c2.53-5.13,6.08-9.33,10.64-12.59,.26-.2,.6-.3,1.02-.3s.73,.1,.93,.3c3.51,4.23,6.55,9.73,9.12,16.5,2.57,6.77,3.86,13.1,3.86,19s-1.49,11.58-4.48,17.05c-3.39,5.79-7.75,11.78-13.09,17.97,1.36,4.29,3.19,11.03,5.47,20.2h.59c.26-.06,.48-.09,.67-.09,7.36,0,13.37,2.59,18.02,7.76s6.98,11.15,6.98,17.92c0,8.4-3.48,15.17-10.44,20.31-2.02,1.5-4.4,2.67-7.14,3.51,.33,4.23,.5,7.04,.5,8.45s-.07,3.89-.2,7.48c-.06,6.12-2.15,11.35-6.25,15.72-4.1,4.36-8.79,6.55-14.06,6.55s-9.76-1.87-13.48-5.62c-3.71-3.74-5.57-8.28-5.57-13.62,0-2.8,1.08-5.18,3.23-7.14,2.21-1.95,4.7-2.92,7.46-2.92s5.03,1.01,6.79,3.03c1.82,1.89,2.73,4.16,2.73,6.83s-.91,4.91-2.73,6.74c-1.82,1.82-4.01,2.73-6.55,2.73-1.04,0-2.05-.19-3.02-.58,2.86,4.23,6.54,6.34,11.03,6.34s8.33-1.86,11.52-5.56c3.19-3.71,4.79-8.07,4.79-13.09l.28-7.03m3.12-12.3c3.39-1.24,6.07-3.44,8.06-6.59,1.99-3.16,2.98-6.3,2.98-9.42,0-4.62-1.6-8.76-4.79-12.41-3.19-3.65-7.23-5.7-12.12-6.16,2.8,13.74,4.76,25.27,5.86,34.58m-37.78-22.56c0,6.45,2.57,12.08,7.71,16.9,5.14,4.82,11.16,7.23,18.07,7.23,2.73,0,5.4-.2,8-.59-1.04-9.9-3.09-21.75-6.16-35.55-3.83,.4-6.81,1.72-8.93,3.96-2.12,2.24-3.18,4.8-3.18,7.66,0,4.95,2.64,8.95,7.92,12.02,.45,.26,.67,.7,.67,1.32s-.21,1.16-.63,1.61-.79,.68-1.12,.68-.74-.06-1.27-.19c-7.62-4.17-11.44-10.45-11.44-18.86,0-3.97,1.4-7.78,4.2-11.42,2.93-3.65,6.73-5.99,11.42-7.03-1.82-7.29-3.32-12.99-4.48-17.09-8.92,10.03-14.45,17.45-16.61,22.27-2.79,6.25-4.19,11.95-4.19,17.09M107.12,22.99c-4.89,2.41-8.74,5.89-11.57,10.45-2.83,4.56-4.24,9.34-4.24,14.35s1.17,11.49,3.52,19.44c4.69-5.67,8.23-10.97,10.64-15.92,2.41-4.95,3.61-9.85,3.61-14.7s-.65-9.39-1.95-13.62"/><path d="M280.63,378.08c1.44-.4,2.16-.04,2.16,1.06v7.81c0,.78-.62,1.4-1.86,1.86l-3.22,1.27v14.17l2.92-1.17c1.44-.4,2.16-.04,2.16,1.08v7.81c0,.78-.62,1.4-1.86,1.84l-3.22,1.28v16.2c0,1.24-.49,1.86-1.47,1.86s-1.47-.62-1.47-1.86v-15.03l-9.28,3.7v16.11c0,1.24-.49,1.86-1.46,1.86s-1.46-.62-1.46-1.86v-14.94l-2.55,1.08c-1.36,.58-2.05,.19-2.05-1.17v-7.72c0-.65,.59-1.23,1.77-1.75l2.83-1.17v-14.27l-2.55,1.08c-1.36,.58-2.05,.19-2.05-1.17v-7.72c0-.66,.59-1.24,1.77-1.77l2.83-1.17v-16.11c0-1.24,.49-1.86,1.46-1.86s1.46,.62,1.46,1.86v14.94l9.28-3.8v-15.92c0-1.24,.49-1.86,1.47-1.86s1.47,.62,1.47,1.86v14.75l2.92-1.17m-15.14,16.89v14.27l9.28-3.81v-14.17l-9.28,3.72"/><path d="M255.62,340.58c1.44-.4,2.16-.04,2.16,1.06v7.81c0,.78-.62,1.4-1.86,1.86l-3.22,1.27v14.17l2.92-1.17c1.44-.4,2.16-.04,2.16,1.08v7.81c0,.78-.62,1.4-1.86,1.84l-3.22,1.28v16.2c0,1.24-.49,1.86-1.47,1.86s-1.47-.62-1.47-1.86v-15.03l-9.28,3.7v16.11c0,1.24-.49,1.86-1.46,1.86s-1.46-.62-1.46-1.86v-14.94l-2.55,1.08c-1.36,.58-2.05,.19-2.05-1.17v-7.72c0-.65,.59-1.23,1.77-1.75l2.83-1.17v-14.27l-2.55,1.08c-1.36,.58-2.05,.19-2.05-1.17v-7.72c0-.66,.59-1.24,1.77-1.77l2.83-1.17v-16.11c0-1.24,.49-1.86,1.46-1.86s1.46,.62,1.46,1.86v14.94l9.28-3.8v-15.92c0-1.24,.49-1.86,1.47-1.86s1.47,.62,1.47,1.86v14.75l2.92-1.17m-15.14,16.89v14.27l9.28-3.81v-14.17l-9.28,3.72"/><path d="M230.62,303.08c1.44-.4,2.16-.04,2.16,1.06v7.81c0,.78-.62,1.4-1.86,1.86l-3.22,1.27v14.17l2.92-1.17c1.44-.4,2.16-.04,2.16,1.08v7.81c0,.78-.62,1.4-1.86,1.84l-3.22,1.28v16.2c0,1.24-.49,1.86-1.47,1.86s-1.47-.62-1.47-1.86v-15.03l-9.28,3.7v16.11c0,1.24-.49,1.86-1.46,1.86s-1.46-.62-1.46-1.86v-14.94l-2.55,1.08c-1.36,.58-2.05,.19-2.05-1.17v-7.72c0-.65,.59-1.23,1.77-1.75l2.83-1.17v-14.27l-2.55,1.08c-1.36,.58-2.05,.19-2.05-1.17v-7.72c0-.66,.59-1.24,1.77-1.77l2.83-1.17v-16.11c0-1.24,.49-1.86,1.46-1.86s1.46,.62,1.46,1.86v14.94l9.28-3.8v-15.92c0-1.24,.49-1.86,1.47-1.86s1.47,.62,1.47,1.86v14.75l2.92-1.17m-15.14,16.89v14.27l9.28-3.81v-14.17l-9.28,3.72"/><path d="M205.62,353.08c1.44-.4,2.16-.04,2.16,1.06v7.81c0,.78-.62,1.4-1.86,1.86l-3.22,1.27v14.17l2.92-1.17c1.44-.4,2.16-.04,2.16,1.08v7.81c0,.78-.62,1.4-1.86,1.84l-3.22,1.28v16.2c0,1.24-.49,1.86-1.47,1.86s-1.47-.62-1.47-1.86v-15.03l-9.28,3.7v16.11c0,1.24-.49,1.86-1.46,1.86s-1.46-.62-1.46-1.86v-14.94l-2.55,1.08c-1.36,.58-2.05,.19-2.05-1.17v-7.72c0-.65,.59-1.23,1.77-1.75l2.83-1.17v-14.27l-2.55,1.08c-1.36,.58-2.05,.19-2.05-1.17v-7.72c0-.66,.59-1.24,1.77-1.77l2.83-1.17v-16.11c0-1.24,.49-1.86,1.46-1.86s1.46,.62,1.46,1.86v14.94l9.28-3.8v-15.92c0-1.24,.49-1.86,1.47-1.86s1.47,.62,1.47,1.86v14.75l2.92-1.17m-15.14,16.89v14.27l9.28-3.81v-14.17l-9.28,3.72"/><path d="M180.62,315.58c1.44-.4,2.16-.04,2.16,1.06v7.81c0,.78-.62,1.4-1.86,1.86l-3.22,1.27v14.17l2.92-1.17c1.44-.4,2.16-.04,2.16,1.08v7.81c0,.78-.62,1.4-1.86,1.84l-3.22,1.28v16.2c0,1.24-.49,1.86-1.47,1.86s-1.47-.62-1.47-1.86v-15.03l-9.28,3.7v16.11c0,1.24-.49,1.86-1.46,1.86s-1.46-.62-1.46-1.86v-14.94l-2.55,1.08c-1.36,.58-2.05,.19-2.05-1.17v-7.72c0-.65,.59-1.23,1.77-1.75l2.83-1.17v-14.27l-2.55,1.08c-1.36,.58-2.05,.19-2.05-1.17v-7.72c0-.66,.59-1.25,1.77-1.77l2.83-1.17v-16.11c0-1.24,.49-1.86,1.46-1.86s1.46,.62,1.46,1.86v14.94l9.28-3.8v-15.92c0-1.24,.49-1.86,1.47-1.86s1.47,.62,1.47,1.86v14.75l2.92-1.17m-15.14,16.89v14.27l9.28-3.81v-14.17l-9.28,3.72"/><path d="M280.63,90.57c1.44-.4,2.16-.04,2.16,1.06v7.81c0,.78-.62,1.4-1.86,1.86l-3.22,1.27v14.17l2.92-1.17c1.44-.4,2.16-.04,2.16,1.08v7.81c0,.78-.62,1.4-1.86,1.84l-3.22,1.28v16.2c0,1.24-.49,1.86-1.47,1.86s-1.47-.62-1.47-1.86v-15.03l-9.28,3.7v16.11c0,1.24-.49,1.86-1.46,1.86s-1.46-.62-1.46-1.86v-14.94l-2.55,1.08c-1.36,.58-2.05,.19-2.05-1.17v-7.72c0-.65,.59-1.23,1.77-1.75l2.83-1.17v-14.27l-2.55,1.08c-1.36,.58-2.05,.19-2.05-1.17v-7.72c0-.66,.59-1.24,1.77-1.77l2.83-1.17v-16.11c0-1.24,.49-1.86,1.46-1.86s1.46,.62,1.46,1.86v14.94l9.28-3.8v-15.92c0-1.24,.49-1.86,1.47-1.86s1.47,.62,1.47,1.86v14.75l2.92-1.17m-15.14,16.89v14.27l9.28-3.81v-14.17l-9.28,3.72"/><path d="M255.62,53.06c1.44-.4,2.16-.04,2.16,1.06v7.81c0,.78-.62,1.4-1.86,1.86l-3.22,1.27v14.17l2.92-1.17c1.44-.4,2.16-.04,2.16,1.08v7.81c0,.78-.62,1.4-1.86,1.84l-3.22,1.28v16.2c0,1.24-.49,1.86-1.47,1.86s-1.47-.62-1.47-1.86v-15.03l-9.28,3.7v16.11c0,1.24-.49,1.86-1.46,1.86s-1.46-.62-1.46-1.86v-14.94l-2.55,1.08c-1.36,.58-2.05,.19-2.05-1.17v-7.72c0-.65,.59-1.23,1.77-1.75l2.83-1.17v-14.27l-2.55,1.08c-1.36,.58-2.05,.19-2.05-1.17v-7.72c0-.66,.59-1.24,1.77-1.77l2.83-1.17v-16.11c0-1.24,.49-1.86,1.46-1.86s1.46,.62,1.46,1.86v14.94l9.28-3.8v-15.92c0-1.24,.49-1.86,1.47-1.86s1.47,.62,1.47,1.86v14.75l2.92-1.17m-15.14,16.89v14.27l9.28-3.81v-14.17l-9.28,3.72"/><path d="M230.62,15.56c1.44-.4,2.16-.04,2.16,1.06v7.81c0,.78-.62,1.4-1.86,1.86l-3.22,1.27v14.17l2.92-1.17c1.44-.4,2.16-.04,2.16,1.08v7.81c0,.78-.62,1.4-1.86,1.84l-3.22,1.28v16.2c0,1.24-.49,1.86-1.47,1.86s-1.47-.62-1.47-1.86v-15.03l-9.28,3.7v16.11c0,1.24-.49,1.86-1.46,1.86s-1.46-.62-1.46-1.86v-14.94l-2.55,1.08c-1.36,.58-2.05,.19-2.05-1.17v-7.72c0-.65,.59-1.23,1.77-1.75l2.83-1.17v-14.27l-2.55,1.08c-1.36,.58-2.05,.19-2.05-1.17v-7.72c0-.66,.59-1.24,1.77-1.77l2.83-1.17V6.76c0-1.24,.49-1.86,1.46-1.86s1.46,.62,1.46,1.86v14.94l9.28-3.8V1.98c0-1.24,.49-1.86,1.47-1.86s1.47,.62,1.47,1.86v14.75l2.92-1.17m-15.14,16.89v14.27l9.28-3.81v-14.17l-9.28,3.72"/><path d="M205.62,65.57c1.44-.4,2.16-.04,2.16,1.06v7.81c0,.78-.62,1.4-1.86,1.86l-3.22,1.27v14.17l2.92-1.17c1.44-.4,2.16-.04,2.16,1.08v7.81c0,.78-.62,1.39-1.86,1.84l-3.22,1.28v16.2c0,1.24-.49,1.86-1.47,1.86s-1.47-.62-1.47-1.86v-15.03l-9.28,3.7v16.11c0,1.24-.49,1.86-1.46,1.86s-1.46-.62-1.46-1.86v-14.94l-2.55,1.08c-1.36,.58-2.05,.19-2.05-1.17v-7.72c0-.65,.59-1.23,1.77-1.75l2.83-1.17v-14.27l-2.55,1.08c-1.36,.58-2.05,.19-2.05-1.17v-7.72c0-.66,.59-1.24,1.77-1.77l2.83-1.17v-16.11c0-1.24,.49-1.86,1.46-1.86s1.46,.62,1.46,1.86v14.94l9.28-3.8v-15.92c0-1.24,.49-1.86,1.47-1.86s1.47,.62,1.47,1.86v14.75l2.92-1.17m-15.14,16.89v14.27l9.28-3.81v-14.17l-9.28,3.72"/><path d="M180.62,28.06c1.44-.4,2.16-.04,2.16,1.06v7.81c0,.78-.62,1.4-1.86,1.86l-3.22,1.27v14.17l2.92-1.17c1.44-.4,2.16-.04,2.16,1.08v7.81c0,.78-.62,1.4-1.86,1.84l-3.22,1.28v16.2c0,1.24-.49,1.86-1.47,1.86s-1.47-.62-1.47-1.86v-15.03l-9.28,3.7v16.11c0,1.24-.49,1.86-1.46,1.86s-1.46-.62-1.46-1.86v-14.94l-2.55,1.08c-1.36,.58-2.05,.19-2.05-1.17v-7.72c0-.65,.59-1.23,1.77-1.75l2.83-1.17v-14.27l-2.55,1.08c-1.36,.58-2.05,.19-2.05-1.17v-7.72c0-.66,.59-1.24,1.77-1.77l2.83-1.17V19.27c0-1.24,.49-1.86,1.46-1.86s1.46,.62,1.46,1.86v14.94l9.28-3.8V14.48c0-1.24,.49-1.86,1.47-1.86s1.47,.62,1.47,1.86v14.75l2.92-1.17m-15.14,16.89v14.27l9.28-3.81v-14.17l-9.28,3.72"/><path d="M330.84,313.73c1.49,0,2.93-.23,4.3-.68,1.37-.45,2.35-.68,2.93-.68s.97,.35,1.17,1.06c0,.07-.07,.27-.2,.59l-28.41,33.02h16.69v-13.09c0-1.62,.95-2.8,2.84-3.52,1.95-.72,4.16-3.61,6.64-8.69,.19-.4,.48-.59,.88-.59,.78,0,1.23,.46,1.36,1.38v24.52h7.14c.91,0,1.39,.49,1.46,1.46,.07,.97-.42,1.46-1.46,1.46h-7.14v.78c0,2.6,.65,4.82,1.95,6.64,1.5,1.82,3.26,2.73,5.28,2.73,.78,0,1.17,.39,1.17,1.17s-.54,1.17-1.61,1.17-3.08-.21-6.01-.63c-2.93-.42-5.2-.63-6.79-.63s-3.81,.21-6.64,.63c-2.83,.42-4.96,.63-6.39,.63-.78,0-1.17-.39-1.17-1.17s.39-1.17,1.17-1.17c2.01,0,3.77-.91,5.27-2.73,1.36-1.89,2.05-4.1,2.05-6.64v-.78h-16.69c-.85,0-1.59-.23-2.21-.68-.62-.45-.93-.88-.93-1.27s.82-1.56,2.45-3.51c1.63-1.95,3.96-5.71,6.98-11.28,3.03-5.57,4.54-11.97,4.54-19.2,0-1.04,.46-1.56,1.38-1.56,.2,0,.51,.07,.93,.2,.42,.13,1.33,.34,2.73,.63,1.4,.29,2.85,.44,4.34,.44"/><path d="M330.84,363.9c1.49,0,2.93-.23,4.3-.68,1.37-.45,2.35-.68,2.93-.68s.97,.35,1.17,1.06c0,.07-.07,.27-.2,.59l-28.41,33.02h16.69v-13.09c0-1.62,.95-2.8,2.84-3.52,1.95-.72,4.16-3.61,6.64-8.69,.19-.4,.48-.59,.88-.59,.78,0,1.23,.46,1.36,1.38v24.52h7.14c.91,0,1.39,.49,1.46,1.46s-.42,1.46-1.46,1.46h-7.14v.78c0,2.6,.65,4.82,1.95,6.64,1.5,1.82,3.26,2.74,5.28,2.74,.78,0,1.17,.39,1.17,1.17s-.54,1.17-1.61,1.17-3.08-.21-6.01-.63c-2.93-.42-5.2-.63-6.79-.63s-3.81,.21-6.64,.63c-2.83,.42-4.96,.63-6.39,.63-.78,0-1.17-.39-1.17-1.17s.39-1.17,1.17-1.17c2.01,0,3.77-.91,5.27-2.74,1.36-1.88,2.05-4.1,2.05-6.64v-.78h-16.69c-.85,0-1.59-.23-2.21-.68s-.93-.88-.93-1.27,.82-1.56,2.45-3.52c1.63-1.95,3.96-5.71,6.98-11.28,3.03-5.57,4.54-11.97,4.54-19.19,0-1.04,.46-1.56,1.38-1.56,.2,0,.51,.07,.93,.2s1.33,.34,2.73,.63c1.4,.29,2.85,.44,4.34,.44"/><path d="M330.84,51.21c1.49,0,2.93-.23,4.3-.68s2.35-.68,2.93-.68,.97,.35,1.17,1.06c0,.07-.07,.27-.2,.59l-28.41,33.02h16.69v-13.09c0-1.62,.95-2.8,2.84-3.52,1.95-.72,4.16-3.61,6.64-8.69,.19-.4,.48-.59,.88-.59,.78,0,1.23,.46,1.36,1.38v24.52h7.14c.91,0,1.39,.49,1.46,1.46s-.42,1.46-1.46,1.46h-7.14v.78c0,2.6,.65,4.82,1.95,6.64,1.5,1.82,3.26,2.73,5.28,2.73,.78,0,1.17,.39,1.17,1.17s-.54,1.17-1.61,1.17-3.08-.21-6.01-.63c-2.93-.42-5.2-.63-6.79-.63s-3.81,.21-6.64,.63c-2.83,.42-4.96,.63-6.39,.63-.78,0-1.17-.39-1.17-1.17s.39-1.17,1.17-1.17c2.01,0,3.77-.91,5.27-2.73,1.36-1.89,2.05-4.1,2.05-6.64v-.78h-16.69c-.85,0-1.59-.23-2.21-.68s-.93-.88-.93-1.27,.82-1.56,2.45-3.52,3.96-5.71,6.98-11.28c3.03-5.57,4.54-11.97,4.54-19.2,0-1.04,.46-1.56,1.38-1.56,.2,0,.51,.07,.93,.2s1.33,.34,2.73,.63,2.85,.44,4.34,.44"/><path d="M330.84,101.39c1.49,0,2.93-.23,4.3-.68,1.37-.45,2.35-.68,2.93-.68s.97,.35,1.17,1.06c0,.07-.07,.27-.2,.59l-28.41,33.02h16.69v-13.09c0-1.62,.95-2.8,2.84-3.51,1.95-.72,4.16-3.62,6.64-8.69,.19-.4,.48-.59,.88-.59,.78,0,1.23,.46,1.36,1.38v24.52h7.14c.91,0,1.39,.49,1.46,1.46s-.42,1.46-1.46,1.46h-7.14v.78c0,2.6,.65,4.82,1.95,6.64,1.5,1.82,3.26,2.73,5.28,2.73,.78,0,1.17,.39,1.17,1.17s-.54,1.17-1.61,1.17-3.08-.21-6.01-.63c-2.93-.42-5.2-.63-6.79-.63s-3.81,.21-6.64,.63c-2.83,.42-4.96,.63-6.39,.63-.78,0-1.17-.39-1.17-1.17s.39-1.17,1.17-1.17c2.01,0,3.77-.91,5.27-2.73,1.36-1.89,2.05-4.1,2.05-6.64v-.78h-16.69c-.85,0-1.59-.23-2.21-.68s-.93-.88-.93-1.26,.82-1.56,2.45-3.52c1.63-1.95,3.96-5.71,6.98-11.28,3.03-5.57,4.54-11.97,4.54-19.2,0-1.04,.46-1.56,1.38-1.56,.2,0,.51,.06,.93,.19s1.33,.34,2.73,.63c1.4,.29,2.85,.44,4.34,.44"/><path d="M1462.16,92.41c-4.17,1.5-7.55,2.25-10.15,2.25s-4.78-.73-6.5-2.2c-1.73-1.46-2.6-3.29-2.6-5.47s.72-3.97,2.15-5.38c1.43-1.4,3.13-2.1,5.08-2.1s3.42,.56,4.4,1.66c.98,1.11,1.51,2.17,1.61,3.18,.1,1.01,.41,2.13,.93,3.36,.59,1.04,1.28,1.56,2.1,1.56s1.9-.76,3.27-2.29,2.28-2.73,2.74-3.61c.45-.88,1-1.3,1.65-1.27,.65,.03,1.11,.34,1.37,.92l-12.3,42c-.65,.66-1.57,.98-2.74,.98s-2.08-.33-2.73-.98l11.72-32.62"/><path d="M2537.48,92.41c-4.17,1.5-7.55,2.25-10.16,2.25s-4.77-.73-6.5-2.2c-1.73-1.46-2.59-3.29-2.59-5.47s.72-3.97,2.15-5.38c1.43-1.4,3.12-2.1,5.08-2.1s3.42,.56,4.39,1.66c.98,1.11,1.52,2.17,1.62,3.18,.1,1.01,.41,2.13,.93,3.36,.58,1.04,1.28,1.56,2.1,1.56s1.9-.76,3.27-2.29,2.28-2.73,2.73-3.61c.46-.88,1.01-1.3,1.66-1.27,.65,.03,1.11,.34,1.37,.92l-12.3,42c-.66,.66-1.57,.98-2.74,.98s-2.08-.33-2.73-.98l11.72-32.62"/><path d="M4112.55,92.41c-4.17,1.5-7.56,2.25-10.16,2.25s-4.77-.73-6.5-2.2c-1.73-1.46-2.59-3.29-2.59-5.47s.71-3.97,2.14-5.38c1.44-1.4,3.13-2.1,5.08-2.1s3.42,.56,4.4,1.66c.98,1.11,1.52,2.17,1.62,3.18,.1,1.01,.41,2.13,.93,3.36,.58,1.04,1.28,1.56,2.09,1.56s1.91-.76,3.28-2.29c1.36-1.53,2.28-2.73,2.73-3.61,.45-.88,1-1.3,1.66-1.27,.65,.03,1.1,.34,1.36,.92l-12.29,42c-.66,.66-1.57,.98-2.75,.98s-2.08-.33-2.72-.98l11.72-32.62"/><path d="M5158.56,92.41c-4.17,1.5-7.55,2.25-10.16,2.25s-4.77-.73-6.5-2.2c-1.73-1.46-2.59-3.29-2.59-5.47s.71-3.97,2.15-5.38c1.43-1.4,3.12-2.1,5.08-2.1s3.41,.56,4.39,1.66c.98,1.11,1.52,2.17,1.62,3.18,.1,1.01,.41,2.13,.93,3.36,.58,1.04,1.28,1.56,2.09,1.56s1.91-.76,3.28-2.29,2.28-2.73,2.73-3.61c.46-.88,1.01-1.3,1.66-1.27,.65,.03,1.11,.34,1.37,.92l-12.3,42c-.66,.66-1.57,.98-2.74,.98s-2.08-.33-2.73-.98l11.72-32.62"/><path d="M6306.58,92.41c-4.17,1.5-7.55,2.25-10.16,2.25s-4.77-.73-6.5-2.2c-1.72-1.46-2.59-3.29-2.59-5.47s.72-3.97,2.15-5.38,3.12-2.1,5.08-2.1,3.42,.56,4.4,1.66c.98,1.11,1.51,2.17,1.61,3.18,.1,1.01,.41,2.13,.93,3.36,.59,1.04,1.28,1.56,2.1,1.56s1.9-.76,3.27-2.29,2.28-2.73,2.73-3.61c.46-.88,1.01-1.3,1.66-1.27,.65,.03,1.11,.34,1.37,.92l-12.3,42c-.66,.66-1.57,.98-2.74,.98s-2.08-.33-2.73-.98l11.72-32.62"/><path d="M407.59,94.75c-.66-.84-.98-1.76-.98-2.73,0-1.75,2.09-4.19,6.27-7.31,4.09-3.2,6.14-6.84,6.14-10.94,0-2.42-.84-4.63-2.53-6.64l-3.52-4.2c-.26-.26-.39-.59-.39-.98s.19-.75,.58-1.07c.46-.33,.88-.5,1.27-.5s.72,.2,.98,.59l15.14,17.97c.65,.84,.97,1.77,.97,2.78s-.54,2.1-1.61,3.27c-1.07,1.17-2.58,2.54-4.53,4.1-1.5,.91-2.92,2.34-4.25,4.29-1.33,1.95-2,4.17-2,6.65s.78,4.66,2.34,6.55l8.39,9.86c.2,.2,.33,.52,.39,.98,.06,.45-.1,.84-.49,1.17-.39,.33-.7,.49-.92,.49s-.81-.38-1.76-1.12-2.28-1.48-4.01-2.2c-1.72-.71-3.43-1.07-5.12-1.07s-3.03,.45-4,1.37c-.97,.91-1.46,3.01-1.46,6.3s.94,6.07,2.83,8.35c.2,.26,.23,.55,.1,.88s-.39,.49-.78,.49-1.39-1.2-2.98-3.61c-1.6-2.41-3.13-5.26-4.59-8.55-1.46-3.29-2.2-6.04-2.2-8.25,0-2.8,1.43-4.2,4.3-4.2s6.74,1.04,11.62,3.12l-13.19-15.83"/><path class="cls-6" d="M1560.37,25.31L1825.89,0V12.56l-265.52,25.31v-12.56"/><path class="cls-6" d="M1560.37,44.06l265.52-25.31v12.56l-265.52,25.31v-12.56"/><path class="cls-6" d="M1865.04,162.54h171.68v12.5h-171.68v-12.5"/><path class="cls-6" d="M1865.04,143.79h33v12.5h-33v-12.5"/><path class="cls-6" d="M2036.72,143.79h-33v12.5h33v-12.5"/><path class="cls-6" d="M2088.16,143.69l145.43,25.57v12.69l-145.43-25.57v-12.69"/><path class="cls-6" d="M2175.65,140.33l57.94,10.19v12.69l-57.94-10.19v-12.69"/><path class="cls-6" d="M2758.93,162.48l183.03,25.45v12.62l-183.03-25.45v-12.62"/><path class="cls-6" d="M2758.93,143.73l33,4.59v12.62l-33-4.59v-12.62"/><path class="cls-6" d="M2941.96,169.18l-33-4.59v12.62l33,4.59v-12.62"/><path class="cls-6" d="M3001.89,168.78l161.68-6.38v12.51l-161.68,6.38v-12.51"/><path class="cls-6" d="M3100.39,146.15l63.18-2.49v12.51l-63.18,2.49v-12.51"/><path class="cls-6" d="M3576.72,162.53l132.43,6.41v12.51l-132.43-6.41v-12.51"/><path class="cls-6" d="M3656.21,147.63l52.94,2.56v12.52l-52.94-2.56v-12.52"/><path class="cls-6" d="M3807.63,18.78h102.62v12.5h-102.62v-12.5"/><path class="cls-6" d="M3807.63,37.53h52.93v12.5h-52.93v-12.5"/><path class="cls-6" d="M4219.08,25.3L4495,0V12.55l-275.92,25.3v-12.55"/><path class="cls-6" d="M4219.08,44.05l275.92-25.3v12.55l-275.92,25.3v-12.55"/><path class="cls-6" d="M4534.15,162.54h194.83v12.5h-194.83v-12.5"/><path class="cls-6" d="M4534.15,143.79h33.01v12.5h-33.01v-12.5"/><path class="cls-6" d="M4728.98,143.79h-33v12.5h33v-12.5"/><path class="cls-6" d="M5271.08,25.29L5554.49,0V12.55l-283.41,25.29v-12.55"/><path class="cls-6" d="M5271.08,44.05l283.41-25.29v12.55l-283.41,25.29v-12.55"/><path class="cls-6" d="M5593.64,162.54h194.14v12.5h-194.14v-12.5"/><path class="cls-6" d="M5593.64,143.79h33v12.5h-33v-12.5"/><path class="cls-6" d="M5787.78,143.79h-33v12.5h33v-12.5"/><path class="cls-6" d="M5848.16,143.72l168.69,25.49v12.64l-168.69-25.49v-12.64"/><path class="cls-6" d="M5949.97,140.35l66.88,10.11v12.64l-66.88-10.11v-12.64"/><path class="cls-6" d="M6513.07,162.47l169.93,25.49v12.64l-169.93-25.49v-12.64"/><path class="cls-6" d="M6513.07,143.72l33,4.95v12.64l-33-4.95v-12.64"/><path class="cls-6" d="M6683,169.21l-33-4.95v12.64l33,4.95v-12.64"/><path class="cls-6" d="M6742.94,168.78l155.46-6.38v12.51l-155.46,6.38v-12.51"/><path class="cls-6" d="M6841.43,145.99l56.97-2.34v12.51l-56.97,2.34v-12.51"/><path class="cls-6" d="M7306.8,162.41l124.08-25.67v12.77l-124.08,25.67v-12.77"/><path class="cls-6" d="M7381.15,128.27l49.73-10.29v12.77l-49.73,10.29v-12.77"/><path class="cls-6" d="M7474.1,143.79h96.2v12.5h-96.2v-12.5"/><path class="cls-6" d="M7474.1,125.04h49.73v12.5h-49.73v-12.5"/><path class="cls-6" d="M634.69,18.78h198.26v12.5h-198.26v-12.5"/><path class="cls-6" d="M733.61,37.53h99.34v12.5h-99.34v-12.5"/><path class="cls-6" d="M872.1,162.54h188.71v12.5h-188.71v-12.5"/><path class="cls-6" d="M872.1,143.79h33v12.5h-33v-12.5"/><path class="cls-6" d="M1060.81,143.79h-33v12.5h33v-12.5"/><path d="M1378.46,90.18c1.5,0,3.08,2.42,4.75,7.27,1.66,4.85,2.49,9.29,2.49,13.33s-.93,7.94-2.78,11.72c-1.86,3.78-4.09,7.1-6.69,9.96l-8.02,8.99c-2.46,2.86-4.64,6.15-6.53,9.86-1.9,3.71-2.84,7.45-2.84,11.23h-3.13v-25h3.13c10.94-6.91,17.81-13.03,20.61-18.36,1.36-2.6,2.05-5.24,2.05-7.91,0-6.19-1.8-12.34-5.38-18.47v-.39c0-.58,.23-1.1,.69-1.55,.46-.45,1.01-.68,1.65-.68"/><path d="M2637.16,65.18c1.5,0,3.08,2.42,4.74,7.27,1.67,4.85,2.5,9.29,2.5,13.33s-.93,7.94-2.79,11.72c-1.85,3.78-4.08,7.1-6.68,9.96l-8.02,8.98c-2.47,2.86-4.65,6.15-6.54,9.86-1.89,3.71-2.83,7.45-2.83,11.23h-3.13v-25h3.13c10.93-6.91,17.8-13.03,20.61-18.36,1.36-2.6,2.04-5.24,2.04-7.91,0-6.19-1.79-12.34-5.37-18.47v-.39c0-.58,.23-1.1,.69-1.55,.45-.45,1.01-.68,1.65-.68"/><path d="M3519.98,90.18c1.5,0,3.08,2.42,4.74,7.27,1.66,4.85,2.49,9.29,2.49,13.33s-.92,7.94-2.78,11.72c-1.85,3.78-4.08,7.1-6.69,9.96l-8.01,8.99c-2.47,2.86-4.65,6.15-6.54,9.86-1.89,3.71-2.84,7.45-2.84,11.23h-3.12v-25h3.12c10.94-6.91,17.81-13.03,20.61-18.36,1.37-2.6,2.05-5.24,2.05-7.91,0-6.19-1.79-12.34-5.37-18.47v-.39c0-.58,.22-1.1,.68-1.55,.46-.45,1.01-.68,1.66-.68"/><path d="M4020.52,115.18c1.5,0,3.09,2.42,4.75,7.27,1.66,4.85,2.49,9.29,2.49,13.33s-.93,7.94-2.78,11.72c-1.86,3.78-4.09,7.1-6.69,9.96l-8.02,8.98c-2.46,2.87-4.64,6.15-6.53,9.86-1.89,3.71-2.84,7.45-2.84,11.23h-3.13v-25h3.13c10.94-6.91,17.81-13.03,20.61-18.36,1.36-2.61,2.05-5.24,2.05-7.91,0-6.19-1.8-12.34-5.38-18.47v-.39c0-.58,.23-1.1,.69-1.56s1.01-.68,1.65-.68"/><path d="M5042.36,90.18c1.5,0,3.08,2.42,4.74,7.27s2.49,9.29,2.49,13.33-.93,7.94-2.78,11.72c-1.86,3.78-4.08,7.1-6.69,9.96l-8.01,8.99c-2.47,2.86-4.65,6.15-6.54,9.86-1.89,3.71-2.84,7.45-2.84,11.23h-3.12v-25h3.12c10.94-6.91,17.81-13.03,20.61-18.36,1.36-2.6,2.05-5.24,2.05-7.91,0-6.19-1.79-12.34-5.38-18.47v-.39c0-.58,.23-1.1,.69-1.55,.46-.45,1.01-.68,1.66-.68"/><path d="M6396.33,65.18c1.5,0,3.08,2.42,4.74,7.27,1.66,4.85,2.49,9.29,2.49,13.33s-.92,7.94-2.78,11.72c-1.85,3.78-4.08,7.1-6.69,9.96l-8.01,8.98c-2.47,2.86-4.65,6.15-6.54,9.86-1.89,3.71-2.84,7.45-2.84,11.23h-3.12v-25h3.12c10.94-6.91,17.81-13.03,20.61-18.36,1.37-2.6,2.05-5.24,2.05-7.91,0-6.19-1.79-12.34-5.38-18.47v-.39c0-.58,.23-1.1,.69-1.55s1.01-.68,1.66-.68"/><path d="M7255.19,90.18c1.5,0,3.08,2.42,4.74,7.27,1.66,4.85,2.49,9.29,2.49,13.33s-.93,7.94-2.78,11.72-4.08,7.1-6.69,9.96l-8.01,8.99c-2.47,2.86-4.65,6.15-6.54,9.86-1.89,3.71-2.84,7.45-2.84,11.23h-3.12v-25h3.12c10.94-6.91,17.81-13.03,20.61-18.36,1.37-2.6,2.05-5.24,2.05-7.91,0-6.19-1.79-12.34-5.38-18.47v-.39c0-.58,.23-1.1,.69-1.55,.46-.45,1.01-.68,1.66-.68"/><path d="M3302.08,66.54c-1.11-1.11-1.66-2.45-1.66-4.01s.55-2.9,1.66-4.01c1.11-1.11,2.45-1.66,4.01-1.66s2.9,.56,4,1.66c1.1,1.11,1.66,2.45,1.66,4.01s-.56,2.9-1.66,4.01c-1.1,1.11-2.44,1.66-4,1.66s-2.9-.55-4.01-1.66"/><path d="M7034.9,66.54c-1.11-1.11-1.66-2.45-1.66-4.01s.55-2.9,1.66-4.01c1.11-1.11,2.45-1.66,4.01-1.66s2.9,.56,4,1.66c1.1,1.11,1.66,2.45,1.66,4.01s-.56,2.9-1.66,4.01c-1.1,1.11-2.44,1.66-4,1.66s-2.9-.55-4.01-1.66"/><path class="cls-6" d="M31.55,179.01c0-29.21-20.11-57.6-20.11-85.58,0-14.09,5.49-27.78,22.4-40.03,.23-.15,.34-.41,.34-.56,0-.46-1.26-.87-2.17-.87-.46,0-1.26,.05-1.83,.41C8.23,68.11,.92,86.28,.92,104.67c0,29.61,21.49,58.21,21.49,86.6,0,14.09-5.49,27.37-22.4,39.62v.82c16.92,12.25,22.4,25.53,22.4,39.62,0,28.39-21.49,56.98-21.49,86.6,0,18.38,7.31,36.56,29.26,52.28,.57,.36,1.37,.41,1.83,.41,.92,0,2.17-.41,2.17-.87,0-.15-.11-.41-.34-.56-16.92-12.25-22.4-25.94-22.4-40.03,0-27.98,20.11-56.37,20.11-85.58,0-18.59-7.32-36.35-28.8-52.28,21.49-15.93,28.8-33.7,28.8-52.29"/></svg>